<!DOCTYPE svg PUBLIC "-//W3C//DTD SVG 20010904//EN" "http://www.w3.org/TR/2001/REC-SVG-20010904/DTD/svg10.dtd">
<svg version="1.0" xmlns="http://www.w3.org/2000/svg" width="512px" height="512px" viewBox="0 0 5120 5120" preserveAspectRatio="xMidYMid meet">
<g id="layer101" fill="#000000" stroke="none">
 <path d="M0 2560 l0 -2560 2560 0 2560 0 0 2560 0 2560 -2560 0 -2560 0 0 -2560z"/>
 </g>
<g id="layer102" fill="#fefefe" stroke="none">
 <path d="M240 3797 l0 -114 93 -17 c50 -10 116 -22 145 -27 l52 -10 0 -1035 0 -1034 -23 -5 c-12 -2 -67 -12 -122 -20 -55 -9 -110 -18 -122 -21 -22 -4 -23 -8 -23 -120 l0 -115 593 4 c643 4 683 7 834 63 143 54 320 168 406 263 164 181 278 415 323 663 22 119 26 505 6 618 -72 405 -268 709 -570 879 -92 53 -154 76 -282 108 l-105 27 -602 3 -603 4 0 -114z m1220 -190 c199 -53 372 -203 479 -415 46 -91 88 -223 107 -337 23 -134 23 -396 1 -527 -57 -330 -214 -575 -442 -688 -132 -65 -167 -71 -457 -77 l-258 -5 0 1037 0 1037 258 -5 c179 -3 274 -9 312 -20z"/>
 <path d="M3290 3796 l0 -113 93 -17 c50 -10 116 -22 145 -27 l52 -10 0 -1040 0 -1039 -299 0 -298 0 -6 48 c-13 95 -37 258 -43 285 l-6 27 -129 0 -129 0 0 -315 0 -315 1090 0 1090 0 0 315 0 315 -133 0 -133 0 -24 -177 -25 -178 -297 -3 -298 -2 0 1039 0 1040 53 10 c28 6 94 18 145 27 l92 17 0 113 0 114 -470 0 -470 0 0 -114z"/>
 </g>

</svg>