<?xml version="1.0" encoding="utf-8"?>
<!-- Generator: Adobe Illustrator 24.0.0, SVG Export Plug-In . SVG Version: 6.00 Build 0)  -->
<svg version="1.1" xmlns="http://www.w3.org/2000/svg" xmlns:xlink="http://www.w3.org/1999/xlink" x="0px" y="0px"
	 viewBox="0 0 2560 1440" style="enable-background:new 0 0 2560 1440;" xml:space="preserve">
<style type="text/css">
	.st0{display:none;}
	.st1{display:inline;}
	.st2{clip-path:url(#SVGID_2_);}
	.st3{fill:#F6F6F6;}
	.st4{fill:#1D1D1B;}
	.st5{fill:#ECE2E9;}
	.st6{fill:none;}
	.st7{fill:#B61918;}
	.st8{fill:#801814;}
	.st9{fill:#3C1B16;}
	.st10{fill:#F2E8EF;}
	.st11{fill:#E30A1C;}
	.st12{fill:#FFFFFF;}
	.st13{fill:#D6C6D4;}
	.st14{fill:#F3E9F0;}
	.st15{fill:#13100D;}
	.st16{clip-path:url(#SVGID_4_);}
</style>
<g id="GRID_x5F_Margine80px" class="st0">
</g>
<g id="Layer_1">
	<g id="Layer_5">
	</g>
	<g>
		<defs>
			<rect id="SVGID_1_" y="0" width="2560" height="1440"/>
		</defs>
		<clipPath id="SVGID_2_">
			<use xlink:href="#SVGID_1_"  style="overflow:visible;"/>
		</clipPath>
		<g class="st2">
			<g>
				<path class="st3" d="M1034.39,320.04c75.59,0,136.87-61.28,136.87-136.87s-61.28-136.87-136.87-136.87
					c-75.59,0-136.87,61.28-136.87,136.87S958.8,320.04,1034.39,320.04z"/>
				<path class="st3" d="M1584.25,735.79c-42.24-46.64-94.08-85.53-152.2-112.83c-58.08-27.43-122.44-42.39-187.42-44.45
					c-53.08-1.37-106.41,6.41-157.47,22.17C845.61,396.66,484.03,408.2,256.39,635.84c-240.1,240.1-240.1,629.38,0,869.48
					c-167.22-167.22-167.22-438.33,0-605.55c145.53-145.53,369.64-164.18,535.57-56.38c-38.09,70.77-59.96,150.78-61.39,232.02
					c-3.65,134.58,48.29,271.35,142.88,371.19c47.41,49.7,105.29,89.9,169.17,116.45c63.85,26.68,133.37,39.15,202.02,37.87
					c68.73-1.59,136.75-18.99,197.41-48.99c60.68-30.2,113.62-73.22,155.37-123.75c83.75-101.64,123.6-229.04,121.22-352.78
					C1716.44,951.3,1668.99,829.13,1584.25,735.79z M1264.58,1486.66c-235.03,0-425.57-190.53-425.57-425.57
					c0-235.03,190.53-425.57,425.57-425.57c235.04,0,425.57,190.54,425.57,425.57C1690.15,1296.13,1499.62,1486.66,1264.58,1486.66z
					"/>
			</g>
			<g>
				<g>
					<polygon class="st4" points="1414.58,938.68 1414.57,938.68 1414.57,938.27 					"/>
				</g>
				<g>
					<g>
						<path class="st5" d="M1142.88,1120.22c0,0-0.01,0.01-0.02,0.03C1142.87,1120.24,1142.88,1120.22,1142.88,1120.22z"/>
					</g>
					<g>
						<path class="st5" d="M1142.6,1120.56c-0.06,0.07-0.12,0.15-0.2,0.24C1142.48,1120.71,1142.54,1120.63,1142.6,1120.56z"/>
					</g>
					<g>
						<path class="st5" d="M1142.84,1120.27c-0.04,0.05-0.12,0.14-0.23,0.28C1142.72,1120.41,1142.8,1120.32,1142.84,1120.27z"/>
					</g>
				</g>
				<g>
					<path class="st5" d="M1142.47,1117.7L1142.47,1117.7L1142.47,1117.7c0.13,0.84,0.27,1.68,0.4,2.52
						C1142.74,1119.38,1142.61,1118.54,1142.47,1117.7z"/>
				</g>
				<rect x="623.18" y="108.52" class="st6" width="1313.64" height="1331.48"/>
				<g>
					<path class="st7" d="M1021.85,1921.92l251,0.14v-492.69C1272.85,1429.37,1021.85,1704.39,1021.85,1921.92z"/>
					<path class="st8" d="M1144.77,1132.04c0,0-349.4,360.47-349.4,789.88h226.48c0-217.53,251-492.55,251-492.55
						C1196.29,1358.05,1161.02,1232.08,1144.77,1132.04z"/>
					<path class="st9" d="M1130.89,982.56L907.62,1084.6c-119.97,54.82-212.75,155.74-257.32,279.88L623.18,1440l172.18,481.92
						c0-429.41,349.4-789.88,349.4-789.88C1131.15,1048.19,1130.89,982.56,1130.89,982.56z"/>
				</g>
				<g>
					<path class="st7" d="M1523.85,1921.92l-251,0.14v-492.69C1272.85,1429.37,1523.85,1704.39,1523.85,1921.92z"/>
					<path class="st7" d="M1400.93,1132.04c0,0,349.4,360.47,349.4,789.88h-226.48c0-217.53-251-492.55-251-492.55
						C1349.41,1358.05,1384.68,1232.08,1400.93,1132.04z"/>
					<path class="st7" d="M1429.97,977.56l208.12,107.04c119.97,54.82,212.75,155.74,257.32,279.88l27.11,75.52l-172.18,481.92
						c0-429.41-349.4-789.88-349.4-789.88C1414.55,1048.19,1429.97,977.56,1429.97,977.56z"/>
				</g>
				<g>
					<g>
						<g>
							<polygon class="st4" points="1415.62,937.77 1415.61,937.77 1415.61,937.36 							"/>
						</g>
						<g>
							<g>
								<path class="st10" d="M1144.77,1118.75c0,0-0.01,0.01-0.02,0.03C1144.76,1118.76,1144.77,1118.75,1144.77,1118.75z"/>
							</g>
							<g>
								<path class="st10" d="M1144.49,1119.09c-0.06,0.07-0.12,0.15-0.2,0.24C1144.37,1119.24,1144.44,1119.16,1144.49,1119.09z"/>
							</g>
							<g>
								<path class="st10" d="M1144.73,1118.79c-0.04,0.05-0.12,0.14-0.23,0.28C1144.61,1118.94,1144.69,1118.84,1144.73,1118.79z"
									/>
							</g>
						</g>
						<g>
							<path class="st10" d="M1144.37,1116.24L1144.37,1116.24L1144.37,1116.24c0.13,0.84,0.27,1.67,0.4,2.51
								C1144.63,1117.91,1144.5,1117.07,1144.37,1116.24z"/>
						</g>
						<g>
							<g>
								<path class="st11" d="M1349.87,790.65c1.81,0.25,2.41,2.58,0.93,3.65c-3.86,2.79-8.67,6.93-10.29,11.23
									c-2.84,7.58-11.84,20.38-32.21,25.12s-30.79,4.74-47.84-2.84c-17.05-7.58-18.95-22.28-26.05-27.96
									c-3.23-2.59-5.88-4.69-7.8-6.2c-1.35-1.07-0.84-3.21,0.84-3.58c4.89-1.08,13.09-3.52,20.7-8.7
									c11.84-8.06,31.26-8.53,38.37-4.74c10.9-4.27,21.32-5.69,36,0.47C1334.93,782.32,1339.56,789.22,1349.87,790.65z"/>
							</g>
							<g>
								<g>
									<path class="st12" d="M1432.17,979.71c-7.44-6.65-12.77-16.91-16.56-28.86c-59.9-11.09-168.89-1.72-209.39,87.86
										c-26.04,57.59-48.63,82.72-61.45,93.32c16.25,100.04,51.52,226.01,128.08,297.33
										C1415.58,1285.26,1432.16,979.9,1432.17,979.71C1432.17,979.71,1432.17,979.71,1432.17,979.71z"/>
								</g>
								<g>
									<g>
										<path class="st13" d="M1058.86,548.37c0-20.39,0.96-40.39,2.82-59.88l0-0.01c0,0-43.55-37.2-32.42,49.29
											c11.13,86.49,33.53,76.85,33.53,76.85l0-0.01C1060.23,593.59,1058.86,571.51,1058.86,548.37z"/>
									</g>
									<g>
										<g>
											<path class="st12" d="M1282.95,178.87c-4.74,0-9.44,0.26-14.1,0.78c-45.23,70.21,7.89,194.61,7.89,194.61
												c19.01,73.48,25.87,71.04,20.9,143.44c-4.97,72.4-4.75,153.49-26.7,182.35c-6.46,8.49-9.16,15.4-6.85,26.08
												c2.26,10.44,43.65,21.94,18.83,49.19c1.39,0.35,2.6,0.79,3.57,1.31c10.9-4.27,21.32-5.69,36,0.47
												c12.42,5.21,17.05,12.12,27.36,13.55c1.81,0.25,2.41,2.58,0.93,3.65c-3.86,2.79-8.67,6.93-10.29,11.23
												c-2.84,7.58-11.84,20.38-32.21,25.12c0,0,0,0,0,0c0,0,0,0,0,0c-10.64,8.13-43.54,14.46-23.91,29.98
												c44.89,39.19,5.91,57.23,5.91,57.23c70.82,0,207.96-109.95,207.96-369.5C1498.26,344.3,1401.86,178.87,1282.95,178.87z"
												/>
										</g>
										<g>
											<g>
												<path class="st13" d="M1305.88,892.97c0.01,0.05,0.01,0.1,0.02,0.16C1305.89,893.08,1305.88,893.02,1305.88,892.97z"/>
											</g>
											<g>
												<path class="st13" d="M1305.81,892.37c0.01,0.06,0.02,0.13,0.02,0.19C1305.83,892.5,1305.82,892.44,1305.81,892.37z"/>
											</g>
											<g>
												<path class="st13" d="M1305.94,893.62c0,0.02,0,0.05,0.01,0.07C1305.94,893.66,1305.94,893.64,1305.94,893.62z"/>
											</g>
											<g>
												<path class="st13" d="M1305.73,891.79c0.01,0.07,0.02,0.13,0.03,0.2C1305.75,891.92,1305.74,891.85,1305.73,891.79z"/>
											</g>
											<g>
												<path class="st13" d="M1305.06,888.63c0.01,0.05,0.03,0.11,0.04,0.16C1305.09,888.73,1305.07,888.68,1305.06,888.63z"/>
											</g>
											<g>
												<path class="st13" d="M1305.4,890.01c0.01,0.04,0.02,0.08,0.02,0.11C1305.42,890.09,1305.41,890.05,1305.4,890.01z"/>
											</g>
											<g>
												<path class="st13" d="M1305.64,891.2c0.01,0.07,0.02,0.13,0.03,0.2C1305.66,891.33,1305.65,891.26,1305.64,891.2z"/>
											</g>
											<g>
												<path class="st13" d="M1284.93,842.92c-0.18,0.11-0.35,0.23-0.53,0.34C1284.57,843.15,1284.75,843.03,1284.93,842.92z"
													/>
											</g>
											<g>
												<path class="st13" d="M1288.47,840.87c-0.19,0.1-0.38,0.2-0.56,0.3C1288.09,841.07,1288.28,840.97,1288.47,840.87z"/>
											</g>
											<g>
												<path class="st13" d="M1287.04,841.65c-0.19,0.11-0.37,0.21-0.56,0.32C1286.66,841.87,1286.85,841.76,1287.04,841.65z"
													/>
											</g>
											<g>
												<path class="st13" d="M1287.67,841.3c-0.15,0.08-0.3,0.17-0.45,0.25C1287.37,841.46,1287.52,841.38,1287.67,841.3z"/>
											</g>
											<g>
												<path class="st13" d="M1305.99,894.81c0,0.04,0,0.09,0,0.13C1305.99,894.9,1305.99,894.85,1305.99,894.81z"/>
											</g>
											<g>
												<path class="st13" d="M1285.56,842.52c-0.15,0.09-0.3,0.19-0.45,0.28C1285.26,842.71,1285.41,842.62,1285.56,842.52z"/>
											</g>
											<g>
												<path class="st13" d="M1286.26,842.1c-0.19,0.11-0.37,0.22-0.56,0.33C1285.89,842.32,1286.07,842.21,1286.26,842.1z"/>
											</g>
											<g>
												<path class="st14" d="M1308.3,830.66c-20.37,4.74-30.79,4.74-47.84-2.84c-17.05-7.58-18.95-22.28-26.05-27.96
													c-3.23-2.59-5.88-4.69-7.8-6.2c-1.35-1.07-0.84-3.21,0.84-3.58c4.89-1.08,13.09-3.52,20.7-8.7
													c10.22-6.95,26.08-8.26,34.8-6.05c0,0,0,0,0,0c24.81-27.25-16.57-38.75-18.83-49.19c-2.31-10.68,0.39-17.58,6.85-26.08
													c21.73-28.57,21.72-108.32,26.55-180.15c0.05-0.74,0.1-1.47,0.15-2.2c4.97-72.4-1.89-69.96-20.9-143.44
													c0,0-53.12-124.4-7.89-194.61c-112.33,12.46-201.2,172.78-201.2,368.71c0,243.9,152.53,369.5,222.64,369.5
													c0,0,0.53-0.26,1.44-0.76c6.62-3.8,32.23-21.91-7.34-56.46c-12.25-9.68-4.05-15.78,6.43-20.98c0,0,0,0,0,0v0
													c4.8-2.38,10.08-4.57,14.09-6.83c0.05-0.03,0.1-0.05,0.15-0.08c0.01-0.01,0.02-0.01,0.03-0.02
													c0.04-0.02,0.07-0.04,0.11-0.07c0.55-0.31,1.07-0.63,1.56-0.94c0,0,0,0,0,0
													C1307.31,831.38,1307.83,831.02,1308.3,830.66C1308.3,830.66,1308.3,830.66,1308.3,830.66z"/>
												<polygon class="st13" points="1306.76,831.73 1306.76,831.73 1306.76,831.73 												"/>
											</g>
											<g>
												<path class="st13" d="M1289.95,840.1c-0.15,0.08-0.3,0.16-0.46,0.23C1289.64,840.25,1289.79,840.17,1289.95,840.1z"/>
											</g>
											<g>
												<path class="st13" d="M1304.87,887.96c0.02,0.07,0.04,0.14,0.06,0.21C1304.91,888.1,1304.89,888.03,1304.87,887.96z"/>
											</g>
											<g>
												<path class="st13" d="M1289.15,840.51c-0.14,0.07-0.28,0.15-0.42,0.22C1288.87,840.65,1289.01,840.58,1289.15,840.51z"
													/>
											</g>
											<g>
												<path class="st13" d="M1305.53,890.61c0.01,0.06,0.02,0.12,0.03,0.18C1305.55,890.73,1305.54,890.67,1305.53,890.61z"/>
											</g>
											<g>
												<path class="st13" d="M1299.64,877.29c0.06,0.09,0.12,0.18,0.18,0.27C1299.76,877.47,1299.7,877.38,1299.64,877.29z"/>
											</g>
											<g>
												<path class="st13" d="M1301.57,880.41c0.05,0.08,0.09,0.16,0.14,0.24C1301.66,880.57,1301.61,880.49,1301.57,880.41z"/>
											</g>
											<g>
												<path class="st13" d="M1300.67,878.9c0.02,0.03,0.04,0.06,0.06,0.09C1300.71,878.96,1300.69,878.93,1300.67,878.9z"/>
											</g>
											<g>
												<path class="st13" d="M1301.16,879.71c0.03,0.06,0.06,0.11,0.1,0.17C1301.23,879.82,1301.2,879.76,1301.16,879.71z"/>
											</g>
											<g>
												<path class="st13" d="M1300.13,878.04c0.05,0.08,0.1,0.16,0.15,0.24C1300.24,878.2,1300.18,878.12,1300.13,878.04z"/>
											</g>
											<g>
												<path class="st13" d="M1298.06,875.05c0.07,0.09,0.14,0.19,0.2,0.28C1298.2,875.24,1298.13,875.15,1298.06,875.05z"/>
											</g>
											<g>
												<path class="st13" d="M1304.67,887.32c0.02,0.08,0.05,0.15,0.07,0.23C1304.72,887.47,1304.69,887.4,1304.67,887.32z"/>
											</g>
											<g>
												<path class="st13" d="M1298.6,875.8c0.07,0.1,0.14,0.19,0.21,0.29C1298.74,875.99,1298.67,875.9,1298.6,875.8z"/>
											</g>
											<g>
												<path class="st13" d="M1299.13,876.54c0.07,0.1,0.13,0.19,0.2,0.29C1299.26,876.73,1299.19,876.64,1299.13,876.54z"/>
											</g>
											<g>
												<path class="st13" d="M1297.5,874.3c0.06,0.08,0.12,0.16,0.19,0.25C1297.62,874.46,1297.56,874.38,1297.5,874.3z"/>
											</g>
											<g>
												<path class="st13" d="M1303.98,885.39c0.02,0.06,0.05,0.12,0.07,0.18C1304.02,885.52,1304,885.46,1303.98,885.39z"/>
											</g>
											<g>
												<path class="st13" d="M1304.22,886.04c0.03,0.07,0.05,0.15,0.08,0.22C1304.28,886.19,1304.25,886.11,1304.22,886.04z"/>
											</g>
											<g>
												<path class="st13" d="M1303.71,884.74c0,0.01,0.01,0.02,0.01,0.03C1303.72,884.76,1303.72,884.75,1303.71,884.74z"/>
											</g>
											<g>
												<path class="st13" d="M1304.45,886.68c0.03,0.08,0.05,0.15,0.08,0.23C1304.51,886.83,1304.48,886.76,1304.45,886.68z"/>
											</g>
											<g>
												<path class="st13" d="M1302.32,881.8c0.05,0.09,0.09,0.17,0.13,0.26C1302.41,881.97,1302.37,881.88,1302.32,881.8z"/>
											</g>
											<g>
												<path class="st13" d="M1301.96,881.11c0.05,0.09,0.09,0.17,0.14,0.26C1302.05,881.28,1302,881.19,1301.96,881.11z"/>
											</g>
											<g>
												<path class="st13" d="M1302.68,882.49c0.04,0.08,0.08,0.17,0.12,0.25C1302.76,882.66,1302.72,882.57,1302.68,882.49z"/>
											</g>
											<g>
												<path class="st13" d="M1303.02,883.19c0.04,0.07,0.07,0.15,0.11,0.22C1303.09,883.34,1303.05,883.26,1303.02,883.19z"/>
											</g>
											<g>
												<path class="st13" d="M1303.35,883.92c0.02,0.05,0.05,0.1,0.07,0.16C1303.4,884.02,1303.38,883.97,1303.35,883.92z"/>
											</g>
											<g>
												<path class="st13" d="M1279.38,855.29c0.1,0.17,0.2,0.34,0.31,0.51C1279.58,855.62,1279.48,855.45,1279.38,855.29z"/>
											</g>
											<g>
												<path class="st13" d="M1278.57,853.46c0.05,0.17,0.11,0.34,0.18,0.51C1278.68,853.8,1278.62,853.63,1278.57,853.46z"/>
											</g>
											<g>
												<path class="st13" d="M1279.05,854.66c0.09,0.18,0.18,0.36,0.29,0.54C1279.23,855.02,1279.13,854.84,1279.05,854.66z"/>
											</g>
											<g>
												<path class="st13" d="M1278.75,854c0.07,0.18,0.15,0.36,0.24,0.54C1278.9,854.36,1278.82,854.18,1278.75,854z"/>
											</g>
											<g>
												<path class="st13" d="M1280.25,856.58c0.15,0.19,0.3,0.38,0.46,0.58C1280.55,856.96,1280.39,856.77,1280.25,856.58z"/>
											</g>
											<g>
												<path class="st13" d="M1279.76,855.89c0.12,0.19,0.26,0.37,0.4,0.56C1280.02,856.27,1279.88,856.08,1279.76,855.89z"/>
											</g>
											<g>
												<path class="st13" d="M1296.91,873.54c0.01,0.02,0.03,0.03,0.04,0.05C1296.94,873.58,1296.92,873.56,1296.91,873.54z"/>
											</g>
											<g>
												<path class="st13" d="M1278.27,851.71c0,0.16,0.01,0.33,0.03,0.49C1278.28,852.04,1278.27,851.87,1278.27,851.71z"/>
											</g>
											<g>
												<path class="st13" d="M1278.46,850.04c-0.04,0.15-0.07,0.31-0.1,0.46C1278.38,850.35,1278.42,850.2,1278.46,850.04z"/>
											</g>
											<g>
												<path class="st13" d="M1278.31,852.28c0.02,0.15,0.04,0.31,0.07,0.46C1278.35,852.59,1278.33,852.43,1278.31,852.28z"/>
											</g>
											<g>
												<path class="st13" d="M1278.4,852.84c0.04,0.17,0.08,0.34,0.13,0.51C1278.48,853.18,1278.44,853.01,1278.4,852.84z"/>
											</g>
											<g>
												<path class="st13" d="M1278.34,850.61c-0.02,0.15-0.04,0.3-0.06,0.46C1278.3,850.92,1278.32,850.76,1278.34,850.61z"/>
											</g>
											<g>
												<path class="st13" d="M1290.68,839.73c-0.14,0.07-0.29,0.14-0.43,0.21C1290.4,839.87,1290.54,839.8,1290.68,839.73z"/>
											</g>
											<g>
												<path class="st13" d="M1306,895.35c0,0.05,0,0.11,0,0.16C1305.99,895.46,1306,895.41,1306,895.35z"/>
											</g>
											<g>
												<path class="st13" d="M1278.27,851.6c0-0.16,0-0.33,0.01-0.49C1278.27,851.27,1278.27,851.43,1278.27,851.6z"/>
											</g>
											<g>
												<path class="st13" d="M1280.72,857.16c0.17,0.2,0.34,0.4,0.53,0.6C1281.06,857.56,1280.88,857.36,1280.72,857.16z"/>
											</g>
											<g>
												<path class="st13" d="M1283.6,859.99c0.25,0.21,0.51,0.43,0.79,0.64C1284.12,860.42,1283.86,860.2,1283.6,859.99z"/>
											</g>
											<g>
												<path class="st13" d="M1281.94,858.48c-0.2-0.2-0.39-0.4-0.58-0.59C1281.55,858.09,1281.74,858.28,1281.94,858.48z"/>
											</g>
											<g>
												<path class="st13" d="M1282.04,858.58c0.19,0.18,0.38,0.37,0.59,0.56C1282.42,858.95,1282.23,858.76,1282.04,858.58z"/>
											</g>
											<g>
												<path class="st13" d="M1282.74,859.24c0.22,0.2,0.46,0.41,0.7,0.62C1283.2,859.65,1282.96,859.44,1282.74,859.24z"/>
											</g>
											<g>
												<path class="st13" d="M1281.93,845.12c-0.15,0.13-0.29,0.25-0.43,0.38C1281.64,845.37,1281.79,845.24,1281.93,845.12z"
													/>
											</g>
											<g>
												<path class="st13" d="M1282.46,844.68c-0.14,0.11-0.27,0.22-0.4,0.33C1282.19,844.9,1282.32,844.79,1282.46,844.68z"/>
											</g>
											<g>
												<path class="st13" d="M1283.68,843.76c-0.17,0.12-0.33,0.24-0.5,0.36C1283.35,844,1283.51,843.88,1283.68,843.76z"/>
											</g>
											<g>
												<path class="st13" d="M1289.93,865.78c0.1,0.1,0.2,0.2,0.3,0.3C1290.13,865.98,1290.03,865.88,1289.93,865.78z"/>
											</g>
											<g>
												<path class="st13" d="M1283.03,844.24c-0.16,0.12-0.32,0.25-0.48,0.37C1282.71,844.48,1282.87,844.36,1283.03,844.24z"
													/>
											</g>
											<g>
												<path class="st13" d="M1284.24,843.37c-0.15,0.1-0.3,0.2-0.44,0.31C1283.94,843.58,1284.09,843.48,1284.24,843.37z"/>
											</g>
											<g>
												<path class="st13" d="M1287.26,863.21c0.12,0.11,0.25,0.23,0.37,0.34C1287.5,863.44,1287.38,863.33,1287.26,863.21z"/>
											</g>
											<g>
												<path class="st13" d="M1286.33,862.36c0.12,0.11,0.24,0.22,0.36,0.33C1286.57,862.58,1286.45,862.47,1286.33,862.36z"/>
											</g>
											<g>
												<path class="st13" d="M1288.16,864.06c0.12,0.12,0.24,0.23,0.36,0.35C1288.4,864.29,1288.28,864.18,1288.16,864.06z"/>
											</g>
											<g>
												<path class="st13" d="M1289.05,864.91c0.11,0.11,0.23,0.22,0.34,0.33C1289.28,865.14,1289.16,865.03,1289.05,864.91z"/>
											</g>
											<g>
												<path class="st13" d="M1278.61,849.53c-0.05,0.14-0.09,0.28-0.13,0.42C1278.52,849.81,1278.56,849.67,1278.61,849.53z"
													/>
											</g>
											<g>
												<path class="st13" d="M1279.35,848c-0.08,0.13-0.16,0.27-0.24,0.4C1279.19,848.27,1279.27,848.14,1279.35,848z"/>
											</g>
											<g>
												<path class="st13" d="M1279.09,848.46c-0.08,0.15-0.15,0.29-0.22,0.44C1278.94,848.75,1279.01,848.6,1279.09,848.46z"/>
											</g>
											<g>
												<path class="st13" d="M1278.82,849.01c-0.07,0.15-0.13,0.3-0.18,0.45C1278.69,849.31,1278.75,849.16,1278.82,849.01z"/>
											</g>
											<g>
												<path class="st13" d="M1285.37,861.5c0.11,0.09,0.21,0.19,0.32,0.28C1285.58,861.69,1285.48,861.59,1285.37,861.5z"/>
											</g>
											<g>
												<path class="st13" d="M1279.7,847.48c-0.1,0.14-0.2,0.28-0.29,0.42C1279.51,847.76,1279.6,847.62,1279.7,847.48z"/>
											</g>
											<g>
												<path class="st13" d="M1281.39,845.6c-0.13,0.12-0.25,0.23-0.37,0.35C1281.14,845.84,1281.27,845.72,1281.39,845.6z"/>
											</g>
											<g>
												<path class="st13" d="M1280.58,846.42c0.12-0.13,0.25-0.27,0.38-0.4C1280.83,846.15,1280.7,846.29,1280.58,846.42z"/>
											</g>
											<g>
												<path class="st13" d="M1280.06,847.01c-0.1,0.12-0.19,0.25-0.29,0.37C1279.87,847.26,1279.97,847.13,1280.06,847.01z"/>
											</g>
											<g>
												<path class="st13" d="M1280.48,846.53c-0.12,0.14-0.24,0.27-0.35,0.41C1280.24,846.8,1280.35,846.66,1280.48,846.53z"/>
											</g>
											<g>
												<path class="st13" d="M1281.12,678.77C1281.12,678.77,1281.12,678.77,1281.12,678.77c-0.01,0.02-0.02,0.05-0.02,0.07
													C1281.11,678.81,1281.12,678.79,1281.12,678.77z"/>
											</g>
											<g>
												<path class="st13" d="M1299.37,911.08c0.02-0.02,0.03-0.03,0.05-0.05C1299.41,911.05,1299.39,911.06,1299.37,911.08z"/>
											</g>
											<g>
												<path class="st13" d="M1300.24,910.11c0.02-0.03,0.05-0.05,0.07-0.08C1300.29,910.06,1300.27,910.09,1300.24,910.11z"/>
											</g>
											<g>
												<path class="st13" d="M1299.98,910.42c0.01-0.01,0.02-0.02,0.03-0.03C1300,910.4,1299.99,910.41,1299.98,910.42z"/>
											</g>
											<g>
												<path class="st13" d="M1300.51,909.8c0.03-0.03,0.05-0.06,0.08-0.09C1300.56,909.73,1300.54,909.77,1300.51,909.8z"/>
											</g>
											<g>
												<path class="st13" d="M1300.78,909.47c0.03-0.03,0.05-0.07,0.08-0.1C1300.83,909.41,1300.8,909.44,1300.78,909.47z"/>
											</g>
											<g>
												<path class="st13" d="M1298.23,912.23c0.02-0.02,0.05-0.05,0.07-0.07C1298.28,912.19,1298.26,912.21,1298.23,912.23z"/>
											</g>
											<g>
												<path class="st13" d="M1298.51,911.96c0.03-0.03,0.06-0.05,0.08-0.08C1298.57,911.91,1298.54,911.94,1298.51,911.96z"/>
											</g>
											<g>
												<path class="st13" d="M1297.96,912.5c0.02-0.02,0.04-0.03,0.05-0.05C1297.99,912.46,1297.98,912.48,1297.96,912.5z"/>
											</g>
											<g>
												<path class="st13" d="M1299.07,911.4c0.02-0.03,0.05-0.05,0.07-0.08C1299.12,911.34,1299.1,911.37,1299.07,911.4z"/>
											</g>
											<g>
												<path class="st13" d="M1296.11,872.55c0.06,0.08,0.13,0.16,0.19,0.23C1296.24,872.7,1296.17,872.62,1296.11,872.55z"/>
											</g>
											<g>
												<path class="st13" d="M1303.07,906.13c0.02-0.03,0.04-0.06,0.06-0.1C1303.11,906.07,1303.09,906.1,1303.07,906.13z"/>
											</g>
											<g>
												<path class="st13" d="M1302.61,906.91c0.02-0.04,0.04-0.07,0.07-0.11C1302.65,906.84,1302.63,906.87,1302.61,906.91z"/>
											</g>
											<g>
												<path class="st13" d="M1302.84,906.53c0.02-0.04,0.04-0.07,0.07-0.11C1302.88,906.45,1302.86,906.49,1302.84,906.53z"/>
											</g>
											<g>
												<path class="st13" d="M1303.31,905.7c0.01-0.02,0.02-0.04,0.03-0.06C1303.34,905.66,1303.32,905.68,1303.31,905.7z"/>
											</g>
											<g>
												<path class="st13" d="M1301.32,908.78c0.02-0.02,0.04-0.05,0.05-0.07C1301.36,908.73,1301.34,908.75,1301.32,908.78z"/>
											</g>
											<g>
												<path class="st13" d="M1301.63,908.37C1301.63,908.37,1301.63,908.37,1301.63,908.37
													C1301.63,908.37,1301.63,908.37,1301.63,908.37z"/>
											</g>
											<g>
												<path class="st13" d="M1301.05,909.14c0.02-0.03,0.05-0.06,0.07-0.09C1301.09,909.07,1301.07,909.1,1301.05,909.14z"/>
											</g>
											<g>
												<path class="st13" d="M1302.13,907.64c0.02-0.02,0.03-0.05,0.05-0.07C1302.16,907.59,1302.15,907.62,1302.13,907.64z"/>
											</g>
											<g>
												<path class="st13" d="M1302.37,907.28c0.02-0.03,0.04-0.07,0.06-0.1C1302.41,907.21,1302.39,907.25,1302.37,907.28z"/>
											</g>
											<g>
												<path class="st13" d="M1297.38,913.02c0.01,0,0.01-0.01,0.02-0.01C1297.39,913.02,1297.38,913.02,1297.38,913.02z"/>
											</g>
											<g>
												<path class="st13" d="M1294.31,915.45c0.03-0.02,0.05-0.04,0.08-0.05C1294.37,915.41,1294.34,915.43,1294.31,915.45z"/>
											</g>
											<g>
												<path class="st13" d="M1293.83,915.78c0.02-0.01,0.04-0.02,0.05-0.04C1293.87,915.76,1293.85,915.77,1293.83,915.78z"/>
											</g>
											<g>
												<path class="st13" d="M1293.09,916.28c0.02-0.01,0.04-0.02,0.06-0.04C1293.13,916.25,1293.11,916.26,1293.09,916.28z"/>
											</g>
											<g>
												<path class="st13" d="M1294.07,915.62c0.02-0.02,0.05-0.03,0.07-0.05C1294.12,915.59,1294.09,915.6,1294.07,915.62z"/>
											</g>
											<g>
												<path class="st13" d="M1293.33,916.12c0.01-0.01,0.03-0.02,0.04-0.03C1293.35,916.1,1293.34,916.11,1293.33,916.12z"/>
											</g>
											<g>
												<path class="st13" d="M1292.87,916.42c0.02-0.01,0.04-0.02,0.06-0.04C1292.91,916.39,1292.89,916.4,1292.87,916.42z"/>
											</g>
											<g>
												<path class="st13" d="M1292.26,916.79c0.01-0.01,0.03-0.02,0.04-0.02C1292.29,916.77,1292.27,916.78,1292.26,916.79z"/>
											</g>
											<g>
												<path class="st13" d="M1292.45,916.67c0.02-0.01,0.04-0.02,0.06-0.04C1292.49,916.65,1292.47,916.66,1292.45,916.67z"/>
											</g>
											<g>
												<path class="st13" d="M1292.65,916.55c0.02-0.01,0.04-0.03,0.06-0.04C1292.7,916.52,1292.67,916.54,1292.65,916.55z"/>
											</g>
											<g>
												<path class="st13" d="M1296.21,914.01c0.03-0.02,0.06-0.05,0.08-0.07C1296.27,913.97,1296.24,913.99,1296.21,914.01z"/>
											</g>
											<g>
												<path class="st13" d="M1296.49,913.79c0.03-0.02,0.06-0.05,0.09-0.07C1296.54,913.74,1296.51,913.77,1296.49,913.79z"/>
											</g>
											<g>
												<path class="st13" d="M1294.56,915.27c0.03-0.02,0.05-0.04,0.08-0.06C1294.62,915.23,1294.59,915.25,1294.56,915.27z"/>
											</g>
											<g>
												<path class="st13" d="M1296.76,913.56c0.03-0.02,0.06-0.05,0.08-0.07C1296.82,913.51,1296.79,913.53,1296.76,913.56z"/>
											</g>
											<g>
												<path class="st13" d="M1297.05,913.31c0.02-0.02,0.05-0.04,0.07-0.06C1297.1,913.27,1297.07,913.29,1297.05,913.31z"/>
											</g>
											<g>
												<path class="st13" d="M1303.77,904.82c0.01-0.02,0.02-0.04,0.03-0.05C1303.79,904.79,1303.78,904.81,1303.77,904.82z"/>
											</g>
											<g>
												<path class="st13" d="M1294.82,915.09c0.02-0.02,0.05-0.04,0.07-0.05C1294.87,915.05,1294.85,915.07,1294.82,915.09z"/>
											</g>
											<g>
												<path class="st13" d="M1295.1,914.88c0.02-0.01,0.04-0.03,0.06-0.04C1295.13,914.86,1295.11,914.87,1295.1,914.88z"/>
											</g>
											<g>
												<path class="st13" d="M1295.95,914.23c0.02-0.02,0.05-0.04,0.07-0.06C1295.99,914.19,1295.97,914.21,1295.95,914.23z"/>
											</g>
											<g>
												<path class="st13" d="M1295.68,914.44c0.01-0.01,0.02-0.01,0.03-0.02C1295.7,914.42,1295.69,914.43,1295.68,914.44z"/>
											</g>
											<g>
												<path class="st13" d="M1298.87,911.6c-0.03,0.03-0.06,0.06-0.09,0.09C1298.82,911.66,1298.85,911.63,1298.87,911.6z"/>
											</g>
											<g>
												<path class="st13" d="M1273.8,695.82c-0.25,0.42-0.51,0.84-0.77,1.24C1273.29,696.66,1273.54,696.24,1273.8,695.82z"/>
											</g>
											<g>
												<path class="st13" d="M1274.69,694.26c-0.27,0.48-0.54,0.96-0.81,1.42C1274.15,695.22,1274.43,694.75,1274.69,694.26z"
													/>
											</g>
											<g>
												<path class="st13" d="M1271.86,698.81c-0.3,0.42-0.6,0.84-0.9,1.24C1271.26,699.65,1271.56,699.24,1271.86,698.81z"/>
											</g>
											<g>
												<path class="st13" d="M1275.51,692.74c-0.19,0.36-0.38,0.72-0.57,1.07C1275.13,693.46,1275.32,693.1,1275.51,692.74z"/>
											</g>
											<g>
												<path class="st13" d="M1272.76,697.47c-0.21,0.32-0.42,0.64-0.64,0.96C1272.34,698.12,1272.55,697.8,1272.76,697.47z"/>
											</g>
											<g>
												<path class="st13" d="M1277.99,687.39c-0.16,0.39-0.33,0.78-0.5,1.16C1277.66,688.17,1277.83,687.78,1277.99,687.39z"/>
											</g>
											<g>
												<path class="st13" d="M1279.58,683.32c-0.21,0.58-0.42,1.15-0.64,1.72C1279.16,684.47,1279.37,683.9,1279.58,683.32z"/>
											</g>
											<g>
												<path class="st13" d="M1277.26,689.08c-0.24,0.54-0.48,1.06-0.73,1.58C1276.78,690.15,1277.02,689.62,1277.26,689.08z"
													/>
											</g>
											<g>
												<path class="st13" d="M1276.4,690.95c-0.21,0.43-0.42,0.86-0.63,1.28C1275.98,691.81,1276.19,691.39,1276.4,690.95z"/>
											</g>
											<g>
												<path class="st13" d="M1278.76,685.49c-0.17,0.44-0.34,0.87-0.52,1.29C1278.42,686.36,1278.59,685.92,1278.76,685.49z"
													/>
											</g>
											<g>
												<path class="st13" d="M1306.83,831.68c0.22-0.14,0.43-0.28,0.64-0.43C1307.27,831.4,1307.05,831.54,1306.83,831.68z"/>
											</g>
											<g>
												<path class="st13" d="M1293.33,869.32c0.1,0.11,0.19,0.21,0.29,0.32C1293.52,869.53,1293.43,869.43,1293.33,869.32z"/>
											</g>
											<g>
												<path class="st13" d="M1294.05,870.12c0.09,0.11,0.19,0.21,0.28,0.32C1294.23,870.33,1294.14,870.23,1294.05,870.12z"/>
											</g>
											<g>
												<path class="st13" d="M1295.42,871.71c0.08,0.1,0.17,0.2,0.25,0.3C1295.59,871.91,1295.5,871.81,1295.42,871.71z"/>
											</g>
											<g>
												<path class="st13" d="M1294.74,870.91c0.09,0.11,0.18,0.21,0.27,0.31C1294.92,871.13,1294.83,871.02,1294.74,870.91z"/>
											</g>
											<g>
												<path class="st13" d="M1307.64,831.14c0.23-0.16,0.45-0.32,0.66-0.48C1308.09,830.82,1307.87,830.98,1307.64,831.14z"/>
											</g>
											<g>
												<path class="st13" d="M1290.84,866.69c0.07,0.07,0.14,0.14,0.2,0.2C1290.98,866.83,1290.91,866.76,1290.84,866.69z"/>
											</g>
											<g>
												<path class="st13" d="M1292.59,868.52c0.09,0.1,0.18,0.2,0.27,0.29C1292.77,868.71,1292.68,868.62,1292.59,868.52z"/>
											</g>
											<g>
												<path class="st13" d="M1291.83,867.71c0.07,0.07,0.13,0.14,0.2,0.21C1291.96,867.85,1291.9,867.78,1291.83,867.71z"/>
											</g>
											<g>
												<path class="st13" d="M1305.53,899.77c0.01-0.05,0.02-0.1,0.03-0.15C1305.55,899.68,1305.54,899.72,1305.53,899.77z"/>
											</g>
											<g>
												<path class="st13" d="M1305.17,901.2c0.01-0.04,0.02-0.07,0.03-0.11C1305.19,901.13,1305.18,901.16,1305.17,901.2z"/>
											</g>
											<g>
												<path class="st13" d="M1305.3,900.73c0.01-0.05,0.02-0.09,0.04-0.14C1305.32,900.64,1305.31,900.69,1305.3,900.73z"/>
											</g>
											<g>
												<path class="st13" d="M1305.04,901.65c0,0,0-0.01,0-0.01C1305.04,901.65,1305.04,901.65,1305.04,901.65z"/>
											</g>
											<g>
												<path class="st13" d="M1303.96,904.41c0.02-0.03,0.03-0.07,0.05-0.1C1304,904.34,1303.98,904.38,1303.96,904.41z"/>
											</g>
											<g>
												<path class="st13" d="M1305.42,900.26c0.01-0.05,0.02-0.1,0.03-0.15C1305.44,900.16,1305.43,900.21,1305.42,900.26z"/>
											</g>
											<g>
												<path class="st13" d="M1304.34,903.57c0.02-0.04,0.04-0.09,0.05-0.13C1304.37,903.48,1304.36,903.53,1304.34,903.57z"/>
											</g>
											<g>
												<path class="st13" d="M1304.15,904c0.02-0.04,0.04-0.08,0.05-0.12C1304.19,903.92,1304.17,903.96,1304.15,904z"/>
											</g>
											<g>
												<path class="st13" d="M1304.69,902.66c0.01-0.03,0.02-0.06,0.04-0.1C1304.72,902.6,1304.7,902.63,1304.69,902.66z"/>
											</g>
											<g>
												<path class="st13" d="M1304.52,903.13c0.02-0.04,0.03-0.08,0.05-0.12C1304.55,903.05,1304.53,903.09,1304.52,903.13z"/>
											</g>
											<g>
												<path class="st13" d="M1305.63,899.27c0.01-0.04,0.02-0.09,0.02-0.13C1305.64,899.18,1305.64,899.23,1305.63,899.27z"/>
											</g>
											<g>
												<path class="st13" d="M1280.23,681.47c-0.14,0.41-0.28,0.82-0.43,1.22C1279.95,682.28,1280.09,681.88,1280.23,681.47z"
													/>
											</g>
											<g>
												<path class="st13" d="M1290.3,917.86c0,0,0.54-0.25,1.43-0.76C1290.83,917.61,1290.3,917.86,1290.3,917.86z"/>
											</g>
											<g>
												<path class="st13" d="M1305.98,896.06c0-0.06,0-0.12,0.01-0.18C1305.99,895.94,1305.98,896,1305.98,896.06z"/>
											</g>
											<g>
												<path class="st13" d="M1280.9,679.44c-0.14,0.44-0.28,0.87-0.43,1.3C1280.62,680.32,1280.76,679.88,1280.9,679.44z"/>
											</g>
											<g>
												<path class="st13" d="M1407.89,847.16c-40.25,48.34-85.66,70.7-117.59,70.7c-34.24,0-88.14-29.96-134.33-89.02
													c0,0,0,0,0,0c5.18,128.51-25.08,153.72-25.08,153.72v0l0,0c0,0,0,0.05,0,0.14l0.1,6.03
													c0.43,18.18,2.62,74.63,13.77,143.31c0,0,0,0,0,0c12.81-10.6,35.41-35.73,61.45-93.32
													c40.5-89.58,149.49-98.95,209.39-87.86C1402.43,909.3,1407.87,847.46,1407.89,847.16z"/>
											</g>
											<g>
												<path class="st13" d="M1305.87,897.62c0-0.03,0.01-0.06,0.01-0.1C1305.88,897.56,1305.87,897.59,1305.87,897.62z"/>
											</g>
											<g>
												<path class="st13" d="M1305.72,898.72c0-0.02,0.01-0.05,0.01-0.07C1305.73,898.67,1305.73,898.69,1305.72,898.72z"/>
											</g>
											<g>
												<path class="st13" d="M1305.96,896.59c0-0.06,0.01-0.11,0.01-0.17C1305.96,896.48,1305.96,896.54,1305.96,896.59z"/>
											</g>
											<g>
												<path class="st13" d="M1305.92,897.11c0-0.05,0.01-0.1,0.01-0.15C1305.93,897.01,1305.92,897.06,1305.92,897.11z"/>
											</g>
										</g>
									</g>
								</g>
							</g>
							<g>
								<g>
									<path class="st15" d="M1247.8,499.69h-35.11c0,0-33.62-40.48-105.62,7.14h-8.58c0,0,19.98-32.84,80.88-32.84
										C1240.27,473.99,1247.8,499.69,1247.8,499.69z"/>
								</g>
								<g>
									<path class="st12" d="M1191.98,540.58c-30.83-9.02-54.64-0.91-61.71,18.9c40.95,24.02,74.48,1.15,74.48,1.15h11.6
										c0,0-0.03,0.04-0.1,0.13h4.85C1221.1,560.76,1216.69,547.82,1191.98,540.58z"/>
								</g>
								<g>
									<ellipse class="st15" cx="1175.99" cy="546.83" rx="22.92" ry="20.95"/>
								</g>
								<g>
									<path class="st11" d="M1161.35,525.93c53.38,0,69.11,34.83,69.11,34.83s-11.37-48.51-60.56-48.51
										c-8.7,0-40.33,0.97-53.19,31.14C1128.83,538.48,1135.33,525.93,1161.35,525.93z"/>
								</g>
								<g>
									<path class="st15" d="M1230.46,560.76c0,0-15.73-34.83-69.11-34.83c-26.23,0-32.63,12.75-44.92,17.58
										c-10.22,4.02-22.92,4.85-26.27,0c2.98,14.74,29.81,16.44,36.15,16.1c-4.84,4.22-7.36,4.85-7.36,4.85
										s32.28,15.08,62.19,9.58c29.91-5.49,35.22-13.42,35.22-13.42h-11.6c0,0-33.54,22.87-74.48-1.15
										c7.07-19.8,30.88-27.92,61.71-18.9c24.71,7.23,29.13,20.18,29.13,20.18H1230.46z"/>
								</g>
							</g>
							<g>
								<g>
									<path class="st15" d="M1276.17,731.56c0.77,0.22,1.4-0.64,0.94-1.3c-2.64-3.74-8.74-11.32-13.61-9.23
										c-6.4,2.75-1.6,7.82,3.11,8.62C1270.85,730.37,1270.12,729.79,1276.17,731.56z"/>
								</g>
								<g>
									<path class="st15" d="M1301.61,731.56c-0.77,0.22-1.4-0.64-0.94-1.3c2.64-3.74,8.74-11.32,13.61-9.23
										c6.4,2.75,1.6,7.82-3.11,8.62C1306.93,730.37,1307.67,729.79,1301.61,731.56z"/>
								</g>
							</g>
							<g>
								<g>
									<path class="st8" d="M1368.28,132.78c1.1,0.08,2.21,0.17,3.32,0.26c0,0-0.61-0.12-1.76-0.31c0.73-0.02,1.46-0.03,2.2-0.03
										c0,0-326.42-65.72-326.42,399.71c0,0,0.39,133.06,63.82,219.34c-37.99-83.41-44.86-197.99,112.01-316.49
										c0.07-0.01,0.1-0.02,0.1-0.02s0-0.02-0.01-0.05c15.6-11.78,32.81-23.6,51.78-35.43c0,0-32.84-253.81,88.98-266.56
										c2.47-0.04,4.98-0.02,7.54,0.07c0.5,0.03,1,0.06,1.51,0.09c0,0-0.09-0.02-0.26-0.05c0.11,0,0.21,0.01,0.32,0.01
										c0,0-1.18-0.23-3.33-0.48c-0.12-0.02-0.24-0.03-0.37-0.05C1367.91,132.8,1368.09,132.79,1368.28,132.78z M1327.37,132.91
										c-65.66,7.95-181,59.27-174.46,323.03c-12.19,8.38-23.54,17.07-34.15,25.8C1118.36,403.33,1132.22,149.72,1327.37,132.91z
										 M1335.14,134.07c-52.03,9.06-140.35,58.27-128.25,290.42c-13.33,6.43-25.84,13.42-37.62,20.75
										C1167.89,370.5,1177.49,152.24,1335.14,134.07z M1068.36,527.5c-0.79-64.32,7.75-372.75,243.31-395.13
										c-81.52,10.12-216.83,71.21-212.33,366.08C1088.17,508.44,1077.9,518.26,1068.36,527.5z M1262.35,402.87
										c0.04,0,0.09-0.01,0.13-0.01c-14.87,4.47-28.89,9.68-42.15,15.46c-3.27-60.58-4.54-264.05,123.75-283.62
										C1305.19,144.96,1241.71,193.15,1262.35,402.87z"/>
								</g>
								<g>
									<g>
										<path class="st11" d="M1335.14,134.07c-157.64,18.17-167.24,236.43-165.87,311.17c11.78-7.33,24.29-14.32,37.62-20.75
											C1194.79,192.34,1283.11,143.13,1335.14,134.07z"/>
									</g>
									<g>
										<path class="st11" d="M1327.37,132.91c-195.15,16.81-209.01,270.42-208.6,348.84c10.61-8.73,21.96-17.42,34.15-25.8
											C1146.37,192.19,1261.71,140.86,1327.37,132.91z"/>
									</g>
									<g>
										<path class="st11" d="M1220.33,418.32c13.26-5.77,27.28-10.99,42.15-15.46c-0.04,0-0.09,0.01-0.13,0.01
											c-20.64-209.72,42.84-257.92,81.73-268.17C1215.79,154.27,1217.06,357.74,1220.33,418.32z"/>
									</g>
									<g>
										<path class="st11" d="M1068.36,527.5c9.54-9.24,19.82-19.06,30.98-29.04c-4.38-287.22,123.88-352.63,205.88-365.19
											c-2.63,0.26-5.24,0.54-7.82,0.85C1075.76,167.37,1067.58,464.51,1068.36,527.5z"/>
									</g>
									<g>
										<path class="st11" d="M1269.79,352.87c0.58,14.95,1.55,27.35,2.33,35.64c-0.02-3.26-0.63-6.67-0.65-10.33
											C1270.87,370.47,1270.28,361.96,1269.79,352.87z"/>
									</g>
								</g>
								<g>
									<path class="st15" d="M1273.32,399.76L1273.32,399.76L1273.32,399.76c-18.97,11.83-36.18,23.65-51.78,35.43
										c0,0.03,0.01,0.05,0.01,0.05s-0.04,0.01-0.1,0.02c-156.87,118.5-181.43,227.15-112.01,316.49
										c-37.85-94.35-44.24-216.49,185.41-352C1284.65,402.36,1282.83,396.61,1273.32,399.76z"/>
								</g>
								<g>
									<defs>
										<path id="SVGID_3_" d="M1572.75,550.59c-22.7,183-164.85,296.56-164.85,296.56s3.31-133.87,56.58-209.7
											c-121,0-183.74-146.6-191.78-241.12c-5.97-70.22-23.62-275.02,102.55-263.91
											C1534.66,146.46,1595.06,370.72,1572.75,550.59z"/>
									</defs>
									<use xlink:href="#SVGID_3_"  style="overflow:visible;fill:#801814;"/>
									<clipPath id="SVGID_4_">
										<use xlink:href="#SVGID_3_"  style="overflow:visible;"/>
									</clipPath>
									<g class="st16">
										<g>
											<g>
												<g>
													<path class="st8" d="M1994.27,1321.15L1994.27,1321.15c0.01,0-54.77,97.64-101.82,61.58"/>
												</g>
											</g>
											<g>
												<g>
													<path class="st11" d="M1914.8,1391.34c-8.07,0-15.68-2.71-22.73-8.11l0.74-0.97c8.97,6.88,18.9,9.26,29.5,7.08
														c19.24-3.96,37.63-22.35,49.67-37.08c13.07-16,21.67-31.25,21.76-31.4l0.52,0.29l-0.32-0.51l2.03-1.25l-1.16,2.07
														c-0.09,0.15-8.74,15.49-21.88,31.58c-12.16,14.88-30.77,33.47-50.37,37.5
														C1919.93,1391.07,1917.35,1391.34,1914.8,1391.34z"/>
												</g>
											</g>
										</g>
										<g>
											<g>
												<g>
													<path class="st8" d="M1062.12,594.15l0.07-0.04c0,0-464.34,827.76-863.21,522.08"/>
												</g>
											</g>
											<g>
												<g>
													<path class="st11" d="M388.25,1207c-72.19,0-140.33-24.26-203.29-72.51l28.04-36.62
														c71.77,55,151.04,74.07,235.61,56.66c125.05-25.74,267.1-132.28,410.77-308.11c109.86-134.45,182-262.33,182.71-263.61
														l19.96,11.21l-11.57-19.79l0.07-0.04l73.34-42.94l-41.59,74.14c-0.76,1.35-18.88,33.57-51.11,83.16
														c-29.68,45.68-77.39,115.21-136.11,187.07c-66.28,81.12-132.84,148.66-197.82,200.74
														c-38.96,31.23-77.83,57.22-115.53,77.25c-42.02,22.33-83.68,37.84-123.83,46.1C434.29,1204.58,411.07,1207,388.25,1207
														z"/>
												</g>
											</g>
										</g>
										<g>
											<g>
												<g>
													<path class="st8" d="M1912.2,1229.44c41.87,32.41,12.8,113.29-5.26,140.7"/>
												</g>
												<g>
													<path class="st11" d="M1907.46,1370.48l-1.02-0.67c9.09-13.8,20.79-41.04,25-68.23c3.56-23,3.05-54.1-19.61-71.65
														l0.75-0.97c23.14,17.91,23.69,49.48,20.07,72.8C1928.41,1329.13,1916.62,1356.57,1907.46,1370.48z"/>
												</g>
											</g>
											<g>
												<g>
													<path class="st8" d="M1871.82,1137.89c57.52,44.53,17.58,155.64-7.22,193.3"/>
												</g>
												<g>
													<path class="st11" d="M1866.05,1332.14l-2.9-1.91c12.44-18.89,28.45-56.16,34.22-93.39
														c4.86-31.36,4.19-73.75-26.61-97.59l2.12-2.74c32.13,24.87,32.91,68.58,27.91,100.86
														C1894.95,1275.11,1878.68,1312.95,1866.05,1332.14z"/>
												</g>
											</g>
											<g>
												<g>
													<path class="st8" d="M1831.44,1046.33c73.17,56.64,22.37,197.99-9.18,245.9"/>
												</g>
												<g>
													<path class="st11" d="M1824.64,1293.8l-4.77-3.14c15.78-23.97,36.11-71.28,43.43-118.54
														c6.15-39.72,5.32-93.4-33.6-123.53l3.5-4.52c41.13,31.84,42.14,87.68,35.75,128.92c-3.45,22.3-10.02,46.37-18.99,69.6
														C1842.27,1262.49,1833.28,1280.68,1824.64,1293.8z"/>
												</g>
											</g>
											<g>
												<g>
													<path class="st8" d="M1791.06,954.78c88.82,68.76,27.15,240.34-11.15,298.5"/>
												</g>
												<g>
													<path class="st11" d="M1783.23,1255.47l-6.64-4.38c19.13-29.05,43.76-86.41,52.64-143.69
														c7.45-48.08,6.45-113.04-40.6-149.47l4.87-6.3c50.12,38.8,51.37,106.78,43.59,156.98
														c-4.2,27.11-12.18,56.36-23.08,84.59C1804.68,1217.39,1793.74,1239.5,1783.23,1255.47z"/>
												</g>
											</g>
											<g>
												<g>
													<path class="st8" d="M1750.68,863.22c104.48,80.88,31.94,282.69-13.11,351.1"/>
												</g>
												<g>
													<path class="st11" d="M1741.82,1217.13l-8.52-5.62c22.48-34.13,51.42-101.53,61.85-168.85
														c8.74-56.44,7.58-132.69-47.6-175.41l6.24-8.07c59.11,45.76,60.6,125.89,51.43,185.04
														c-4.94,31.91-14.34,66.35-27.16,99.58C1767.08,1172.29,1754.2,1198.33,1741.82,1217.13z"/>
												</g>
											</g>
											<g>
												<g>
													<path class="st8" d="M1710.29,771.67c120.13,92.99,36.72,325.04-15.08,403.7"/>
												</g>
												<g>
													<path class="st11" d="M1700.41,1178.79l-10.39-6.85c25.82-39.21,59.08-116.65,71.06-194
														c10.04-64.8,8.72-152.34-54.59-201.35l7.62-9.85c68.11,52.72,69.83,144.99,59.28,213.1
														c-5.69,36.72-16.5,76.34-31.25,114.58C1729.48,1127.19,1714.66,1157.15,1700.41,1178.79z"/>
												</g>
											</g>
											<g>
												<g>
													<path class="st8" d="M1669.91,680.12c135.78,105.11,41.51,367.39-17.04,456.3"/>
												</g>
												<g>
													<path class="st11" d="M1659,1140.46l-12.27-8.09c29.17-44.3,66.73-131.77,80.27-219.15
														c11.33-73.16,9.85-171.99-61.59-227.29l8.99-11.62c77.1,59.69,79.06,164.09,67.12,241.16
														c-6.43,41.53-18.65,86.33-35.34,129.57C1691.88,1082.09,1675.12,1115.98,1659,1140.46z"/>
												</g>
											</g>
											<g>
												<g>
													<path class="st8" d="M1629.53,588.56c151.43,117.23,46.29,409.74-19.01,508.9"/>
												</g>
												<g>
													<path class="st11" d="M1617.59,1102.12l-14.14-9.32c65.94-100.13,165.61-385.51,20.9-497.54l10.36-13.4
														c86.1,66.65,88.28,183.19,74.96,269.22c-7.18,46.33-20.81,96.32-39.43,144.56
														C1654.28,1036.99,1635.58,1074.8,1617.59,1102.12z"/>
												</g>
											</g>
											<g>
												<g>
													<path class="st8" d="M1589.15,497.01c167.08,129.34,51.07,452.1-20.97,561.5"/>
												</g>
												<g>
													<path class="st11" d="M1576.18,1063.78l-16.01-10.56c72.72-110.42,182.66-425.12,23.11-548.63l11.74-15.18
														c95.09,73.61,97.51,202.29,82.8,297.28c-7.92,51.14-22.97,106.31-43.52,159.56
														C1616.68,991.89,1596.04,1033.63,1576.18,1063.78z"/>
												</g>
											</g>
											<g>
												<g>
													<path class="st8" d="M1548.77,405.45c182.74,141.46,55.86,494.45-22.94,614.09"/>
												</g>
												<g>
													<path class="st11" d="M1534.78,1025.44l-17.89-11.79c79.5-120.72,199.7-464.74,25.33-599.72l13.11-16.95
														c104.09,80.57,106.74,221.4,90.64,325.34c-8.67,55.95-25.13,116.3-47.61,174.55
														C1579.08,946.79,1556.5,992.45,1534.78,1025.44z"/>
												</g>
											</g>
											<g>
												<g>
													<path class="st8" d="M1508.39,313.9c198.39,153.58,60.64,536.8-24.9,666.69"/>
												</g>
												<g>
													<path class="st11" d="M1493.37,987.11l-19.76-13.03c86.28-131.01,216.74-504.35,27.54-650.82l14.48-18.73
														c113.08,87.54,115.97,240.5,98.48,353.4c-9.41,60.75-27.29,126.29-51.7,189.54
														C1541.48,901.69,1516.96,951.28,1493.37,987.11z"/>
												</g>
											</g>
											<g>
												<g>
													<path class="st8" d="M1468.01,222.35c214.04,165.69,65.43,579.15-26.87,719.29"/>
												</g>
												<g>
													<path class="st11" d="M1451.96,948.77l-21.64-14.26c93.06-141.3,233.79-543.97,29.76-701.91l15.86-20.5
														c52.3,40.49,87.21,97.66,103.78,169.94c13.98,61,14.83,132.16,2.54,211.53c-10.16,65.56-29.45,136.29-55.79,204.54
														C1503.88,856.59,1477.42,910.1,1451.96,948.77z"/>
												</g>
											</g>
											<g>
												<g>
													<path class="st8" d="M1427.62,130.79c229.69,177.81,70.21,621.5-28.83,771.89"/>
												</g>
												<g>
													<path class="st11" d="M1410.55,910.43l-23.51-15.5c99.84-151.6,250.83-583.58,31.97-753l17.23-22.28
														c56.16,43.47,93.65,104.86,111.43,182.46c15.01,65.48,15.92,141.87,2.73,227.06c-10.9,70.36-31.61,146.28-59.88,219.53
														C1466.28,811.49,1437.88,868.93,1410.55,910.43z"/>
												</g>
											</g>
											<g>
												<g>
													<path class="st8" d="M1387.24,39.24c245.35,189.93,75,663.85-30.8,824.49"/>
												</g>
												<g>
													<path class="st11" d="M1369.14,872.1l-25.39-16.73c106.62-161.89,267.87-623.2,34.19-804.1l18.6-24.06
														c60.01,46.46,100.08,112.06,119.08,194.99c16.03,69.96,17.01,151.58,2.91,242.59
														c-11.64,75.17-33.77,156.27-63.97,234.52C1428.68,766.39,1398.34,827.75,1369.14,872.1z"/>
												</g>
											</g>
											<g>
												<g>
													<path class="st8" d="M1346.86-52.32c261,202.04,79.78,706.2-32.76,877.09"/>
												</g>
												<g>
													<path class="st11" d="M1327.73,833.76l-27.26-17.97c113.39-172.18,284.92-662.81,36.4-855.19l19.98-25.83
														c63.87,49.44,106.51,119.26,126.74,207.52c17.06,74.44,18.1,161.29,3.1,258.13c-12.39,79.98-35.92,166.26-68.06,249.52
														C1391.08,721.3,1358.8,786.58,1327.73,833.76z"/>
												</g>
											</g>
											<g>
												<g>
													<path class="st8" d="M1306.48-143.87c276.65,214.16,84.57,748.55-34.72,929.69"/>
												</g>
												<g>
													<path class="st11" d="M1286.32,795.42l-29.13-19.21c120.17-182.48,301.96-702.42,38.62-906.28l21.35-27.61
														c67.73,52.43,112.94,126.46,134.39,220.04c18.09,78.92,19.19,171,3.29,273.66c-13.13,84.78-38.08,176.25-72.15,264.51
														C1353.48,676.2,1319.26,745.41,1286.32,795.42z"/>
												</g>
											</g>
											<g>
												<g>
													<path class="st8" d="M1266.1-235.43c292.3,226.28,89.35,790.9-36.69,982.29"/>
												</g>
												<g>
													<path class="st11" d="M1244.91,757.09l-31.01-20.44c126.95-192.77,319.01-742.04,40.83-957.38l22.72-29.38
														c71.58,55.42,119.37,133.66,142.04,232.57c19.11,83.4,20.28,180.7,3.48,289.2c-13.88,89.59-40.24,186.24-76.24,279.5
														C1315.88,631.1,1279.72,704.23,1244.91,757.09z"/>
												</g>
											</g>
											<g>
												<g>
													<path class="st8" d="M1225.72-326.98c307.95,238.39,94.14,833.26-38.65,1034.89"/>
												</g>
												<g>
													<path class="st11" d="M1203.5,718.75l-32.88-21.68c133.73-203.06,336.05-781.65,43.05-1008.47l24.1-31.16
														c75.44,58.4,125.81,140.86,149.69,245.1c20.14,87.89,21.38,190.41,3.67,304.73c-14.62,94.4-42.4,196.23-80.33,294.5
														C1278.28,586,1240.18,663.06,1203.5,718.75z"/>
												</g>
											</g>
											<g>
												<g>
													<path class="st8" d="M1185.34-418.53c323.61,250.51,98.92,875.61-40.62,1087.49"/>
												</g>
												<g>
													<path class="st11" d="M1162.09,680.41l-34.76-22.91c69.33-105.28,158.61-313.22,190.8-520.99
														c26.88-173.49,23.44-407.76-145.54-538.57l25.47-32.93c79.3,61.39,132.24,148.06,157.35,257.62
														c21.17,92.37,22.47,200.12,3.85,320.26c-15.37,99.2-44.56,206.22-84.42,309.49c-17.43,45.16-36.42,88.42-56.43,128.58
														C1199.51,618.92,1180.55,652.38,1162.09,680.41z"/>
												</g>
											</g>
											<g>
												<g>
													<path class="st8" d="M1144.95-510.09c339.26,262.63,103.7,917.96-42.58,1140.09"/>
												</g>
												<g>
													<path class="st11" d="M1120.69,642.07l-36.63-24.15c72.68-110.36,166.27-328.34,200.01-546.15
														c28.17-181.85,24.58-427.41-152.54-564.51l26.84-34.71c83.16,64.37,138.67,155.26,165,270.15
														c22.2,96.85,23.56,209.83,4.04,335.8c-16.11,104.01-46.72,216.21-88.51,324.48c-18.27,47.35-38.18,92.7-59.16,134.81
														C1159.91,577.6,1140.04,612.69,1120.69,642.07z"/>
												</g>
											</g>
											<g>
												<g>
													<path class="st8" d="M1104.57-601.64c354.91,274.74,108.49,960.31-44.55,1192.69"/>
												</g>
												<g>
													<path class="st11" d="M1079.28,603.74l-38.5-25.38C1116.8,462.91,1214.7,234.89,1250,7.05
														c29.47-190.21,25.71-447.06-159.53-590.45l28.22-36.49c87.01,67.36,145.1,162.46,172.65,282.67
														c23.22,101.33,24.65,219.54,4.23,351.33c-16.86,108.81-48.88,226.2-92.6,339.48c-19.12,49.53-39.94,96.99-61.9,141.04
														C1120.32,536.28,1099.53,572.99,1079.28,603.74z"/>
												</g>
											</g>
										</g>
									</g>
								</g>
								<g>
									<path class="st15" d="M1464.41,637.46c-115.26,0-177.37-133.03-189.95-227.35c0,0,0,0,0,0
										c0,97.45,62.76,242.18,173.61,255.28C1452.91,655.51,1458.33,646.11,1464.41,637.46z"/>
								</g>
							</g>
						</g>
					</g>
				</g>
			</g>
		</g>
	</g>
</g>
</svg>
