<svg version="1.1" id="Layer_1" xmlns="http://www.w3.org/2000/svg" xmlns:xlink="http://www.w3.org/1999/xlink" x="0px" y="0px" viewBox="0 0 138 207.5" style="enable-background:new 0 0 138 207.5;" xml:space="preserve"><style type="text/css">.st0{fill:#29327C; opacity:0;}.st1{fill:none;}</style><path class="st0" d="M50.5,203.7c0.7-0.2,1.3-0.4,2-0.7c37.5-13.3,64.4-41.8,80.1-84.8c-21.9,41.4-53.2,60.2-77.6,68.8c-19.4,6.8-36.8,8.1-47.7,8.1c-1,0-1.9,0-2.7,0v8.6L50.5,203.7z" style="opacity: 1;"></path><path class="st0" d="M50.1,175.6c0.4-0.1,0.9-0.3,1.3-0.4c9.2-3.3,17.8-7.5,25.7-12.5l-7.4-15.8c-2.7,2-5.9,3.8-9.7,5.4L50.1,175.6z" style="opacity: 1;"></path><path class="st0" d="M30,85.3c-4,0-7.3-3.3-7.3-7.3c0-4,3.3-7.3,7.3-7.3c4,0,7.3,3.3,7.3,7.3C37.3,82,34.1,85.3,30,85.3 M132,88.8c-13.8-28.6-30.9-47.2-50.2-54.4c-27.4-10.2-51,5-51.2,5.2l-2.9,1.9L4.5,30.2l0,152.5c6.8,0.1,17.7-0.2,30.5-2.9l15.7-37.2l2.5-0.9c11.4-4.2,17.8-11.6,19.1-22.2c0.9-8.2-1.5-15.3-1.6-15.3l11.6-4.2c0.1,0.4,3.5,9.8,2.2,21c-0.6,5-2.1,10.8-5.7,16.3l8.5,18C106.9,139.5,121.9,117.2,132,88.8" style="opacity: 1;"></path><path class="st0" d="M119.1,203.7l15.3,0l0-25.7C129.8,187.7,124.6,196.2,119.1,203.7" style="opacity: 1;"></path><path class="st0" d="M80,203.7l23.3,0c13-15.1,23.1-34.3,30.3-57.6C118.5,174.7,98.8,192.6,80,203.7" style="opacity: 1;"></path><path class="st0" d="M26.9,27.4c8.3-4.5,32-14.7,59.2-4.6c18.6,6.9,34.8,21.8,48.4,44.4l0-62.6l-130,0l0,11.9L26.9,27.4z" style="opacity: 1;"></path><rect x="-407.5" y="-280" class="st1" width="1366" height="768"></rect></svg>