<svg xmlns:dc="http://purl.org/dc/elements/1.1/" xmlns:cc="http://creativecommons.org/ns#"
  xmlns:rdf="http://www.w3.org/1999/02/22-rdf-syntax-ns#" xmlns:svg="http://www.w3.org/2000/svg"
  xmlns="http://www.w3.org/2000/svg" xmlns:sodipodi="http://sodipodi.sourceforge.net/DTD/sodipodi-0.dtd"
  xmlns:inkscape="http://www.inkscape.org/namespaces/inkscape" sodipodi:docname="faccia.svg"
  inkscape:version="1.0 (4035a4fb49, 2020-05-01)" id="svg8" version="1.1" viewBox="0 0 141.30344 257.54312"
  height="257.54312mm" width="141.30344mm">
  <g transform="translate(-34.425675,-17.127251)" id="layer1" inkscape:groupmode="layer" inkscape:label="Livello 1">
    <g transform="matrix(0.11714182,0,0,-0.11714182,-69.251759,342.54172)" id="g126">
      <g transform="translate(1473.7606,1384.261)" id="g28">
        <path id="path30" style="fill:#000000;fill-opacity:1;fill-rule:nonzero;stroke:none"
          d="m 0,0 c -67.614,-35.707 -138.38,-65.545 -211.555,-87.819 -72.769,-21.757 -148.029,-36.644 -224.096,-38.761 2.456,-26.735 4.962,-53.471 7.661,-80.191 3.394,-35.22 7.08,-70.506 15.226,-105.016 14.694,-67.533 36.288,-133.709 66.208,-196.086 29.225,-60.615 66.241,-117.997 113.229,-166.408 40.879,-41.93 89.564,-77.393 144.91,-97.469 29.79,-11.299 61.504,-16.552 93.104,-19.105 30.454,0.161 61.068,3.474 90.421,11.896 29.597,8.405 57.949,21.143 84.085,37.387 51.968,32.053 95.805,76.116 131.737,125.222 39.457,53.908 69.958,114.005 93.38,176.463 24.908,67.857 42.85,138.509 50.803,210.423 2.376,19.089 4.574,38.195 6.773,57.301 3.474,44.434 4.154,89.096 2.181,133.628 -0.403,2.376 0.178,5.107 -1.26,7.128 C 392.752,40.28 330.683,120.098 281.011,207.238 199.657,123.186 103.077,54.796 0,0 m -292.601,1270.618 c 75.211,72.383 176.786,116.818 281.092,122.184 10.296,-0.323 20.561,1.73 30.873,0.485 67.889,0.048 135.616,-16.859 196.117,-47.587 81.273,-40.959 149.163,-107.782 191.722,-188.197 44.645,-83.034 60.825,-180.601 47.037,-273.753 -12.883,-87.69 -52.727,-171.468 -113.406,-236.141 52.694,-35.237 100.507,-77.958 140.174,-127.485 40.458,-49.833 72.705,-106.277 95.707,-166.182 54.811,-141.71 54.311,-303.672 -0.631,-445.269 -19.897,-51.53 -46.584,-100.54 -79.753,-144.716 13.885,-4.105 26.315,-13.675 32.457,-26.962 7.031,-14.386 6.773,-32.247 -1.131,-46.245 -6.692,-13.141 -19.93,-22.517 -34.301,-25.377 -13.949,-3.136 -28.431,0.97 -40.344,8.324 -6.822,-33.169 -16.941,-65.577 -27.576,-97.711 -22.565,-64.591 -52.081,-127.065 -90.809,-183.623 -35.642,-52.113 -79.106,-99.619 -131.365,-135.454 -57.673,-40.297 -127.809,-64.268 -198.559,-61.569 -66.595,1.762 -131.186,26.848 -184.883,65.594 -49.705,35.35 -91.246,81.24 -125.578,131.429 -39.699,58.061 -69.845,122.264 -92.522,188.731 -9.942,30.469 -19.413,61.18 -25.879,92.587 -10.054,-6.029 -21.644,-10.215 -33.525,-9.23 -16.939,1.002 -33.345,11.089 -41.104,26.299 -7.694,13.643 -8.195,30.971 -1.633,45.146 5.948,13.821 18.686,23.858 32.958,28.061 -19.122,25.7 -36.611,52.775 -50.916,81.482 -75.728,142.809 -90.777,315.91 -42.803,470.098 19.462,62.861 49.091,122.588 87.334,176.155 43.854,61.197 98.909,114.328 161.851,155.643 -41.671,44.984 -73.967,98.714 -93.897,156.727 -21.854,62.796 -28.836,130.555 -21.336,196.569 5.834,42.156 15.485,84.037 32.683,123.154 23.632,55.135 58.514,105.438 101.946,146.833" />
      </g>
      <path id="path34" style="fill:#000000;fill-opacity:1;fill-rule:nonzero;stroke:none"
        d="M 0,0 C -5.286,4.332 -0.873,14.289 5.851,12.721 15.452,9.439 24.634,5.011 34.3,1.858 c 73.206,-25.522 155.222,-24.569 227.846,2.62 7.534,2.391 14.452,6.449 22.114,8.437 5.931,0.097 9.666,-7.613 5.64,-12.042 -3.798,-3.298 -8.922,-4.397 -13.432,-6.385 5.593,-16.164 12.366,-31.876 18.072,-48.008 1.664,-4.978 -3.201,-10.49 -8.373,-9.035 -4.203,-0.194 -5.383,4.526 -6.725,7.565 -5.447,14.677 -11.282,29.224 -16.503,43.982 -9.068,-2.328 -17.715,-6.078 -26.897,-8.017 3.217,-16.488 7.985,-32.635 11.719,-49.009 1.213,-4.349 -1.956,-9.812 -6.854,-9.343 -4.234,-0.566 -6.789,3.362 -7.564,6.982 -3.864,15.841 -7.986,31.633 -11.573,47.523 -9.182,-1.552 -18.282,-3.54 -27.479,-4.898 1.519,-17.167 4.444,-34.187 5.851,-51.369 0.097,-6.369 -7.338,-8.034 -12.236,-6.029 -2.942,5.237 -2.91,11.347 -3.637,17.117 -1.407,12.819 -3.249,25.572 -4.558,38.373 -9.197,-0.597 -18.379,-1.115 -27.56,-1.535 -0.485,-17.117 0.226,-34.267 -0.388,-51.369 -0.146,-7.597 -12.721,-8.825 -14.063,-1.212 -1.357,17.457 -0.096,35.075 -0.597,52.598 -9.198,0.42 -18.395,0.872 -27.577,1.503 -2.117,-17.053 -3.846,-34.171 -6.417,-51.16 -1.034,-7.936 -14.24,-5.948 -14.127,1.552 1.746,17.198 4.122,34.332 6.045,51.515 -9.229,1.406 -18.394,3.103 -27.51,4.978 -3.896,-16.39 -7.921,-32.764 -12.123,-49.089 -0.744,-6.175 -10.555,-7.5 -13.125,-2.005 -2.085,3.055 -0.582,6.692 0.081,9.892 3.733,14.887 7.241,29.839 10.959,44.726 -9.133,2.376 -17.992,5.738 -27.108,8.227 -5.835,-15.921 -11.767,-31.826 -18.055,-47.57 -2.748,-7.969 -16.681,-3.2 -13.432,4.962 5.738,16.148 12.042,32.103 17.99,48.153 C 8.453,-3.702 3.976,-2.344 0,0"
        transform="translate(1121.37,1216.511)" />
      <g transform="translate(1563.6971,1219.7112)" id="g36">
        <path id="path38" style="fill:#000000;fill-opacity:1;fill-rule:nonzero;stroke:none"
          d="m 0,0 c -1.859,6.304 5.35,12.155 11.023,8.6 68.6,-30.244 147.351,-36.709 219.927,-17.797 18.298,4.445 35.821,11.363 53.244,18.345 6.531,3.04 12.544,-6.481 7.872,-11.588 -3.927,-3.121 -8.97,-4.251 -13.463,-6.289 6.012,-16.034 12.203,-32.02 18.054,-48.12 3.087,-8.195 -10.668,-12.947 -13.48,-4.978 -6.288,15.744 -12.221,31.649 -18.072,47.57 -9.1,-2.505 -17.959,-5.835 -27.09,-8.243 4.008,-16.795 8.469,-33.508 12.089,-50.384 1.278,-7.887 -11.475,-10.732 -13.771,-3.361 -4.525,16.633 -8.519,33.443 -12.479,50.221 -9.148,-1.794 -18.281,-3.637 -27.527,-4.898 1.86,-16.648 3.928,-33.266 5.933,-49.898 1.357,-5.576 -5.61,-10.313 -10.49,-7.758 -3.718,0.904 -3.622,5.317 -4.219,8.292 -1.973,15.807 -3.945,31.6 -5.723,47.425 -9.197,-0.728 -18.41,-0.987 -27.607,-1.535 -0.518,-17.506 0.758,-35.141 -0.599,-52.598 -1.357,-7.613 -13.917,-6.385 -14.062,1.212 -0.566,17.101 0.015,34.252 -0.34,51.369 -9.198,0.452 -18.378,0.824 -27.528,1.648 -1.794,-15.501 -3.879,-30.969 -5.544,-46.487 -0.242,-3.2 -1.325,-6.239 -2.731,-9.116 -4.833,-1.924 -12.285,-0.453 -12.204,5.899 1.309,17.215 4.316,34.284 5.819,51.499 -9.214,1.358 -18.298,3.362 -27.463,4.898 -3.523,-15.534 -7.581,-30.954 -11.298,-46.455 -0.857,-3.735 -2.942,-8.859 -7.694,-7.953 -5.383,-0.744 -8.389,5.528 -6.886,10.038 3.863,16.083 8.34,32.02 11.622,48.216 -9.198,1.924 -17.845,5.69 -26.914,8.018 -5.802,-15.873 -11.751,-31.714 -17.99,-47.425 -2.263,-7.452 -15.064,-4.445 -13.901,3.362 5.254,16.778 12.689,32.877 18.346,49.559 C 9.779,-6.207 2.748,-5.576 0,0" />
      </g>
      <g transform="translate(1421.7928,862.5999)" id="g40">
        <path id="path42" style="fill:#e53e30;fill-opacity:1;fill-rule:nonzero;stroke:none"
          d="M 0,0 C 10.006,5.399 21.354,11.299 33.056,8.325 46.876,4.753 59.273,-2.699 71.3,-10.167 c 11.654,7.193 23.647,14.306 36.886,18.201 10.83,3.2 21.918,-1.228 31.407,-6.305 24.94,-14.126 46.778,-33.152 66.983,-53.324 -14.176,-26.509 -35.77,-49.009 -61.585,-64.382 -31.309,-18.474 -69.845,-24.633 -105.227,-16.018 -43.756,11.17 -79.834,42.884 -103.741,80.351 C -44.354,-32.506 -23.744,-13.917 0,0" />
      </g>
    </g>
  </g>
</svg>