<svg xmlns:dc="http://purl.org/dc/elements/1.1/" xmlns:cc="http://creativecommons.org/ns#"
  xmlns:rdf="http://www.w3.org/1999/02/22-rdf-syntax-ns#" xmlns:svg="http://www.w3.org/2000/svg"
  xmlns="http://www.w3.org/2000/svg" viewBox="0 0 705.54669 75.58667" height="75.58667" width="705.54669"
  xml:space="preserve" id="svg2" version="1.1">
  <defs id="defs6"></defs>
  <g transform="matrix(1.3333333,0,0,-1.3333333,0,75.586667)" id="g10">
    <g transform="scale(0.1)" id="g12">
      <path id="path14" style="fill-opacity:1;fill-rule:nonzero;stroke:none"
        d="M 94.4922,0.00390625 H 0 V 377.973 c 0,51.965 42.5234,94.496 94.4922,94.496 z M 330.723,377.973 V 94.4922 c -51.969,0 -94.493,42.5238 -94.493,94.4848 v 283.492 c 51.965,0 94.493,-42.531 94.493,-94.496 m 141.738,188.976 h 94.492 V 188.977 c 0,-51.961 -42.527,-94.4848 -94.492,-94.4848 V 566.949">
      </path>
      <path id="path16" style="fill-opacity:1;fill-rule:nonzero;stroke:none"
        d="m 685.066,94.4922 c -51.968,0 -94.492,42.5238 -94.492,94.4958 v 188.977 c 0,51.98 42.524,94.5 94.492,94.5 z M 1063.04,472.465 c 51.96,0 94.48,-42.52 94.48,-94.5 V 188.988 c 0,-51.972 -42.52,-94.4958 -94.48,-94.4958 V 472.465">
      </path>
      <path id="path18" style="fill-opacity:1;fill-rule:nonzero;stroke:none"
        d="m 1842.59,330.727 c -38.98,0 -70.87,31.89 -70.87,70.863 0,38.98 31.89,70.875 70.87,70.875 h 23.62 V 330.727 Z M 2244.18,94.4922 V 236.223 h 23.62 c 38.99,0 70.87,-31.875 70.87,-70.86 0,-38.984 -31.88,-70.8708 -70.87,-70.8708 h -23.62">
      </path>
      <path id="path20" style="fill-opacity:1;fill-rule:nonzero;stroke:none"
        d="m 2433.17,330.727 c -38.99,0 -70.87,31.89 -70.87,70.863 0,38.98 31.88,70.875 70.87,70.875 h 23.62 V 330.727 Z m 23.62,-236.2348 h -23.62 c -38.99,0 -70.87,31.8868 -70.87,70.8708 0,38.985 31.88,70.86 70.87,70.86 h 23.62 V 94.4922">
      </path>
      <path id="path22" style="fill-opacity:1;fill-rule:nonzero;stroke:none"
        d="m 3047.36,0.00390625 h -94.49 V 377.973 c 0,51.965 42.53,94.496 94.49,94.496 z M 3425.32,472.469 c 51.98,0 94.5,-42.531 94.5,-94.496 V 0.00390625 h -94.5 V 472.469">
      </path>
      <path id="path24" style="fill-opacity:1;fill-rule:nonzero;stroke:none"
        d="m 3614.31,330.727 c -38.97,0 -70.86,31.89 -70.86,70.863 0,38.98 31.89,70.875 70.86,70.875 h 23.63 V 330.727 Z M 4015.91,94.4922 V 236.223 h 23.63 c 38.96,0 70.86,-31.875 70.86,-70.86 0,-38.984 -31.9,-70.8708 -70.86,-70.8708 h -23.63">
      </path>
      <path id="path26" style="fill-opacity:1;fill-rule:nonzero;stroke:none"
        d="m 4228.51,94.4922 c -51.96,0 -94.49,42.5238 -94.49,94.4958 v 188.977 c 0,51.98 42.53,94.5 94.49,94.5 z m 377.97,377.9728 c 51.97,0 94.5,-42.52 94.5,-94.5 V 188.988 c 0,-51.972 -42.53,-94.4958 -94.5,-94.4958 V 472.465">
      </path>
      <path id="path28" style="fill-opacity:1;fill-rule:nonzero;stroke:none"
        d="M 4819.09,0.00390625 H 4724.6 V 377.973 c 0,51.965 42.53,94.496 94.49,94.496 z M 5055.32,377.973 V 94.4922 c -51.97,0 -94.49,42.5238 -94.49,94.4848 v 283.492 c 51.97,0 94.49,-42.531 94.49,-94.496 m 141.74,188.976 h 94.49 V 188.977 c 0,-51.961 -42.53,-94.4848 -94.49,-94.4848 V 566.949">
      </path>
    </g>
  </g>
</svg>