<svg version="1.1" xmlns="http://www.w3.org/2000/svg" xmlns:xlink="http://www.w3.org/1999/xlink" x="0px" y="0px"
  width="500px" height="500px" viewBox="0 0 5000 5000" preserveAspectRatio="xMidYMid meet">
  <g id="layer101">
    <path fill="rgb(68, 68, 68)"
      d="M2365 4884 c-703 -53 -1301 -364 -1736 -904 -184 -228 -352 -563 -429 -853 -65 -245 -75 -327 -75 -622 0 -298 13 -408 76 -633 231 -826 879 -1468 1693 -1677 245 -63 302 -69 606 -70 246 0 289 3 405 24 477 85 903 301 1254 635 145 138 324 372 431 565 407 736 393 1654 -38 2370 -376 625 -992 1037 -1705 1141 -126 19 -383 31 -482 24z m-575 -1014 c158 -81 158 -320 0 -403 -48 -25 -63 -28 -120 -25 -81 5 -134 30 -171 81 -68 94 -62 222 15 305 63 70 186 88 276 42z m2364 5 c78 -33 126 -114 126 -210 0 -135 -91 -225 -227 -225 -74 1 -129 25 -176 80 -63 74 -70 189 -16 277 55 88 188 124 293 78z m-3272 -87 l3 -103 98 -3 c76 -2 97 -6 97 -17 0 -11 -21 -15 -97 -17 l-98 -3 -3 -82 -3 -83 106 0 c87 0 105 -3 105 -15 0 -11 -11 -15 -37 -15 -21 0 -75 -3 -120 -7 l-83 -6 0 227 c0 192 2 226 15 226 11 0 15 -20 17 -102z m1468 -85 c0 -170 1 -186 16 -172 8 9 71 92 138 185 67 93 130 170 139 172 16 3 17 -16 17 -217 0 -190 -2 -221 -15 -221 -12 0 -15 16 -15 83 0 45 -3 126 -7 179 l-6 97 -61 -82 c-34 -45 -95 -128 -135 -184 -41 -57 -80 -103 -88 -103 -10 0 -13 45 -13 225 0 193 2 225 15 225 13 0 15 -27 15 -187z m953 171 c141 -48 190 -237 92 -352 -45 -52 -100 -73 -212 -79 l-93 -6 0 227 0 226 83 0 c50 0 102 -6 130 -16z" />
    <path fill="rgb(68, 68, 68)"
      d="M1594 3841 c-23 -10 -54 -36 -70 -56 -23 -31 -29 -50 -32 -106 -4 -59 -1 -74 21 -111 42 -71 136 -110 217 -88 49 13 108 63 126 107 30 71 9 178 -43 225 -53 48 -149 61 -219 29z" />
    <path fill="rgb(68, 68, 68)" d="M3963 3839 c-132 -65 -135 -277 -4 -343 172 -87 353 93 266 264 -45 87 -169 125 -262 79z" />
    <path fill="rgb(68, 68, 68)"
      d="M3128 3854 c-5 -4 -8 -90 -8 -191 l0 -183 75 0 c56 0 86 5 114 20 130 66 135 259 8 330 -39 22 -175 40 -189 24z" />
  </g>
</svg>