<?xml version="1.0" standalone="no"?>
<!DOCTYPE svg PUBLIC "-//W3C//DTD SVG 1.1//EN" "http://www.w3.org/Graphics/SVG/1.1/DTD/svg11.dtd" >
<svg xmlns="http://www.w3.org/2000/svg" xmlns:xlink="http://www.w3.org/1999/xlink" version="1.1">
<metadata>
Created by FontForge 20170731 at Mon Oct 19 10:36:53 2020
 By Aleksey,,,
</metadata>
<defs>
<font id="BottegaVenetaBold" horiz-adv-x="1310" >
  <font-face 
    font-family="Bottega Veneta"
    font-weight="700"
    font-stretch="normal"
    units-per-em="2048"
    panose-1="0 0 0 0 0 0 0 0 0 0"
    ascent="1638"
    descent="-410"
    x-height="1117"
    cap-height="1464"
    bbox="-55 -761 2074 2153"
    underline-thickness="102"
    underline-position="-307"
    unicode-range="U+000A-20AC"
  />
<missing-glyph horiz-adv-x="1079" 
d="M102 1434h875v-1434h-875v1434zM160 1393l379 -633l381 633h-760zM514 717l-369 614v-1231zM541 674l-379 -631h758zM565 717l371 -621v1239z" />
    <glyph glyph-name=".notdef" horiz-adv-x="1079" 
d="M102 1434h875v-1434h-875v1434zM160 1393l379 -633l381 633h-760zM514 717l-369 614v-1231zM541 674l-379 -631h758zM565 717l371 -621v1239z" />
    <glyph glyph-name=".null" horiz-adv-x="0" 
 />
    <glyph glyph-name=".null" horiz-adv-x="0" 
 />
    <glyph glyph-name="nonmarkingreturn" horiz-adv-x="682" 
 />
    <glyph glyph-name="controlLF" unicode="&#xa;" horiz-adv-x="0" 
 />
    <glyph glyph-name="controlCR" unicode="&#xd;" horiz-adv-x="0" 
 />
    <glyph glyph-name="space" unicode=" " horiz-adv-x="638" 
 />
    <glyph glyph-name="exclam" unicode="!" horiz-adv-x="630" 
d="M315 246q59 0 100 -41t41 -100t-41 -100t-100 -41t-100 41t-41 100t41 100t100 41zM435 389h-240v1347h240v-1347z" />
    <glyph glyph-name="quotedbl" unicode="&#x22;" horiz-adv-x="722" 
d="M288 1240h-141v438h141v-438zM575 1240h-140v438h140v-438z" />
    <glyph glyph-name="numbersign" unicode="#" horiz-adv-x="1634" 
d="M1462 972h-295l-36 -269h295l-25 -184h-295l-42 -308h-204l42 308h-256l-41 -308h-204l41 308h-295l25 184h295l37 269h-295l25 184h295l41 308h204l-41 -308h255l42 308h204l-42 -308h295zM927 703l36 269h-255l-37 -269h256z" />
    <glyph glyph-name="dollar" unicode="$" horiz-adv-x="1355" 
d="M899 813q141 -53 225 -162.5t84 -241.5q0 -161 -125 -286t-313 -152v-171h-182v171q-30 4 -60 11.5t-71.5 23t-78 36t-75.5 53.5t-68.5 73t-52.5 97t-32 124l-3 18l243 49l3 -21q19 -181 195 -227v465l-134 50q-129 47 -205.5 147t-76.5 219q0 148 118.5 262t296.5 138
v170h183v-173q48 -8 92.5 -22t99.5 -45t97.5 -73t76.5 -110t45 -153l2 -17l-229 -51l-2 22q-18 164 -182 211v-387zM588 928v322q-73 -19 -118 -63t-45 -97q0 -47 35 -87t95 -63zM770 208q82 22 132 77t50 122q0 61 -42 112.5t-112 76.5l-28 10v-398z" />
    <glyph glyph-name="percent" unicode="%" horiz-adv-x="1939" 
d="M1602 1511l-3 -4l-1110 -1660l-151 101l3 4l1110 1660zM874 1079q0 -172 -106.5 -293.5t-256.5 -121.5t-257 121.5t-107 293.5t107 294t257 122t256.5 -122t106.5 -294zM335 1079q0 -94 51.5 -161t124.5 -67t124 66.5t51 161.5t-51 162t-124 67t-124.5 -67t-51.5 -162z
M1429 795q150 0 256.5 -121.5t106.5 -293.5t-106.5 -294t-256.5 -122t-257 122t-107 294t107 293.5t257 121.5zM1429 151q73 0 124 67t51 162t-51 161.5t-124 66.5t-124.5 -67t-51.5 -161q0 -95 51.5 -162t124.5 -67z" />
    <glyph glyph-name="ampersand" unicode="&#x26;" horiz-adv-x="1601" 
d="M1146 395l308 -400h-310l-123 160q-65 -92 -167.5 -141.5t-228.5 -49.5q-97 0 -185.5 34.5t-152.5 92.5t-102 139t-38 169q0 91 38.5 173t111.5 144l176 151l-88 115q-66 84 -66 187q0 134 104.5 230t252.5 96t252.5 -96t104.5 -230q0 -140 -112 -236l-114 -98l170 -220
l130 266h275zM676 1262q-43 0 -73.5 -27.5t-30.5 -65.5q0 -26 18 -51l70 -91l89 76q31 28 31 66t-30.5 65.5t-73.5 27.5zM833 319l24 49l-237 308l-151 -130q-70 -61 -70 -147q0 -84 66 -143.5t160 -59.5q150 0 208 123z" />
    <glyph glyph-name="quotesingle" unicode="'" horiz-adv-x="292" 
d="M216 1240h-140v438h140v-438z" />
    <glyph glyph-name="parenleft" unicode="(" horiz-adv-x="782" 
d="M330 657q0 -530 285 -972l20 -31h-215l-6 10q-267 460 -267 993q0 535 267 993l6 9h215l-19 -30q-286 -444 -286 -972z" />
    <glyph glyph-name="parenright" unicode=")" horiz-adv-x="782" 
d="M368 1650q267 -458 267 -993q0 -533 -267 -993l-5 -10h-215l19 31q286 444 286 972t-286 972l-20 30h216z" />
    <glyph glyph-name="asterisk" unicode="*" horiz-adv-x="1169" 
d="M1021 1422l-273 -158l201 -246l-141 -116l-224 274l-223 -274l-142 116l202 246l-274 158l92 158l254 -147v303h183v-303l254 147z" />
    <glyph glyph-name="plus" unicode="+" horiz-adv-x="1331" 
d="M768 822h416v-185h-416v-426h-204v426h-417v185h417v426h204v-426z" />
    <glyph glyph-name="comma" unicode="," horiz-adv-x="595" 
d="M269 251l178 -52l-150 -459l-150 44z" />
    <glyph glyph-name="hyphen" unicode="-" horiz-adv-x="1067" 
d="M940 586h-829v185h829v-185z" />
    <glyph glyph-name="period" unicode="." horiz-adv-x="577" 
d="M288 246q58 0 99.5 -41t41.5 -100t-41.5 -100t-99.5 -41t-99.5 41t-41.5 100t41.5 100t99.5 41z" />
    <glyph glyph-name="slash" unicode="/" horiz-adv-x="1099" 
d="M782 1530l169 -70l-2 -5l-633 -1527l-169 70l2 4z" />
    <glyph glyph-name="zero" unicode="0" horiz-adv-x="1320" 
d="M661 -35q-151 0 -280 102.5t-204 278.5t-75 384t75 384t204 278.5t280 102.5t280 -102.5t204 -278.5t75 -384t-75 -384t-204 -278.5t-280 -102.5zM661 1256q-88 0 -162 -70.5t-117.5 -191.5t-43.5 -264t43.5 -264t117.5 -191.5t162 -70.5t162.5 70.5t118 191.5t43.5 264
t-43.5 264t-118 191.5t-162.5 70.5z" />
    <glyph glyph-name="one" unicode="1" horiz-adv-x="866" 
d="M78 1209l404 255h128v-1469h-241v1128l-170 -106z" />
    <glyph glyph-name="two" unicode="2" horiz-adv-x="1249" 
d="M800 913q95 59 95 154q0 83 -76 141t-184 58q-97 0 -171 -50t-87 -124l-3 -20l-232 51l3 19q31 153 169.5 253t320.5 100q205 0 351 -125.5t146 -301.5q0 -101 -54 -192t-149 -151l-467 -290q-52 -33 -81 -80.5t-29 -100.5v-32h785v-227h-1031v251q0 109 57.5 207.5
t158.5 163.5z" />
    <glyph glyph-name="three" unicode="3" horiz-adv-x="1271" 
d="M614 204q117 0 200 66t83 159t-83 159t-200 66h-158v223h158q108 0 184 57t76 137t-76 137.5t-184 57.5q-99 0 -173 -49t-85 -123l-4 -21l-231 51l4 19q32 153 170 252.5t319 99.5q205 0 351 -125.5t146 -301.5q0 -84 -37.5 -162.5t-106.5 -137.5q84 -65 130 -155
t46 -188q0 -125 -71 -231t-193 -168t-265 -62q-135 0 -251 54t-189 150t-86 213l-2 18l245 49l1 -23q2 -92 84.5 -156.5t197.5 -64.5z" />
    <glyph glyph-name="four" unicode="4" horiz-adv-x="1239" 
d="M780 1464h185v-913h183v-217h-183v-339h-242v339h-676v204l4 6zM340 551h383v480z" />
    <glyph glyph-name="five" unicode="5" horiz-adv-x="1275" 
d="M629 204q111 0 190 79t79 190t-79 190t-190 79q-67 0 -126.5 -31t-96.5 -86l-8 -12l-228 68l1 4l139 779h739v-227h-554l-58 -311q103 56 219 56q130 0 241 -68.5t175.5 -185.5t64.5 -255t-64.5 -255t-175.5 -185.5t-241 -68.5q-4 0 -10 0.5t-10 0.5l-7 -1
q-145 0 -267.5 75.5t-187.5 205.5l-8 16l209 121l9 -20q33 -72 99.5 -115t145.5 -43z" />
    <glyph glyph-name="six" unicode="6" horiz-adv-x="1382" 
d="M160 730q0 227 70.5 401t200 269.5t297.5 95.5q145 0 267 -75.5t187 -205.5l9 -16l-209 -121l-9 20q-33 72 -99.5 115t-145.5 43q-136 0 -224 -118t-105 -323q68 80 161 123.5t195 43.5q130 0 241 -68.5t175.5 -185.5t64.5 -255t-64.5 -255t-175.5 -185.5t-241 -68.5
l-27 1q-255 0 -411.5 211t-156.5 554zM728 742q-111 0 -190 -79t-79 -190t79 -190t190 -79t190 79t79 190t-79 190t-190 79z" />
    <glyph glyph-name="seven" unicode="7" horiz-adv-x="1067" 
d="M53 1237v227h975v-213l-2 -3l-609 -1253h-245l3 7l593 1235h-715z" />
    <glyph glyph-name="eight" unicode="8" horiz-adv-x="1320" 
d="M183 1068q0 176 146 301.5t351 125.5t351 -125.5t146 -301.5q0 -84 -37.5 -162.5t-106.5 -137.5q84 -65 130 -155t46 -188q0 -125 -71 -231t-193 -168t-265 -62t-264.5 62t-192.5 168t-71 231q0 99 45.5 188.5t129.5 154.5q-69 59 -106.5 137.5t-37.5 162.5zM680 868
q108 0 184 58t76 141t-76 141t-184 58t-184 -58t-76 -141t76 -141t184 -58zM680 663q-117 0 -200 -67.5t-83 -162.5t83 -162t200 -67t200 67t83 162t-83 162.5t-200 67.5z" />
    <glyph glyph-name="nine" unicode="9" horiz-adv-x="1294" 
d="M642 1495q255 0 411.5 -211t156.5 -554q0 -227 -70.5 -401t-200 -269.5t-297.5 -95.5q-145 0 -267.5 75.5t-187.5 205.5l-8 16l209 121l9 -20q33 -72 99.5 -115t145.5 -43q136 0 224 118t105 323q-68 -80 -161.5 -123.5t-195.5 -43.5q-130 0 -241 68.5t-175.5 185.5
t-64.5 255t64.5 255t175.5 185.5t241 68.5zM642 718q111 0 190 79t79 190t-79 190t-190 79t-190.5 -79t-79.5 -190t79.5 -190t190.5 -79z" />
    <glyph glyph-name="colon" unicode=":" horiz-adv-x="577" 
d="M288 866q-58 0 -99.5 41t-41.5 100q0 58 41 99t100 41t100 -41t41 -99q0 -59 -41.5 -100t-99.5 -41zM288 246q58 0 99.5 -41t41.5 -100t-41.5 -100t-99.5 -41t-99.5 41t-41.5 100t41.5 100t99.5 41z" />
    <glyph glyph-name="semicolon" unicode=";" horiz-adv-x="600" 
d="M312 866q-58 0 -99.5 41t-41.5 100q0 58 41 99t100 41t100 -41t41 -99q0 -59 -41.5 -100t-99.5 -41zM147 -216l122 467l178 -52l-150 -459z" />
    <glyph glyph-name="less" unicode="&#x3c;" horiz-adv-x="1054" 
d="M907 1103l-535 -365l535 -364l-104 -152l-656 446v141l3 1l653 445z" />
    <glyph glyph-name="equal" unicode="=" horiz-adv-x="1271" 
d="M1125 514h-978v184h978v-184zM1125 842h-978v184h978v-184z" />
    <glyph glyph-name="greater" unicode="&#x3e;" horiz-adv-x="1054" 
d="M251 1255l656 -446v-141l-3 -1l-653 -445l-104 152l535 364l-535 365z" />
    <glyph glyph-name="question" unicode="?" horiz-adv-x="1302" 
d="M629 246q59 0 100 -41t41 -100t-41 -100t-100 -41q-58 0 -99 41t-41 100t41 100t99 41zM989 1377q148 -120 148 -288q0 -56 -17.5 -110t-39.5 -91.5t-61.5 -80.5t-63 -63.5t-64.5 -54.5q-53 -43 -69 -62q-73 -83 -73 -218l1 -20h-20h-220v20q0 11 1 28.5t8 62.5t19.5 88
t39.5 97t63 96q38 43 109 97q36 28 53.5 43t39.5 41.5t31 57t9 69.5q0 71 -73.5 122t-176.5 51q-9 0 -17.5 -0.5t-36.5 -4.5t-51.5 -11.5t-54.5 -24t-53 -39.5t-40.5 -60.5t-23.5 -84.5l-2 -22l-229 51l2 18q11 81 43 147.5t73 108t93.5 72.5t97.5 46.5t93 24.5t71.5 10.5
t40.5 1.5h1q203 0 349 -118z" />
    <glyph glyph-name="at" unicode="@" horiz-adv-x="1824" 
d="M1678 731v-2q0 -11 -3 -46l-1 -9q-5 -47 -13 -72l-2 -3l-1 -1v-3q-43 -153 -157 -239q-117 -87 -238 -53q-83 24 -138 102q-96 -124 -283 -124q-127 0 -217 78t-90 187q0 149 130.5 223.5t395.5 77.5v50q0 41 -44 70.5t-106 29.5q-60 0 -103.5 -27.5t-46.5 -67.5l-2 -24
l-194 58l4 18q25 97 120 160.5t217 63.5q143 0 244 -82.5t101 -199.5v-277q-1 -55 17.5 -93t49.5 -47q44 -13 92.5 35.5t71.5 127.5q13 45 13 88q0 158 -78 292t-212 212t-292 78q-118 0 -226 -46t-186 -124t-124.5 -186t-46.5 -226t46.5 -226t124.5 -186t186 -124.5
t226 -46.5q164 0 306 88l132 -132q-197 -139 -438 -139q-155 0 -297 61t-244.5 163.5t-163.5 244.5t-61 297t61 297t163.5 244.5t244.5 163t297 60.5t296.5 -60.5t244 -163t163.5 -244t61 -296.5zM1061 644v39h-4q-166 0 -252 -34.5t-86 -100.5q0 -37 36.5 -64t87.5 -27
q89 0 153 53t65 128v2v4z" />
    <glyph glyph-name="A" unicode="A" horiz-adv-x="1413" 
d="M477 393l-138 -398h-257l2 7l529 1462h223l1 -3l530 -1466h-257l-1 3l-137 395h-495zM553 609h343l-171 493z" />
    <glyph glyph-name="B" unicode="B" horiz-adv-x="1441" 
d="M1272 411q0 -172 -122 -294t-294 -122h-643v1469h618q161 0 274.5 -114t113.5 -274q0 -91 -40 -171t-112 -136q96 -56 150.5 -151t54.5 -207zM1028 441q0 90 -64.5 154t-154.5 64h-353v-437h353q90 0 154.5 64.5t64.5 154.5zM797 876q74 0 126.5 52.5t52.5 126.5
t-52.5 127t-126.5 53h-341v-359h341z" />
    <glyph glyph-name="C" unicode="C" horiz-adv-x="1546" 
d="M799 -36q-136 0 -259.5 61t-213 163.5t-142.5 244.5t-53 297t53 297t142.5 244.5t213 163t259.5 60.5q201 0 368 -127t246 -339l7 -20l-5 -1l-233 -69l-7 17q-51 140 -153 223.5t-223 83.5q-113 0 -208.5 -71.5t-151.5 -194t-56 -267.5t56 -268t151.5 -194.5t208.5 -71.5
q127 0 232 91t153 243l6 18l239 -71l-7 -19q-74 -221 -245.5 -357.5t-377.5 -136.5z" />
    <glyph glyph-name="D" unicode="D" horiz-adv-x="1458" 
d="M1340 730q0 -149 -53 -285t-142.5 -234.5t-213 -157t-259.5 -58.5h-467v1469h467q181 0 335 -98.5t243.5 -267.5t89.5 -368zM672 218q113 0 208.5 68.5t151.5 186.5t56 257t-56 256.5t-151.5 186t-208.5 68.5h-224v-1023h224z" />
    <glyph glyph-name="E" unicode="E" horiz-adv-x="1308" 
d="M1088 222v-227h-855v1469h855v-227h-611v-361h580v-217h-580v-437h611z" />
    <glyph glyph-name="F" unicode="F" horiz-adv-x="1232" 
d="M450 659v-664h-243v1469h854v-227h-611v-361h580v-217h-580z" />
    <glyph glyph-name="G" unicode="G" horiz-adv-x="1615" 
d="M807 -36q-136 0 -259.5 61t-213 163.5t-142.5 244.5t-53 297t53 297t142.5 244.5t213 163t259.5 60.5q201 0 368 -127t246 -339l7 -20l-5 -1l-233 -69l-7 17q-51 140 -153 224t-223 84q-113 0 -208.5 -71.5t-151.5 -194.5t-56 -268t56 -268t151.5 -194.5t208.5 -71.5
q127 0 233 92.5t153 243.5h-426v217h707v-19q0 -155 -53 -297t-142 -244.5t-212.5 -163.5t-259.5 -61z" />
    <glyph glyph-name="H" unicode="H" horiz-adv-x="1511" 
d="M483 659v-664h-243v1469h243v-588h549v588h243v-1469h-243v664h-549z" />
    <glyph glyph-name="I" unicode="I" horiz-adv-x="798" 
d="M520 -5h-244v1469h244v-1469z" />
    <glyph glyph-name="J" unicode="J" horiz-adv-x="1015" 
d="M431 -36q-131 0 -232.5 80.5t-130.5 208.5l-19 82l232 69l24 -106q10 -44 45 -73t81 -29q53 0 91.5 38t38.5 91v1139h243v-1127q0 -155 -109 -264t-264 -109z" />
    <glyph glyph-name="K" unicode="K" horiz-adv-x="1495" 
d="M471 596v-601h-244v1469h244v-601l554 601h320l-681 -734l681 -735h-320l-1 2z" />
    <glyph glyph-name="L" unicode="L" horiz-adv-x="1185" 
d="M1096 222v-227h-854v1469h243v-1242h611z" />
    <glyph glyph-name="M" unicode="M" horiz-adv-x="1847" 
d="M426 1025v-1030h-244v1469h292l450 -1076l449 1076h290v-1469h-243v1026l-429 -1026h-135z" />
    <glyph glyph-name="N" unicode="N" horiz-adv-x="1554" 
d="M487 1037v-1042h-243v1469h246l2 -2l583 -1024v1026h243v-1469h-237l-5 10z" />
    <glyph glyph-name="O" unicode="O" horiz-adv-x="1556" 
d="M782 -36q-136 0 -259.5 61t-212.5 163.5t-142 244.5t-53 297q0 208 89.5 384t243 278.5t334.5 102.5q136 0 259.5 -60.5t213 -163t142.5 -244.5t53 -297t-53 -297t-142.5 -244.5t-213 -163.5t-259.5 -61zM782 1264q-113 0 -208.5 -71.5t-151.5 -194.5t-56 -268t56 -268
t151.5 -194.5t208.5 -71.5t208.5 71.5t151.5 194.5t56 268t-56 268t-151.5 194.5t-208.5 71.5z" />
    <glyph glyph-name="P" unicode="P" horiz-adv-x="1402" 
d="M487 532v-537h-243v1469h593q126 0 233.5 -62.5t170 -170t62.5 -233.5t-62.5 -233.5t-170 -170t-233.5 -62.5h-350zM487 1237v-488h328q101 0 172.5 71.5t71.5 172.5t-71.5 172.5t-172.5 71.5h-328z" />
    <glyph glyph-name="Q" unicode="Q" horiz-adv-x="1595" 
d="M782 -36q-136 0 -259.5 61t-212.5 163.5t-142 244.5t-53 297q0 208 89.5 384t243 278.5t334.5 102.5q136 0 259.5 -60.5t213 -163t142.5 -244.5t53 -297q0 -148 -48 -284.5t-137 -243.5l138 -108l-132 -168l-169 132q-151 -94 -320 -94zM782 1264q-113 0 -208.5 -71.5
t-151.5 -194.5t-56 -268t56 -268t151.5 -194.5t208.5 -71.5q60 0 117 21l-99 77l131 169l144 -112q59 75 91 174t32 205q0 145 -56 268t-151.5 194.5t-208.5 71.5z" />
    <glyph glyph-name="R" unicode="R" horiz-adv-x="1492" 
d="M471 532v-537h-244v1469h594q126 0 233.5 -62.5t170 -170t62.5 -233.5q0 -181 -123.5 -315t-303.5 -149l486 -539h-314l-1 2l-484 535h-76zM471 1237v-488h327q101 0 172.5 71.5t71.5 172.5t-71.5 172.5t-172.5 71.5h-327z" />
    <glyph glyph-name="S" unicode="S" horiz-adv-x="1353" 
d="M681 196q113 0 193 62t80 149q0 61 -42 112.5t-112 76.5l-344 127q-129 47 -205.5 147t-76.5 219q0 110 66.5 203.5t181 148t249.5 54.5q13 0 27.5 -0.5t65 -8t94 -21t101 -44t100 -72.5t78 -110.5t46.5 -154.5l2 -18l-229 -51l-2 22q-17 144 -147 199q-64 26 -129 26
q-104 0 -177.5 -50.5t-73.5 -121.5q0 -47 35 -87t95 -63l344 -127q141 -53 225 -162.5t84 -241.5q0 -120 -71 -223t-193 -162.5t-265 -59.5h-3q-131 0 -259 58q-232 107 -267 367l-2 18l242 49l3 -21q17 -155 151 -212q65 -27 134 -27h1z" />
    <glyph glyph-name="T" unicode="T" horiz-adv-x="1171" 
d="M436 -5v1242h-352v227h950v-227h-354v-1242h-244z" />
    <glyph glyph-name="U" unicode="U" horiz-adv-x="1423" 
d="M702 -36q-109 0 -209 42.5t-172 114t-114.5 170.5t-42.5 208v965h243v-965q0 -126 87 -215q86 -88 208 -88t208.5 89t86.5 214v965h244v-965q0 -145 -72.5 -268.5t-196.5 -195t-270 -71.5z" />
    <glyph glyph-name="V" unicode="V" horiz-adv-x="1470" 
d="M671 -5l-1 3l-613 1466h241l2 -3l439 -1051l440 1054h241l-3 -7l-611 -1462h-135z" />
    <glyph glyph-name="W" unicode="W" horiz-adv-x="2111" 
d="M530 -5l-1 4l-451 1465h235l1 -3l302 -977l392 980h136l1 -3l391 -977l302 980h236l-2 -6l-450 -1463h-137l-1 3l-408 1051l-409 -1054h-137z" />
    <glyph glyph-name="X" unicode="X" horiz-adv-x="1388" 
d="M696 541l-338 -546h-272l5 8l469 759l-435 702h273l2 -2l296 -480l297 482h274l-5 -7l-430 -695l474 -767h-272l-2 2z" />
    <glyph glyph-name="Y" unicode="Y" horiz-adv-x="1357" 
d="M546 -5v628l-474 841h276l1 -3l319 -595l321 598h276l-476 -844v-625h-243z" />
    <glyph glyph-name="Z" unicode="Z" horiz-adv-x="1388" 
d="M1205 222v-227h-1029v214l1 1l729 1027h-717v227h1021v-214l-1 -1l-730 -1027h726z" />
    <glyph glyph-name="bracketleft" unicode="[" horiz-adv-x="833" 
d="M686 1552h-356v-1788h356v-185h-539v2157h539v-184z" />
    <glyph glyph-name="backslash" unicode="\" horiz-adv-x="1099" 
d="M318 1525l633 -1527l-169 -70l-2 4l-633 1528l169 70z" />
    <glyph glyph-name="bracketright" unicode="]" horiz-adv-x="833" 
d="M147 1736h539v-2157h-539v185h356v1788h-356v184z" />
    <glyph glyph-name="asciicircum" unicode="^" horiz-adv-x="1214" 
d="M681 1461l386 -785h-206l-1 3l-253 514l-254 -517h-206l4 7l384 781h144z" />
    <glyph glyph-name="underscore" unicode="_" horiz-adv-x="1271" 
d="M1124 -255h-978v184h978v-184z" />
    <glyph glyph-name="grave" unicode="`" horiz-adv-x="753" 
d="M425 1534l165 -286h-218l-1 2l-207 284h261z" />
    <glyph glyph-name="a" unicode="a" horiz-adv-x="1169" 
d="M533 1147q187 0 319.5 -108t132.5 -261v-783h-230v94q-57 -59 -137.5 -92t-170.5 -33q-166 0 -284 102t-118 245q0 24 1 39t7 48t17.5 57t36 58t58.5 58t88 50.5t121.5 43.5t162.5 28.5t208 12.5v73q0 58 -60.5 99t-145.5 41q-82 0 -141.5 -38t-64.5 -94l-2 -24l-246 73
l5 18q33 127 158 210t285 83zM745 434v66h-11q-224 0 -340.5 -47.5t-116.5 -138.5q0 -53 50.5 -91t121.5 -38q121 0 208 73t88 176z" />
    <glyph glyph-name="b" unicode="b" horiz-adv-x="1343" 
d="M703 1147q134 0 248 -79t180.5 -215.5t66.5 -296.5t-66.5 -296.5t-180.5 -216t-248 -79.5q-174 0 -309 130v-99h-230v1741h239v-710q133 121 300 121zM682 185q118 0 202.5 109t84.5 262t-84 261.5t-203 108.5t-203.5 -108.5t-84.5 -261.5t84.5 -262t203.5 -109z" />
    <glyph glyph-name="c" unicode="c" horiz-adv-x="1251" 
d="M880 430l218 -65l-6 -19q-57 -171 -190 -276.5t-293 -105.5q-140 0 -259 79.5t-188.5 216t-69.5 296.5t69.5 296.5t188.5 215.5t259 79q156 0 285 -98t190 -262l8 -19l-5 -2l-214 -63l-6 17q-37 96 -106 151.5t-152 55.5q-119 0 -203.5 -109t-84.5 -262t84.5 -262
t203.5 -109q87 0 159 62t106 165z" />
    <glyph glyph-name="d" unicode="d" horiz-adv-x="1323" 
d="M875 1736h239v-1741h-230v99q-135 -130 -309 -130q-134 0 -248 79.5t-180.5 216t-66.5 296.5t66.5 296.5t180.5 215.5t248 79q167 0 300 -121v710zM596 185q119 0 203.5 109t84.5 262t-84.5 262t-203.5 109q-118 0 -202.5 -109t-84.5 -262t84.5 -262t202.5 -109z" />
    <glyph glyph-name="e" unicode="e" horiz-adv-x="1220" 
d="M580 1147q140 0 259 -79t188.5 -215.5t69.5 -296.5q0 -24 -4 -70l-2 -17h-790q23 -125 101 -204.5t178 -79.5h1q12 0 25.5 0.5t48 9t64.5 24.5t65.5 52t61.5 85l8 14l219 -64l-10 -21q-103 -213 -303 -288q-88 -33 -171 -33h-7h-2q-140 0 -259 79.5t-188.5 216
t-69.5 296.5t69.5 296.5t188.5 215.5t259 79zM307 671h546q-29 115 -104 185.5t-169 70.5t-169 -70.5t-104 -185.5z" />
    <glyph glyph-name="f" unicode="f" horiz-adv-x="847" 
d="M460 1117h240v-213h-240v-909h-239v909h-121v213h121v156q0 205 127 334t329 129h19v-241h-19q-102 0 -159.5 -59t-57.5 -163v-156z" />
    <glyph glyph-name="g" unicode="g" horiz-adv-x="1312" 
d="M888 1117h230v-1161q0 -106 -40 -202.5t-107 -166.5t-160.5 -111.5t-195.5 -41.5q-142 0 -263 76.5t-186 207.5l-8 17l202 116l9 -19q34 -74 100.5 -117t145.5 -43q113 0 193 83t80 201v138q-135 -130 -309 -130q-134 0 -248 79.5t-180.5 216t-66.5 296.5t66.5 296.5
t180.5 215.5t248 79q175 0 309 -129v99zM601 185q118 0 202.5 109t84.5 262t-84.5 262t-202.5 109q-119 0 -203.5 -109t-84.5 -262t84.5 -262t203.5 -109z" />
    <glyph glyph-name="h" unicode="h" horiz-adv-x="1249" 
d="M651 1147q112 0 207.5 -66t151 -180t55.5 -248v-658h-239v641q0 119 -65.5 203.5t-157.5 84.5t-157 -84.5t-65 -203.5v-641h-240v1741h240v-708q116 119 270 119z" />
    <glyph glyph-name="i" unicode="i" horiz-adv-x="634" 
d="M410 -5h-239v1122h239v-1122zM291 1266q-59 0 -100 41t-41 100t41 100t100 41t100 -41t41 -100t-41 -100t-100 -41z" />
    <glyph glyph-name="j" unicode="j" horiz-adv-x="651" 
d="M181 1117h239v-1220q0 -205 -127 -334t-329 -129h-19v241h19q102 0 159.5 59t57.5 163v1220zM301 1266q-59 0 -100.5 41.5t-41.5 99.5t41.5 99.5t100.5 41.5t100 -41t41 -100t-41 -100t-100 -41z" />
    <glyph glyph-name="k" unicode="k" horiz-adv-x="1218" 
d="M585 560l511 -565h-286l-2 2l-401 443v-445h-239v1741h239v-1064l403 445h279z" />
    <glyph glyph-name="l" unicode="l" horiz-adv-x="643" 
d="M403 -5h-239v1741h239v-1741z" />
    <glyph glyph-name="m" unicode="m" horiz-adv-x="1796" 
d="M1210 1147q171 0 293 -145t122 -349v-658h-240v641q0 121 -56 204.5t-137 83.5t-135 -82.5t-54 -205.5v-641h-239v641q0 121 -56.5 204.5t-137.5 83.5t-135 -82.5t-54 -205.5v-641h-240v1122h231v-90q103 120 243 120q82 0 157 -42.5t130 -121.5q59 78 139.5 121
t168.5 43z" />
    <glyph glyph-name="n" unicode="n" horiz-adv-x="1224" 
d="M632 1147q112 0 207.5 -66t151 -180t55.5 -248v-658h-239v641q0 119 -65 203.5t-157 84.5t-157.5 -84.5t-65.5 -203.5v-641h-239v1122h230v-99q118 129 279 129z" />
    <glyph glyph-name="o" unicode="o" horiz-adv-x="1196" 
d="M562 1147q140 0 259 -79t188 -215.5t69 -296.5t-69 -296.5t-188 -216t-259 -79.5t-259 79.5t-188.5 216t-69.5 296.5t69.5 296.5t188.5 215.5t259 79zM562 185q118 0 202.5 109t84.5 262t-84.5 262t-202.5 109q-119 0 -203.5 -109t-84.5 -262t84.5 -262t203.5 -109z" />
    <glyph glyph-name="p" unicode="p" 
d="M677 1147q134 0 248 -79t180 -215.5t66 -296.5t-66 -296.5t-180 -216t-248 -79.5q-166 0 -301 122v-652h-239v1683h231v-99q134 129 309 129zM655 185q118 0 202.5 109t84.5 262t-84 261.5t-203 108.5t-203 -108.5t-84 -261.5t84.5 -262t202.5 -109z" />
    <glyph glyph-name="q" unicode="q" 
d="M894 1117h230v-1683h-239v651q-133 -121 -300 -121q-134 0 -248 79.5t-180.5 216t-66.5 296.5t66.5 296.5t180.5 215.5t248 79q175 0 309 -129v99zM607 185q118 0 202.5 109t84.5 262t-84.5 262t-202.5 109q-119 0 -203.5 -109t-84.5 -262t84.5 -262t203.5 -109z" />
    <glyph glyph-name="r" unicode="r" horiz-adv-x="831" 
d="M692 1127l18 -1v-244l-26 11q-32 12 -65 12q-92 0 -157 -84.5t-65 -203.5v-622h-239v1122h230v-118q118 129 279 129q15 0 25 -1z" />
    <glyph glyph-name="s" unicode="s" horiz-adv-x="1064" 
d="M670 639q111 -41 177.5 -128.5t66.5 -192.5q0 -95 -55.5 -176.5t-151 -128.5t-208.5 -47h-2q-14 0 -32.5 1t-57.5 8.5t-74.5 19.5t-78.5 37t-75.5 58.5t-59 87.5t-35.5 120l-2 18l225 45l2 -21q5 -46 26.5 -79.5t51.5 -49t57.5 -22.5t52.5 -6q75 0 128.5 39t53.5 94
q0 38 -27.5 71t-72.5 49l-255 94q-102 38 -163 117.5t-61 175.5q0 133 115 228t277 95q146 0 256 -76q123 -85 145 -245l3 -18l-215 -47l-2 21q-5 47 -28 79t-55 45t-54 17.5t-44 5.5q-68 0 -116.5 -30.5t-48.5 -73.5q0 -28 22 -52.5t60 -38.5z" />
    <glyph glyph-name="t" unicode="t" horiz-adv-x="839" 
d="M672 904h-241v-460q0 -104 57.5 -163.5t159.5 -59.5h19v-241h-19q-202 0 -329 129.5t-127 334.5v460h-120v213h120v310h239v-310h241v-213z" />
    <glyph glyph-name="u" unicode="u" horiz-adv-x="1224" 
d="M797 1117h239v-1122h-230v98q-117 -128 -279 -128q-112 0 -207.5 66t-151 180t-55.5 248v658h239v-641q0 -119 65 -203.5t157 -84.5t157.5 84.5t65.5 203.5v641z" />
    <glyph glyph-name="v" unicode="v" horiz-adv-x="1243" 
d="M940 1117h238l-521 -1122h-134l-2 3l-519 1119h238l350 -762z" />
    <glyph glyph-name="w" unicode="w" horiz-adv-x="1873" 
d="M1559 1117h233l-459 -1122h-136l-293 718l-294 -718h-135l-459 1122h233l2 -3l292 -723l293 726h136l1 -3l292 -723z" />
    <glyph glyph-name="x" unicode="x" horiz-adv-x="1320" 
d="M1212 1117l-445 -561l445 -561h-270l-310 391l-311 -391h-270l446 561l-446 561h271l310 -390l309 390h271z" />
    <glyph glyph-name="y" unicode="y" horiz-adv-x="1253" 
d="M933 1117h239l-2 -7l-686 -1676h-231l3 7l228 566l-453 1110h239l1 -3l330 -817z" />
    <glyph glyph-name="z" unicode="z" horiz-adv-x="1206" 
d="M1032 915l-627 -707h628v-213h-914v201l1 1l626 707h-627v213h914v-201z" />
    <glyph glyph-name="braceleft" unicode="{" horiz-adv-x="929" 
d="M479 1330v-470q0 -116 -75 -203q75 -87 75 -203v-469q0 -92 66 -157.5t158 -65.5h78v-183h-78q-168 0 -287 119t-119 287v469q0 54 -38 91.5t-92 37.5h-20v147h20q54 0 92 38t38 92v470q0 168 119 287t287 119h78v-182h-78q-92 0 -158 -66t-66 -158z" />
    <glyph glyph-name="verticalbar" unicode="|" horiz-adv-x="477" 
d="M330 -761h-183v2693h183v-2693z" />
    <glyph glyph-name="braceright" unicode="}" horiz-adv-x="929" 
d="M762 730h19v-147h-19q-54 0 -92 -37.5t-38 -91.5v-469q0 -168 -119 -287t-287 -119h-79v183h79q92 0 158 65.5t66 157.5v469q0 116 75 203q-75 87 -75 203v470q0 92 -66 158t-158 66h-79v182h79q168 0 287 -119t119 -287v-470q0 -54 38 -92t92 -38z" />
    <glyph glyph-name="asciitilde" unicode="~" horiz-adv-x="1415" 
d="M1178 880l91 -168l-12 -10q-141 -118 -324 -121h-9q-114 0 -216 47l-74 34q-94 44 -198.5 26t-178.5 -91l-18 -18l-92 168l13 10q141 118 324 121q119 2 224 -47l74 -34q94 -44 198.5 -26t178.5 91z" />
    <glyph glyph-name="nonbreakingspace" unicode="&#xa0;" horiz-adv-x="638" 
 />
    <glyph glyph-name="exclamdown" unicode="&#xa1;" horiz-adv-x="577" 
d="M288 925q-58 0 -99.5 41.5t-41.5 99.5t41.5 99.5t99.5 41.5t99.5 -41.5t41.5 -99.5t-41.5 -99.5t-99.5 -41.5zM408 -565h-239v1347h239v-1347z" />
    <glyph glyph-name="cent" unicode="&#xa2;" horiz-adv-x="1300" 
d="M935 430l219 -65l-7 -19q-52 -159 -171.5 -262t-268.5 -117v-214h-118v218q-189 32 -315.5 199t-126.5 386t126.5 386t315.5 199v219h118v-215q142 -14 260 -111t173 -247l7 -20l-5 -1l-214 -63l-6 17q-31 82 -88 135t-127 67v-733q75 14 133.5 73t88.5 150zM589 198v715
q-94 -32 -153 -131.5t-59 -225.5t59 -226t153 -132z" />
    <glyph glyph-name="sterling" unicode="&#xa3;" horiz-adv-x="1296" 
d="M711 1269q-86 0 -144.5 -56t-58.5 -138v-285h448v-184h-448v-384h642v-227h-1003v227h55q10 0 21 2t27 15t21 35v332h-124v184h124v287q0 111 59.5 207.5t161 153.5t218.5 57q182 0 311 -123t129 -295v-20h-233l-1 20q-1 80 -60.5 136t-144.5 56z" />
    <glyph glyph-name="currency" unicode="&#xa4;" horiz-adv-x="1374" 
d="M1204 731q0 -181 -113 -322l120 -120l-82 -81l-120 119q-140 -112 -322 -112t-322 112l-119 -119l-82 81l120 120q-113 141 -113 322t113 322l-120 120l82 82l119 -120q141 113 322 113t322 -113l120 120l82 -82l-120 -120q113 -141 113 -322zM687 435q119 0 203.5 87
t84.5 209t-84.5 209t-203.5 87t-203 -87t-84 -209t84 -209t203 -87z" />
    <glyph glyph-name="yen" unicode="&#xa5;" horiz-adv-x="1486" 
d="M1340 1464l-379 -674h272v-184h-368v-144h368v-184h-368v-283h-244v283h-366v184h366v144h-366v184h272l-380 674h276l321 -597l320 597h276z" />
    <glyph glyph-name="brokenbar" unicode="&#xa6;" horiz-adv-x="512" 
d="M348 -346h-184v830h184v-830zM348 665h-184v830h184v-830z" />
    <glyph glyph-name="section" unicode="&#xa7;" horiz-adv-x="1593" 
d="M1291 141q23 -47 31 -89q24 -118 -25 -232.5t-156.5 -197t-248.5 -111.5l-6 -1q-7 -1 -18.5 -3t-26.5 -4t-35.5 -3t-41.5 -1q-58 0 -118 11q-51 10 -98 29t-97 53.5t-92.5 93.5t-69.5 136l-6 17l228 96l7 -20q47 -149 190 -178q12 -2 24 -3.5t22.5 -2t21 -0.5t19.5 0.5
t16.5 1t13.5 1.5t10.5 2t6.5 2h3q112 23 179 101q64 76 47 160q-4 16 -7 25q-19 50 -68 85t-114 45l-362 56q-49 7 -99 26q-99 37 -165 110.5t-85 165.5q-20 98 17.5 195t123.5 173q-30 50 -41 106q-22 108 24.5 212.5t148.5 180.5t234 103q8 2 26.5 5t66 5.5t95.5 -1.5
t108.5 -22.5t111.5 -51t99 -93t76 -142.5l6 -17l-214 -95l-7 20q-45 139 -183 166q-61 12 -132 0q-102 -21 -163.5 -84.5t-47.5 -133.5q7 -29 23 -50q43 -57 134 -71l362 -57q24 -4 38 -7q135 -32 227.5 -119.5t117.5 -207.5q20 -100 -14.5 -202t-116.5 -183zM1128 318
q61 75 44 155q-11 55 -56 95t-112 55q-14 4 -21 5l-362 55q-66 10 -127 38q-92 -72 -75 -157q10 -46 52 -78.5t105 -42.5l362 -56q105 -17 190 -69z" />
    <glyph glyph-name="dieresis" unicode="&#xa8;" horiz-adv-x="968" 
d="M805 1291h-243v243h243v-243zM407 1291h-243v243h243v-243z" />
    <glyph glyph-name="copyright" unicode="&#xa9;" horiz-adv-x="1857" 
d="M1115 625l6 18l172 -51l-6 -19q-43 -130 -143.5 -209.5t-222.5 -79.5q-106 0 -196 60t-142 163t-52 224t52 224t142 163t196 60q118 0 216 -74t144 -198l8 -20l-173 -51l-7 17q-27 70 -77.5 110.5t-110.5 40.5q-87 0 -148 -79.5t-61 -192.5t61 -192.5t148 -79.5
q63 0 116 45t78 121zM929 1495q155 0 297 -61t244.5 -163.5t163 -244.5t60.5 -297t-60.5 -297t-163 -244.5t-244.5 -163t-297 -60.5t-297 60.5t-244.5 163t-163 244.5t-60.5 297t60.5 297t163 244.5t244.5 163.5t297 61zM929 147q158 0 292 78t212 212t78 292q0 118 -46 226
t-124 186t-186 124.5t-226 46.5t-226 -46.5t-186 -124.5t-124.5 -186t-46.5 -226t46.5 -226t124.5 -186t186 -124t226 -46z" />
    <glyph glyph-name="ordfeminine" unicode="&#xaa;" horiz-adv-x="927" 
d="M475 1540q120 0 205 -70t85 -169v-489h-173v35q-73 -54 -169 -54q-107 0 -183 66t-76 160q0 248 422 255v27q0 28 -31.5 48t-75.5 20q-42 0 -73.5 -19t-33.5 -45l-3 -36l-184 55l7 27q21 82 101 135.5t182 53.5zM586 1094v22q-120 -1 -184 -25.5t-64 -69.5q0 -25 25 -43
t61 -18q66 0 113.5 39.5t48.5 94.5z" />
    <glyph glyph-name="guillemotleft" unicode="&#xab;" horiz-adv-x="1257" 
d="M714 1117l-328 -391l328 -390h-238l-1 1l-328 389l3 3l326 388h238zM1109 1117l-329 -391l329 -390h-239l-1 1l-327 389l2 3l326 388h239z" />
    <glyph glyph-name="logicalnot" unicode="&#xac;" horiz-adv-x="1181" 
d="M164 876h854v-521h-243v294h-611v227z" />
    <glyph glyph-name="softhyphen" unicode="&#xad;" horiz-adv-x="0" 
 />
    <glyph glyph-name="registered" unicode="&#xae;" horiz-adv-x="1857" 
d="M929 1495q155 0 297 -61t244.5 -163.5t163 -244.5t60.5 -297t-60.5 -297t-163 -244.5t-244.5 -163t-297 -60.5t-297 60.5t-244.5 163t-163 244.5t-60.5 297t60.5 297t163 244.5t244.5 163.5t297 61zM929 147q158 0 292 78t212 212t78 292q0 118 -46 226t-124 186
t-186 124.5t-226 46.5t-226 -46.5t-186 -124.5t-124.5 -186t-46.5 -226t46.5 -226t124.5 -186t186 -124t226 -46zM1259 893q0 -107 -69 -185t-174 -91l286 -316h-199l-5 6l-279 308h-36v-314h-154v870h353q115 0 196 -81.5t81 -196.5zM783 1027v-274h185q56 0 96.5 40.5
t40.5 96.5t-40.5 96.5t-96.5 40.5h-185z" />
    <glyph glyph-name="overscore" unicode="&#xaf;" horiz-adv-x="1056" 
d="M892 1349h-728v185h728v-185z" />
    <glyph glyph-name="degree" unicode="&#xb0;" horiz-adv-x="794" 
d="M397 1853q97 0 165.5 -68t68.5 -165t-68.5 -165.5t-165.5 -68.5t-165 68.5t-68 165.5t68 165t165 68zM397 1531q37 0 62.5 26t25.5 63t-25.5 62.5t-62.5 25.5t-62.5 -25.5t-25.5 -62.5t25.5 -63t62.5 -26z" />
    <glyph glyph-name="plusminus" unicode="&#xb1;" horiz-adv-x="1363" 
d="M784 1041h416v-184h-416v-426h-204v426h-416v184h416v426h204v-426zM1155 140h-946v185h946v-185z" />
    <glyph glyph-name="twosuperior" unicode="&#xb2;" horiz-adv-x="976" 
d="M349 1000h465v-173h-650v168q0 70 36.5 132.5t100.5 103.5l283 176q47 30 47 74q0 41 -39.5 69.5t-94.5 28.5q-51 0 -89.5 -24.5t-44.5 -61.5l-5 -32l-177 39l6 30q19 97 107 160.5t203 63.5q130 0 222 -80t92 -192q0 -65 -34 -123.5t-95 -96.5l-278 -172
q-55 -35 -55 -90z" />
    <glyph glyph-name="threesuperior" unicode="&#xb3;" horiz-adv-x="995" 
d="M737 1305q94 -85 94 -204q0 -121 -97.5 -207t-235.5 -86q-130 0 -224.5 76t-106.5 189l-3 28l186 38l1 -38q1 -46 44 -78.5t103 -32.5q62 0 105 33t43 80t-43.5 80.5t-104.5 33.5h-113v171h113q56 0 95.5 28t39.5 68t-39.5 67.5t-95.5 27.5q-52 0 -89.5 -24t-43.5 -61
l-5 -33l-177 39l6 30q20 97 107.5 160.5t201.5 63.5q130 0 222.5 -80t92.5 -192q0 -99 -76 -177z" />
    <glyph glyph-name="acute" unicode="&#xb4;" horiz-adv-x="753" 
d="M328 1534h262l-209 -286h-217z" />
    <glyph glyph-name="mu" unicode="&#xb5;" horiz-adv-x="1251" 
d="M848 1117h239v-1122h-230v98q-118 -129 -279 -129q-90 0 -175 47v-577h-239v1683h239v-641q0 -119 65.5 -203.5t157.5 -84.5t157 84.5t65 203.5v641z" />
    <glyph glyph-name="paragraph" unicode="&#xb6;" horiz-adv-x="1155" 
d="M390 1244h601v-1590h-185v1405h-251v-1405h-185v843q-131 9 -220 116.5t-89 256.5q0 154 96.5 264t232.5 110z" />
    <glyph glyph-name="cedilla" unicode="&#xb8;" horiz-adv-x="835" 
d="M413 -85q107 0 183 -66t76 -160t-76 -160.5t-183 -66.5q-81 0 -146.5 40t-94.5 107l-8 18l137 57l7 -20q10 -30 39 -49t66 -19q45 0 77 27.5t32 65.5t-32 65t-77 27q-37 0 -66 -19t-39 -49l-7 -20l-137 57l118 284h140l-51 -122q21 3 42 3z" />
    <glyph glyph-name="onesuperior" unicode="&#xb9;" horiz-adv-x="585" 
d="M289 1736h102v-909h-183v652l-86 -55l-93 147z" />
    <glyph glyph-name="ordmasculine" unicode="&#xba;" horiz-adv-x="985" 
d="M492 1501q136 0 232.5 -109.5t96.5 -263.5t-96.5 -264t-232.5 -110t-232 109.5t-96 264.5q0 154 96 263.5t232 109.5zM492 922q65 0 110.5 60.5t45.5 145.5t-45.5 145.5t-110.5 60.5t-110.5 -60.5t-45.5 -145.5t45.5 -145.5t110.5 -60.5z" />
    <glyph glyph-name="guillemotright" unicode="&#xbb;" horiz-adv-x="1257" 
d="M781 1115l328 -389l-329 -390h-238l328 390l-328 391h238zM387 1115l327 -389l-328 -390h-239l329 390l-329 391h239z" />
    <glyph glyph-name="onequarter" unicode="&#xbc;" horiz-adv-x="1925" 
d="M526 554h-182v653l-87 -55l-93 147l261 165h101v-910zM1652 364h109v-168h-109v-201h-182v201h-401v147l445 562h138v-541zM1470 364v208l-166 -208h166zM1435 1484l-2 -4l-834 -1592l-162 85l3 4l833 1592z" />
    <glyph glyph-name="onehalf" unicode="&#xbd;" horiz-adv-x="1988" 
d="M1358 169h466v-174h-651v168q0 70 36.5 133t100.5 104l283 175q48 30 48 75q0 40 -39.5 69t-95.5 29q-51 0 -89 -25t-44 -62l-6 -32l-176 39l6 30q20 98 107 161.5t202 63.5q130 0 222.5 -80t92.5 -192q0 -65 -34.5 -123.5t-95.5 -96.5l-277 -172q-56 -35 -56 -90z
M526 554h-182v653l-87 -55l-93 147l261 165h101v-910zM1435 1484l-2 -4l-834 -1592l-162 85l3 4l833 1592z" />
    <glyph glyph-name="threequarters" unicode="&#xbe;" horiz-adv-x="2074" 
d="M831 829q0 -121 -97.5 -207t-235.5 -86q-130 0 -224.5 76t-106.5 189l-3 28l186 37l1 -37q1 -46 44 -79t103 -33q61 0 104.5 33.5t43.5 80.5t-43 80t-105 33h-113v172h113q56 0 95.5 27.5t39.5 67.5t-39.5 68t-95.5 28q-52 0 -89.5 -24t-43.5 -61l-5 -33l-177 39l6 30
q20 97 107.5 160.5t201.5 63.5q130 0 222.5 -80t92.5 -192q0 -99 -76 -177q94 -85 94 -204zM1802 364h109v-168h-109v-201h-183v201h-400v147l444 562h139v-541zM1620 364v208l-167 -208h167zM1585 1484l-3 -4l-833 -1592l-162 85l2 4l834 1592z" />
    <glyph glyph-name="questiondown" unicode="&#xbf;" horiz-adv-x="1306" 
d="M655 925q-59 0 -100 41.5t-41 99.5t41 99.5t100 41.5q58 0 99 -41t41 -100t-41 -100t-99 -41zM930 156l229 -51l-2 -17q-35 -254 -259 -356q-119 -55 -250 -55h-3v-1l-1 1q-204 0 -349 117q-148 120 -148 288q0 56 17.5 110t39.5 91.5t61.5 80.5t63 63.5t64.5 54.5
q56 46 69 62q73 83 73 218l-1 20h240v-19q0 -11 -1 -28.5t-8 -63t-19.5 -88.5t-39.5 -97t-63 -96q-38 -43 -109 -97q-36 -28 -53.5 -43t-39.5 -41.5t-31 -57t-9 -69.5q0 -71 73.5 -122t176.5 -51h18t36.5 4.5t51.5 11.5t54 24t53 40t40.5 60.5t23.5 84.5z" />
    <glyph glyph-name="Agrave" unicode="&#xc0;" horiz-adv-x="1415" 
d="M837 1461l530 -1466h-257l-1 3l-137 395h-495l-138 -398h-257l2 7l529 1462h223zM553 609h343l-171 493zM638 1595l-1 2l-207 284h261l165 -286h-218z" />
    <glyph glyph-name="Aacute" unicode="&#xc1;" horiz-adv-x="1415" 
d="M838 1461l529 -1466h-257l-1 3l-137 395h-495l-138 -398h-257l2 7l529 1462h223zM553 609h343l-171 493zM1020 1881l-209 -286h-217l165 286h261z" />
    <glyph glyph-name="Acircumflex" unicode="&#xc2;" horiz-adv-x="1415" 
d="M839 1461l529 -1466h-257l-1 3l-137 395h-495l-138 -398h-257l2 7l529 1462h223zM554 609h343l-171 493zM726 1789l-195 -246l-143 113l178 225h319l178 -225l-143 -113z" />
    <glyph glyph-name="Atilde" unicode="&#xc3;" horiz-adv-x="1415" 
d="M838 1461l529 -1466h-257l-1 3l-137 395h-495l-138 -398h-257l2 7l529 1462h223zM553 609h343l-171 493zM416 1642l-19 -18l-69 128l12 10q101 83 229 85q84 2 158 -33l51 -24q64 -30 134.5 -18t120.5 62l19 18l69 -128l-12 -10q-101 -83 -229 -85q-84 -2 -158 33l-51 24
q-64 30 -134.5 18t-120.5 -62z" />
    <glyph glyph-name="Adieresis" unicode="&#xc4;" horiz-adv-x="1415" 
d="M838 1461l529 -1466h-257l-1 3l-137 395h-495l-138 -398h-257l2 7l529 1462h223zM553 609h343l-171 493zM1045 1638h-243v243h243v-243zM647 1638h-243v243h243v-243z" />
    <glyph glyph-name="Aring" unicode="&#xc5;" horiz-adv-x="1415" 
d="M851 1423l516 -1428h-257l-1 3l-137 395h-495l-138 -398h-257l2 7l514 1421q-50 32 -78.5 84.5t-28.5 112.5q0 97 68.5 165t165.5 68t165 -68t68 -165q0 -60 -28.5 -112.5t-78.5 -84.5zM725 1708q-37 0 -63 -25.5t-26 -62.5t26 -62.5t63 -25.5t62.5 25.5t25.5 62.5
t-25.5 62.5t-62.5 25.5zM553 609h343l-171 493z" />
    <glyph glyph-name="AE" unicode="&#xc6;" horiz-adv-x="1761" 
d="M1693 1237h-611v-361h580v-217h-580v-437h611v-227h-854v398h-391l-139 -398h-257l3 7l528 1462h1110v-227zM523 609h316v628h-97z" />
    <glyph glyph-name="Ccedilla" unicode="&#xc7;" horiz-adv-x="1546" 
d="M1190 548l239 -71l-6 -19q-71 -214 -232.5 -348t-361.5 -145l-22 -53q21 3 42 3q107 0 183 -66t76 -160t-76 -160.5t-183 -66.5q-80 0 -146 40.5t-95 106.5l-8 18l138 57l6 -20q10 -30 39 -49t66 -19q45 0 77.5 27.5t32.5 65.5t-32.5 65t-77.5 27q-37 0 -66 -19t-39 -49
l-6 -20l-137 57l93 224q-241 44 -402 259.5t-161 495.5q0 155 53 297t142.5 244.5t213 163.5t259.5 61q201 0 368 -127t246 -339l7 -20l-5 -1l-233 -69l-7 17q-51 140 -153 223.5t-223 83.5q-113 0 -208.5 -71.5t-151.5 -194.5t-56 -268t56 -268t151.5 -194.5t208.5 -71.5
q127 0 232 91.5t153 243.5z" />
    <glyph glyph-name="Egrave" unicode="&#xc8;" 
d="M1088 1237h-611v-361h580v-217h-580v-437h611v-227h-855v1469h855v-227zM591 1595l-1 2l-207 284h261l165 -286h-218z" />
    <glyph glyph-name="Eacute" unicode="&#xc9;" 
d="M944 1881l-208 -286h-218l165 286h261zM1088 1237h-611v-361h580v-217h-580v-437h611v-227h-855v1469h855v-227z" />
    <glyph glyph-name="Ecircumflex" unicode="&#xca;" 
d="M661 1789l-195 -246l-143 113l178 225h319l178 -225l-143 -113zM1088 1237h-611v-361h580v-217h-580v-437h611v-227h-855v1469h855v-227z" />
    <glyph glyph-name="Edieresis" unicode="&#xcb;" 
d="M970 1638h-243v243h243v-243zM572 1638h-243v243h243v-243zM1088 1237h-611v-361h580v-217h-580v-437h611v-227h-855v1469h855v-227z" />
    <glyph glyph-name="Igrave" unicode="&#xcc;" horiz-adv-x="792" 
d="M527 -5h-243v1469h243v-1469zM305 1595l-2 2l-207 284h261l165 -286h-217z" />
    <glyph glyph-name="Iacute" unicode="&#xcd;" horiz-adv-x="819" 
d="M514 -5h-243v1469h243v-1469zM694 1881l-208 -286h-218l165 286h261z" />
    <glyph glyph-name="Icircumflex" unicode="&#xce;" horiz-adv-x="813" 
d="M525 -5h-244v1469h244v-1469zM563 1881l178 -225l-143 -113l-195 246l-194 -246l-143 113l177 225h320z" />
    <glyph glyph-name="Idieresis" unicode="&#xcf;" horiz-adv-x="796" 
d="M526 -5h-243v1469h243v-1469zM725 1638h-243v243h243v-243zM327 1638h-243v243h243v-243z" />
    <glyph glyph-name="Eth" unicode="&#xd0;" horiz-adv-x="1542" 
d="M736 1464q136 0 259.5 -58.5t213 -157t142.5 -234.5t53 -285q0 -199 -89.5 -368t-243.5 -267.5t-335 -98.5h-467v626h-151v217h151v626h467zM736 218q113 0 208.5 68.5t151.5 186t56 256.5t-56 257t-151.5 186.5t-208.5 68.5h-224v-403h344v-217h-344v-403h224z" />
    <glyph glyph-name="Ntilde" unicode="&#xd1;" horiz-adv-x="1554" 
d="M1075 1464h243v-1469h-237l-5 10l-589 1032v-1042h-243v1469h246l2 -3l583 -1023v1026zM472 1642l-18 -18l-70 128l13 10q101 83 228 85q85 2 159 -33l51 -24q64 -30 134.5 -18t120.5 62l18 18l70 -128l-12 -10q-101 -83 -229 -85q-85 -2 -159 33l-51 24
q-64 30 -134.5 18t-120.5 -62z" />
    <glyph glyph-name="Ograve" unicode="&#xd2;" horiz-adv-x="1556" 
d="M782 1495q136 0 259.5 -61t213 -163.5t142.5 -244.5t53 -297t-53 -297t-142.5 -244.5t-213 -163t-259.5 -60.5q-181 0 -334.5 102.5t-243 278.5t-89.5 384q0 155 53 297t142 244.5t212.5 163.5t259.5 61zM782 196q113 0 208.5 71.5t151.5 194t56 267.5t-56 268
t-151.5 194.5t-208.5 71.5t-208.5 -71.5t-151.5 -194.5t-56 -268t56 -267.5t151.5 -194t208.5 -71.5zM681 1595l-1 2l-207 284h261l165 -286h-218z" />
    <glyph glyph-name="Oacute" unicode="&#xd3;" horiz-adv-x="1556" 
d="M782 1495q136 0 259.5 -61t213 -163.5t142.5 -244.5t53 -297t-53 -297t-142.5 -244.5t-213 -163t-259.5 -60.5q-181 0 -334.5 102.5t-243 278.5t-89.5 384q0 155 53 297t142 244.5t212.5 163.5t259.5 61zM782 196q113 0 208.5 71.5t151.5 194t56 267.5t-56 268
t-151.5 194.5t-208.5 71.5t-208.5 -71.5t-151.5 -194.5t-56 -268t56 -267.5t151.5 -194t208.5 -71.5zM1099 1881l-208 -286h-218l165 286h261z" />
    <glyph glyph-name="Ocircumflex" unicode="&#xd4;" horiz-adv-x="1556" 
d="M782 1495q136 0 259.5 -61t213 -163.5t142.5 -244.5t53 -297t-53 -297t-142.5 -244.5t-213 -163t-259.5 -60.5q-181 0 -334.5 102.5t-243 278.5t-89.5 384q0 155 53 297t142 244.5t212.5 163.5t259.5 61zM782 196q113 0 208.5 71.5t151.5 194t56 267.5t-56 268
t-151.5 194.5t-208.5 71.5t-208.5 -71.5t-151.5 -194.5t-56 -268t56 -267.5t151.5 -194t208.5 -71.5zM782 1789l-194 -246l-144 113l178 225h320l178 -225l-143 -113z" />
    <glyph glyph-name="Otilde" unicode="&#xd5;" horiz-adv-x="1556" 
d="M782 1495q136 0 259.5 -61t213 -163.5t142.5 -244.5t53 -297t-53 -297t-142.5 -244.5t-213 -163t-259.5 -60.5q-181 0 -334.5 102.5t-243 278.5t-89.5 384q0 155 53 297t142 244.5t212.5 163.5t259.5 61zM782 196q113 0 208.5 71.5t151.5 194t56 267.5t-56 268
t-151.5 194.5t-208.5 71.5t-208.5 -71.5t-151.5 -194.5t-56 -268t56 -267.5t151.5 -194t208.5 -71.5zM473 1642l-18 -18l-70 128l13 10q101 83 228 85q79 3 159 -33l51 -24q64 -30 134.5 -18t120.5 62l18 18l70 -128l-12 -10q-101 -83 -229 -85q-83 -1 -158 33l-52 24
q-64 30 -134.5 18t-120.5 -62z" />
    <glyph glyph-name="Odieresis" unicode="&#xd6;" horiz-adv-x="1556" 
d="M782 1495q136 0 259.5 -61t213 -163.5t142.5 -244.5t53 -297t-53 -297t-142.5 -244.5t-213 -163t-259.5 -60.5q-181 0 -334.5 102.5t-243 278.5t-89.5 384q0 155 53 297t142 244.5t212.5 163.5t259.5 61zM782 196q113 0 208.5 71.5t151.5 194t56 267.5t-56 268
t-151.5 194.5t-208.5 71.5t-208.5 -71.5t-151.5 -194.5t-56 -268t56 -267.5t151.5 -194t208.5 -71.5zM1103 1638h-243v243h243v-243zM705 1638h-244v243h244v-243z" />
    <glyph glyph-name="multiply" unicode="&#xd7;" horiz-adv-x="1171" 
d="M723 736l301 -301l-144 -144l-301 301l-294 -294l-131 130l295 295l-302 301l144 144l302 -301l294 294l131 -130z" />
    <glyph glyph-name="Oslash" unicode="&#xd8;" horiz-adv-x="1556" 
d="M1230 1296q105 -109 162.5 -257t57.5 -309q0 -155 -53 -297t-142.5 -244.5t-213 -163.5t-259.5 -61q-194 0 -361 122l-81 -122l-96 64l90 135q-104 109 -161.5 257t-57.5 309q0 155 53 297t142 244.5t212.5 163.5t259.5 61q194 0 361 -122l82 122l96 -64zM366 730
q0 -205 108 -358l537 803q-103 88 -229 88q-113 0 -208.5 -71.5t-151.5 -194t-56 -267.5zM782 196q113 0 208.5 71.5t151.5 194t56 267.5q0 206 -107 358l-537 -803q103 -88 228 -88z" />
    <glyph glyph-name="Ugrave" unicode="&#xd9;" horiz-adv-x="1423" 
d="M998 1464h244v-965q0 -145 -72.5 -268.5t-196.5 -195t-270 -71.5q-109 0 -209 42.5t-172 114t-114.5 170.5t-42.5 208v965h243v-965q0 -126 87 -215q86 -88 208 -88t208.5 89t86.5 214v965zM633 1595l-1 2l-207 284h261l165 -286h-218z" />
    <glyph glyph-name="Uacute" unicode="&#xda;" horiz-adv-x="1423" 
d="M998 1464h244v-965q0 -145 -72.5 -268.5t-196.5 -195t-270 -71.5q-109 0 -209 42.5t-172 114t-114.5 170.5t-42.5 208v965h243v-965q0 -126 87 -215q86 -88 208 -88t208.5 89t86.5 214v965zM1025 1881l-208 -286h-218l165 286h261z" />
    <glyph glyph-name="Ucircumflex" unicode="&#xdb;" horiz-adv-x="1423" 
d="M998 1464h244v-965q0 -145 -72.5 -268.5t-196.5 -195t-270 -71.5q-109 0 -209 42.5t-172 114t-114.5 170.5t-42.5 208v965h243v-965q0 -126 87 -215q86 -88 208 -88t208.5 89t86.5 214v965zM703 1789l-194 -246l-143 113l177 225h320l178 -225l-143 -113z" />
    <glyph glyph-name="Udieresis" unicode="&#xdc;" horiz-adv-x="1423" 
d="M998 1464h244v-965q0 -145 -72.5 -268.5t-196.5 -195t-270 -71.5q-109 0 -209 42.5t-172 114t-114.5 170.5t-42.5 208v965h243v-965q0 -126 87 -215q86 -88 208 -88t208.5 89t86.5 214v965zM1024 1638h-243v243h243v-243zM626 1638h-243v243h243v-243z" />
    <glyph glyph-name="Yacute" unicode="&#xdd;" horiz-adv-x="1357" 
d="M974 1881l-208 -286h-218l165 286h261zM990 1464h276l-476 -844v-625h-243v628l-474 841h276l320 -598z" />
    <glyph glyph-name="Thorn" unicode="&#xde;" horiz-adv-x="1198" 
d="M662 1195q126 0 233.5 -62.5t170 -170t62.5 -233.5t-62.5 -233.5t-170 -169.5t-233.5 -62h-354v-269h-239v1469h239v-269h354zM639 480q101 0 172.5 71.5t71.5 172.5t-71.5 172.5t-172.5 71.5h-331v-488h331z" />
    <glyph glyph-name="germandbls" unicode="&#xdf;" horiz-adv-x="1304" 
d="M971 783q82 -65 127 -152.5t45 -183.5q0 -122 -69.5 -226.5t-188.5 -165t-260 -60.5h-98v235h98q115 0 195.5 66t80.5 159t-80.5 158.5t-195.5 65.5h-98v202h98q105 0 179.5 57t74.5 137t-74.5 137t-179.5 57q-104 0 -177.5 -57t-73.5 -137v-1080h-237v1082
q0 113 65.5 209.5t178 152.5t244.5 56t244.5 -56t177.5 -152.5t65 -209.5q0 -82 -37 -159t-104 -135z" />
    <glyph glyph-name="agrave" unicode="&#xe0;" horiz-adv-x="1169" 
d="M485 1248l-2 2l-206 284h261l164 -286h-217zM533 1147q187 0 319.5 -108t132.5 -261v-783h-230v94q-57 -59 -137.5 -92t-170.5 -33q-166 0 -284 102t-118 245q0 24 1 39t7 48t17.5 57t36 58t58.5 58t88 50.5t121.5 43.5t162.5 28.5t208 12.5v73q0 58 -60.5 99t-145.5 41
q-82 0 -141.5 -38t-64.5 -94l-2 -24l-246 73l5 18q33 127 158 210t285 83zM745 434v66h-11q-224 0 -340.5 -47.5t-116.5 -138.5q0 -53 50.5 -91t121.5 -38q121 0 208 73t88 176z" />
    <glyph glyph-name="aacute" unicode="&#xe1;" horiz-adv-x="1169" 
d="M803 1534l-208 -286h-218l165 286h261zM533 1147q187 0 319.5 -108t132.5 -261v-783h-230v94q-57 -59 -137.5 -92t-170.5 -33q-166 0 -284 102t-118 245q0 24 1 39t7 48t17.5 57t36 58t58.5 58t88 50.5t121.5 43.5t162.5 28.5t208 12.5v73q0 58 -60.5 99t-145.5 41
q-82 0 -141.5 -38t-64.5 -94l-2 -24l-246 73l5 18q33 127 158 210t285 83zM745 434v66h-11q-224 0 -340.5 -47.5t-116.5 -138.5q0 -53 50.5 -91t121.5 -38q121 0 208 73t88 176z" />
    <glyph glyph-name="acircumflex" unicode="&#xe2;" horiz-adv-x="1169" 
d="M545 1442l-195 -246l-143 113l178 225h319l178 -225l-143 -113zM533 1147q187 0 319.5 -108t132.5 -261v-783h-230v94q-57 -59 -137.5 -92t-170.5 -33q-166 0 -284 102t-118 245q0 24 1 39t7 48t17.5 57t36 58t58.5 58t88 50.5t121.5 43.5t162.5 28.5t208 12.5v73
q0 58 -60.5 99t-145.5 41q-82 0 -141.5 -38t-64.5 -94l-2 -24l-246 73l5 18q33 127 158 210t285 83zM745 434v66h-11q-224 0 -340.5 -47.5t-116.5 -138.5q0 -53 50.5 -91t121.5 -38q121 0 208 73t88 176z" />
    <glyph glyph-name="atilde" unicode="&#xe3;" horiz-adv-x="1169" 
d="M226 1316l-18 -18l-70 128l12 10q101 83 229 85q78 3 158 -33l52 -23q64 -30 134 -18t120 61l19 18l70 -128l-13 -10q-101 -83 -228 -85q-84 -1 -159 33l-51 24q-64 30 -134.5 18t-120.5 -62zM533 1147q187 0 319.5 -108t132.5 -261v-783h-230v94q-57 -59 -137.5 -92
t-170.5 -33q-166 0 -284 102t-118 245q0 24 1 39t7 48t17.5 57t36 58t58.5 58t88 50.5t121.5 43.5t162.5 28.5t208 12.5v73q0 58 -60.5 99t-145.5 41q-82 0 -141.5 -38t-64.5 -94l-2 -24l-246 73l5 18q33 127 158 210t285 83zM745 434v66h-11q-224 0 -340.5 -47.5
t-116.5 -138.5q0 -53 50.5 -91t121.5 -38q121 0 208 73t88 176z" />
    <glyph glyph-name="adieresis" unicode="&#xe4;" horiz-adv-x="1169" 
d="M856 1291h-244v243h244v-243zM457 1291h-243v243h243v-243zM533 1147q187 0 319.5 -108t132.5 -261v-783h-230v94q-57 -59 -137.5 -92t-170.5 -33q-166 0 -284 102t-118 245q0 24 1 39t7 48t17.5 57t36 58t58.5 58t88 50.5t121.5 43.5t162.5 28.5t208 12.5v73
q0 58 -60.5 99t-145.5 41q-82 0 -141.5 -38t-64.5 -94l-2 -24l-246 73l5 18q33 127 158 210t285 83zM745 434v66h-11q-224 0 -340.5 -47.5t-116.5 -138.5q0 -53 50.5 -91t121.5 -38q121 0 208 73t88 176z" />
    <glyph glyph-name="aring" unicode="&#xe5;" horiz-adv-x="1169" 
d="M724 1113q119 -46 190 -136.5t71 -198.5v-783h-230v94q-57 -59 -137.5 -92t-170.5 -33q-166 0 -284 102t-118 245q0 196 173.5 294t526.5 101v73q0 58 -60.5 99t-145.5 41q-82 0 -141.5 -38t-64.5 -94l-2 -24l-246 73l5 18q24 94 99.5 165.5t185.5 104.5q-54 65 -54 148
q0 97 68 165.5t165 68.5t165.5 -68.5t68.5 -165.5q0 -92 -64 -159zM554 1184q37 0 62.5 25.5t25.5 62.5t-25.5 62.5t-62.5 25.5t-62.5 -25.5t-25.5 -62.5t25.5 -62.5t62.5 -25.5zM745 434v66h-11q-224 0 -340.5 -47.5t-116.5 -138.5q0 -53 50.5 -91t121.5 -38q121 0 208 73
t88 176z" />
    <glyph glyph-name="ae" unicode="&#xe6;" horiz-adv-x="1873" 
d="M1237 1147q140 0 259 -79t188.5 -215.5t69.5 -296.5q0 -24 -4 -70l-1 -17h-791l3 -11q26 -120 102.5 -196.5t173.5 -76.5q53 0 101 18q107 39 166 153l7 14l219 -65l-10 -20q-103 -213 -303 -288q-87 -33 -169 -33h-9h-2q-119 0 -226.5 60.5t-180.5 167.5
q-73 -107 -181 -167.5t-227 -60.5q-166 0 -284 102t-118 245q0 31 1.5 52.5t15.5 66t38.5 76.5t76.5 71.5t123.5 65t186.5 44t259 19.5v73q0 58 -60.5 99t-145.5 41q-82 0 -141.5 -38t-64.5 -94l-2 -24l-246 73l4 18q33 127 158 210t285 83q111 0 212 -43t163 -118
q149 161 354 161zM721 434v66h-12q-224 0 -340 -47.5t-116 -138.5q0 -53 50 -91t121 -38q122 0 209 73t88 176zM965 671h545q-29 115 -104 185t-169 70q-92 0 -167.5 -71t-104.5 -184z" />
    <glyph glyph-name="ccedilla" unicode="&#xe7;" horiz-adv-x="1251" 
d="M880 430l218 -65l-6 -19q-57 -171 -190 -276.5t-293 -105.5h-1l-22 -52q21 3 42 3q107 0 183 -66t76 -160t-76 -160.5t-183 -66.5q-80 0 -146 40.5t-95 106.5l-8 18l138 57l6 -20q10 -30 39 -48.5t66 -18.5q45 0 77 27t32 65t-32 65t-77 27q-37 0 -66 -19t-39 -49l-6 -20
l-137 57l97 234q-168 51 -276.5 212.5t-108.5 359.5q0 160 69.5 296.5t188.5 215.5t259 79q156 0 285 -98t190 -262l8 -20l-5 -1l-214 -63l-7 17q-37 96 -105.5 151t-151.5 55q-119 0 -203.5 -108.5t-84.5 -261.5t84.5 -262t203.5 -109q87 0 159 62t106 165z" />
    <glyph glyph-name="egrave" unicode="&#xe8;" horiz-adv-x="1222" 
d="M495 1248l-2 2l-206 284h261l164 -286h-217zM580 1147q140 0 259 -79t188.5 -215.5t69.5 -296.5q0 -24 -4 -70l-2 -17h-790q23 -125 101 -204.5t178 -79.5q130 0 217 99q28 32 49 72l8 14l219 -65l-10 -20q-103 -213 -303 -288q-88 -33 -171 -33h-7h-2q-140 0 -259 79.5
t-188.5 216t-69.5 296.5t69.5 296.5t188.5 215.5t259 79zM307 671h546q-29 115 -104 185t-169 70t-169 -70t-104 -185z" />
    <glyph glyph-name="eacute" unicode="&#xe9;" horiz-adv-x="1222" 
d="M877 1534l-209 -286h-217l164 286h262zM580 1147q140 0 259 -79t188.5 -215.5t69.5 -296.5q0 -24 -4 -70l-2 -17h-790q23 -125 101 -204.5t178 -79.5q130 0 217 99q28 32 49 72l8 14l219 -65l-10 -20q-103 -213 -303 -288q-88 -33 -171 -33h-7h-2q-140 0 -259 79.5
t-188.5 216t-69.5 296.5t69.5 296.5t188.5 215.5t259 79zM307 671h546q-29 115 -104 185t-169 70t-169 -70t-104 -185z" />
    <glyph glyph-name="ecircumflex" unicode="&#xea;" horiz-adv-x="1222" 
d="M580 1442l-195 -246l-143 113l178 225h320l178 -225l-143 -113zM580 1147q140 0 259 -79t188.5 -215.5t69.5 -296.5q0 -24 -4 -70l-2 -17h-790q23 -125 101 -204.5t178 -79.5q130 0 217 99q28 32 49 72l8 14l219 -65l-10 -20q-103 -213 -303 -288q-88 -33 -171 -33h-7h-2
q-140 0 -259 79.5t-188.5 216t-69.5 296.5t69.5 296.5t188.5 215.5t259 79zM307 671h546q-29 115 -104 185t-169 70t-169 -70t-104 -185z" />
    <glyph glyph-name="edieresis" unicode="&#xeb;" horiz-adv-x="1222" 
d="M901 1291h-243v243h243v-243zM502 1291h-243v243h243v-243zM580 1147q140 0 259 -79t188.5 -215.5t69.5 -296.5q0 -24 -4 -70l-2 -17h-790q23 -125 101 -204.5t178 -79.5h22.5t46 8.5t67 24t66.5 51.5t64 87l8 14l219 -65l-10 -20q-103 -213 -303 -288q-88 -33 -171 -33
h-7h-2q-140 0 -259 79.5t-188.5 216t-69.5 296.5t69.5 296.5t188.5 215.5t259 79zM307 671h546q-29 115 -104 185t-169 70t-169 -70t-104 -185z" />
    <glyph glyph-name="igrave" unicode="&#xec;" horiz-adv-x="708" 
d="M458 -5h-239v1122h239v-1122zM239 1248l-1 2l-207 284h261l165 -286h-218z" />
    <glyph glyph-name="iacute" unicode="&#xed;" horiz-adv-x="618" 
d="M406 -5h-240v1122h240v-1122zM590 1534l-209 -286h-217l165 286h261z" />
    <glyph glyph-name="icircumflex" unicode="&#xee;" horiz-adv-x="702" 
d="M436 -5h-240v1122h240v-1122zM476 1534l178 -225l-143 -113l-195 246l-194 -246l-144 113l178 225h320z" />
    <glyph glyph-name="idieresis" unicode="&#xef;" horiz-adv-x="669" 
d="M420 -5h-239v1122h239v-1122zM621 1291h-243v243h243v-243zM223 1291h-243v243h243v-243z" />
    <glyph glyph-name="eth" unicode="&#xf0;" horiz-adv-x="1224" 
d="M1096 587q0 -5 0.5 -15.5t0.5 -15.5q0 -160 -69.5 -296.5t-188.5 -216t-259 -79.5t-259 79.5t-188.5 216t-69.5 296.5t69.5 296.5t188.5 215.5t259 79q96 0 182 -37q-38 77 -101 168l-279 -77l-39 141l220 61l-24 26t-22 23.5t-20 20.5t-18.5 17.5t-15.5 14t-12.5 11.5
t-9.5 8t-7 5l-2 2l-46 35h310l6 -6q40 -42 82 -95l261 72l39 -141l-211 -59q64 -102 110 -217t67 -197t32.5 -169t12.5 -114.5t1 -52.5zM580 185q118 0 202.5 109t84.5 262t-84 261.5t-203 108.5t-203 -108.5t-84 -261.5t84.5 -262t202.5 -109z" />
    <glyph glyph-name="ntilde" unicode="&#xf1;" horiz-adv-x="1249" 
d="M672 1147q112 0 207.5 -66t151 -180t55.5 -248v-658h-239v641q0 119 -65 203.5t-157 84.5t-157.5 -84.5t-65.5 -203.5v-641h-239v1122h230v-99q118 129 279 129zM296 1316l-18 -18l-70 128l13 10q101 83 228 85q85 2 159 -33l51 -23q64 -30 134.5 -18t120.5 61l18 18
l70 -128l-12 -10q-101 -83 -229 -85q-84 -2 -159 33l-51 24q-64 30 -134.5 18t-120.5 -62z" />
    <glyph glyph-name="ograve" unicode="&#xf2;" horiz-adv-x="1198" 
d="M562 1147q140 0 259 -79t188 -215.5t69 -296.5t-69 -296.5t-188 -216t-259 -79.5t-259 79.5t-188.5 216t-69.5 296.5t69.5 296.5t188.5 215.5t259 79zM562 185q118 0 202.5 109t84.5 262t-84 261.5t-203 108.5t-203.5 -108.5t-84.5 -261.5t84.5 -262t203.5 -109z
M457 1248l-2 2l-206 284h261l164 -286h-217z" />
    <glyph glyph-name="oacute" unicode="&#xf3;" horiz-adv-x="1198" 
d="M562 1147q140 0 259 -79t188 -215.5t69 -296.5t-69 -296.5t-188 -216t-259 -79.5t-259 79.5t-188.5 216t-69.5 296.5t69.5 296.5t188.5 215.5t259 79zM562 185q118 0 202.5 109t84.5 262t-84 261.5t-203 108.5t-203.5 -108.5t-84.5 -261.5t84.5 -262t203.5 -109z
M879 1534l-209 -286h-217l165 286h261z" />
    <glyph glyph-name="ocircumflex" unicode="&#xf4;" horiz-adv-x="1198" 
d="M562 1147q140 0 259 -79t188 -215.5t69 -296.5t-69 -296.5t-188 -216t-259 -79.5t-259 79.5t-188.5 216t-69.5 296.5t69.5 296.5t188.5 215.5t259 79zM562 185q118 0 202.5 109t84.5 262t-84 261.5t-203 108.5t-203.5 -108.5t-84.5 -261.5t84.5 -262t203.5 -109z
M562 1442l-195 -246l-143 113l178 225h319l178 -225l-143 -113z" />
    <glyph glyph-name="otilde" unicode="&#xf5;" horiz-adv-x="1198" 
d="M562 1147q140 0 259 -79t188 -215.5t69 -296.5t-69 -296.5t-188 -216t-259 -79.5t-259 79.5t-188.5 216t-69.5 296.5t69.5 296.5t188.5 215.5t259 79zM562 185q118 0 202.5 109t84.5 262t-84 261.5t-203 108.5t-203.5 -108.5t-84.5 -261.5t84.5 -262t203.5 -109z
M253 1316l-19 -18l-69 128l12 10q101 83 229 85q84 2 158 -33l51 -23q64 -30 134.5 -18t120.5 61l19 18l69 -128l-12 -10q-101 -83 -229 -85q-84 -2 -158 33l-51 24q-64 30 -134.5 18t-120.5 -62z" />
    <glyph glyph-name="odieresis" unicode="&#xf6;" horiz-adv-x="1198" 
d="M562 1147q140 0 259 -79t188 -215.5t69 -296.5t-69 -296.5t-188 -216t-259 -79.5t-259 79.5t-188.5 216t-69.5 296.5t69.5 296.5t188.5 215.5t259 79zM562 185q118 0 202.5 109t84.5 262t-84 261.5t-203 108.5t-203.5 -108.5t-84.5 -261.5t84.5 -262t203.5 -109z
M882 1291h-243v243h243v-243zM484 1291h-243v243h243v-243z" />
    <glyph glyph-name="divide" unicode="&#xf7;" horiz-adv-x="1241" 
d="M1094 637h-947v185h947v-185zM621 961q-59 0 -100 41.5t-41 99.5t41 99t100 41t99.5 -41t40.5 -99q0 -59 -41 -100t-99 -41zM621 498q58 0 99 -41t41 -100t-40.5 -99.5t-99.5 -40.5t-100 41t-41 99q0 59 41 100t100 41z" />
    <glyph glyph-name="oslash" unicode="&#xf8;" horiz-adv-x="1198" 
d="M918 984q76 -83 118 -195t42 -233q0 -160 -69 -296.5t-188 -216t-259 -79.5q-145 0 -269 86l-57 -85l-96 64l66 98q-77 83 -119 195.5t-42 233.5q0 160 69.5 296.5t188.5 215.5t259 79q144 0 268 -86l57 86l96 -65zM274 556q0 -128 64 -231l368 551q-67 50 -144 50
q-119 0 -203.5 -108.5t-84.5 -261.5zM562 185q118 0 202.5 109t84.5 262q0 130 -63 231l-369 -551q68 -51 145 -51z" />
    <glyph glyph-name="ugrave" unicode="&#xf9;" horiz-adv-x="1220" 
d="M794 1117h239v-1122h-230v98q-118 -129 -279 -129q-112 0 -207.5 66.5t-151 180.5t-55.5 248v658h239v-641q0 -119 65 -203.5t157 -84.5t157.5 84.5t65.5 203.5v641zM536 1248l-1 2l-207 284h261l165 -286h-218z" />
    <glyph glyph-name="uacute" unicode="&#xfa;" horiz-adv-x="1226" 
d="M882 1534l-209 -286h-217l164 286h262zM798 1117h239v-1122h-230v98q-118 -129 -279 -129q-112 0 -207.5 66.5t-151 180.5t-55.5 248v658h239v-641q0 -119 65 -203.5t157 -84.5t157.5 84.5t65.5 203.5v641z" />
    <glyph glyph-name="ucircumflex" unicode="&#xfb;" horiz-adv-x="1222" 
d="M562 1442l-194 -246l-143 113l177 225h320l178 -225l-143 -113zM796 1117h239v-1122h-230v98q-118 -129 -279 -129q-112 0 -207.5 66.5t-151 180.5t-55.5 248v658h239v-641q0 -119 65 -203.5t157 -84.5t157.5 84.5t65.5 203.5v641z" />
    <glyph glyph-name="udieresis" unicode="&#xfc;" horiz-adv-x="1222" 
d="M903 1291h-243v243h243v-243zM505 1291h-243v243h243v-243zM795 1117h239v-1122h-230v98q-118 -129 -279 -129q-112 0 -207.5 66.5t-151 180.5t-55.5 248v658h239v-641q0 -119 65 -203.5t157 -84.5t157.5 84.5t65.5 203.5v641z" />
    <glyph glyph-name="yacute" unicode="&#xfd;" horiz-adv-x="1255" 
d="M910 1534l-208 -286h-217l164 286h261zM934 1117h239l-2 -7l-686 -1676h-231l231 573l-453 1110h239l1 -3l331 -817z" />
    <glyph glyph-name="thorn" unicode="&#xfe;" horiz-adv-x="1361" 
d="M703 1147q134 0 248 -79t180.5 -215.5t66.5 -296.5t-66.5 -296.5t-180.5 -216t-248 -79.5q-167 0 -300 121v-651h-239v2302h230v-718q134 129 309 129zM682 185q118 0 202.5 109t84.5 262t-84 261.5t-203 108.5t-203.5 -108.5t-84.5 -261.5t84.5 -262t203.5 -109z" />
    <glyph glyph-name="ydieresis" unicode="&#xff;" horiz-adv-x="1255" 
d="M933 1117h239l-2 -7l-686 -1676h-231l231 573l-453 1110h239l1 -3l331 -817zM921 1291h-244v243h244v-243zM522 1291h-243v243h243v-243z" />
    <glyph glyph-name="Amacron" unicode="&#x100;" horiz-adv-x="1417" 
d="M837 1461l530 -1466h-257l-1 3l-137 395h-495l-138 -398h-257l2 7l529 1462h223zM553 609h343l-171 493zM1089 1701h-729v184h729v-184z" />
    <glyph glyph-name="amacron" unicode="&#x101;" horiz-adv-x="1171" 
d="M533 1147q187 0 319.5 -108t132.5 -261v-783h-230v94q-57 -59 -137.5 -92t-170.5 -33q-166 0 -284 102t-118 245q0 24 1 39t7 48t17.5 57t36 58t58.5 58t88 50.5t121.5 43.5t162.5 28.5t208 12.5v73q0 58 -60.5 99t-145.5 41q-82 0 -141.5 -38t-64.5 -94l-2 -24l-246 72
l5 19q33 127 158 210t285 83zM745 434v66h-11q-224 0 -340.5 -47.5t-116.5 -138.5q0 -53 50.5 -91t121.5 -38q121 0 208 73t88 176zM920 1349h-729v185h729v-185z" />
    <glyph glyph-name="Abreve" unicode="&#x102;" horiz-adv-x="1417" 
d="M838 1461l529 -1466h-257l-1 3l-137 395h-495l-138 -398h-257l2 7l529 1462h223zM553 609h343l-171 493zM725 1633q-97 0 -165.5 68t-68.5 165v19h145v-19q0 -37 26 -62.5t63 -25.5t62.5 25.5t25.5 62.5v19h145v-19q0 -97 -68 -165t-165 -68z" />
    <glyph glyph-name="abreve" unicode="&#x103;" horiz-adv-x="1171" 
d="M533 1147q187 0 319.5 -108t132.5 -261v-783h-230v94q-57 -59 -137.5 -92t-170.5 -33q-166 0 -284 102t-118 245q0 24 1 39t7 48t17.5 57t36 58t58.5 58t88 50.5t121.5 43.5t162.5 28.5t208 12.5v73q0 58 -60.5 99t-145.5 41q-82 0 -141.5 -38t-64.5 -94l-2 -24l-246 72
l5 19q33 127 158 210t285 83zM745 434v66h-11q-224 0 -340.5 -47.5t-116.5 -138.5q0 -53 50.5 -91t121.5 -38q121 0 208 73t88 176zM554 1281q-97 0 -165 68t-68 165v20h145v-20q0 -37 25.5 -62.5t62.5 -25.5t62.5 25.5t25.5 62.5v20h146v-20q0 -97 -68.5 -165t-165.5 -68z
" />
    <glyph glyph-name="Aogonek" unicode="&#x104;" horiz-adv-x="1488" 
d="M1470 -98l128 -69l-15 -30q-21 -43 -56 -78q-77 -77 -182 -85q-3 0 -9 -0.5t-9 -0.5q-95 0 -160 65q-55 55 -62.5 135.5t33.5 155.5h-28l-1 3l-137 395h-495l-138 -398h-257l2 7l529 1462h223l2 -3l526 -1456l-29 -15q-26 -14 -42 -30q-38 -38 -44 -87q-5 -43 20 -68
q27 -27 72 -20t82 44q18 18 31 42zM553 609h343l-171 493z" />
    <glyph glyph-name="aogonek" unicode="&#x105;" horiz-adv-x="1206" 
d="M1096 -98l129 -69l-15 -30q-21 -43 -56 -78q-77 -77 -182 -85q-3 0 -9 -0.5t-9 -0.5q-95 0 -160 65q-55 55 -63 135.5t33 155.5h-9v94q-57 -59 -137.5 -92t-170.5 -33q-166 0 -284 102t-118 245q0 196 173.5 294t526.5 101v73q0 58 -60.5 99t-145.5 41q-82 0 -141.5 -38
t-64.5 -94l-2 -24l-246 72l5 19q33 127 158 210t285 83q187 0 319.5 -108t132.5 -261v-775l-24 -13q-24 -13 -41 -30q-39 -39 -45 -87q-5 -43 20 -68q27 -27 72.5 -20t82.5 44q18 18 31 42zM745 434v66h-11q-224 0 -340.5 -47.5t-116.5 -138.5q0 -53 50.5 -91t121.5 -38
q121 0 208 73t88 176z" />
    <glyph glyph-name="Cacute" unicode="&#x106;" horiz-adv-x="1548" 
d="M1107 1881l-208 -286h-218l165 286h261zM1190 548l239 -71l-6 -19q-74 -222 -245.5 -358t-378.5 -136q-136 0 -259.5 60.5t-213 163t-142.5 244.5t-53 297t53 297t142.5 244.5t213 163t259.5 60.5q201 0 368 -126.5t246 -338.5l7 -20l-5 -1l-233 -70l-7 18
q-51 140 -153 223.5t-223 83.5q-113 0 -208.5 -71.5t-151.5 -194.5t-56 -268t56 -268t151.5 -194.5t208.5 -71.5q127 0 232 91.5t153 243.5z" />
    <glyph glyph-name="cacute" unicode="&#x107;" horiz-adv-x="1251" 
d="M896 1534l-208 -286h-217l164 286h261zM879 430l219 -65l-6 -19q-57 -171 -190 -276.5t-293 -105.5q-140 0 -259 79.5t-188.5 216t-69.5 296.5t69.5 296.5t188.5 215.5t259 79q156 0 285 -98t190 -262l8 -20l-5 -1l-214 -63l-7 17q-37 96 -105.5 151t-151.5 55
q-119 0 -203.5 -108.5t-84.5 -261.5t84.5 -262t203.5 -109q87 0 159 62t106 165z" />
    <glyph glyph-name="Ccircumflex" unicode="&#x108;" horiz-adv-x="1548" 
d="M1190 548l239 -71l-6 -19q-74 -222 -245.5 -358t-378.5 -136q-136 0 -259.5 60.5t-213 163t-142.5 244.5t-53 297t53 297t142.5 244.5t213 163t259.5 60.5q201 0 368 -126.5t246 -338.5l7 -20l-5 -1l-233 -70l-7 18q-51 140 -153.5 223.5t-222.5 83.5
q-113 0 -208.5 -71.5t-151.5 -194.5t-56 -268t56 -268t151.5 -194.5t208.5 -71.5q127 0 232 91.5t153 243.5zM794 1789l-194 -246l-143 113l178 225h319l178 -225l-143 -113z" />
    <glyph glyph-name="ccircumflex" unicode="&#x109;" horiz-adv-x="1251" 
d="M880 430l218 -65l-6 -19q-57 -171 -190 -276.5t-293 -105.5q-140 0 -259 79.5t-188.5 216t-69.5 296.5t69.5 296.5t188.5 215.5t259 79q156 0 285 -98t190 -262l8 -20l-5 -1l-214 -63l-7 17q-37 96 -105.5 151t-151.5 55q-119 0 -203.5 -108.5t-84.5 -261.5t84.5 -262
t203.5 -109q87 0 159 62t106 165zM593 1442l-195 -246l-143 113l178 225h319l178 -225l-143 -113z" />
    <glyph glyph-name="Cdot" unicode="&#x10a;" horiz-adv-x="1548" 
d="M1190 548l239 -71l-6 -19q-74 -222 -245.5 -358t-378.5 -136q-136 0 -259.5 60.5t-213 163t-142.5 244.5t-53 297t53 297t142.5 244.5t213 163t259.5 60.5q201 0 368 -126.5t246 -338.5l7 -20l-5 -1l-233 -70l-7 18q-51 140 -153 223.5t-223 83.5q-113 0 -208.5 -71.5
t-151.5 -194.5t-56 -268t56 -268t151.5 -194.5t208.5 -71.5q127 0 232 91.5t153 243.5zM919 1638h-244v243h244v-243z" />
    <glyph glyph-name="cdot" unicode="&#x10b;" horiz-adv-x="1251" 
d="M879 430l219 -65l-6 -19q-57 -171 -190 -276.5t-293 -105.5q-140 0 -259 79.5t-188.5 216t-69.5 296.5t69.5 296.5t188.5 215.5t259 79q156 0 285 -98t190 -262l8 -20l-5 -1l-214 -63l-7 17q-37 96 -105.5 151t-151.5 55q-119 0 -203.5 -108.5t-84.5 -261.5t84.5 -262
t203.5 -109q87 0 159 62t106 165zM733 1290h-243v244h243v-244z" />
    <glyph glyph-name="Ccaron" unicode="&#x10c;" horiz-adv-x="1548" 
d="M937 1591h-319l-178 224l143 114l194 -246l195 246l143 -114zM1190 548l239 -71l-6 -19q-74 -222 -245.5 -358t-378.5 -136q-136 0 -259.5 60.5t-213 163t-142.5 244.5t-53 297t53 297t142.5 244.5t213 163t259.5 60.5q201 0 368 -126.5t246 -338.5l7 -20l-5 -1l-233 -70
l-7 18q-51 140 -153 223.5t-223 83.5q-113 0 -208.5 -71.5t-151.5 -194.5t-56 -268t56 -268t151.5 -194.5t208.5 -71.5q127 0 232 91.5t153 243.5z" />
    <glyph glyph-name="ccaron" unicode="&#x10d;" horiz-adv-x="1251" 
d="M752 1244h-319l-178 224l143 113l194 -245l195 245l143 -113zM879 430l219 -65l-6 -19q-57 -171 -190 -276.5t-293 -105.5q-140 0 -259 79.5t-188.5 216t-69.5 296.5t69.5 296.5t188.5 215.5t259 79q156 0 285 -98t190 -262l8 -20l-5 -1l-214 -63l-7 17
q-37 96 -105.5 151t-151.5 55q-119 0 -203.5 -108.5t-84.5 -261.5t84.5 -262t203.5 -109q87 0 159 62t106 165z" />
    <glyph glyph-name="Dcaron" unicode="&#x10e;" horiz-adv-x="1460" 
d="M791 1591h-319l-178 224l143 114l194 -246l195 246l143 -114zM672 1464q136 0 259.5 -58.5t213 -157t142.5 -234.5t53 -285q0 -199 -89.5 -368t-243.5 -267.5t-335 -98.5h-467v1469h467zM672 218q113 0 208.5 68.5t151.5 186t56 256.5t-56 257t-151.5 186.5t-208.5 68.5
h-224v-1023h224z" />
    <glyph glyph-name="dcaron" unicode="&#x10f;" horiz-adv-x="1398" 
d="M1333 1736h261l-208 -286h-218zM875 1026v710h239v-1741h-230v99q-135 -130 -309 -130q-134 0 -248 79.5t-180.5 216t-66.5 296.5t66.5 296.5t180.5 215.5t248 79q167 0 300 -121zM596 185q119 0 203.5 109t84.5 262t-84.5 261.5t-203.5 108.5t-203 -108.5t-84 -261.5
t84.5 -262t202.5 -109z" />
    <glyph glyph-name="dmacron" unicode="&#x111;" horiz-adv-x="1374" 
d="M1114 1495h142v-185h-142v-1315h-230v99q-135 -130 -309 -130q-134 0 -248 79.5t-180.5 216t-66.5 296.5t66.5 296.5t180.5 215.5t248 79q167 0 300 -121v284h-348v185h348v241h239v-241zM596 185q119 0 203.5 109t84.5 262t-84.5 261.5t-203.5 108.5t-203 -108.5
t-84 -261.5t84.5 -262t202.5 -109z" />
    <glyph glyph-name="Emacron" unicode="&#x112;" 
d="M1088 1237h-611v-361h580v-217h-580v-437h611v-227h-855v1469h855v-227zM1025 1696h-729v185h729v-185z" />
    <glyph glyph-name="emacron" unicode="&#x113;" horiz-adv-x="1224" 
d="M580 1147q140 0 259 -79t188.5 -215.5t69.5 -296.5q0 -24 -4 -70l-2 -17h-790q23 -125 101 -204.5t178 -79.5q130 0 217 99q28 32 49 72l8 14l219 -65l-10 -20q-103 -213 -303 -288q-87 -33 -170 -33h-11q-103 0 -196.5 45t-167.5 129q-152 176 -152 418
q0 160 69.5 296.5t188.5 215.5t259 79zM307 671h546q-29 115 -104 185t-169 70t-169 -70t-104 -185zM944 1349h-728v185h728v-185z" />
    <glyph glyph-name="Ebreve" unicode="&#x114;" 
d="M1088 1237h-611v-361h580v-217h-580v-437h611v-227h-855v1469h855v-227zM661 1628q-97 0 -165.5 68t-68.5 165v20h145v-20q0 -37 26 -62.5t63 -25.5t62.5 25.5t25.5 62.5v20h145v-20q0 -97 -68 -165t-165 -68z" />
    <glyph glyph-name="ebreve" unicode="&#x115;" horiz-adv-x="1224" 
d="M580 1147q140 0 259 -79t188.5 -215.5t69.5 -296.5q0 -24 -4 -70l-2 -17h-790q23 -125 101 -204.5t178 -79.5q130 0 217 99q28 32 49 72l8 14l219 -65l-10 -20q-103 -213 -303 -288q-87 -33 -170 -33h-11q-103 0 -196.5 45t-167.5 129q-152 176 -152 418
q0 160 69.5 296.5t188.5 215.5t259 79zM307 671h546q-29 115 -104 185t-169 70t-169 -70t-104 -185zM580 1276q-97 0 -165 68t-68 165v20h145v-20q0 -37 25.5 -62.5t62.5 -25.5t62.5 25.5t25.5 62.5v20h145v-20q0 -97 -68 -165t-165 -68z" />
    <glyph glyph-name="Edot" unicode="&#x116;" 
d="M782 1638h-243v243h243v-243zM1088 1237h-611v-361h580v-217h-580v-437h611v-227h-855v1469h855v-227z" />
    <glyph glyph-name="edot" unicode="&#x117;" horiz-adv-x="1224" 
d="M580 1147q140 0 259 -79t188.5 -215.5t69.5 -296.5q0 -24 -4 -70l-2 -17h-790q23 -125 101 -204.5t178 -79.5q16 -1 38.5 2.5t65 16.5t87 52.5t75.5 99.5l8 14l219 -65l-10 -20q-103 -213 -303 -288q-87 -33 -170 -33h-11q-103 0 -196.5 45t-167.5 129q-152 176 -152 418
q0 160 69.5 296.5t188.5 215.5t259 79zM307 671h546q-29 115 -104 185t-169 70t-169 -70t-104 -185zM702 1290h-243v244h243v-244z" />
    <glyph glyph-name="Eogonek" unicode="&#x118;" 
d="M1088 1237h-611v-361h580v-217h-580v-437h611v-227h-269l-10 -5q-26 -14 -42 -30q-38 -38 -44 -87q-5 -43 20 -68q26 -26 72 -20q45 6 83 44q18 18 31 42l15 31l129 -69l-15 -30q-21 -43 -56 -78q-77 -77 -182 -85q-3 0 -9 -0.5t-9 -0.5q-95 0 -160 65q-55 55 -63 135.5
t33 155.5h-379v1469h855v-227z" />
    <glyph glyph-name="eogonek" unicode="&#x119;" horiz-adv-x="1224" 
d="M580 1147q140 0 259 -79t188.5 -215.5t69.5 -296.5q0 -24 -4 -70l-2 -17h-790q23 -125 101 -204.5t178 -79.5q6 -1 21.5 -0.5t48 8.5t64.5 24t69 52t63 87l8 14l219 -65l-10 -20q-34 -72 -80 -128.5t-94 -89.5t-92.5 -55.5t-88.5 -32t-69.5 -12.5t-47.5 -3h-2
q-1 -1 -2.5 -2t-2.5 -2q-38 -38 -44 -87q-5 -43 20 -68q26 -26 71 -20q46 6 84 44q16 16 30 42l16 31l128 -69l-14 -30q-20 -41 -57 -78q-77 -77 -182 -85q-3 0 -9 -0.5t-9 -0.5q-95 0 -160 65q-54 54 -62.5 133t31.5 154q-161 57 -262.5 214.5t-101.5 350.5
q0 160 69.5 296.5t188.5 215.5t259 79zM307 671h546q-29 115 -104 185t-169 70t-169 -70t-104 -185z" />
    <glyph glyph-name="Ecaron" unicode="&#x11a;" 
d="M820 1591h-319l-178 224l143 114l195 -246l194 246l143 -114zM1088 1237h-611v-361h580v-217h-580v-437h611v-227h-855v1469h855v-227z" />
    <glyph glyph-name="ecaron" unicode="&#x11b;" horiz-adv-x="1224" 
d="M740 1244h-320l-178 224l143 113l195 -245l195 245l143 -113zM580 1147q140 0 259 -79t188.5 -215.5t69.5 -296.5q0 -24 -4 -70l-2 -17h-790q23 -125 101 -204.5t178 -79.5q16 -1 38.5 2.5t65 16.5t87 52.5t75.5 99.5l8 14l219 -65l-10 -20q-103 -213 -303 -288
q-87 -33 -170 -33h-11q-103 0 -196.5 45t-167.5 129q-152 176 -152 418q0 160 69.5 296.5t188.5 215.5t259 79zM307 671h546q-29 115 -104 185t-169 70t-169 -70t-104 -185z" />
    <glyph glyph-name="Gcircumflex" unicode="&#x11c;" horiz-adv-x="1615" 
d="M767 749h707v-20q0 -208 -89.5 -384t-243 -278.5t-334.5 -102.5q-136 0 -259.5 60.5t-213 163t-142.5 244.5t-53 297t53 297t142.5 244.5t213 163t259.5 60.5q201 0 368 -126.5t246 -338.5l7 -20l-5 -1l-233 -70l-7 18q-51 140 -153 223.5t-223 83.5q-113 0 -208.5 -71.5
t-151.5 -194.5t-56 -268t56 -268t151.5 -194.5t208.5 -71.5q127 0 233 92.5t153 244.5h-426v217zM807 1789l-195 -246l-143 113l178 225h319l178 -225l-143 -113z" />
    <glyph glyph-name="gcircumflex" unicode="&#x11d;" horiz-adv-x="1312" 
d="M888 1117h230v-1162q0 -215 -147.5 -368t-355.5 -153q-142 0 -263 76.5t-186 207.5l-8 16l202 117l9 -20q34 -74 100.5 -117t145.5 -43q113 0 193 83t80 201v139q-135 -130 -309 -130q-134 0 -248 79.5t-180.5 216t-66.5 296.5t66.5 296.5t180.5 215.5t248 79
q175 0 309 -129v99zM601 185q118 0 202.5 109t84.5 262t-84 261.5t-203 108.5t-203.5 -108.5t-84.5 -261.5t84.5 -262t203.5 -109zM640 1442l-195 -246l-143 113l178 225h319l178 -225l-143 -113z" />
    <glyph glyph-name="Gbreve" unicode="&#x11e;" horiz-adv-x="1615" 
d="M767 532v217h707v-20q0 -208 -89.5 -384t-243 -278.5t-334.5 -102.5q-136 0 -259.5 60.5t-213 163t-142.5 244.5t-53 297t53 297t142.5 244.5t213 163t259.5 60.5q201 0 368 -126.5t246 -338.5l7 -20l-5 -1l-233 -70l-7 18q-51 140 -153 223.5t-223 83.5
q-113 0 -208.5 -71.5t-151.5 -194.5t-56 -268t56 -268t151.5 -194.5t208.5 -71.5q127 0 233 92.5t153 244.5h-426zM807 1628q-97 0 -165.5 68t-68.5 165v20h146v-20q0 -37 25.5 -62.5t62.5 -25.5t62.5 25.5t25.5 62.5v20h145v-20q0 -97 -68 -165t-165 -68z" />
    <glyph glyph-name="gbreve" unicode="&#x11f;" horiz-adv-x="1312" 
d="M888 1117h230v-1162q0 -215 -147.5 -368t-355.5 -153q-142 0 -263 76.5t-186 207.5l-8 16l202 117l9 -20q34 -74 100.5 -117t145.5 -43q113 0 193 83t80 201v139q-135 -130 -309 -130q-134 0 -248 79.5t-180.5 216t-66.5 296.5t66.5 296.5t180.5 215.5t248 79
q175 0 309 -129v99zM601 185q118 0 202.5 109t84.5 262t-84 261.5t-203 108.5t-203.5 -108.5t-84.5 -261.5t84.5 -262t203.5 -109zM640 1276q-97 0 -165.5 68t-68.5 165v20h146v-20q0 -37 25.5 -62.5t62.5 -25.5t62.5 25.5t25.5 62.5v20h145v-20q0 -97 -68 -165t-165 -68z
" />
    <glyph glyph-name="Gdot" unicode="&#x120;" horiz-adv-x="1615" 
d="M767 532v217h707v-20q0 -208 -89.5 -384t-243 -278.5t-334.5 -102.5q-136 0 -259.5 60.5t-213 163t-142.5 244.5t-53 297t53 297t142.5 244.5t213 163t259.5 60.5q201 0 368 -126.5t246 -338.5l7 -20l-5 -1l-233 -70l-7 18q-51 140 -153 223.5t-223 83.5
q-113 0 -208.5 -71.5t-151.5 -194.5t-56 -268t56 -268t151.5 -194.5t208.5 -71.5q127 0 233 92.5t153 244.5h-426zM928 1638h-243v243h243v-243z" />
    <glyph glyph-name="gdot" unicode="&#x121;" horiz-adv-x="1312" 
d="M888 1117h230v-1162q0 -215 -147.5 -368t-355.5 -153q-142 0 -263 76.5t-186 207.5l-8 16l202 117l9 -20q34 -74 100.5 -117t145.5 -43q113 0 193 83t80 201v139q-135 -130 -309 -130q-134 0 -248 79.5t-180.5 216t-66.5 296.5t66.5 296.5t180.5 215.5t248 79
q175 0 309 -129v99zM601 185q118 0 202.5 109t84.5 262t-84 261.5t-203 108.5t-203.5 -108.5t-84.5 -261.5t84.5 -262t203.5 -109zM762 1290h-243v244h243v-244z" />
    <glyph glyph-name="Gcedilla" unicode="&#x122;" horiz-adv-x="1615" 
d="M767 532v217h707v-20q0 -208 -89.5 -384t-243 -278.5t-334.5 -102.5q-136 0 -259.5 60.5t-213 163t-142.5 244.5t-53 297t53 297t142.5 244.5t213 163t259.5 60.5q201 0 368 -126.5t246 -338.5l7 -20l-5 -1l-233 -70l-7 18q-51 140 -153 223.5t-223 83.5
q-113 0 -208.5 -71.5t-151.5 -194.5t-56 -268t56 -268t151.5 -194.5t208.5 -71.5q127 0 233 92.5t153 244.5h-426zM846 -96q58 0 99.5 -41t41.5 -100v-87q0 -225 -234 -242l-21 -1v127l16 3q42 8 53 24q8 12 11 39q-47 11 -77 49.5t-30 87.5q0 59 41.5 100t99.5 41z" />
    <glyph glyph-name="gcedilla" unicode="&#x123;" horiz-adv-x="1312" 
d="M888 1117h230v-1162q0 -215 -147.5 -368t-355.5 -153q-142 0 -263 76.5t-186 207.5l-8 16l202 117l9 -20q34 -74 100.5 -117t145.5 -43q113 0 193 83t80 201v139q-135 -130 -309 -130q-134 0 -248 79.5t-180.5 216t-66.5 296.5t66.5 296.5t180.5 215.5t248 79
q175 0 309 -129v99zM601 185q118 0 202.5 109t84.5 262t-84 261.5t-203 108.5t-203.5 -108.5t-84.5 -261.5t84.5 -262t203.5 -109zM640 1243q-58 0 -99.5 41.5t-41.5 99.5v86q0 225 233 242l21 2v-128l-16 -2q-40 -7 -52 -25q-9 -13 -12 -39q47 -11 77 -49t30 -87
q0 -59 -41 -100t-99 -41z" />
    <glyph glyph-name="Hcircumflex" unicode="&#x124;" horiz-adv-x="1511" 
d="M1032 1464h243v-1469h-243v664h-549v-664h-243v1469h243v-588h549v588zM758 1789l-195 -246l-143 113l178 225h319l178 -225l-143 -113z" />
    <glyph glyph-name="hcircumflex" unicode="&#x125;" horiz-adv-x="1249" 
d="M651 1147q112 0 207.5 -66t151 -180t55.5 -248v-658h-239v641q0 119 -65.5 203.5t-157.5 84.5t-157 -84.5t-65 -203.5v-641h-240v1741h240v-463l175 221h319l178 -224l-143 -113l-194 245l-195 -245l-140 111v-240q116 119 270 119z" />
    <glyph glyph-name="Hbar" unicode="&#x126;" horiz-adv-x="1511" 
d="M1274 1242h142v-184h-142v-1063h-244v664h-549v-664h-243v1063h-140v184h140v222h243v-222h549v222h244v-222zM1030 876v182h-549v-182h549z" />
    <glyph glyph-name="hbar" unicode="&#x127;" horiz-adv-x="1271" 
d="M671 1147q171 0 293 -145t122 -349v-658h-240v641q0 119 -65 203.5t-157 84.5t-157.5 -84.5t-65.5 -203.5v-641h-239v1315h-142v185h142v241h239v-241h348v-185h-348v-282q116 119 270 119z" />
    <glyph glyph-name="itilde" unicode="&#x129;" horiz-adv-x="733" 
d="M463 -5h-239v1122h239v-1122zM671 1526l69 -128l-12 -10q-101 -83 -229 -85q-83 -2 -158 33l-51 24q-64 30 -134.5 18t-120.5 -62l-19 -18l-69 128l12 10q101 83 229 85q83 2 158 -33l51 -24q64 -30 134.5 -18t120.5 62z" />
    <glyph glyph-name="Imacron" unicode="&#x12a;" horiz-adv-x="788" 
d="M490 -5h-243v1469h243v-1469zM733 1696h-729v185h729v-185z" />
    <glyph glyph-name="imacron" unicode="&#x12b;" horiz-adv-x="708" 
d="M443 -5h-239v1122h239v-1122zM688 1349h-729v185h729v-185z" />
    <glyph glyph-name="Ibreve" unicode="&#x12c;" horiz-adv-x="794" 
d="M519 -5h-243v1469h243v-1469zM485 1881h146v-20q0 -97 -68.5 -165t-165.5 -68t-165 68t-68 165v20h145v-20q0 -37 25.5 -62.5t62.5 -25.5t62.5 25.5t25.5 62.5v20z" />
    <glyph glyph-name="ibreve" unicode="&#x12d;" horiz-adv-x="677" 
d="M431 -5h-239v1122h239v-1122zM399 1529h146v-20q0 -97 -68.5 -165t-165.5 -68t-165 68t-68 165v20h145v-20q0 -37 25.5 -62.5t62.5 -25.5t62.5 25.5t25.5 62.5v20z" />
    <glyph glyph-name="Iogonek" unicode="&#x12e;" horiz-adv-x="778" 
d="M594 -98l128 -69l-15 -30q-21 -43 -56 -78q-77 -77 -182 -85q-3 0 -9 -0.5t-9 -0.5q-95 0 -160 65q-55 55 -62.5 135.5t33.5 155.5h-23v1469h244v-1461l-24 -13q-26 -14 -42 -30q-39 -39 -45 -87q-5 -43 20 -68q26 -26 72 -20q45 6 83 44q18 18 31 42z" />
    <glyph glyph-name="iogonek" unicode="&#x12f;" horiz-adv-x="645" 
d="M272 1266q-58 0 -99.5 41t-41.5 100t41.5 100t99.5 41q59 0 100.5 -41.5t41.5 -99.5t-41.5 -99.5t-100.5 -41.5zM503 -98l129 -69l-15 -30q-20 -41 -57 -78q-77 -77 -182 -85q-3 0 -9 -0.5t-9 -0.5q-95 0 -160 65q-55 55 -62.5 135.5t33.5 155.5h-18v1122h239v-1115
l-24 -12q-26 -14 -42 -30q-38 -38 -44 -87q-5 -43 20 -68q27 -27 72.5 -20t82.5 44q16 16 30 42z" />
    <glyph glyph-name="Idot" unicode="&#x130;" horiz-adv-x="798" 
d="M520 -5h-244v1469h244v-1469zM520 1638h-243v243h243v-243z" />
    <glyph glyph-name="dotlessi" unicode="&#x131;" horiz-adv-x="591" 
d="M389 -5h-239v1122h239v-1122z" />
    <glyph glyph-name="IJ" unicode="&#x132;" horiz-adv-x="1566" 
d="M1093 1464h243v-1127q0 -155 -109 -264t-264 -109q-131 0 -232.5 80.5t-130.5 208.5l-19 82l232 69l24 -107q10 -44 45 -73t81 -29q53 0 91.5 38.5t38.5 91.5v1139zM473 -5h-244v1469h244v-1469z" />
    <glyph glyph-name="ij" unicode="&#x133;" horiz-adv-x="1064" 
d="M400 -5h-239v1122h239v-1122zM281 1266q-59 0 -100.5 41.5t-41.5 99.5t41.5 99.5t100.5 41.5t100 -41t41 -100t-41 -100t-100 -41zM644 1117h239v-1220q0 -205 -127 -334t-329 -129h-20v241h20q102 0 159.5 59t57.5 163v1220zM763 1266q-59 0 -100 41t-41 100t41 100
t100 41t100.5 -41.5t41.5 -99.5t-41.5 -99.5t-100.5 -41.5z" />
    <glyph glyph-name="Jcircumflex" unicode="&#x134;" horiz-adv-x="1040" 
d="M561 325v1139h243v-1127q0 -155 -109 -264t-264 -109q-131 0 -232.5 80.5t-130.5 208.5l-19 82l232 69l24 -107q10 -44 45 -73t81 -29q53 0 91.5 38.5t38.5 91.5zM840 1881l178 -225l-143 -113l-195 246l-194 -246l-143 113l177 225h320z" />
    <glyph glyph-name="jcircumflex" unicode="&#x135;" horiz-adv-x="657" 
d="M214 1117h239v-1220q0 -205 -127 -334t-329 -129h-20v241h20q102 0 159.5 59t57.5 163v1220zM490 1534l178 -225l-143 -113l-194 246l-195 -246l-143 113l178 225h319z" />
    <glyph glyph-name="Kcedilla" unicode="&#x136;" horiz-adv-x="1497" 
d="M664 729l681 -734h-320l-1 2l-553 599v-601h-244v1469h244v-601l554 601h320l-8 -8zM695 -96q59 0 100 -41t41 -100v-87q0 -225 -233 -242l-21 -1v127l16 3q41 8 52 24q9 13 12 39q-47 11 -77.5 49.5t-30.5 87.5q0 59 41 100t100 41z" />
    <glyph glyph-name="kcedilla" unicode="&#x137;" horiz-adv-x="1220" 
d="M585 560l511 -565h-286l-6 6l-397 439v-445h-239v1741h239v-1064l403 445h279l-7 -9zM581 -96q59 0 100 -41t41 -100v-87q0 -225 -234 -242l-21 -1v127l16 3q42 8 53 24q8 12 11 39q-47 11 -77 49.5t-30 87.5q0 59 41 100t100 41z" />
    <glyph glyph-name="kgreenlandic" unicode="&#x138;" horiz-adv-x="1220" 
d="M585 560l511 -565h-286l-6 6l-397 439v-445h-239v1122h239v-445l403 445h279l-7 -9z" />
    <glyph glyph-name="Lacute" unicode="&#x139;" horiz-adv-x="1202" 
d="M668 1881l-209 -286h-217l164 286h262zM499 222h611v-227h-854v1469h243v-1242z" />
    <glyph glyph-name="lacute" unicode="&#x13a;" horiz-adv-x="659" 
d="M590 2153l-209 -286h-217l164 286h262zM417 -5h-239v1741h239v-1741z" />
    <glyph glyph-name="Lcedilla" unicode="&#x13b;" horiz-adv-x="1185" 
d="M485 222h611v-227h-854v1469h243v-1242zM630 -96q58 0 99 -41t41 -100v-87q0 -225 -233 -242l-21 -1v127l16 3q41 8 52 24q9 13 12 39q-47 11 -77 49.5t-30 87.5q0 59 41.5 100t99.5 41z" />
    <glyph glyph-name="lcedilla" unicode="&#x13c;" horiz-adv-x="686" 
d="M424 -5h-239v1741h239v-1741zM305 -96q59 0 100 -41t41 -100v-87q0 -225 -234 -242l-21 -1v127l16 3q42 8 53 24q8 12 11 39q-47 11 -77 49.5t-30 87.5q0 59 41 100t100 41z" />
    <glyph glyph-name="Lcaron" unicode="&#x13d;" horiz-adv-x="1185" 
d="M485 222h611v-227h-854v1469h243v-1242zM1030 1503l-208 -286h-218l165 286h261z" />
    <glyph glyph-name="lcaron" unicode="&#x13e;" horiz-adv-x="714" 
d="M403 -5h-239v1741h239v-1741zM619 1736h261l-208 -286h-218z" />
    <glyph glyph-name="Ldot" unicode="&#x13f;" horiz-adv-x="1185" 
d="M485 222h611v-227h-854v1469h243v-1242zM892 637h-243v243h243v-243z" />
    <glyph glyph-name="ldot" unicode="&#x140;" horiz-adv-x="872" 
d="M403 -5h-239v1741h239v-1741zM748 637h-243v243h243v-243z" />
    <glyph glyph-name="Lslash" unicode="&#x141;" horiz-adv-x="1208" 
d="M579 222h611v-227h-855v599l-111 -112l-103 103l214 215v664h244v-421l212 213l103 -103l-315 -315v-616z" />
    <glyph glyph-name="lslash" unicode="&#x142;" horiz-adv-x="692" 
d="M640 1492l81 -82l-259 -259v-1156h-239v917l-172 -172l-82 82l254 253v661h239v-421z" />
    <glyph glyph-name="Nacute" unicode="&#x143;" horiz-adv-x="1554" 
d="M1065 1881l-208 -286h-218l165 286h261zM1075 1464h243v-1469h-237l-5 10l-589 1032v-1042h-243v1469h246l2 -3l583 -1023v1026z" />
    <glyph glyph-name="nacute" unicode="&#x144;" horiz-adv-x="1251" 
d="M911 1534l-208 -286h-218l165 286h261zM673 1147q112 0 207.5 -66t151 -180t55.5 -248v-658h-239v641q0 119 -65 203.5t-157 84.5t-157.5 -84.5t-65.5 -203.5v-641h-239v1122h230v-99q118 129 279 129z" />
    <glyph glyph-name="Ncedilla" unicode="&#x145;" horiz-adv-x="1554" 
d="M1075 1464h243v-1469h-237l-5 10l-589 1032v-1042h-243v1469h246l2 -3l583 -1023v1026zM781 -96q59 0 100 -41t41 -100v-87q0 -225 -234 -242l-21 -1v127l17 3q41 8 52 24q8 12 11 39q-47 11 -77 49.5t-30 87.5q0 59 41 100t100 41z" />
    <glyph glyph-name="ncedilla" unicode="&#x146;" horiz-adv-x="1251" 
d="M673 1147q112 0 207.5 -66t151 -180t55.5 -248v-658h-239v641q0 119 -65 203.5t-157 84.5t-157.5 -84.5t-65.5 -203.5v-641h-239v1122h230v-99q118 129 279 129zM606 -96q58 0 99.5 -41t41.5 -100v-87q0 -225 -234 -242l-21 -1v127l17 3q41 8 52 24q8 12 11 39
q-47 11 -77 49.5t-30 87.5q0 59 41.5 100t99.5 41z" />
    <glyph glyph-name="Ncaron" unicode="&#x147;" horiz-adv-x="1554" 
d="M1075 1464h243v-1469h-237l-5 10l-589 1032v-1042h-243v1469h246l2 -3l583 -1023v1026zM941 1591h-320l-178 224l143 114l195 -246l195 246l143 -114z" />
    <glyph glyph-name="ncaron" unicode="&#x148;" horiz-adv-x="1251" 
d="M673 1147q112 0 207.5 -66t151 -180t55.5 -248v-658h-239v641q0 119 -65 203.5t-157 84.5t-157.5 -84.5t-65.5 -203.5v-641h-239v1122h230v-99q118 129 279 129zM785 1244h-319l-178 224l143 113l195 -245l194 245l143 -113z" />
    <glyph glyph-name="Eng" unicode="&#x14a;" horiz-adv-x="1554" 
d="M1075 1464h243v-1624q0 -168 -118.5 -287t-286.5 -119h-79v239h79q69 0 117.5 48.5t48.5 117.5v159l-592 1039v-1042h-243v1469h246l2 -3l583 -1023v1026z" />
    <glyph glyph-name="eng" unicode="&#x14b;" horiz-adv-x="1224" 
d="M632 1147q112 0 207.5 -66t151 -180t55.5 -248v-828q-6 -164 -123.5 -277.5t-282.5 -113.5h-78v239h78q69 0 118 48.5t49 117.5v797q0 119 -65 203.5t-157 84.5t-157.5 -84.5t-65.5 -203.5v-641h-239v1122h230v-99q118 129 279 129z" />
    <glyph glyph-name="Omacron" unicode="&#x14c;" horiz-adv-x="1556" 
d="M782 1494q136 0 259.5 -60.5t213 -163t142.5 -244.5t53 -297t-53 -297t-142.5 -244.5t-213 -163t-259.5 -60.5q-181 0 -334.5 102.5t-243 278.5t-89.5 384t89.5 384t243 278.5t334.5 102.5zM782 195q113 0 208.5 71.5t151.5 194.5t56 268t-56 268t-151.5 194.5
t-208.5 71.5t-208.5 -71.5t-151.5 -194.5t-56 -268t56 -268t151.5 -194.5t208.5 -71.5zM1146 1696h-728v185h728v-185z" />
    <glyph glyph-name="omacron" unicode="&#x14d;" horiz-adv-x="1200" 
d="M562 1147q140 0 259 -79t188 -215.5t69 -296.5t-69 -296.5t-188 -216t-259 -79.5t-259 79.5t-188.5 216t-69.5 296.5t69.5 296.5t188.5 215.5t259 79zM562 185q118 0 202.5 109t84.5 262t-84 261.5t-203 108.5t-203.5 -108.5t-84.5 -261.5t84.5 -262t203.5 -109z
M926 1349h-729v185h729v-185z" />
    <glyph glyph-name="Obreve" unicode="&#x14e;" horiz-adv-x="1556" 
d="M782 1494q136 0 259.5 -60.5t213 -163t142.5 -244.5t53 -297t-53 -297t-142.5 -244.5t-213 -163t-259.5 -60.5q-181 0 -334.5 102.5t-243 278.5t-89.5 384t89.5 384t243 278.5t334.5 102.5zM782 195q113 0 208.5 71.5t151.5 194.5t56 268t-56 268t-151.5 194.5
t-208.5 71.5t-208.5 -71.5t-151.5 -194.5t-56 -268t56 -268t151.5 -194.5t208.5 -71.5zM782 1628q-97 0 -165 68t-68 165v20h145v-20q0 -37 25.5 -62.5t62.5 -25.5t62.5 25.5t25.5 62.5v20h145v-20q0 -97 -68 -165t-165 -68z" />
    <glyph glyph-name="obreve" unicode="&#x14f;" horiz-adv-x="1200" 
d="M562 1147q140 0 259 -79t188 -215.5t69 -296.5t-69 -296.5t-188 -216t-259 -79.5t-259 79.5t-188.5 216t-69.5 296.5t69.5 296.5t188.5 215.5t259 79zM562 185q118 0 202.5 109t84.5 262t-84 261.5t-203 108.5t-203.5 -108.5t-84.5 -261.5t84.5 -262t203.5 -109z
M562 1276q-97 0 -165.5 68t-68.5 165v20h146v-20q0 -37 25.5 -62.5t62.5 -25.5t62.5 25.5t25.5 62.5v20h145v-20q0 -97 -68 -165t-165 -68z" />
    <glyph glyph-name="Ohungarumlaut" unicode="&#x150;" horiz-adv-x="1556" 
d="M1005 1595h-218l165 286h261zM899 1881l-209 -286h-217l165 286h261zM782 1494q136 0 259.5 -60.5t213 -163t142.5 -244.5t53 -297t-53 -297t-142.5 -244.5t-213 -163t-259.5 -60.5q-181 0 -334.5 102.5t-243 278.5t-89.5 384t89.5 384t243 278.5t334.5 102.5zM782 195
q113 0 208.5 71.5t151.5 194.5t56 268t-56 268t-151.5 194.5t-208.5 71.5t-208.5 -71.5t-151.5 -194.5t-56 -268t56 -268t151.5 -194.5t208.5 -71.5z" />
    <glyph glyph-name="ohungarumlaut" unicode="&#x151;" horiz-adv-x="1200" 
d="M562 1147q140 0 259 -79t188 -215.5t69 -296.5t-69 -296.5t-188 -216t-259 -79.5t-259 79.5t-188.5 216t-69.5 296.5t69.5 296.5t188.5 215.5t259 79zM562 185q118 0 202.5 109t84.5 262t-84 261.5t-203 108.5t-203.5 -108.5t-84.5 -261.5t84.5 -262t203.5 -109z
M798 1248h-218l165 286h261zM692 1534l-209 -286h-217l165 286h261z" />
    <glyph glyph-name="OE" unicode="&#x152;" horiz-adv-x="2033" 
d="M1949 1237h-611v-361h580v-217h-580v-437h611v-227h-854v94q-166 -125 -366 -125q-136 0 -259.5 60.5t-213 163t-142.5 244.5t-53 297t53 297t142.5 244.5t213 163.5t259.5 61q199 0 366 -126v95h854v-227zM1095 476v507q-55 130 -153 205t-213 75q-113 0 -208.5 -71.5
t-151.5 -194.5t-56 -268t56 -267.5t151.5 -194t208.5 -71.5q115 0 213 75t153 205z" />
    <glyph glyph-name="oe" unicode="&#x153;" horiz-adv-x="1982" 
d="M1372 1147q140 0 259 -79t188 -215.5t69 -296.5q0 -36 -3 -70l-2 -17h-790q23 -125 101 -204.5t178 -79.5q53 0 101 18q106 39 165 153l7 14l219 -65l-10 -20q-103 -214 -302 -288q-87 -33 -170 -33h-8h-2q-116 0 -222.5 58.5t-179.5 162.5q-73 -104 -179.5 -162.5
t-222.5 -58.5q-140 0 -259 79.5t-188.5 216t-69.5 296.5t69.5 296.5t188.5 215.5t259 79q116 0 222.5 -58.5t179.5 -161.5q73 103 179.5 161.5t222.5 58.5zM568 185q118 0 202.5 109t84.5 262t-84 261.5t-203 108.5t-203.5 -108.5t-84.5 -261.5t84.5 -262t203.5 -109z
M1099 671h545q-29 115 -103.5 185t-168.5 70t-169 -70t-104 -185z" />
    <glyph glyph-name="Racute" unicode="&#x154;" horiz-adv-x="1495" 
d="M860 534l486 -539h-314l-1 2l-484 535h-76v-537h-244v1469h594q126 0 233.5 -62.5t170 -170t62.5 -233.5q0 -181 -123.5 -315t-303.5 -149zM471 1237v-488h327q101 0 172.5 71.5t71.5 172.5t-71.5 172.5t-172.5 71.5h-327zM996 1881l-208 -286h-217l164 286h261z" />
    <glyph glyph-name="racute" unicode="&#x155;" horiz-adv-x="831" 
d="M692 1127l18 -1v-244l-26 11q-32 12 -65 12q-92 0 -157 -84.5t-65 -203.5v-622h-239v1122h230v-118q118 129 279 129q16 0 25 -1zM694 1534l-208 -286h-218l165 286h261z" />
    <glyph glyph-name="Rcedilla" unicode="&#x156;" horiz-adv-x="1495" 
d="M860 534l486 -539h-314l-1 2l-484 535h-76v-537h-244v1469h594q126 0 233.5 -62.5t170 -170t62.5 -233.5q0 -181 -123.5 -315t-303.5 -149zM471 1237v-488h327q101 0 172.5 71.5t71.5 172.5t-71.5 172.5t-172.5 71.5h-327zM717 -96q59 0 100 -41t41 -100v-87
q0 -225 -233 -242l-21 -1v127l16 3q41 8 52 24q9 13 12 39q-47 11 -77.5 49.5t-30.5 87.5q0 59 41 100t100 41z" />
    <glyph glyph-name="rcedilla" unicode="&#x157;" horiz-adv-x="851" 
d="M713 1127l18 -1v-244l-27 11q-32 12 -64 12q-92 0 -157 -84.5t-65 -203.5v-622h-240v1122h231v-118q118 129 279 129q16 0 25 -1zM299 -96q58 0 99 -41t41 -100v-87q0 -225 -233 -242l-21 -1v127l16 3q41 8 52 24q9 13 12 39q-47 11 -77 49.5t-30 87.5q0 59 41 100
t100 41z" />
    <glyph glyph-name="Rcaron" unicode="&#x158;" horiz-adv-x="1495" 
d="M860 534l486 -539h-314l-1 2l-484 535h-76v-537h-244v1469h594q126 0 233.5 -62.5t170 -170t62.5 -233.5q0 -181 -123.5 -315t-303.5 -149zM471 1237v-488h327q101 0 172.5 71.5t71.5 172.5t-71.5 172.5t-172.5 71.5h-327zM877 1591h-319l-178 224l143 114l194 -246
l195 246l143 -114z" />
    <glyph glyph-name="rcaron" unicode="&#x159;" horiz-adv-x="886" 
d="M680 1128q17 0 26 -1l18 -1v-244l-27 11q-31 12 -64 12q-92 0 -157.5 -84.5t-65.5 -203.5v-622h-239v1122h230v-118q118 129 279 129zM588 1244h-320l-178 224l143 113l195 -245l194 245l143 -113z" />
    <glyph glyph-name="Sacute" unicode="&#x15a;" horiz-adv-x="1353" 
d="M901 813q141 -52 225 -162.5t84 -242.5q0 -120 -71 -222.5t-193 -162t-265 -59.5h-3q-132 0 -258 57q-233 108 -268 368l-2 18l242 49l3 -21q17 -155 151 -212q63 -27 134 -27q113 0 193.5 61.5t80.5 148.5q0 61 -42 113t-112 77l-344 127q-129 47 -205.5 147t-76.5 219
q0 110 66.5 203.5t181 147.5t249.5 54q125 0 235 -46q46 -19 86.5 -46.5t81.5 -70t70 -106.5t39 -142l2 -17l-229 -51l-2 22q-16 144 -146 198q-64 27 -130 27q-104 0 -177.5 -50.5t-73.5 -121.5q0 -47 35 -87t95 -63zM978 1881l-208 -286h-218l165 286h261z" />
    <glyph glyph-name="sacute" unicode="&#x15b;" horiz-adv-x="1064" 
d="M670 639q111 -41 177.5 -128.5t66.5 -192.5q0 -95 -55.5 -176.5t-151 -128.5t-208.5 -47h-2q-14 0 -32.5 1t-57.5 8.5t-74.5 19.5t-78.5 37t-75.5 58.5t-59 87.5t-35.5 120l-2 18l225 45l2 -21q5 -46 26.5 -79.5t51.5 -49t57.5 -22.5t52.5 -6q75 0 128.5 39t53.5 94
q0 37 -27.5 69.5t-72.5 49.5l-255 95q-102 38 -163 117t-61 175q0 134 115 229t277 95q16 0 43.5 -1.5t96.5 -21.5t121 -57q117 -84 140 -241l3 -18l-215 -47l-2 21q-4 38 -21 67t-38 43.5t-47 23.5t-43 11t-33 2q-68 0 -116 -31t-48 -74q0 -28 22 -52t60 -38zM787 1534
l-208 -286h-218l165 286h261z" />
    <glyph glyph-name="Scircumflex" unicode="&#x15c;" horiz-adv-x="1353" 
d="M901 813q141 -52 225 -162.5t84 -242.5q0 -120 -71 -222.5t-193 -162t-265 -59.5h-3q-132 0 -258 57q-233 108 -268 368l-2 18l242 49l3 -21q17 -155 151 -212q63 -27 134 -27q113 0 193.5 61.5t80.5 148.5q0 61 -42 113t-112 77l-344 127q-129 47 -205.5 147t-76.5 219
q0 110 66.5 203.5t181 147.5t249.5 54q13 0 27.5 -0.5t65 -8t94 -21t101 -44t100 -72.5t78 -110.5t46.5 -154.5l2 -17l-229 -51l-2 22q-16 144 -146 198q-64 27 -130 27q-104 0 -177.5 -50.5t-73.5 -121.5q0 -47 35 -87t95 -63zM681 1789l-195 -246l-143 113l178 225h320
l177 -225l-143 -113z" />
    <glyph glyph-name="scircumflex" unicode="&#x15d;" horiz-adv-x="1064" 
d="M670 639q111 -41 177.5 -128.5t66.5 -192.5q0 -95 -55.5 -176.5t-151 -128.5t-208.5 -47h-2q-14 0 -32.5 1t-57.5 8.5t-74.5 19.5t-78.5 37t-75.5 58.5t-59 87.5t-35.5 120l-2 18l225 45l2 -21q5 -46 26.5 -79.5t51.5 -49t57.5 -22.5t52.5 -6q75 0 128.5 39t53.5 94
q0 38 -27 70.5t-73 48.5l-255 95q-102 38 -163 117t-61 175q0 134 115 229t277 95q11 0 21.5 -0.5t50.5 -6t73.5 -16t78.5 -34.5t78.5 -56.5t61.5 -86.5t37 -121l3 -18l-215 -47l-2 21q-2 19 -9.5 38.5t-25 46.5t-56 44.5t-91.5 17.5q-68 0 -116 -31t-48 -74q0 -28 22 -52
t60 -38zM499 1442l-195 -246l-143 113l178 225h320l178 -225l-143 -113z" />
    <glyph glyph-name="Scedilla" unicode="&#x15e;" horiz-adv-x="1353" 
d="M1210 408q0 -177 -144.5 -305t-353.5 -138l-22 -53q21 3 42 3q107 0 182.5 -66.5t75.5 -160.5t-75.5 -160t-182.5 -66q-81 0 -146.5 40t-94.5 107l-8 18l137 57l7 -20q10 -30 39 -49t66 -19q45 0 77 27t32 65t-32 65.5t-77 27.5q-37 0 -66 -19t-39 -49l-7 -20l-137 57
l93 223q-43 7 -86 20t-101.5 44.5t-104 74.5t-83 115t-49.5 162l-2 18l242 49l3 -21q6 -56 27.5 -100t52.5 -68.5t62 -40.5t64 -21.5t50 -7t29 -1.5q113 0 193.5 61.5t80.5 148.5q0 61 -42 113t-112 77l-344 127q-129 47 -205.5 147t-76.5 219q0 110 66.5 203.5t181 147.5
t249.5 54q124 0 242 -50q235 -101 270 -361l2 -17l-229 -51l-2 22q-16 144 -146 198q-64 27 -130 27q-104 0 -177.5 -50.5t-73.5 -121.5q0 -47 35 -87t95 -63l344 -127q141 -52 225 -162.5t84 -242.5z" />
    <glyph glyph-name="scedilla" unicode="&#x15f;" horiz-adv-x="1064" 
d="M914 318q0 -142 -118 -244.5t-285 -107.5l-22 -54q21 3 42 3q107 0 182.5 -66.5t75.5 -160.5t-75.5 -160t-182.5 -66q-81 0 -147.5 40t-94.5 107l-7 18l137 57l6 -20q10 -30 39.5 -49t66.5 -19q45 0 77 27t32 65t-32 65.5t-77 27.5q-37 0 -66.5 -19t-39.5 -49l-6 -20
l-138 57l97 231q-44 11 -84.5 30.5t-86.5 55t-79 95t-44 136.5l-2 18l225 45l2 -21q5 -46 26.5 -79.5t51.5 -49.5t57.5 -22.5t52.5 -5.5q75 0 128.5 39t53.5 94q0 38 -27 70.5t-73 48.5l-255 95q-102 38 -163 117t-61 175q0 134 115 229t277 95q11 0 21.5 -0.5t50.5 -6
t73 -16t78.5 -34.5t78.5 -56.5t61 -86.5t38 -121l3 -18l-215 -47l-2 21q-4 38 -21 67t-38 43.5t-47 23.5t-43 11t-33 2q-68 0 -116 -31t-48 -74q0 -28 22 -52t60 -38l255 -94q111 -41 177.5 -128.5t66.5 -192.5z" />
    <glyph glyph-name="Scaron" unicode="&#x160;" horiz-adv-x="1353" 
d="M840 1591h-320l-178 224l143 114l195 -246l194 246l143 -114zM900 813q141 -53 225 -162.5t84 -241.5q0 -120 -71 -223t-193 -162.5t-265 -59.5h-3q-133 0 -259 57q-232 107 -267 368l-3 18l243 49l3 -21q17 -155 151 -212q63 -27 134 -27q113 0 193.5 61.5t80.5 148.5
q0 61 -42 113t-112 77l-344 127q-129 47 -205.5 147t-76.5 219q0 110 66.5 203.5t181 148t249.5 54.5q122 0 235 -47q46 -19 86.5 -46.5t81.5 -70t70 -106.5t39 -142l2 -17l-229 -51l-2 22q-17 144 -147 199q-63 26 -129 26q-104 0 -177.5 -50.5t-73.5 -121.5q0 -47 35 -87
t95 -63z" />
    <glyph glyph-name="scaron" unicode="&#x161;" horiz-adv-x="1067" 
d="M658 1244h-319l-178 224l143 113l195 -245l194 245l143 -113zM670 639q111 -41 177.5 -128.5t66.5 -192.5q0 -95 -55.5 -176.5t-151 -128.5t-208.5 -47h-2q-14 0 -32.5 1t-57.5 8.5t-74.5 19.5t-78.5 37t-75.5 58.5t-59 87.5t-35.5 120l-2 18l225 45l2 -21
q6 -58 40 -95.5t69.5 -49.5t71.5 -12h7q75 0 128.5 39t53.5 94q0 38 -27.5 71t-72.5 49l-255 94q-102 38 -163 117t-61 175q0 134 115 229t277 95q16 0 43 -1.5t95.5 -21t120.5 -55.5q119 -84 142 -243l3 -18l-215 -47l-2 21q-5 39 -23 68.5t-39.5 43.5t-48.5 23t-42.5 10.5
t-28.5 1.5q-68 0 -116 -30.5t-48 -73.5q0 -28 22 -52.5t60 -38.5z" />
    <glyph glyph-name="Tcedilla" unicode="&#x162;" horiz-adv-x="1171" 
d="M84 1464h950v-227h-354v-1242h-244v1242h-352v227zM559 -96q59 0 100 -41t41 -100v-87q0 -225 -234 -242l-21 -1v127l17 3q41 8 52 24q8 12 11 39q-47 11 -77 49.5t-30 87.5q0 59 41 100t100 41z" />
    <glyph glyph-name="tcedilla" unicode="&#x163;" horiz-adv-x="839" 
d="M672 904h-241v-461q0 -104 57.5 -163t159.5 -59h19v-241h-19q-202 0 -329 129t-127 334v461h-120v213h120v309h239v-309h241v-213zM391 -96q59 0 100 -41t41 -100v-87q0 -225 -234 -242l-21 -1v127l17 3q41 8 52 24q8 12 11 39q-47 11 -77 49.5t-30 87.5q0 59 41 100
t100 41z" />
    <glyph glyph-name="Tcaron" unicode="&#x164;" horiz-adv-x="1171" 
d="M84 1464h950v-227h-354v-1242h-244v1242h-352v227zM719 1591h-320l-178 224l143 114l195 -246l195 246l143 -114z" />
    <glyph glyph-name="tcaron" unicode="&#x165;" horiz-adv-x="903" 
d="M431 1426v-309h241v-213h-241v-461q0 -104 57.5 -163t159.5 -59h19v-241h-19q-202 0 -329 129t-127 334v461h-120v213h120v309h239zM649 1615h261l-208 -286h-218z" />
    <glyph glyph-name="Tbar" unicode="&#x166;" horiz-adv-x="1171" 
d="M1034 1237h-354v-373h243v-227h-243v-642h-244v642h-241v227h241v373h-352v227h950v-227z" />
    <glyph glyph-name="tbar" unicode="&#x167;" horiz-adv-x="839" 
d="M672 1117v-213h-241v-228h241v-212h-241v-21q0 -104 57.5 -163t159.5 -59h20v-241h-20q-202 0 -329 129t-127 334v21h-120v212h120v228h-120v213h120v309h239v-309h241z" />
    <glyph glyph-name="Utilde" unicode="&#x168;" horiz-adv-x="1423" 
d="M997 1464h244v-966q0 -145 -72.5 -268t-196.5 -194.5t-270 -71.5t-270 71.5t-196 194.5t-72 268v966h243v-966q0 -125 87 -214t208 -89q122 0 208.5 89t86.5 214v966zM394 1642l-19 -18l-70 127l13 11q101 83 228 85q84 2 159 -33l51 -24q65 -30 135 -18t120 62l18 18
l70 -128l-12 -10q-101 -83 -229 -85q-83 -2 -158 33l-52 23q-64 30 -134 18t-120 -61z" />
    <glyph glyph-name="utilde" unicode="&#x169;" horiz-adv-x="1222" 
d="M795 1117h239v-1122h-230v98q-118 -129 -279 -129q-112 0 -207.5 66.5t-151 180.5t-55.5 248v658h239v-641q0 -119 65 -204t157 -85t157.5 85t65.5 204v641zM257 1316l-18 -18l-70 128l12 10q101 83 229 85q83 2 158 -33l52 -24q65 -30 135 -18t120 62l18 18l70 -128
l-13 -10q-101 -83 -228 -85q-84 -2 -159 33l-51 24q-64 30 -134.5 18t-120.5 -62z" />
    <glyph glyph-name="Umacron" unicode="&#x16a;" horiz-adv-x="1423" 
d="M997 1464h244v-966q0 -145 -72.5 -268t-196.5 -194.5t-270 -71.5t-270 71.5t-196 194.5t-72 268v966h243v-966q0 -125 87 -214t208 -89q122 0 208.5 89t86.5 214v966zM1072 1696h-728v185h728v-185z" />
    <glyph glyph-name="umacron" unicode="&#x16b;" horiz-adv-x="1222" 
d="M795 1117h239v-1122h-230v98q-118 -129 -279 -129q-112 0 -207.5 66.5t-151 180.5t-55.5 248v658h239v-641q0 -119 65 -204t157 -85t157.5 85t65.5 204v641zM937 1349h-729v185h729v-185z" />
    <glyph glyph-name="Ubreve" unicode="&#x16c;" horiz-adv-x="1425" 
d="M999 1464h244v-966q0 -145 -72.5 -268t-196.5 -194.5t-270 -71.5t-270 71.5t-196 194.5t-72 268v966h243v-966q0 -125 87 -214t208 -89q122 0 208.5 89t86.5 214v966zM704 1628q-97 0 -165 68t-68 165v20h145v-20q0 -37 25.5 -62.5t62.5 -25.5t62.5 25.5t25.5 62.5v20
h146v-20q0 -97 -68.5 -165t-165.5 -68z" />
    <glyph glyph-name="ubreve" unicode="&#x16d;" horiz-adv-x="1224" 
d="M797 1117h239v-1122h-230v98q-118 -129 -279 -129q-112 0 -207.5 66.5t-151 180.5t-55.5 248v658h239v-641q0 -119 65 -204t157 -85t157.5 85t65.5 204v641zM594 1276q-97 0 -165 68t-68 165v20h145v-20q0 -37 25.5 -62.5t62.5 -25.5t62.5 25.5t25.5 62.5v20h145v-20
q0 -97 -68 -165t-165 -68z" />
    <glyph glyph-name="Uring" unicode="&#x16e;" horiz-adv-x="1423" 
d="M702 1425q-97 0 -165 68.5t-68 165.5t68 165t165 68t165.5 -68t68.5 -165t-68.5 -165.5t-165.5 -68.5zM702 1747q-37 0 -62.5 -25.5t-25.5 -62.5t25.5 -63t62.5 -26t62.5 26t25.5 63t-25.5 62.5t-62.5 25.5zM997 1464h244v-966q0 -145 -72.5 -268t-196.5 -194.5
t-270 -71.5t-270 71.5t-196 194.5t-72 268v966h243v-966q0 -125 87 -214t208 -89q122 0 208.5 89t86.5 214v966z" />
    <glyph glyph-name="uring" unicode="&#x16f;" horiz-adv-x="1222" 
d="M572 1078q-97 0 -165 68t-68 165t68 165.5t165 68.5t165.5 -68.5t68.5 -165.5t-68.5 -165t-165.5 -68zM572 1399q-37 0 -62.5 -25.5t-25.5 -62.5t25.5 -62.5t62.5 -25.5t62.5 25.5t25.5 62.5t-25.5 62.5t-62.5 25.5zM795 1117h239v-1122h-230v98q-118 -129 -279 -129
q-112 0 -207.5 66.5t-151 180.5t-55.5 248v658h239v-641q0 -119 65 -204t157 -85t157.5 85t65.5 204v641z" />
    <glyph glyph-name="Uhungarumlaut" unicode="&#x170;" horiz-adv-x="1423" 
d="M997 1464h244v-966q0 -145 -72.5 -268t-196.5 -194.5t-270 -71.5t-270 71.5t-196 194.5t-72 268v966h243v-966q0 -125 87 -214t208 -89q122 0 208.5 89t86.5 214v966zM944 1595h-217l165 286h261zM838 1881l-208 -286h-217l164 286h261z" />
    <glyph glyph-name="uhungarumlaut" unicode="&#x171;" horiz-adv-x="1222" 
d="M795 1117h239v-1122h-230v98q-118 -129 -279 -129q-112 0 -207.5 66.5t-151 180.5t-55.5 248v658h239v-641q0 -119 65 -204t157 -85t157.5 85t65.5 204v641zM815 1248h-218l165 286h261zM709 1534l-209 -286h-217l164 286h262z" />
    <glyph glyph-name="Uogonek" unicode="&#x172;" horiz-adv-x="1404" 
d="M997 1464h244v-966q0 -143 -71 -265t-192.5 -194.5t-265.5 -74.5q-4 -2 -6 -4q-38 -38 -44 -87q-5 -43 20 -68q27 -27 72.5 -20t82.5 44q16 16 30 42l16 31l129 -69l-15 -30q-21 -43 -56 -78q-77 -77 -183 -85q-3 0 -9 -0.5t-9 -0.5q-94 0 -159 65q-53 53 -62.5 131
t28.5 152q-170 50 -276.5 192.5t-106.5 318.5v966h243v-966q0 -125 87 -214t208 -89q122 0 208.5 89t86.5 214v966z" />
    <glyph glyph-name="uogonek" unicode="&#x173;" horiz-adv-x="1236" 
d="M1145 -98l129 -69l-15 -30q-20 -41 -57 -78q-77 -77 -182 -85q-3 0 -9 -0.5t-9 -0.5q-95 0 -160 65q-55 55 -62.5 135.5t33.5 155.5h-9v98q-118 -129 -279 -129q-112 0 -207.5 66.5t-151 180.5t-55.5 248v658h239v-641q0 -119 65 -204t157 -85t157.5 85t65.5 204v641h239
v-1115l-24 -12q-26 -14 -42 -30q-38 -38 -44 -87q-5 -43 20 -68q27 -27 72.5 -20t82.5 44q16 16 30 42z" />
    <glyph glyph-name="Wcircumflex" unicode="&#x174;" horiz-adv-x="2111" 
d="M1838 1464h236l-2 -7l-450 -1462h-137l-1 3l-408 1050l-409 -1053h-137l-1 3l-451 1466h235l303 -980l392 980h136l1 -3l391 -977zM1076 1789l-195 -246l-143 113l178 225h320l178 -225l-144 -113z" />
    <glyph glyph-name="wcircumflex" unicode="&#x175;" horiz-adv-x="1875" 
d="M1559 1117h233l-459 -1122h-136l-293 718l-294 -718h-135l-459 1122h233l2 -4l292 -723l293 727h136l1 -4l292 -723zM904 1442l-195 -246l-143 113l178 225h320l178 -225l-143 -113z" />
    <glyph glyph-name="Ycircumflex" unicode="&#x176;" horiz-adv-x="1359" 
d="M991 1464h276l-476 -844v-625h-243v628l-474 841h276l320 -598zM670 1789l-194 -246l-143 113l177 225h320l178 -225l-143 -113z" />
    <glyph glyph-name="ycircumflex" unicode="&#x177;" horiz-adv-x="1253" 
d="M933 1117h239l-2 -7l-686 -1676h-231l3 7l228 566l-453 1110h239l1 -4l330 -816zM601 1442l-194 -246l-143 113l178 225h319l178 -225l-143 -113z" />
    <glyph glyph-name="Ydieresis" unicode="&#x178;" horiz-adv-x="1357" 
d="M990 1638h-243v243h243v-243zM592 1638h-244v243h244v-243zM990 1464h276l-476 -844v-625h-243v628l-474 841h276l320 -598z" />
    <glyph glyph-name="Zacute" unicode="&#x179;" horiz-adv-x="1388" 
d="M1210 1250l-1 -1l-730 -1027h726v-227h-1029v214l1 1l729 1027h-717v227h1021v-214zM973 1881l-208 -286h-218l165 286h261z" />
    <glyph glyph-name="zacute" unicode="&#x17a;" horiz-adv-x="1208" 
d="M1032 915l-627 -707h628v-213h-914v201l1 1l626 707h-627v213h914v-201zM830 1534l-208 -286h-217l164 286h261z" />
    <glyph glyph-name="zdot" unicode="&#x17c;" horiz-adv-x="1208" 
d="M1033 916l-1 -1l-627 -707h628v-213h-914v201l1 1l626 707h-627v213h914v-201zM698 1290h-244v244h244v-244z" />
    <glyph glyph-name="Zcaron" unicode="&#x17d;" horiz-adv-x="1388" 
d="M854 1591h-320l-177 224l143 114l194 -246l195 246l143 -114zM1211 1250l-1 -1l-730 -1027h726v-227h-1029v214l1 1l729 1027h-717v227h1021v-214z" />
    <glyph glyph-name="zcaron" unicode="&#x17e;" horiz-adv-x="1208" 
d="M1031 915l-627 -707h628v-213h-914v201l1 1l626 707h-627v213h914v-201zM735 1244h-320l-178 224l143 113l195 -245l195 245l143 -113z" />
    <glyph glyph-name="endash" unicode="&#x2013;" horiz-adv-x="1363" 
d="M1216 586h-1070v185h1070v-185z" />
    <glyph glyph-name="emdash" unicode="&#x2014;" horiz-adv-x="1941" 
d="M1795 586h-1648v185h1648v-185z" />
    <glyph glyph-name="quoteleft" unicode="&#x2018;" horiz-adv-x="577" 
d="M334 1420q11 -16 52 -24l16 -3v-128l-21 2q-234 17 -234 242v86q0 59 41.5 100t99.5 41t99.5 -41t41.5 -100q0 -49 -30 -87t-77 -49q3 -25 12 -39z" />
    <glyph glyph-name="quoteright" unicode="&#x2019;" horiz-adv-x="577" 
d="M288 1736q58 0 99.5 -41t41.5 -100v-86q0 -225 -233 -242l-21 -2v128l16 3q41 8 52 24q9 14 12 39q-47 11 -77.5 49.5t-30.5 86.5q0 59 41.5 100t99.5 41z" />
    <glyph glyph-name="quotedblleft" unicode="&#x201c;" horiz-adv-x="927" 
d="M429 1595q0 -49 -30 -87t-77 -49q3 -27 11 -39q11 -16 53 -24l16 -3v-128l-21 2q-234 17 -234 242v86q0 59 41.5 100t99.5 41t99.5 -41t41.5 -100zM684 1420q11 -16 52 -24l16 -3v-128l-21 2q-233 17 -233 242v86q0 59 41 100t100 41t100 -41t41 -100q0 -48 -30.5 -86.5
t-77.5 -49.5q3 -25 12 -39z" />
    <glyph glyph-name="quotedblright" unicode="&#x201d;" horiz-adv-x="929" 
d="M639 1736q59 0 100 -41t41 -100v-86q0 -225 -234 -242l-21 -2v128l16 3q41 8 52 24q9 14 12 39q-47 11 -77 49t-30 87q0 59 41 100t100 41zM288 1736q58 0 99.5 -41t41.5 -100v-86q0 -225 -233 -242l-21 -2v128l16 3q41 8 52 24q9 14 12 39q-47 11 -77.5 49.5t-30.5 86.5
q0 59 41.5 100t99.5 41z" />
    <glyph glyph-name="bullet" unicode="&#x2022;" horiz-adv-x="636" 
d="M319 850q70 0 120.5 -50.5t50.5 -121.5q0 -70 -50 -120.5t-121 -50.5t-121.5 50.5t-50.5 120.5t50.5 121t121.5 51z" />
    <glyph glyph-name="guilsinglleft" unicode="&#x2039;" horiz-adv-x="862" 
d="M714 1117l-328 -391l328 -390h-238l-1 1l-328 389l3 3l326 388h238z" />
    <glyph glyph-name="guilsinglright" unicode="&#x203a;" horiz-adv-x="862" 
d="M387 1115l327 -389l-328 -390h-239l329 390l-329 391h239z" />
    <glyph glyph-name="Euro" unicode="&#x20ac;" horiz-adv-x="1757" 
d="M1371 548l239 -71l-7 -19q-74 -222 -245.5 -358t-378.5 -136q-211 0 -384.5 140.5t-244.5 368.5h-203v185h168q-3 38 -3 72t3 71h-168v185h203q71 228 244.5 368.5t384.5 140.5q201 0 368.5 -127t246.5 -339l7 -20l-5 -1l-234 -69l-6 17q-51 140 -153.5 224t-223.5 84
q-112 0 -211.5 -75.5t-153.5 -202.5h385v-185h-432q-4 -32 -4 -71q0 -40 4 -72h432v-185h-385q54 -127 153 -202t212 -75q128 0 233 91t153 243z" />
  </font>
</defs>
</svg>
