<?xml version="1.0" standalone="no"?>
<!DOCTYPE svg PUBLIC "-//W3C//DTD SVG 1.1//EN" "http://www.w3.org/Graphics/SVG/1.1/DTD/svg11.dtd" >
<svg xmlns="http://www.w3.org/2000/svg" xmlns:xlink="http://www.w3.org/1999/xlink" version="1.1">
<metadata>
Created by FontForge 20170731 at Fri Oct 19 17:39:54 2018
 By Aleksey,,,
Copyright 2018 The Staatliches Project Authors (https://github.com/googlefonts/staatliches)
</metadata>
<defs>
<font id="Staatliches-Regular" horiz-adv-x="0" >
  <font-face 
    font-family="Staatliches"
    font-weight="400"
    font-stretch="normal"
    units-per-em="1000"
    panose-1="0 0 0 0 0 0 0 0 0 0"
    ascent="800"
    descent="-200"
    x-height="696"
    cap-height="696"
    bbox="-193.5 -306 986 1006"
    underline-thickness="50"
    underline-position="-175"
    unicode-range="U+000D-FB02"
  />
<missing-glyph horiz-adv-x="500" 
d="M50 -200h400v1000h-400v-1000zM100 -150v900h300v-900h-300z" />
    <glyph glyph-name="fi" unicode="fi" horiz-adv-x="641" 
d="M45 0q-5 0 -5 5l2 687q0 4 4 4h320q5 0 5 -4v-113q0 -4 -4 -4h-205v-155h205q4 0 4 -5l1 -113q0 -4 -5 -4h-205v-293q0 -5 -5 -5h-112zM476 0q-5 0 -5 5l1 687q0 4 4 4h112q4 0 4 -4l1 -687q0 -5 -4 -5h-113z" />
    <glyph glyph-name="fl" unicode="fl" horiz-adv-x="828" 
d="M45 0q-5 0 -5 5l2 687q0 4 4 4h320q5 0 5 -4v-113q0 -4 -4 -4h-205v-155h205q4 0 4 -5l1 -113q0 -4 -5 -4h-205v-293q0 -5 -5 -5h-112zM475 0q-4 0 -4 5l1 686q0 5 5 5h111q5 0 5 -5l-1 -568h206q5 0 5 -5v-113q0 -5 -5 -5h-323z" />
    <glyph glyph-name=".notdef" horiz-adv-x="500" 
d="M50 -200h400v1000h-400v-1000zM100 -150v900h300v-900h-300z" />
    <glyph glyph-name=".null" 
 />
    <glyph glyph-name="nonmarkingreturn" horiz-adv-x="333" 
 />
    <glyph glyph-name="CR" unicode="&#xd;" horiz-adv-x="600" 
 />
    <glyph glyph-name="space" unicode=" " horiz-adv-x="148" 
 />
    <glyph glyph-name="exclam" unicode="!" horiz-adv-x="203" 
d="M66 184q-4 0 -5 5l-21 230v272q0 5 4 5h112q5 0 5 -5l-1 -272l-21 -230q-1 -5 -5 -5h-68zM44 0q-4 0 -4 5v109q0 4 4 4h112q4 0 4 -4v-109q0 -5 -4 -5h-112z" />
    <glyph glyph-name="quotedbl" unicode="&#x22;" horiz-adv-x="391" 
d="M47 461q-4 0 -4 5l16 226q1 4 5 4h99q5 0 4 -4l-19 -228q0 -3 -3 -3h-98zM226 461q-4 0 -4 5l16 226q1 4 5 4h99q5 0 4 -4l-19 -228q0 -3 -3 -3h-98z" />
    <glyph glyph-name="numbersign" unicode="#" horiz-adv-x="474" 
d="M100 198q-5 0 -5 5v98h-68q-6 0 -6 5v79q0 1 1.5 3.5t4.5 2.5h68v111h-68q-6 0 -6 6v81q0 5 6 5h68v98q0 4 3 4h88q2 0 2 -4v-98h92v98q0 4 4 4h88q2 0 2 -2v-100h67q5 0 5 -4v-82q0 -6 -5 -6h-67v-111h67q5 0 5 -6v-79q0 -5 -5 -5h-67v-98q0 -5 -2 -5h-87q-5 0 -5 5v98
h-92v-98q0 -5 -4 -5h-84zM188 391h92v111h-92v-111z" />
    <glyph glyph-name="dollar" unicode="$" horiz-adv-x="375" 
d="M139 0q-4 0 -4 4v58q-50 15 -82.5 58.5t-32.5 98.5v38q0 4 4 4h91q3 0 3 -4v-38q0 -26 18.5 -45.5t43.5 -19.5q26 0 43.5 19.5t17.5 43.5q0 31 -39 53q-13 8 -41 23t-52 28q-47 26 -68.5 67t-21.5 92q0 56 32.5 97.5t81.5 56.5v58q0 4 4 4h87q5 0 5 -4v-59
q48 -15 79.5 -57t31.5 -96v-67q0 -3 -3 -3h-92q-3 0 -3 3l-1 67q0 29 -18.5 46.5t-42.5 17.5q-25 0 -42.5 -19t-17.5 -45q0 -25 11 -42.5t40 -34.5l83 -46q41 -22 64.5 -55t23.5 -83q0 -57 -31 -98.5t-80 -57.5v-59q0 -4 -5 -4h-87z" />
    <glyph glyph-name="percent" unicode="%" horiz-adv-x="678" 
d="M145 373q-35 0 -64.5 18t-47 48t-17.5 65v71q0 36 17.5 66t47 47.5t64.5 17.5q36 0 65 -17.5t46 -47.5t17 -66v-71q0 -36 -17.5 -65.5t-46.5 -47.5t-64 -18zM73 0q-5 0 -3 5l399 687q3 4 6 4h116q5 0 3 -4l-398 -687q-2 -5 -6 -5h-117zM143 454q20 0 33 14.5t13 35.5v69
q0 20 -13 34.5t-33 14.5t-33.5 -14.5t-13.5 -34.5v-69q0 -20 14 -35t33 -15zM530 -10q-35 0 -64.5 18t-47 48t-17.5 65v71q0 36 17.5 66t47 47.5t64.5 17.5q36 0 65 -17.5t46 -47.5t17 -66v-71q0 -36 -17.5 -65.5t-46.5 -47.5t-64 -18zM529 71q20 0 33 14.5t13 35.5v69
q0 20 -13 34.5t-33 14.5t-33.5 -14.5t-13.5 -34.5v-69q0 -20 14 -35t33 -15z" />
    <glyph glyph-name="ampersand" unicode="&#x26;" horiz-adv-x="497" 
d="M210 -1q-59 0 -103.5 29t-69.5 73t-25 88v66q0 34 16 66t42 57q-21 23 -33 56.5t-12 74.5q0 52 24.5 94.5t66 67.5t92.5 25h135q7 0 7 -7v-106q0 -6 -6 -6h-136q-25 0 -43.5 -20t-18.5 -48q0 -34 15.5 -53t46.5 -19h272q5 0 5 -5v-111q0 -4 -4 -4h-88l-1 -313q0 -4 -4 -4
zM210 119l65 1l1 197h-69q-21 0 -38.5 -10.5t-27.5 -24.5t-10 -27v-66q0 -15 9.5 -31.5t27.5 -27.5t42 -11z" />
    <glyph glyph-name="quotesingle" unicode="'" horiz-adv-x="212" 
d="M47 461q-4 0 -4 5l16 226q1 4 5 4h99q5 0 4 -4l-19 -228q0 -3 -3 -3h-98z" />
    <glyph glyph-name="parenleft" unicode="(" horiz-adv-x="326" 
d="M281 -10h-54q-52 2 -95 29.5t-69 72.5t-26 99l1 317q0 53 25.5 97.5t68.5 72t95 29.5h1h55q5 0 5 -4v-113q0 -4 -5 -4h-57q-29 0 -49 -23t-20 -55v-317q0 -31 20.5 -54t48.5 -26h54q5 0 5 -4l1 -113q0 -4 -5 -4z" />
    <glyph glyph-name="parenright" unicode=")" horiz-adv-x="326" 
d="M45 -10q-5 0 -5 4v113q0 4 5 4h53q30 3 50.5 26t20.5 54v317q0 32 -20 55t-51 23h-55q-5 0 -5 4v113q0 4 5 4h55h1q52 -2 95 -29.5t68.5 -72t25.5 -97.5l1 -317q0 -54 -26 -99t-69 -72.5t-96 -29.5h-53z" />
    <glyph glyph-name="asterisk" unicode="*" horiz-adv-x="352" 
d="M130 395l4 87l-63 -49l-43 58l83 51l-84 52l44 58l64 -49l-5 92h74l-6 -92l65 47l43 -58l-83 -49l83 -50l-44 -58l-63 48l4 -88h-73z" />
    <glyph glyph-name="plus" unicode="+" horiz-adv-x="442" 
d="M176 128q-5 0 -5 5v179h-142q-6 0 -6 5v79q0 1 1.5 3.5t4.5 2.5h142v182q0 2 5 2h84q4 0 4 -2v-182h149q5 0 5 -6v-79q0 -2 -2 -3.5t-3 -1.5h-149v-179q0 -5 -4 -5h-84z" />
    <glyph glyph-name="comma" unicode="," horiz-adv-x="203" 
d="M40 -126v62q25 0 42.5 19t17.5 45h-56q-4 0 -4 4v112q0 4 4 4h113q4 0 4 -4v-116q0 -35 -17 -64t-44.5 -45.5t-59.5 -16.5z" />
    <glyph glyph-name="hyphen" unicode="-" horiz-adv-x="303" 
d="M48 289q-5 0 -5 4v109q0 4 5 4h193q5 0 5 -4v-109q0 -4 -5 -4h-193z" />
    <glyph glyph-name="period" unicode="." horiz-adv-x="203" 
d="M44 0q-4 0 -4 4v113q0 4 4 4h113q4 0 4 -4v-113q0 -4 -4 -4h-113z" />
    <glyph glyph-name="slash" unicode="/" horiz-adv-x="299" 
d="M35 0q-5 0 -4 5l124 687q1 4 5 4h104q5 0 4 -4l-126 -687q-1 -5 -5 -5h-102z" />
    <glyph glyph-name="zero" unicode="0" horiz-adv-x="497" 
d="M245 -10q-64 0 -113 27.5t-76.5 73t-27.5 100.5l1 317q0 55 27.5 100t76.5 72t112 27q64 0 112 -27t75.5 -72t27.5 -100l1 -317q0 -55 -27.5 -100.5t-76 -73t-112.5 -27.5zM340 191l-1 317q0 35 -26 57t-68 22q-43 0 -69 -22t-26 -57v-317q0 -37 26 -58.5t69 -21.5
q42 0 68.5 21.5t26.5 58.5z" />
    <glyph glyph-name="one" unicode="1" horiz-adv-x="210" 
d="M45 0q-5 0 -5 5l1 687q0 4 4 4h112q4 0 4 -4l1 -687q0 -5 -4 -5h-113z" />
    <glyph glyph-name="two" unicode="2" horiz-adv-x="439" 
d="M26 0q-5 0 -5 5v113q0 2 2 4l247 339q7 9 11.5 23.5t4.5 25.5q0 29 -21 53.5t-53 24.5q-31 0 -52.5 -23.5t-21.5 -59.5v-49q0 -5 -5 -5h-112q-4 0 -4 5v49q0 56 27.5 102t72 73t95.5 27q54 0 98 -27.5t70.5 -72.5t26.5 -97q0 -33 -11.5 -67t-31.5 -60l-190 -261h225
q4 0 4 -4v-113q0 -5 -4 -5h-373z" />
    <glyph glyph-name="three" unicode="3" horiz-adv-x="440" 
d="M212 -11q-53 0 -97.5 27.5t-71 73.5t-26.5 101v45q0 5 4 5h112q5 0 5 -5v-45q0 -33 21 -56.5t53 -23.5q35 0 55 24.5t20 55.5v27q0 31 -19.5 56t-49.5 25h-39q-5 0 -5 5l1 112q0 4 4 4h39q27 0 48 21t21 55v14q0 32 -21.5 54.5t-53.5 22.5q-31 0 -52.5 -22.5t-21.5 -54.5
v-48q0 -5 -4 -5h-112q-4 0 -4 5v53q0 55 27.5 98t72 68.5t94.5 25.5q54 0 98.5 -26.5t70.5 -70.5t26 -97v-16q0 -44 -14.5 -76t-40.5 -61q26 -30 41 -65.5t15 -73.5v-30q0 -56 -26.5 -102t-71 -73t-98.5 -27z" />
    <glyph glyph-name="four" unicode="4" horiz-adv-x="451" 
d="M238 0q-4 0 -4 5v117h-216q-4 0 -4 5v110l218 455q2 4 6 4h113q3 0 3 -4l1 -451h70q5 0 5 -5v-109q0 -5 -4 -5h-71v-117q0 -5 -4 -5h-113zM132 241h102v218z" />
    <glyph glyph-name="five" unicode="5" horiz-adv-x="433" 
d="M219 -10q-53 0 -98 27t-72 71.5t-27 96.5v30q0 4 5 4h113q4 0 4 -4v-23q0 -34 22 -57t53 -23t52.5 23.5t21.5 56.5v68q0 31 -22.5 52t-55.5 21q-43 0 -71 -34l-2 -3l-107 8q-5 0 -5 5l12 274l6 109q0 4 4 4h336q4 0 4 -4v-109q0 -5 -4 -5h-234l-5 -138q12 6 31.5 10
t35.5 4q54 0 99.5 -26.5t72.5 -70.5t27 -97v-68q0 -55 -26.5 -101t-71 -73.5t-98.5 -27.5z" />
    <glyph glyph-name="six" unicode="6" horiz-adv-x="455" 
d="M225 -10q-53 0 -97.5 27.5t-71.5 72.5t-27 99l-1 316q0 55 27 101t72 73.5t98 27.5q54 0 98.5 -27.5t71 -73t26.5 -101.5v-20q0 -4 -5 -4h-112q-4 0 -4 4v20q0 33 -21.5 56.5t-53.5 23.5q-31 0 -53 -23.5t-22 -56.5v-69q36 15 75 15q54 0 98.5 -27t70.5 -72.5t26 -100.5
v-62q0 -54 -26.5 -99.5t-70.5 -72.5t-98 -27zM225 110q31 0 52.5 23t21.5 56v62q0 32 -21.5 55.5t-52.5 23.5t-53 -23t-22 -56v-62q0 -32 22 -55.5t53 -23.5z" />
    <glyph glyph-name="seven" unicode="7" horiz-adv-x="442" 
d="M92 0q-4 0 -2 5l206 573h-273q-4 0 -4 4v109q0 5 4 5h387q4 0 4 -5v-112l-192 -574q-2 -5 -6 -5h-124z" />
    <glyph glyph-name="eight" unicode="8" horiz-adv-x="449" 
d="M218 -10q-53 0 -97.5 27.5t-71.5 72.5t-27 99v62q0 42 16 78.5t43 64.5q-22 24 -34.5 56.5t-12.5 69.5q0 52 24.5 94.5t66.5 67.5t93 25t92.5 -25.5t66.5 -67.5t25 -94q0 -37 -12.5 -69t-34.5 -57q27 -27 42.5 -64t15.5 -79v-62q0 -54 -26.5 -99.5t-70.5 -72.5t-98 -27z
M218 453q26 0 44.5 19.5t18.5 47.5t-18.5 48t-44.5 20t-45 -20t-19 -48q0 -27 19 -47t45 -20zM218 110q31 0 52.5 23t21.5 56v62q0 32 -21.5 55.5t-52.5 23.5t-53 -23t-22 -56v-62q0 -32 22 -55.5t53 -23.5z" />
    <glyph glyph-name="nine" unicode="9" horiz-adv-x="449" 
d="M216 -10q-53 0 -98 27.5t-71.5 73.5t-26.5 101v20q0 4 5 4h112q4 0 4 -4v-20q0 -33 22 -56.5t53 -23.5t53 23.5t22 56.5v69q-36 -15 -75 -15q-54 0 -98 27t-70.5 72.5t-26.5 100.5v62q0 55 26.5 100t71 72t97.5 27t97.5 -27t71.5 -72.5t27 -99.5v-62l1 -254
q0 -55 -27 -101t-71.5 -73.5t-98.5 -27.5zM216 367q32 0 53.5 23t21.5 56v62q0 32 -22 55.5t-53 23.5t-52.5 -23t-21.5 -56v-62q0 -32 21.5 -55.5t52.5 -23.5z" />
    <glyph glyph-name="colon" unicode=":" horiz-adv-x="203" 
d="M44 297q-4 0 -4 4v113q0 4 4 4h113q4 0 4 -4v-113q0 -4 -4 -4h-113zM44 0q-4 0 -4 4v113q0 4 4 4h113q4 0 4 -4v-113q0 -4 -4 -4h-113z" />
    <glyph glyph-name="semicolon" unicode=";" horiz-adv-x="203" 
d="M44 297q-4 0 -4 4v113q0 4 4 4h113q4 0 4 -4v-113q0 -4 -4 -4h-113zM40 -126v62q25 0 42.5 19t17.5 45h-56q-4 0 -4 4v112q0 4 4 4h113q4 0 4 -4v-116q0 -35 -17 -64t-44.5 -45.5t-59.5 -16.5z" />
    <glyph glyph-name="less" unicode="&#x3c;" horiz-adv-x="426" 
d="M307 120l-277 221q-8 8 -8 18t8 16l270 215q3 3 7 -1l49 -61q3 -6 1 -8l-200 -162l207 -168q3 -3 0 -8l-50 -61q-4 -4 -7 -1z" />
    <glyph glyph-name="equal" unicode="=" horiz-adv-x="443" 
d="M29 396q-6 0 -6 5v79q0 6 6 6h384q5 0 5 -6v-79q0 -5 -5 -5h-384zM30 226q-6 0 -6 5v79q0 6 6 6h384q5 0 5 -6v-79q0 -5 -5 -5h-384z" />
    <glyph glyph-name="greater" unicode="&#x3e;" horiz-adv-x="426" 
d="M97 120q-3 -3 -7 1l-50 61q-3 5 0 8l207 168l-200 162q-2 2 1 8l49 61q4 4 7 1l270 -215q8 -6 8 -16t-8 -18z" />
    <glyph glyph-name="question" unicode="?" horiz-adv-x="435" 
d="M154 184q-5 0 -5 4v54q0 40 18.5 80.5t50.5 72.5q30 30 44 46.5t18 30.5t4 33q0 35 -21 58.5t-53 23.5t-53.5 -23.5t-21.5 -58.5v-73q0 -4 -4 -4h-113q-4 0 -4 4v73q0 56 26.5 102t71 73t98.5 27t98.5 -27t70.5 -73t26 -102q0 -33 -7 -58.5t-26 -53t-56 -68.5
q-25 -25 -35.5 -45t-10.5 -44v-48q0 -4 -5 -4h-111zM154 0q-5 0 -5 5v111q0 4 5 4h111q5 0 5 -4v-111q0 -5 -5 -5h-111z" />
    <glyph glyph-name="at" unicode="@" horiz-adv-x="541" 
d="M225 -10q-54 0 -98.5 27.5t-71.5 73t-27 100.5l1 317q0 55 26.5 99.5t71 72t97.5 27.5h64q57 0 101.5 -28t70 -74t24.5 -100l-1 -145q0 -53 -15 -96t-48 -68t-89 -25q-67 0 -101.5 53.5t-34.5 135.5v131q0 3 4 3h108q3 0 3 -3v-134q0 -43 5.5 -61t19.5 -18
q17 0 21.5 16.5t4.5 62.5l1 151q0 33 -21 56t-53 23h-64q-31 -1 -52.5 -23.5t-21.5 -55.5v-317q0 -33 22 -49.5t53 -16.5q58 0 132.5 1.5t142.5 7.5q5 0 5 -5v-124q0 -4 -5 -5q-10 -1 -39.5 -2.5t-70 -3.5t-84 -3t-81.5 -1z" />
    <glyph glyph-name="A" unicode="A" horiz-adv-x="427" 
d="M6 5l124 687q1 4 5 4h145q4 0 5 -4l119 -687q1 -5 -4 -5h-111q-4 0 -5 5l-11 73h-136l-11 -73q-1 -5 -5 -5h-111q-4 0 -4 5zM157 185h96l-41 281l-6 37l-4 -37z" />
    <glyph glyph-name="B" unicode="B" horiz-adv-x="464" 
d="M44 0q-4 0 -4 5l2 687q0 4 4 4h192q57 0 102 -27.5t71 -72.5t26 -98q0 -43 -19.5 -80t-46.5 -60q29 -29 45 -67t16 -80q0 -58 -28 -106t-75.5 -76.5t-105.5 -28.5h-179zM162 420h76q35 0 56.5 24.5t21.5 53.5q0 32 -23 55.5t-55 23.5h-76v-157zM161 122h62q36 0 62 26.5
t26 62.5t-26 62t-62 26h-61z" />
    <glyph glyph-name="C" unicode="C" horiz-adv-x="453" 
d="M224 -10q-55 0 -99.5 27.5t-70.5 73.5t-26 103l1 312q0 55 25.5 100.5t70 73t99.5 27.5t99 -27t70 -72.5t26 -101.5v-46q0 -4 -4 -4h-112q-4 0 -4 4v46q0 33 -21.5 57t-53.5 24q-36 0 -55 -24.5t-19 -56.5v-312q0 -37 21.5 -60t52.5 -23q32 0 53.5 25.5t21.5 57.5v46
q0 4 4 4h113q4 0 4 -4v-46q0 -57 -26.5 -103t-70.5 -73.5t-99 -27.5z" />
    <glyph glyph-name="D" unicode="D" horiz-adv-x="472" 
d="M45 0q-5 0 -5 5l2 687q0 4 4 4l187 1q55 1 100.5 -26t72.5 -72.5t27 -100.5v-287q0 -58 -28 -105.5t-75 -75.5t-106 -29zM162 123h62q37 0 62.5 26t25.5 62v288q0 32 -23.5 55.5t-55.5 22.5l-70 -1z" />
    <glyph glyph-name="E" unicode="E" horiz-adv-x="420" 
d="M44 0q-4 0 -4 5l1 687q0 4 4 4h321q4 0 4 -5v-112q0 -4 -4 -4h-205v-156h205q4 0 4 -4l1 -113q0 -4 -4 -4h-206v-175h206q4 0 4 -5v-114q0 -4 -4 -4h-323z" />
    <glyph glyph-name="F" unicode="F" horiz-adv-x="421" 
d="M45 0q-5 0 -5 5l2 687q0 4 4 4h320q5 0 5 -4v-113q0 -4 -4 -4h-205v-155h205q4 0 4 -5l1 -113q0 -4 -5 -4h-205v-293q0 -5 -5 -5h-112z" />
    <glyph glyph-name="G" unicode="G" horiz-adv-x="450" 
d="M223 -10q-54 0 -98 27t-70.5 72.5t-26.5 101.5v317q0 54 26.5 99.5t71 72.5t97.5 27q55 0 99.5 -26.5t70.5 -71.5t26 -101v-46q0 -4 -5 -4h-112q-4 0 -4 4v38q0 38 -21.5 63t-53.5 25q-29 0 -51.5 -24t-22.5 -56v-317q0 -33 22 -56.5t52 -23.5q32 0 53.5 23t21.5 57v49
h-70q-5 0 -5 5v112q0 5 5 5h187q4 0 4 -5v-166q0 -56 -26.5 -101.5t-70.5 -72.5t-99 -27z" />
    <glyph glyph-name="H" unicode="H" horiz-adv-x="475" 
d="M44 0q-4 0 -4 5l1 687q0 4 5 4h111q5 0 5 -4l-1 -272h150v272q0 4 4 4h111q5 0 5 -4l2 -687q0 -5 -5 -5h-112q-5 0 -5 5v294h-150v-294q0 -5 -4 -5h-113z" />
    <glyph glyph-name="I" unicode="I" horiz-adv-x="210" 
d="M45 0q-5 0 -5 5l1 687q0 4 4 4h112q4 0 4 -4l1 -687q0 -5 -4 -5h-113z" />
    <glyph glyph-name="J" unicode="J" horiz-adv-x="435" 
d="M204 -10q-56 0 -100.5 26.5t-70 73t-25.5 104.5v46q0 4 4 4h113q4 0 4 -5v-45q0 -37 21 -60t54 -23q30 0 52 25t22 58v497q0 4 4 4h112q4 0 4 -5l1 -496q0 -55 -26.5 -101.5t-70.5 -74.5t-98 -28z" />
    <glyph glyph-name="K" unicode="K" horiz-adv-x="469" 
d="M44 0q-4 0 -4 5l2 686q0 5 4 5h112q4 0 4 -5v-237l157 238q3 4 7 4h115q4 0 2 -4l-173 -276l194 -412q2 -4 -5 -4h-122q-5 0 -6 4l-135 294l-35 -55v-238q0 -5 -4 -5h-113z" />
    <glyph glyph-name="L" unicode="L" horiz-adv-x="397" 
d="M44 0q-4 0 -4 5l1 686q0 5 5 5h111q5 0 5 -5l-1 -568h206q5 0 5 -5v-113q0 -5 -5 -5h-323z" />
    <glyph glyph-name="M" unicode="M" horiz-adv-x="537" 
d="M44 0q-4 0 -4 5l2 687q0 4 4 4h122q4 0 7 -4l91 -132l91 132q3 4 7 4h123q4 0 4 -4l2 -687q0 -5 -4 -5h-113q-4 0 -4 5l-1 510l-105 -152l-104 152l-1 -510q0 -5 -4 -5h-113z" />
    <glyph glyph-name="N" unicode="N" horiz-adv-x="464" 
d="M49 0q-8 0 -8 7l-1 681q0 8 8 8h90l169 -394l-5 386q0 8 9 8h99q6 0 6 -8l1 -682q0 -6 -5 -6h-88l-173 368l7 -360q0 -8 -9 -8h-100z" />
    <glyph glyph-name="O" unicode="O" horiz-adv-x="457" 
d="M225 -10q-54 0 -98.5 27.5t-71.5 73t-27 100.5l1 317q0 55 26.5 100t71.5 72t98 27q54 0 98 -27t70.5 -72t26.5 -100l1 -317q0 -55 -26.5 -100.5t-71 -73t-98.5 -27.5zM225 111q30 0 52.5 24.5t22.5 55.5l-1 317q0 33 -21 56t-53 23q-31 0 -53 -22.5t-22 -56.5v-317
q0 -33 22 -56.5t53 -23.5z" />
    <glyph glyph-name="P" unicode="P" horiz-adv-x="457" 
d="M45 0q-5 0 -5 5l2 687q0 4 4 4h192q92 0 145.5 -56t53.5 -152q0 -71 -28 -123t-73 -80t-98 -28h-76v-252q0 -5 -5 -5h-112zM162 378h76q32 0 55.5 30.5t23.5 79.5q0 39 -21 64t-58 25l-76 -1v-198z" />
    <glyph glyph-name="Q" unicode="Q" horiz-adv-x="466" 
d="M369 -64l-69 70q-36 -16 -75 -16q-53 0 -98 27t-72 73t-27 101l1 317q0 53 26 98.5t70.5 73t99.5 27.5q53 0 97.5 -26.5t71 -71.5t26.5 -101l1 -317q0 -29 -8 -56t-21 -50l62 -63q4 -4 1 -7l-79 -79q-4 -3 -7 0zM225 111q34 0 54.5 25.5t20.5 54.5l-1 317q0 32 -21 55.5
t-53 23.5q-34 0 -54.5 -24t-20.5 -55v-317q0 -36 23.5 -58t51.5 -22z" />
    <glyph glyph-name="R" unicode="R" horiz-adv-x="482" 
d="M44 0q-4 0 -4 5l2 687q0 4 4 4h202q54 0 99.5 -26.5t72.5 -71t27 -100.5q0 -37 -11 -66.5t-26 -50t-27 -30.5q54 -60 54 -141l1 -205q0 -5 -5 -5h-113q-4 0 -4 3v207q0 36 -25.5 62.5t-62.5 26.5h-66l-1 -294q0 -5 -4 -5h-113zM162 419h86q31 0 55 23t24 56
q0 32 -23.5 55t-55.5 23h-86v-157z" />
    <glyph glyph-name="S" unicode="S" horiz-adv-x="436" 
d="M210 -10q-54 0 -98.5 27.5t-71 73t-26.5 100.5v46q0 5 5 5h112q4 0 4 -5v-46q0 -33 22 -56.5t53 -23.5t53 24t22 56q0 37 -48 64q-16 9 -50 28t-64 36q-55 32 -81.5 80.5t-26.5 109.5q0 56 27 100.5t71.5 70.5t96.5 26q53 0 97.5 -26.5t71 -71t26.5 -99.5v-82q0 -4 -4 -4
h-112q-4 0 -4 4l-1 82q0 35 -22 57t-52 22q-31 0 -53 -23.5t-22 -55.5q0 -33 14 -55t51 -42q5 -3 19.5 -10.5t31.5 -17t30.5 -16.5t16.5 -9q50 -28 79 -68.5t29 -99.5q0 -57 -26.5 -102.5t-71 -72t-98.5 -26.5z" />
    <glyph glyph-name="T" unicode="T" horiz-adv-x="400" 
d="M140 0q-4 0 -4 5v570h-130q-5 0 -5 5l1 112q0 4 4 4h380q5 0 5 -4v-112q0 -5 -4 -5h-131l1 -570q0 -5 -4 -5h-113z" />
    <glyph glyph-name="U" unicode="U" horiz-adv-x="460" 
d="M224 -10q-53 0 -98 27.5t-71.5 73.5t-26.5 101l2 500q0 4 4 4h112q4 0 4 -4v-500q0 -34 21.5 -57.5t52.5 -23.5q32 0 53.5 23.5t21.5 57.5v500q0 4 4 4h112q4 0 4 -4l2 -500q0 -56 -26.5 -102t-71 -73t-99.5 -27z" />
    <glyph glyph-name="V" unicode="V" horiz-adv-x="433" 
d="M152 0q-4 0 -5 5l-138 687q-1 4 4 4h113q4 0 5 -4l82 -458l80 458q1 4 5 4h112q5 0 4 -4l-136 -687q-1 -5 -5 -5h-121z" />
    <glyph glyph-name="W" unicode="W" horiz-adv-x="629" 
d="M132 0q-4 0 -5 5l-118 687q-1 4 3 4h112q4 0 5 -4l64 -452l66 452q1 4 6 4h90q4 0 5 -4l65 -452l65 452q1 4 5 4h111q5 0 4 -4l-119 -687q-1 -2 -3 -3.5l-2 -1.5h-121q-3 0 -5 5l-51 359l-51 -359q-1 -5 -5 -5h-121z" />
    <glyph glyph-name="X" unicode="X" horiz-adv-x="404" 
d="M9 0q-4 0 -3 5l114 357l-112 330q-1 4 3 4h112q5 0 6 -4l67 -238l68 238q1 4 6 4h111q4 0 3 -4l-112 -329l113 -358q2 -5 -3 -5h-112q-4 0 -6 5l-68 258l-69 -258q-1 -5 -6 -5h-112z" />
    <glyph glyph-name="Y" unicode="Y" horiz-adv-x="401" 
d="M133 0q-3 0 -3 4l1 284l-134 404q-1 4 3 4h111q5 0 6 -4l74 -269l75 269q1 4 5 4h112q4 0 3 -4l-135 -400l1 -288q0 -4 -4 -4h-115z" />
    <glyph glyph-name="Z" unicode="Z" horiz-adv-x="414" 
d="M13 0q-5 0 -5 5l1 109l245 468h-232q-4 0 -4 4v105q0 5 4 5h362q5 0 5 -5v-108l-244 -466h241q4 0 4 -5l1 -107q0 -5 -5 -5h-373z" />
    <glyph glyph-name="bracketleft" unicode="[" horiz-adv-x="334" 
d="M41 0q-4 0 -4 4v688q0 4 4 4h250q5 0 5 -4v-109q0 -4 -5 -4h-138v-462h138q5 0 5 -4v-109q0 -4 -5 -4h-250z" />
    <glyph glyph-name="backslash" unicode="\" horiz-adv-x="301" 
d="M161 0q-4 0 -5 5l-125 687q-1 4 4 4h104q4 0 5 -4l126 -687q1 -5 -4 -5h-105z" />
    <glyph glyph-name="bracketright" unicode="]" horiz-adv-x="334" 
d="M43 0q-5 0 -5 4v109q0 4 5 4h138v462h-138q-5 0 -5 4v109q0 4 5 4h250q4 0 4 -4v-688q0 -4 -4 -4h-250z" />
    <glyph glyph-name="asciicircum" unicode="^" horiz-adv-x="368" 
d="M92 418l-73 53l136 213q8 8 23.5 8t21.5 -8l136 -212l-73 -54l-86 139z" />
    <glyph glyph-name="underscore" unicode="_" horiz-adv-x="547" 
d="M44 -105q-4 0 -4 4v102q0 4 4 4h457q4 0 4 -4v-102q0 -4 -4 -4h-457z" />
    <glyph glyph-name="grave" unicode="`" horiz-adv-x="285" 
d="M139 749q-4 0 -6 4l-93 173q-2 4 4 4h114q4 0 5 -4l80 -173q1 -4 -4 -4h-100z" />
    <glyph glyph-name="a" unicode="a" horiz-adv-x="427" 
d="M6 5l124 687q1 4 5 4h145q4 0 5 -4l119 -687q1 -5 -4 -5h-111q-4 0 -5 5l-11 73h-136l-11 -73q-1 -5 -5 -5h-111q-4 0 -4 5zM157 185h96l-41 281l-6 37l-4 -37z" />
    <glyph glyph-name="b" unicode="b" horiz-adv-x="464" 
d="M44 0q-4 0 -4 5l2 687q0 4 4 4h192q57 0 102 -27.5t71 -72.5t26 -98q0 -43 -19.5 -80t-46.5 -60q29 -29 45 -67t16 -80q0 -58 -28 -106t-75.5 -76.5t-105.5 -28.5h-179zM162 420h76q35 0 56.5 24.5t21.5 53.5q0 32 -23 55.5t-55 23.5h-76v-157zM161 122h62q36 0 62 26.5
t26 62.5t-26 62t-62 26h-61z" />
    <glyph glyph-name="c" unicode="c" horiz-adv-x="453" 
d="M224 -10q-55 0 -99.5 27.5t-70.5 73.5t-26 103l1 312q0 55 25.5 100.5t70 73t99.5 27.5t99 -27t70 -72.5t26 -101.5v-46q0 -4 -4 -4h-112q-4 0 -4 4v46q0 33 -21.5 57t-53.5 24q-36 0 -55 -24.5t-19 -56.5v-312q0 -37 21.5 -60t52.5 -23q32 0 53.5 25.5t21.5 57.5v46
q0 4 4 4h113q4 0 4 -4v-46q0 -57 -26.5 -103t-70.5 -73.5t-99 -27.5z" />
    <glyph glyph-name="d" unicode="d" horiz-adv-x="472" 
d="M45 0q-5 0 -5 5l2 687q0 4 4 4l187 1q55 1 100.5 -26t72.5 -72.5t27 -100.5v-287q0 -58 -28 -105.5t-75 -75.5t-106 -29zM162 123h62q37 0 62.5 26t25.5 62v288q0 32 -23.5 55.5t-55.5 22.5l-70 -1z" />
    <glyph glyph-name="e" unicode="e" horiz-adv-x="420" 
d="M44 0q-4 0 -4 5l1 687q0 4 4 4h321q4 0 4 -5v-112q0 -4 -4 -4h-205v-156h205q4 0 4 -4l1 -113q0 -4 -4 -4h-206v-175h206q4 0 4 -5v-114q0 -4 -4 -4h-323z" />
    <glyph glyph-name="f" unicode="f" horiz-adv-x="421" 
d="M45 0q-5 0 -5 5l2 687q0 4 4 4h320q5 0 5 -4v-113q0 -4 -4 -4h-205v-155h205q4 0 4 -5l1 -113q0 -4 -5 -4h-205v-293q0 -5 -5 -5h-112z" />
    <glyph glyph-name="g" unicode="g" horiz-adv-x="450" 
d="M223 -10q-54 0 -98 27t-70.5 72.5t-26.5 101.5v317q0 54 26.5 99.5t71 72.5t97.5 27q55 0 99.5 -26.5t70.5 -71.5t26 -101v-46q0 -4 -5 -4h-112q-4 0 -4 4v38q0 38 -21.5 63t-53.5 25q-29 0 -51.5 -24t-22.5 -56v-317q0 -33 22 -56.5t52 -23.5q32 0 53.5 23t21.5 57v49
h-70q-5 0 -5 5v112q0 5 5 5h187q4 0 4 -5v-166q0 -56 -26.5 -101.5t-70.5 -72.5t-99 -27z" />
    <glyph glyph-name="h" unicode="h" horiz-adv-x="475" 
d="M44 0q-4 0 -4 5l1 687q0 4 5 4h111q5 0 5 -4l-1 -272h150v272q0 4 4 4h111q5 0 5 -4l2 -687q0 -5 -5 -5h-112q-5 0 -5 5v294h-150v-294q0 -5 -4 -5h-113z" />
    <glyph glyph-name="i" unicode="i" horiz-adv-x="210" 
d="M45 0q-5 0 -5 5l1 687q0 4 4 4h112q4 0 4 -4l1 -687q0 -5 -4 -5h-113z" />
    <glyph glyph-name="j" unicode="j" horiz-adv-x="435" 
d="M204 -10q-56 0 -100.5 26.5t-70 73t-25.5 104.5v46q0 4 4 4h113q4 0 4 -5v-45q0 -37 21 -60t54 -23q30 0 52 25t22 58v497q0 4 4 4h112q4 0 4 -5l1 -496q0 -55 -26.5 -101.5t-70.5 -74.5t-98 -28z" />
    <glyph glyph-name="k" unicode="k" horiz-adv-x="469" 
d="M44 0q-4 0 -4 5l2 686q0 5 4 5h112q4 0 4 -5v-237l157 238q3 4 7 4h115q4 0 2 -4l-173 -276l194 -412q2 -4 -5 -4h-122q-5 0 -6 4l-135 294l-35 -55v-238q0 -5 -4 -5h-113z" />
    <glyph glyph-name="l" unicode="l" horiz-adv-x="397" 
d="M44 0q-4 0 -4 5l1 686q0 5 5 5h111q5 0 5 -5l-1 -568h206q5 0 5 -5v-113q0 -5 -5 -5h-323z" />
    <glyph glyph-name="m" unicode="m" horiz-adv-x="537" 
d="M44 0q-4 0 -4 5l2 687q0 4 4 4h122q4 0 7 -4l91 -132l91 132q3 4 7 4h123q4 0 4 -4l2 -687q0 -5 -4 -5h-113q-4 0 -4 5l-1 510l-105 -152l-104 152l-1 -510q0 -5 -4 -5h-113z" />
    <glyph glyph-name="n" unicode="n" horiz-adv-x="464" 
d="M49 0q-8 0 -8 7l-1 681q0 8 8 8h90l169 -394l-5 386q0 8 9 8h99q6 0 6 -8l1 -682q0 -6 -5 -6h-88l-173 368l7 -360q0 -8 -9 -8h-100z" />
    <glyph glyph-name="o" unicode="o" horiz-adv-x="457" 
d="M225 -10q-54 0 -98.5 27.5t-71.5 73t-27 100.5l1 317q0 55 26.5 100t71.5 72t98 27q54 0 98 -27t70.5 -72t26.5 -100l1 -317q0 -55 -26.5 -100.5t-71 -73t-98.5 -27.5zM225 111q30 0 52.5 24.5t22.5 55.5l-1 317q0 33 -21 56t-53 23q-31 0 -53 -22.5t-22 -56.5v-317
q0 -33 22 -56.5t53 -23.5z" />
    <glyph glyph-name="p" unicode="p" horiz-adv-x="465" 
d="M45 0q-5 0 -5 5l2 687q0 4 4 4h192q92 0 145.5 -56t53.5 -152q0 -71 -28 -123t-73 -80t-98 -28h-76v-252q0 -5 -5 -5h-112zM162 378h76q32 0 55.5 30.5t23.5 79.5q0 39 -21 64t-58 25l-76 -1v-198z" />
    <glyph glyph-name="q" unicode="q" horiz-adv-x="466" 
d="M369 -64l-69 70q-36 -16 -75 -16q-53 0 -98 27t-72 73t-27 101l1 317q0 53 26 98.5t70.5 73t99.5 27.5q53 0 97.5 -26.5t71 -71.5t26.5 -101l1 -317q0 -29 -8 -56t-21 -50l62 -63q4 -4 1 -7l-79 -79q-4 -3 -7 0zM225 111q34 0 54.5 25.5t20.5 54.5l-1 317q0 32 -21 55.5
t-53 23.5q-34 0 -54.5 -24t-20.5 -55v-317q0 -36 23.5 -58t51.5 -22z" />
    <glyph glyph-name="r" unicode="r" horiz-adv-x="482" 
d="M44 0q-4 0 -4 5l2 687q0 4 4 4h202q54 0 99.5 -26.5t72.5 -71t27 -100.5q0 -37 -11 -66.5t-26 -50t-27 -30.5q54 -60 54 -141l1 -205q0 -5 -5 -5h-113q-4 0 -4 3v207q0 36 -25.5 62.5t-62.5 26.5h-66l-1 -294q0 -5 -4 -5h-113zM162 419h86q31 0 55 23t24 56
q0 32 -23.5 55t-55.5 23h-86v-157z" />
    <glyph glyph-name="s" unicode="s" horiz-adv-x="436" 
d="M210 -10q-54 0 -98.5 27.5t-71 73t-26.5 100.5v46q0 5 5 5h112q4 0 4 -5v-46q0 -33 22 -56.5t53 -23.5t53 24t22 56q0 37 -48 64q-16 9 -50 28t-64 36q-55 32 -81.5 80.5t-26.5 109.5q0 56 27 100.5t71.5 70.5t96.5 26q53 0 97.5 -26.5t71 -71t26.5 -99.5v-82q0 -4 -4 -4
h-112q-4 0 -4 4l-1 82q0 35 -22 57t-52 22q-31 0 -53 -23.5t-22 -55.5q0 -33 14 -55t51 -42q5 -3 19.5 -10.5t31.5 -17t30.5 -16.5t16.5 -9q50 -28 79 -68.5t29 -99.5q0 -57 -26.5 -102.5t-71 -72t-98.5 -26.5z" />
    <glyph glyph-name="t" unicode="t" horiz-adv-x="400" 
d="M140 0q-4 0 -4 5v570h-130q-5 0 -5 5l1 112q0 4 4 4h380q5 0 5 -4v-112q0 -5 -4 -5h-131l1 -570q0 -5 -4 -5h-113z" />
    <glyph glyph-name="u" unicode="u" horiz-adv-x="460" 
d="M224 -10q-53 0 -98 27.5t-71.5 73.5t-26.5 101l2 500q0 4 4 4h112q4 0 4 -4v-500q0 -34 21.5 -57.5t52.5 -23.5q32 0 53.5 23.5t21.5 57.5v500q0 4 4 4h112q4 0 4 -4l2 -500q0 -56 -26.5 -102t-71 -73t-99.5 -27z" />
    <glyph glyph-name="v" unicode="v" horiz-adv-x="433" 
d="M152 0q-4 0 -5 5l-138 687q-1 4 4 4h113q4 0 5 -4l82 -458l80 458q1 4 5 4h112q5 0 4 -4l-136 -687q-1 -5 -5 -5h-121z" />
    <glyph glyph-name="w" unicode="w" horiz-adv-x="629" 
d="M132 0q-4 0 -5 5l-118 687q-1 4 3 4h112q4 0 5 -4l64 -452l66 452q1 4 6 4h90q4 0 5 -4l65 -452l65 452q1 4 5 4h111q5 0 4 -4l-119 -687q-1 -2 -3 -3.5l-2 -1.5h-121q-3 0 -5 5l-51 359l-51 -359q-1 -5 -5 -5h-121z" />
    <glyph glyph-name="x" unicode="x" horiz-adv-x="404" 
d="M9 0q-4 0 -3 5l114 357l-112 330q-1 4 3 4h112q5 0 6 -4l67 -238l68 238q1 4 6 4h111q4 0 3 -4l-112 -329l113 -358q2 -5 -3 -5h-112q-4 0 -6 5l-68 258l-69 -258q-1 -5 -6 -5h-112z" />
    <glyph glyph-name="y" unicode="y" horiz-adv-x="401" 
d="M133 0q-3 0 -3 4l1 284l-134 404q-1 4 3 4h111q5 0 6 -4l74 -269l75 269q1 4 5 4h112q4 0 3 -4l-135 -400l1 -288q0 -4 -4 -4h-115z" />
    <glyph glyph-name="z" unicode="z" horiz-adv-x="414" 
d="M13 0q-5 0 -5 5l1 109l245 468h-232q-4 0 -4 4v105q0 5 4 5h362q5 0 5 -5v-108l-244 -466h241q4 0 4 -5l1 -107q0 -5 -5 -5h-373z" />
    <glyph glyph-name="braceleft" unicode="{" horiz-adv-x="406" 
d="M113 0q-4 0 -4 4v293h-97q-5 0 -5 4v109q0 4 5 4h97v278q0 4 4 4h250q5 0 5 -4v-109q0 -4 -5 -4h-138v-462h138q5 0 5 -4v-109q0 -4 -5 -4h-250z" />
    <glyph glyph-name="bar" unicode="|" horiz-adv-x="198" 
d="M44 0q-4 0 -4 4v688q0 4 4 4h108q4 0 4 -4v-688q0 -4 -2 -4h-110z" />
    <glyph glyph-name="braceright" unicode="}" horiz-adv-x="406" 
d="M43 0q-5 0 -5 4v109q0 4 5 4h138v462h-138q-5 0 -5 4v109q0 4 5 4h250q4 0 4 -4v-278h97q5 0 5 -4v-109q0 -4 -5 -4h-97v-293q0 -4 -4 -4h-250z" />
    <glyph glyph-name="asciitilde" unicode="~" horiz-adv-x="475" 
d="M305 305q-28 0 -51.5 10.5t-42.5 21t-36 10.5q-19 0 -29 -9.5t-10 -23.5q0 -4 -4 -4h-90q-4 0 -4 4q0 26 15.5 53.5t44 46.5t68.5 19q29 0 51 -10t39.5 -19.5t30.5 -9.5q14 0 24.5 9t10.5 28q0 4 4 4h90q4 0 4 -4q0 -41 -16.5 -69t-43 -42.5t-55.5 -14.5z" />
    <glyph glyph-name="uni00A0" unicode="&#xa0;" horiz-adv-x="148" 
 />
    <glyph glyph-name="exclamdown" unicode="&#xa1;" horiz-adv-x="202" 
d="M44 578q-4 0 -4 4v109q0 5 4 5h112q4 0 4 -5v-109q0 -4 -4 -4h-112zM45 0q-5 0 -5 5l1 272l20 230q1 5 5 5h68q4 0 5 -5l21 -230v-272q0 -5 -4 -5h-111z" />
    <glyph glyph-name="cent" unicode="&#xa2;" horiz-adv-x="388" 
d="M148 0q-4 0 -4 4v58q-50 14 -83 57.5t-33 101.5v257q0 55 32 98.5t82 58.5v57q0 4 4 4h87q5 0 5 -4v-59q48 -17 78 -59t30 -96v-37q0 -4 -4 -4h-91q-3 0 -3 4v37q0 27 -17.5 46.5t-43.5 19.5q-29 0 -44.5 -20t-15.5 -46v-257q0 -29 17.5 -48t42.5 -19q26 0 43.5 20.5
t17.5 46.5v38q0 3 3 3h92q3 0 3 -3v-38q0 -55 -29.5 -97t-76.5 -59v-61q0 -4 -5 -4h-87z" />
    <glyph glyph-name="sterling" unicode="&#xa3;" horiz-adv-x="484" 
d="M51 0q-6 0 -6 6v112q43 55 56.5 96.5t10.5 75.5h-86q-4 0 -4 5v92q0 4 5 4h52q-10 25 -18 52t-8 59q0 55 26.5 99t70.5 69.5t96 25.5t94 -25.5t67.5 -68.5t25.5 -96q0 -4 -4 -4h-102q-4 0 -4 4q0 32 -21.5 57.5t-55.5 25.5t-56.5 -25t-22.5 -60q0 -32 9 -59.5t19 -53.5
h189q4 0 4 -4v-92q0 -5 -4 -5h-157q4 -35 -7 -76.5t-49 -95.5h263q4 0 4 -5v-109q0 -4 -4 -4h-383z" />
    <glyph glyph-name="yen" unicode="&#xa5;" horiz-adv-x="392" 
d="M30 114q-4 0 -4 4v92q0 5 5 5h100v66h-102q-4 0 -4 5v92q0 4 5 4h70l-103 310q-1 4 3 4h111q5 0 6 -4l74 -269l75 269q1 4 5 4h112q4 0 3 -4l-105 -310h74q4 0 4 -4v-92q0 -5 -4 -5h-104v-66h105q4 0 4 -5v-92q0 -4 -4 -4h-104v-110q0 -4 -4 -4h-115q-3 0 -3 4v110h-100z
" />
    <glyph glyph-name="brokenbar" unicode="&#xa6;" horiz-adv-x="198" 
d="M40 451v241q0 4 4 4h108q4 0 4 -4v-241h-116zM44 0q-4 0 -4 4v264h116v-264q0 -4 -2 -4h-110z" />
    <glyph glyph-name="section" unicode="&#xa7;" horiz-adv-x="405" 
d="M193 -84q-47 0 -86 24t-61.5 63.5t-22.5 87.5v40q0 4 4 4h97q4 0 4 -4v-40q0 -28 19 -49t46 -21t46 21t19 49q0 17 -9.5 30.5t-32.5 25.5q-14 8 -43.5 24t-55.5 31q-48 28 -71 70t-23 96q0 35 13 65.5t35 53.5q-38 48 -38 119q0 49 23.5 87.5t62 61t83.5 22.5
q46 0 84.5 -22.5t62 -61.5t23.5 -87v-71q0 -4 -4 -4h-97q-4 0 -4 4l-1 71q0 31 -19 50t-45 19q-27 0 -46 -20.5t-19 -48.5t12 -48t44 -36q5 -2 17.5 -9t27.5 -15t26.5 -14t14.5 -8q44 -25 68.5 -60t24.5 -86q0 -39 -14.5 -72t-39.5 -57q22 -21 33.5 -48t11.5 -62
q0 -50 -23 -89.5t-61.5 -62.5t-85.5 -23zM227 261q20 9 30 27.5t10 41.5q0 32 -41 55l-70 39q-28 -20 -28 -56q0 -29 12 -48.5t44 -36.5z" />
    <glyph glyph-name="dieresis" unicode="&#xa8;" horiz-adv-x="600" 
d="M49 766q-4 0 -4 4v113q0 4 4 4h113q4 0 4 -4v-113q0 -4 -4 -4h-113zM-159 766q-4 0 -4 4v113q0 4 4 4h113q4 0 4 -4v-113q0 -4 -4 -4h-113z" />
    <glyph glyph-name="copyright" unicode="&#xa9;" horiz-adv-x="659" 
d="M324 -10q-127 0 -197 65.5t-70 175.5v232q0 72 31.5 126.5t91 85.5t144.5 31t144 -31t90.5 -85.5t31.5 -126.5v-232q0 -110 -69.5 -175.5t-196.5 -65.5zM324 72q84 0 132.5 43.5t48.5 118.5v226q0 75 -48.5 119.5t-132.5 44.5q-85 0 -133.5 -44.5t-48.5 -119.5v-226
q0 -75 48.5 -118.5t133.5 -43.5zM320 132q-50 0 -84 35.5t-34 86.5l1 185q0 50 33.5 85t83.5 35q49 0 82.5 -35t33.5 -85v-27l-0.5 -1t-2.5 -1h-66q-1 0 -1.5 1l-0.5 1v27q0 21 -13.5 35t-31.5 14q-21 0 -33 -14.5t-12 -34.5v-185q0 -22 13 -36t32 -14q18 0 31.5 15.5
t13.5 34.5v27q0 2 2 2h67q3 0 3 -2v-27q0 -34 -15.5 -61.5t-42 -44t-59.5 -16.5z" />
    <glyph glyph-name="ordfeminine" unicode="&#xaa;" horiz-adv-x="427" 
d="M6 227l124 466q2 3 5 3h145q4 0 5 -3l119 -466q1 -4 -4 -4h-111q-4 0 -5 4l-11 49h-136l-11 -49q-1 -4 -5 -4h-111q-4 0 -4 4zM157 349h96l-41 191l-6 25l-4 -25z" />
    <glyph glyph-name="guillemotleft" unicode="&#xab;" horiz-adv-x="607" 
d="M489 104l-207 216q-6 5 -7 16t7 19l212 217q4 4 7 -1l66 -75q3 -5 0 -8l-161 -149l159 -155q4 -3 -1 -8l-68 -71q-4 -4 -7 -1zM239 104l-207 216q-6 5 -7 16t7 19l212 217q4 4 7 -1l66 -75q3 -5 0 -8l-161 -149l159 -155q4 -3 -1 -8l-68 -71q-4 -4 -7 -1z" />
    <glyph glyph-name="logicalnot" unicode="&#xac;" horiz-adv-x="442" 
d="M339 206q-4 0 -4 4v144h-306q-6 0 -6 5v79q0 6 6 6h384q5 0 5 -6v-228q0 -4 -4 -4h-75z" />
    <glyph glyph-name="uni00AD" unicode="&#xad;" horiz-adv-x="303" 
d="M48 289q-5 0 -5 4v109q0 4 5 4h193q5 0 5 -4v-109q0 -4 -5 -4h-193z" />
    <glyph glyph-name="registered" unicode="&#xae;" horiz-adv-x="395" 
d="M188 268q-69 0 -107.5 40t-38.5 108v141q0 66 41 108t105 42q68 0 107.5 -42t39.5 -108v-141q0 -68 -42.5 -108t-104.5 -40zM188 319q49 0 73.5 26.5t24.5 72.5v138q0 46 -26 74.5t-72 28.5q-50 0 -74 -28.5t-24 -74.5v-138q0 -46 24.5 -72.5t73.5 -26.5zM122 382
q-1 0 -1.5 0.5l-0.5 0.5l1 218q0 1 1 1h70q26 0 45.5 -18t19.5 -44q0 -17 -8 -29.5t-13 -16.5q17 -22 17 -46v-65q0 -1 -1 -1h-37q-2 0 -2 1v65q0 12 -8 20.5t-19 8.5h-25l-1 -94q0 -1 -1 -1h-37zM161 514h31q10 0 17.5 8t7.5 18t-7 17t-18 7h-31v-50z" />
    <glyph glyph-name="macron" unicode="&#xaf;" horiz-adv-x="600" 
d="M-150 771q-4 0 -4 4v81q0 4 4 4h299q4 0 4 -4v-81q0 -4 -4 -4h-299z" />
    <glyph glyph-name="degree" unicode="&#xb0;" horiz-adv-x="367" 
d="M170 461q-32 0 -60 17t-45 45.5t-17 60.5q0 35 17 63t45 45t60 17t59.5 -17t44.5 -45t17 -63q0 -34 -17.5 -62t-45 -44.5t-58.5 -16.5zM169 523q23 0 40.5 18t17.5 43q0 26 -17.5 44.5t-40.5 18.5q-25 0 -42 -18.5t-17 -44.5q0 -24 17 -42.5t42 -18.5z" />
    <glyph glyph-name="plusminus" unicode="&#xb1;" horiz-adv-x="401" 
d="M160 248q-4 0 -4 4v141h-127q-6 0 -6 4v71q0 1 1.5 3t4.5 2h127v143q0 2 4 2h75q4 0 4 -2v-143h134q4 0 4 -5v-71q0 -1 -2 -2.5l-2 -1.5h-134v-141q0 -4 -4 -4h-75zM29 92q-6 0 -6 4v71q0 1 1.5 3t4.5 2h344q4 0 4 -5v-71q0 -1 -2 -2.5l-2 -1.5h-344z" />
    <glyph glyph-name="uni00B2" unicode="&#xb2;" horiz-adv-x="284" 
d="M18 446q-3 0 -3 3v67q0 2 2 2l151 184q4 5 8.5 14.5t4.5 19.5t-10.5 23.5t-33.5 13.5q-19 0 -32.5 -12.5t-13.5 -27.5v-28q0 -3 -4 -3h-73q-2 0 -2 3v28q0 31 17 57t45.5 42t62.5 16q35 0 63 -16t44.5 -42.5t16.5 -56.5q0 -19 -8.5 -40.5t-22.5 -37.5l-110 -132h136
q2 0 2 -2v-72q0 -3 -2 -3h-238z" />
    <glyph glyph-name="uni00B3" unicode="&#xb3;" horiz-adv-x="287" 
d="M135 433q-35 0 -62 17t-41.5 43.5t-14.5 52.5v31l0.5 0.5t1.5 0.5h78l1 -1v-29q0 -16 11 -27.5t26 -11.5q14 0 26.5 11.5t12.5 33.5q0 33 -11 46.5t-24 13.5h-23q-4 0 -4 2v64q0 2 4 2h23q13 0 24 14.5t11 32.5q0 22 -12.5 33t-26.5 11q-15 0 -26 -11.5t-11 -26.5v-29
l-1 -1h-78q-1 0 -1.5 0.5l-0.5 0.5v31q0 27 14.5 53t41.5 43t62 17q50 0 83.5 -34.5t33.5 -84.5q0 -23 -10 -47.5t-30 -35.5q20 -12 31.5 -34.5t11.5 -61.5q0 -33 -16.5 -60t-43.5 -43t-60 -16z" />
    <glyph glyph-name="acute" unicode="&#xb4;" horiz-adv-x="285" 
d="M44 749q-5 0 -4 4l80 173q1 4 5 4h114q6 0 4 -4l-93 -173q-2 -4 -6 -4h-100z" />
    <glyph glyph-name="paragraph" unicode="&#xb6;" horiz-adv-x="495" 
d="M224 0q-6 0 -6 3v294h-55q-43 0 -75 26t-50.5 71t-18.5 100q0 52 18 98t50.5 75t75.5 29h140q4 0 4 -3v-690q0 -3 -4 -3h-79zM364 0q-4 0 -4 4v688q0 4 4 4h81q4 0 4 -4v-688q0 -4 -4 -4h-81z" />
    <glyph glyph-name="periodcentered" unicode="&#xb7;" horiz-adv-x="203" 
d="M44 297q-4 0 -4 4v113q0 4 4 4h113q4 0 4 -4v-113q0 -4 -4 -4h-113z" />
    <glyph glyph-name="cedilla" unicode="&#xb8;" horiz-adv-x="600" 
d="M-106 -99q-6 0 -4 4l67 110q2 4 6 4h83q5 0 4 -4l-32 -57q52 -8 83 -38t31 -72q0 -40 -21.5 -73t-57.5 -52t-82 -19q-27 0 -54.5 4.5t-41.5 12.5q-2 2 -2 3l-3 88q0 6 6 4q30 -10 53.5 -13.5t39.5 -3.5q32 0 49 12t17 32q0 26 -31 42t-99 16h-11z" />
    <glyph glyph-name="uni00B9" unicode="&#xb9;" horiz-adv-x="192" 
d="M53 444q-3 0 -3 3l1 392q0 2 2 2h78q2 0 2 -2l1 -392q0 -3 -2 -3h-79z" />
    <glyph glyph-name="ordmasculine" unicode="&#xba;" horiz-adv-x="457" 
d="M225 210q-54 0 -98.5 27.5t-71.5 73t-27 100.5l1 97q0 55 26.5 100t71.5 72t98 27q54 0 98 -27t70.5 -72t26.5 -100l1 -97q0 -55 -26.5 -100.5t-71 -73t-98.5 -27.5zM225 331q30 0 52.5 24.5t22.5 55.5l-1 97q0 33 -21 56t-53 23q-31 0 -53 -22.5t-22 -56.5v-97
q0 -33 22 -56.5t53 -23.5z" />
    <glyph glyph-name="guillemotright" unicode="&#xbb;" horiz-adv-x="607" 
d="M363 104q-4 -4 -7 1l-66 75q-3 5 0 8l161 149l-159 155q-4 3 1 8l68 71q4 4 7 1l207 -216q6 -5 7 -16t-7 -19zM113 104q-4 -4 -7 1l-66 75q-3 5 0 8l161 149l-159 155q-4 3 1 8l68 71q4 4 7 1l207 -216q6 -5 7 -16t-7 -19z" />
    <glyph glyph-name="onequarter" unicode="&#xbc;" horiz-adv-x="651" 
d="M73 -10q-3 0 -4 2.5t0 4.5l379 708q0 2 3 2h83q3 0 4.5 -2.5t-0.5 -4.5l-381 -708q0 -2 -3 -2h-81zM83 316q-3 0 -3 3l1 386q0 2 2 2h78q2 0 2 -2l1 -386q0 -3 -2 -3h-79zM489 0q-3 0 -3 3v63h-139q-2 0 -2 2v66l140 259q1 2 4 2h76q2 0 2 -2v-257h45q4 0 4 -2v-66
q0 -2 -4 -2h-45v-63q0 -3 -2 -3h-76zM419 136h67v127z" />
    <glyph glyph-name="onehalf" unicode="&#xbd;" horiz-adv-x="712" 
d="M73 -10q-3 0 -4 2.5t0 4.5l379 708q0 2 3 2h83q3 0 4.5 -2.5t-0.5 -4.5l-381 -708q0 -2 -3 -2h-81zM78 299q-3 0 -3 3l1 392q0 2 2 2h78q2 0 2 -2l1 -392q0 -3 -2 -3h-79zM410 2q-3 0 -3 3v67q0 2 2 2l151 184q4 5 8.5 14.5t4.5 19.5t-10.5 23.5t-33.5 13.5
q-19 0 -32.5 -12.5t-13.5 -27.5v-28q0 -3 -4 -3h-73q-2 0 -2 3v28q0 31 17 57t45.5 42t62.5 16q35 0 63 -16.5t44.5 -42.5t16.5 -56q0 -19 -8.5 -40.5t-22.5 -37.5l-110 -132h136q2 0 2 -2v-72q0 -3 -2 -3h-238z" />
    <glyph glyph-name="threequarters" unicode="&#xbe;" horiz-adv-x="722" 
d="M151 293q-35 0 -62 17t-41.5 43.5t-14.5 52.5v31l0.5 0.5t1.5 0.5h78l1 -1v-29q0 -16 11 -27.5t26 -11.5q14 0 26.5 11.5t12.5 33.5q0 33 -11 46.5t-24 13.5h-23q-4 0 -4 2v64q0 2 4 2h23q13 0 24 14.5t11 32.5q0 22 -12.5 33t-26.5 11q-15 0 -26 -11.5t-11 -26.5v-29
l-1 -1h-78q-1 0 -1.5 0.5l-0.5 0.5v31q0 27 14.5 53t41.5 43t62 17q50 0 83.5 -34.5t33.5 -84.5q0 -23 -10 -47.5t-30 -35.5q20 -12 31.5 -34.5t11.5 -61.5q0 -33 -16.5 -60t-43.5 -43t-60 -16zM134 -10q-3 0 -4 2.5t0 4.5l379 708q0 2 3 2h86q3 0 4.5 -2.5t-0.5 -4.5
l-381 -708q0 -2 -3 -2h-84zM565 0q-3 0 -3 3v63h-139q-2 0 -2 2v66l140 259q1 2 4 2h76q2 0 2 -2v-257h45q4 0 4 -2v-66q0 -2 -4 -2h-45v-63q0 -3 -2 -3h-76zM495 136h67v127z" />
    <glyph glyph-name="questiondown" unicode="&#xbf;" horiz-adv-x="435" 
d="M154 577q-5 0 -5 4v111q0 5 5 5h111q5 0 5 -5v-111q0 -4 -5 -4h-111zM209 -10q-54 0 -98 27t-70.5 73t-26.5 102q0 34 7 59t26.5 53t55.5 68q26 26 36 45.5t10 43.5v48q0 4 5 4h111q5 0 5 -4v-54q0 -40 -18.5 -80.5t-50.5 -72.5q-29 -29 -43.5 -46t-18.5 -30.5t-4 -33.5
q0 -35 21.5 -58t52.5 -23q32 0 53.5 23t21.5 58v73q0 4 4 4h113q4 0 4 -4v-73q0 -56 -26.5 -102t-70.5 -73t-99 -27z" />
    <glyph glyph-name="Agrave" unicode="&#xc0;" horiz-adv-x="427" 
d="M6 5l124 687q1 4 5 4h145q4 0 5 -4l119 -687q1 -5 -4 -5h-111q-4 0 -5 5l-11 73h-136l-11 -73q-1 -5 -5 -5h-111q-4 0 -4 5zM157 185h96l-41 281l-6 37l-4 -37zM159 747q-4 0 -6 4l-93 173q-2 4 4 4h114q4 0 5 -4l80 -173q1 -4 -4 -4h-100z" />
    <glyph glyph-name="Aacute" unicode="&#xc1;" horiz-adv-x="427" 
d="M6 5l124 687q1 4 5 4h145q4 0 5 -4l119 -687q1 -5 -4 -5h-111q-4 0 -5 5l-11 73h-136l-11 -73q-1 -5 -5 -5h-111q-4 0 -4 5zM157 185h96l-41 281l-6 37l-4 -37zM145 747q-5 0 -4 4l80 173q1 4 5 4h114q6 0 4 -4l-93 -173q-2 -4 -6 -4h-100z" />
    <glyph glyph-name="Acircumflex" unicode="&#xc2;" horiz-adv-x="427" 
d="M6 5l124 687q1 4 5 4h145q4 0 5 -4l119 -687q1 -5 -4 -5h-111q-4 0 -5 5l-11 73h-136l-11 -73q-1 -5 -5 -5h-111q-4 0 -4 5zM157 185h96l-41 281l-6 37l-4 -37zM15 748q-6 0 -4 4l130 153q2 4 6 4h115q4 0 6 -4l130 -153q2 -4 -4 -4h-117q-4 0 -5 4l-70 87l-71 -87
q-1 -4 -5 -4h-111z" />
    <glyph glyph-name="Atilde" unicode="&#xc3;" horiz-adv-x="427" 
d="M6 5l124 687q1 4 5 4h145q4 0 5 -4l119 -687q1 -5 -4 -5h-111q-4 0 -5 5l-11 73h-136l-11 -73q-1 -5 -5 -5h-111q-4 0 -4 5zM157 185h96l-41 281l-6 37l-4 -37zM295 753q-28 0 -51.5 10.5t-42.5 21t-36 10.5q-19 0 -29 -9.5t-10 -23.5q0 -4 -4 -4h-90q-4 0 -4 4
q0 26 15.5 53.5t44 46.5t68.5 19q29 0 51 -9.5t39.5 -19.5t30.5 -10q14 0 24.5 9t10.5 28q0 4 4 4h90q4 0 4 -4q0 -41 -16.5 -69t-43 -42.5t-55.5 -14.5z" />
    <glyph glyph-name="Adieresis" unicode="&#xc4;" horiz-adv-x="427" 
d="M6 5l124 687q1 4 5 4h145q4 0 5 -4l119 -687q1 -5 -4 -5h-111q-4 0 -5 5l-11 73h-136l-11 -73q-1 -5 -5 -5h-111q-4 0 -4 5zM157 185h96l-41 281l-6 37l-4 -37zM253 764q-4 0 -4 4v113q0 4 4 4h113q4 0 4 -4v-113q0 -4 -4 -4h-113zM45 764q-4 0 -4 4v113q0 4 4 4h113
q4 0 4 -4v-113q0 -4 -4 -4h-113z" />
    <glyph glyph-name="Aring" unicode="&#xc5;" horiz-adv-x="427" 
d="M6 5l124 687q1 4 5 4h145q4 0 5 -4l119 -687q1 -5 -4 -5h-111q-4 0 -5 5l-11 73h-136l-11 -73q-1 -5 -5 -5h-111q-4 0 -4 5zM157 185h96l-41 281l-6 37l-4 -37zM206 741q-37 0 -65 28.5t-28 65.5q0 39 28 67t65 28q36 0 64 -28t28 -67q0 -40 -28.5 -67t-63.5 -27z
M205 788q18 0 31 14t13 33q0 20 -13 34t-31 14q-19 0 -32 -14t-13 -34q0 -19 13 -33t32 -14z" />
    <glyph glyph-name="AE" unicode="&#xc6;" horiz-adv-x="696" 
d="M6 0q-6 0 -4 6l279 687q2 3 6 3h355q4 0 4 -5v-112q0 -4 -4 -4h-205v-156h205q4 0 4 -4l1 -113q0 -4 -4 -4h-206v-175h206q4 0 4 -5v-114q0 -4 -4 -4h-323q-4 0 -4 5v73h-158l-30 -76q0 -2 -3 -2h-119zM199 185h117l1 303l-14 -37z" />
    <glyph glyph-name="Ccedilla" unicode="&#xc7;" horiz-adv-x="453" 
d="M224 -10q-55 0 -99.5 27.5t-70.5 73.5t-26 103l1 312q0 55 25.5 100.5t70 73t99.5 27.5t99 -27t70 -72.5t26 -101.5v-46q0 -4 -4 -4h-112q-4 0 -4 4v46q0 33 -21.5 57t-53.5 24q-36 0 -55 -24.5t-19 -56.5v-312q0 -37 21.5 -60t52.5 -23q32 0 53.5 25.5t21.5 57.5v46
q0 4 4 4h113q4 0 4 -4v-46q0 -57 -26.5 -103t-70.5 -73.5t-99 -27.5zM121 -98q-6 0 -4 4l67 110q2 4 6 4h83q5 0 4 -4l-32 -57q52 -8 83 -38t31 -72q0 -40 -21.5 -73t-57.5 -52t-82 -19q-27 0 -54.5 4.5t-41.5 12.5q-2 2 -2 3l-3 88q0 6 6 4q30 -10 53.5 -13.5t39.5 -3.5
q32 0 49 12t17 32q0 26 -31 42t-99 16h-11z" />
    <glyph glyph-name="Egrave" unicode="&#xc8;" horiz-adv-x="420" 
d="M44 0q-4 0 -4 5l1 687q0 4 4 4h321q4 0 4 -5v-112q0 -4 -4 -4h-205v-156h205q4 0 4 -4l1 -113q0 -4 -4 -4h-206v-175h206q4 0 4 -5v-114q0 -4 -4 -4h-323zM157 747q-4 0 -6 4l-93 173q-2 4 4 4h114q4 0 5 -4l80 -173q1 -4 -4 -4h-100z" />
    <glyph glyph-name="Eacute" unicode="&#xc9;" horiz-adv-x="420" 
d="M44 0q-4 0 -4 5l1 687q0 4 4 4h321q4 0 4 -5v-112q0 -4 -4 -4h-205v-156h205q4 0 4 -4l1 -113q0 -4 -4 -4h-206v-175h206q4 0 4 -5v-114q0 -4 -4 -4h-323zM143 747q-5 0 -4 4l80 173q1 4 5 4h114q6 0 4 -4l-93 -173q-2 -4 -6 -4h-100z" />
    <glyph glyph-name="Ecircumflex" unicode="&#xca;" horiz-adv-x="420" 
d="M44 0q-4 0 -4 5l1 687q0 4 4 4h321q4 0 4 -5v-112q0 -4 -4 -4h-205v-156h205q4 0 4 -4l1 -113q0 -4 -4 -4h-206v-175h206q4 0 4 -5v-114q0 -4 -4 -4h-323zM13 748q-6 0 -4 4l130 153q2 4 6 4h115q4 0 6 -4l130 -153q2 -4 -4 -4h-117q-4 0 -5 4l-70 87l-71 -87
q-1 -4 -5 -4h-111z" />
    <glyph glyph-name="Edieresis" unicode="&#xcb;" horiz-adv-x="420" 
d="M44 0q-4 0 -4 5l1 687q0 4 4 4h321q4 0 4 -5v-112q0 -4 -4 -4h-205v-156h205q4 0 4 -4l1 -113q0 -4 -4 -4h-206v-175h206q4 0 4 -5v-114q0 -4 -4 -4h-323zM251 764q-4 0 -4 4v113q0 4 4 4h113q4 0 4 -4v-113q0 -4 -4 -4h-113zM43 764q-4 0 -4 4v113q0 4 4 4h113q4 0 4 -4
v-113q0 -4 -4 -4h-113z" />
    <glyph glyph-name="Igrave" unicode="&#xcc;" horiz-adv-x="210" 
d="M45 0q-5 0 -5 5l1 687q0 4 4 4h112q4 0 4 -4l1 -687q0 -5 -4 -5h-113zM58 747q-4 0 -6 4l-93 173q-2 4 4 4h114q4 0 5 -4l80 -173q1 -4 -4 -4h-100z" />
    <glyph glyph-name="Iacute" unicode="&#xcd;" horiz-adv-x="210" 
d="M45 0q-5 0 -5 5l1 687q0 4 4 4h112q4 0 4 -4l1 -687q0 -5 -4 -5h-113zM44 747q-5 0 -4 4l80 173q1 4 5 4h114q6 0 4 -4l-93 -173q-2 -4 -6 -4h-100z" />
    <glyph glyph-name="Icircumflex" unicode="&#xce;" horiz-adv-x="210" 
d="M45 0q-5 0 -5 5l1 687q0 4 4 4h112q4 0 4 -4l1 -687q0 -5 -4 -5h-113zM-86 748q-6 0 -4 4l130 153q2 4 6 4h115q4 0 6 -4l130 -153q2 -4 -4 -4h-117q-4 0 -5 4l-70 87l-71 -87q-1 -4 -5 -4h-111z" />
    <glyph glyph-name="Idieresis" unicode="&#xcf;" horiz-adv-x="210" 
d="M45 0q-5 0 -5 5l1 687q0 4 4 4h112q4 0 4 -4l1 -687q0 -5 -4 -5h-113zM152 764q-4 0 -4 4v113q0 4 4 4h113q4 0 4 -4v-113q0 -4 -4 -4h-113zM-56 764q-4 0 -4 4v113q0 4 4 4h113q4 0 4 -4v-113q0 -4 -4 -4h-113z" />
    <glyph glyph-name="Eth" unicode="&#xd0;" horiz-adv-x="472" 
d="M45 0q-5 0 -5 5l1 305h-51q-4 0 -4 5v104q0 5 5 5h50l1 268q0 4 4 4l187 1q55 1 100.5 -26t72.5 -72.5t27 -100.5v-287q0 -58 -28 -105.5t-75 -75.5t-106 -29zM162 123h62q37 0 62.5 26t25.5 62v288q0 32 -23.5 55.5t-55.5 22.5l-70 -1v-152h78q4 0 4 -5v-104q0 -5 -4 -5
h-79v-187z" />
    <glyph glyph-name="Ntilde" unicode="&#xd1;" horiz-adv-x="464" 
d="M49 0q-8 0 -8 7l-1 681q0 8 8 8h90l169 -394l-5 386q0 8 9 8h99q6 0 6 -8l1 -682q0 -6 -5 -6h-88l-173 368l7 -360q0 -8 -9 -8h-100zM305 753q-28 0 -51.5 10.5t-42.5 21t-36 10.5q-19 0 -29 -9.5t-10 -23.5q0 -4 -4 -4h-90q-4 0 -4 4q0 26 15.5 53.5t44 46.5t68.5 19
q29 0 51 -9.5t39.5 -19.5t30.5 -10q14 0 24.5 9t10.5 28q0 4 4 4h90q4 0 4 -4q0 -41 -16.5 -69t-43 -42.5t-55.5 -14.5z" />
    <glyph glyph-name="Ograve" unicode="&#xd2;" horiz-adv-x="457" 
d="M225 -10q-54 0 -98.5 27.5t-71.5 73t-27 100.5l1 317q0 55 26.5 100t71.5 72t98 27q54 0 98 -27t70.5 -72t26.5 -100l1 -317q0 -55 -26.5 -100.5t-71 -73t-98.5 -27.5zM225 111q30 0 52.5 24.5t22.5 55.5l-1 317q0 33 -21 56t-53 23q-31 0 -53 -22.5t-22 -56.5v-317
q0 -33 22 -56.5t53 -23.5zM178 747q-4 0 -6 4l-93 173q-2 4 4 4h114q4 0 5 -4l80 -173q1 -4 -4 -4h-100z" />
    <glyph glyph-name="Oacute" unicode="&#xd3;" horiz-adv-x="457" 
d="M225 -10q-54 0 -98.5 27.5t-71.5 73t-27 100.5l1 317q0 55 26.5 100t71.5 72t98 27q54 0 98 -27t70.5 -72t26.5 -100l1 -317q0 -55 -26.5 -100.5t-71 -73t-98.5 -27.5zM225 111q30 0 52.5 24.5t22.5 55.5l-1 317q0 33 -21 56t-53 23q-31 0 -53 -22.5t-22 -56.5v-317
q0 -33 22 -56.5t53 -23.5zM164 747q-5 0 -4 4l80 173q1 4 5 4h114q6 0 4 -4l-93 -173q-2 -4 -6 -4h-100z" />
    <glyph glyph-name="Ocircumflex" unicode="&#xd4;" horiz-adv-x="457" 
d="M225 -10q-54 0 -98.5 27.5t-71.5 73t-27 100.5l1 317q0 55 26.5 100t71.5 72t98 27q54 0 98 -27t70.5 -72t26.5 -100l1 -317q0 -55 -26.5 -100.5t-71 -73t-98.5 -27.5zM225 111q30 0 52.5 24.5t22.5 55.5l-1 317q0 33 -21 56t-53 23q-31 0 -53 -22.5t-22 -56.5v-317
q0 -33 22 -56.5t53 -23.5zM34 748q-6 0 -4 4l130 153q2 4 6 4h115q4 0 6 -4l130 -153q2 -4 -4 -4h-117q-4 0 -5 4l-70 87l-71 -87q-1 -4 -5 -4h-111z" />
    <glyph glyph-name="Otilde" unicode="&#xd5;" horiz-adv-x="458" 
d="M303 753q-28 0 -51.5 10.5t-42.5 21t-36 10.5q-19 0 -29 -9.5t-10 -23.5q0 -4 -4 -4h-90q-4 0 -4 4q0 26 15.5 53.5t44 46.5t68.5 19q29 0 51 -9.5t39.5 -19.5t30.5 -10q14 0 24.5 9t10.5 28q0 4 4 4h90q4 0 4 -4q0 -41 -16.5 -69t-43 -42.5t-55.5 -14.5zM225 -10
q-54 0 -98.5 27.5t-71.5 73t-27 100.5l1 317q0 55 26.5 100t71.5 72t98 27q54 0 98 -27t70.5 -72t26.5 -100l1 -317q0 -55 -26.5 -100.5t-71 -73t-98.5 -27.5zM225 111q30 0 52.5 24.5t22.5 55.5l-1 317q0 33 -21 56t-53 23q-31 0 -53 -22.5t-22 -56.5v-317q0 -33 22 -56.5
t53 -23.5z" />
    <glyph glyph-name="Odieresis" unicode="&#xd6;" horiz-adv-x="457" 
d="M225 -10q-54 0 -98.5 27.5t-71.5 73t-27 100.5l1 317q0 55 26.5 100t71.5 72t98 27q54 0 98 -27t70.5 -72t26.5 -100l1 -317q0 -55 -26.5 -100.5t-71 -73t-98.5 -27.5zM225 111q30 0 52.5 24.5t22.5 55.5l-1 317q0 33 -21 56t-53 23q-31 0 -53 -22.5t-22 -56.5v-317
q0 -33 22 -56.5t53 -23.5zM272 764q-4 0 -4 4v113q0 4 4 4h113q4 0 4 -4v-113q0 -4 -4 -4h-113zM64 764q-4 0 -4 4v113q0 4 4 4h113q4 0 4 -4v-113q0 -4 -4 -4h-113z" />
    <glyph glyph-name="multiply" unicode="&#xd7;" horiz-adv-x="397" 
d="M87 172l-60 49q-2 2 1 7l109 124l-107 119q-1 1 2 4l57 53q3 3 3 2l103 -113l100 113q0 1 2 -1l62 -52l1 -3l-106 -122l109 -120q3 -3 2.5 -4t-1.5 -2l-57 -53q-1 -1 -2 -2.5t-4 2.5l-106 116l-102 -116q-2 -4 -3 -3t-3 2z" />
    <glyph glyph-name="Oslash" unicode="&#xd8;" horiz-adv-x="458" 
d="M-21 -37q-2 0 -3.5 2t-0.5 4l73 134q-20 41 -20 88l1 317q0 55 26.5 100t71.5 72t98 27q37 0 69.5 -13t58.5 -36l39 71q2 3 6 3h76q8 0 4 -8l-74 -136q16 -38 16 -80l1 -317q0 -55 -26.5 -100.5t-71 -73t-98.5 -27.5q-35 0 -66.5 12t-57.5 33l-38 -70q-2 -2 -5 -2h-79z
M150 508v-220l141 257q-9 19 -26.5 30.5t-39.5 11.5q-31 0 -53 -22.5t-22 -56.5zM225 111q30 0 52.5 24.5t22.5 55.5l-1 206l-136 -250q10 -16 26.5 -26t35.5 -10z" />
    <glyph glyph-name="Ugrave" unicode="&#xd9;" horiz-adv-x="460" 
d="M224 -10q-53 0 -98 27.5t-71.5 73.5t-26.5 101l2 500q0 4 4 4h112q4 0 4 -4v-500q0 -34 21.5 -57.5t52.5 -23.5q32 0 53.5 23.5t21.5 57.5v500q0 4 4 4h112q4 0 4 -4l2 -500q0 -56 -26.5 -102t-71 -73t-99.5 -27zM176 747q-4 0 -6 4l-93 173q-2 4 4 4h114q4 0 5 -4
l80 -173q1 -4 -4 -4h-100z" />
    <glyph glyph-name="Uacute" unicode="&#xda;" horiz-adv-x="460" 
d="M224 -10q-53 0 -98 27.5t-71.5 73.5t-26.5 101l2 500q0 4 4 4h112q4 0 4 -4v-500q0 -34 21.5 -57.5t52.5 -23.5q32 0 53.5 23.5t21.5 57.5v500q0 4 4 4h112q4 0 4 -4l2 -500q0 -56 -26.5 -102t-71 -73t-99.5 -27zM162 747q-5 0 -4 4l80 173q1 4 5 4h114q6 0 4 -4
l-93 -173q-2 -4 -6 -4h-100z" />
    <glyph glyph-name="Ucircumflex" unicode="&#xdb;" horiz-adv-x="460" 
d="M224 -10q-53 0 -98 27.5t-71.5 73.5t-26.5 101l2 500q0 4 4 4h112q4 0 4 -4v-500q0 -34 21.5 -57.5t52.5 -23.5q32 0 53.5 23.5t21.5 57.5v500q0 4 4 4h112q4 0 4 -4l2 -500q0 -56 -26.5 -102t-71 -73t-99.5 -27zM32 748q-6 0 -4 4l130 153q2 4 6 4h115q4 0 6 -4
l130 -153q2 -4 -4 -4h-117q-4 0 -5 4l-70 87l-71 -87q-1 -4 -5 -4h-111z" />
    <glyph glyph-name="Udieresis" unicode="&#xdc;" horiz-adv-x="460" 
d="M224 -10q-53 0 -98 27.5t-71.5 73.5t-26.5 101l2 500q0 4 4 4h112q4 0 4 -4v-500q0 -34 21.5 -57.5t52.5 -23.5q32 0 53.5 23.5t21.5 57.5v500q0 4 4 4h112q4 0 4 -4l2 -500q0 -56 -26.5 -102t-71 -73t-99.5 -27zM270 764q-4 0 -4 4v113q0 4 4 4h113q4 0 4 -4v-113
q0 -4 -4 -4h-113zM62 764q-4 0 -4 4v113q0 4 4 4h113q4 0 4 -4v-113q0 -4 -4 -4h-113z" />
    <glyph glyph-name="Yacute" unicode="&#xdd;" horiz-adv-x="401" 
d="M133 0q-3 0 -3 4l1 284l-134 404q-1 4 3 4h111q5 0 6 -4l74 -269l75 269q1 4 5 4h112q4 0 3 -4l-135 -400l1 -288q0 -4 -4 -4h-115zM130 747q-5 0 -4 4l80 173q1 4 5 4h114q6 0 4 -4l-93 -173q-2 -4 -6 -4h-100z" />
    <glyph glyph-name="Thorn" unicode="&#xde;" horiz-adv-x="458" 
d="M45 0q-5 0 -5 5l2 687q0 4 4 4h110q6 0 6 -6v-110h77q92 0 145.5 -56t53.5 -152q0 -70 -28 -122t-73.5 -80.5t-97.5 -28.5h-77v-136q0 -5 -5 -5h-112zM162 262h77q32 0 55.5 30.5t23.5 79.5q0 39 -21 64.5t-58 24.5l-77 -1v-198z" />
    <glyph glyph-name="germandbls" unicode="&#xdf;" horiz-adv-x="481" 
d="M46 0q-6 0 -6 6l1 472q0 62 24 114t71 83t116 31q58 0 103.5 -27t72 -74t26.5 -107q0 -43 -19.5 -80t-46.5 -60q29 -29 45 -67t16 -80q0 -58 -28 -106t-75.5 -76.5t-105.5 -28.5h-14q-6 0 -6 6l2 110q0 6 6 6h12q36 0 62 26.5t26 62.5q0 35 -24 60.5t-58 27.5q-6 0 -6 6
v109q0 6 6 6h9q35 0 56.5 24.5t21.5 53.5q0 40 -23 64t-64 24q-44 0 -64 -32t-20 -75v-473q0 -6 -6 -6h-110z" />
    <glyph glyph-name="agrave" unicode="&#xe0;" horiz-adv-x="427" 
d="M6 5l124 687q1 4 5 4h145q4 0 5 -4l119 -687q1 -5 -4 -5h-111q-4 0 -5 5l-11 73h-136l-11 -73q-1 -5 -5 -5h-111q-4 0 -4 5zM157 185h96l-41 281l-6 37l-4 -37zM159 747q-4 0 -6 4l-93 173q-2 4 4 4h114q4 0 5 -4l80 -173q1 -4 -4 -4h-100z" />
    <glyph glyph-name="aacute" unicode="&#xe1;" horiz-adv-x="427" 
d="M6 5l124 687q1 4 5 4h145q4 0 5 -4l119 -687q1 -5 -4 -5h-111q-4 0 -5 5l-11 73h-136l-11 -73q-1 -5 -5 -5h-111q-4 0 -4 5zM157 185h96l-41 281l-6 37l-4 -37zM145 747q-5 0 -4 4l80 173q1 4 5 4h114q6 0 4 -4l-93 -173q-2 -4 -6 -4h-100z" />
    <glyph glyph-name="acircumflex" unicode="&#xe2;" horiz-adv-x="427" 
d="M6 5l124 687q1 4 5 4h145q4 0 5 -4l119 -687q1 -5 -4 -5h-111q-4 0 -5 5l-11 73h-136l-11 -73q-1 -5 -5 -5h-111q-4 0 -4 5zM157 185h96l-41 281l-6 37l-4 -37zM15 748q-6 0 -4 4l130 153q2 4 6 4h115q4 0 6 -4l130 -153q2 -4 -4 -4h-117q-4 0 -5 4l-70 87l-71 -87
q-1 -4 -5 -4h-111z" />
    <glyph glyph-name="atilde" unicode="&#xe3;" horiz-adv-x="427" 
d="M6 5l124 687q1 4 5 4h145q4 0 5 -4l119 -687q1 -5 -4 -5h-111q-4 0 -5 5l-11 73h-136l-11 -73q-1 -5 -5 -5h-111q-4 0 -4 5zM157 185h96l-41 281l-6 37l-4 -37zM295 753q-28 0 -51.5 10.5t-42.5 21t-36 10.5q-19 0 -29 -9.5t-10 -23.5q0 -4 -4 -4h-90q-4 0 -4 4
q0 26 15.5 53.5t44 46.5t68.5 19q29 0 51 -9.5t39.5 -19.5t30.5 -10q14 0 24.5 9t10.5 28q0 4 4 4h90q4 0 4 -4q0 -41 -16.5 -69t-43 -42.5t-55.5 -14.5z" />
    <glyph glyph-name="adieresis" unicode="&#xe4;" horiz-adv-x="427" 
d="M6 5l124 687q1 4 5 4h145q4 0 5 -4l119 -687q1 -5 -4 -5h-111q-4 0 -5 5l-11 73h-136l-11 -73q-1 -5 -5 -5h-111q-4 0 -4 5zM157 185h96l-41 281l-6 37l-4 -37zM253 764q-4 0 -4 4v113q0 4 4 4h113q4 0 4 -4v-113q0 -4 -4 -4h-113zM45 764q-4 0 -4 4v113q0 4 4 4h113
q4 0 4 -4v-113q0 -4 -4 -4h-113z" />
    <glyph glyph-name="aring" unicode="&#xe5;" horiz-adv-x="427" 
d="M6 5l124 687q1 4 5 4h145q4 0 5 -4l119 -687q1 -5 -4 -5h-111q-4 0 -5 5l-11 73h-136l-11 -73q-1 -5 -5 -5h-111q-4 0 -4 5zM157 185h96l-41 281l-6 37l-4 -37zM206 741q-37 0 -65 28.5t-28 65.5q0 39 28 67t65 28q36 0 64 -28t28 -67q0 -40 -28.5 -67t-63.5 -27z
M205 788q18 0 31 14t13 33q0 20 -13 34t-31 14q-19 0 -32 -14t-13 -34q0 -19 13 -33t32 -14z" />
    <glyph glyph-name="ae" unicode="&#xe6;" horiz-adv-x="696" 
d="M6 0q-6 0 -4 6l279 687q2 3 6 3h355q4 0 4 -5v-112q0 -4 -4 -4h-205v-156h205q4 0 4 -4l1 -113q0 -4 -4 -4h-206v-175h206q4 0 4 -5v-114q0 -4 -4 -4h-323q-4 0 -4 5v73h-158l-30 -76q0 -2 -3 -2h-119zM199 185h117l1 303l-14 -37z" />
    <glyph glyph-name="ccedilla" unicode="&#xe7;" horiz-adv-x="453" 
d="M224 -10q-55 0 -99.5 27.5t-70.5 73.5t-26 103l1 312q0 55 25.5 100.5t70 73t99.5 27.5t99 -27t70 -72.5t26 -101.5v-46q0 -4 -4 -4h-112q-4 0 -4 4v46q0 33 -21.5 57t-53.5 24q-36 0 -55 -24.5t-19 -56.5v-312q0 -37 21.5 -60t52.5 -23q32 0 53.5 25.5t21.5 57.5v46
q0 4 4 4h113q4 0 4 -4v-46q0 -57 -26.5 -103t-70.5 -73.5t-99 -27.5zM121 -98q-6 0 -4 4l67 110q2 4 6 4h83q5 0 4 -4l-32 -57q52 -8 83 -38t31 -72q0 -40 -21.5 -73t-57.5 -52t-82 -19q-27 0 -54.5 4.5t-41.5 12.5q-2 2 -2 3l-3 88q0 6 6 4q30 -10 53.5 -13.5t39.5 -3.5
q32 0 49 12t17 32q0 26 -31 42t-99 16h-11z" />
    <glyph glyph-name="egrave" unicode="&#xe8;" horiz-adv-x="420" 
d="M44 0q-4 0 -4 5l1 687q0 4 4 4h321q4 0 4 -5v-112q0 -4 -4 -4h-205v-156h205q4 0 4 -4l1 -113q0 -4 -4 -4h-206v-175h206q4 0 4 -5v-114q0 -4 -4 -4h-323zM157 747q-4 0 -6 4l-93 173q-2 4 4 4h114q4 0 5 -4l80 -173q1 -4 -4 -4h-100z" />
    <glyph glyph-name="eacute" unicode="&#xe9;" horiz-adv-x="420" 
d="M44 0q-4 0 -4 5l1 687q0 4 4 4h321q4 0 4 -5v-112q0 -4 -4 -4h-205v-156h205q4 0 4 -4l1 -113q0 -4 -4 -4h-206v-175h206q4 0 4 -5v-114q0 -4 -4 -4h-323zM143 747q-5 0 -4 4l80 173q1 4 5 4h114q6 0 4 -4l-93 -173q-2 -4 -6 -4h-100z" />
    <glyph glyph-name="ecircumflex" unicode="&#xea;" horiz-adv-x="420" 
d="M44 0q-4 0 -4 5l1 687q0 4 4 4h321q4 0 4 -5v-112q0 -4 -4 -4h-205v-156h205q4 0 4 -4l1 -113q0 -4 -4 -4h-206v-175h206q4 0 4 -5v-114q0 -4 -4 -4h-323zM13 748q-6 0 -4 4l130 153q2 4 6 4h115q4 0 6 -4l130 -153q2 -4 -4 -4h-117q-4 0 -5 4l-70 87l-71 -87
q-1 -4 -5 -4h-111z" />
    <glyph glyph-name="edieresis" unicode="&#xeb;" horiz-adv-x="420" 
d="M44 0q-4 0 -4 5l1 687q0 4 4 4h321q4 0 4 -5v-112q0 -4 -4 -4h-205v-156h205q4 0 4 -4l1 -113q0 -4 -4 -4h-206v-175h206q4 0 4 -5v-114q0 -4 -4 -4h-323zM251 764q-4 0 -4 4v113q0 4 4 4h113q4 0 4 -4v-113q0 -4 -4 -4h-113zM43 764q-4 0 -4 4v113q0 4 4 4h113q4 0 4 -4
v-113q0 -4 -4 -4h-113z" />
    <glyph glyph-name="igrave" unicode="&#xec;" horiz-adv-x="210" 
d="M45 0q-5 0 -5 5l1 687q0 4 4 4h112q4 0 4 -4l1 -687q0 -5 -4 -5h-113zM58 747q-4 0 -6 4l-93 173q-2 4 4 4h114q4 0 5 -4l80 -173q1 -4 -4 -4h-100z" />
    <glyph glyph-name="iacute" unicode="&#xed;" horiz-adv-x="210" 
d="M45 0q-5 0 -5 5l1 687q0 4 4 4h112q4 0 4 -4l1 -687q0 -5 -4 -5h-113zM44 747q-5 0 -4 4l80 173q1 4 5 4h114q6 0 4 -4l-93 -173q-2 -4 -6 -4h-100z" />
    <glyph glyph-name="icircumflex" unicode="&#xee;" horiz-adv-x="210" 
d="M45 0q-5 0 -5 5l1 687q0 4 4 4h112q4 0 4 -4l1 -687q0 -5 -4 -5h-113zM-86 748q-6 0 -4 4l130 153q2 4 6 4h115q4 0 6 -4l130 -153q2 -4 -4 -4h-117q-4 0 -5 4l-70 87l-71 -87q-1 -4 -5 -4h-111z" />
    <glyph glyph-name="idieresis" unicode="&#xef;" horiz-adv-x="210" 
d="M45 0q-5 0 -5 5l1 687q0 4 4 4h112q4 0 4 -4l1 -687q0 -5 -4 -5h-113zM152 764q-4 0 -4 4v113q0 4 4 4h113q4 0 4 -4v-113q0 -4 -4 -4h-113zM-56 764q-4 0 -4 4v113q0 4 4 4h113q4 0 4 -4v-113q0 -4 -4 -4h-113z" />
    <glyph glyph-name="eth" unicode="&#xf0;" horiz-adv-x="472" 
d="M45 0q-5 0 -5 5l1 305h-51q-4 0 -4 5v104q0 5 5 5h50l1 268q0 4 4 4l187 1q55 1 100.5 -26t72.5 -72.5t27 -100.5v-287q0 -58 -28 -105.5t-75 -75.5t-106 -29zM162 123h62q37 0 62.5 26t25.5 62v288q0 32 -23.5 55.5t-55.5 22.5l-70 -1v-152h78q4 0 4 -5v-104q0 -5 -4 -5
h-79v-187z" />
    <glyph glyph-name="ntilde" unicode="&#xf1;" horiz-adv-x="464" 
d="M49 0q-8 0 -8 7l-1 681q0 8 8 8h90l169 -394l-5 386q0 8 9 8h99q6 0 6 -8l1 -682q0 -6 -5 -6h-88l-173 368l7 -360q0 -8 -9 -8h-100zM305 753q-28 0 -51.5 10.5t-42.5 21t-36 10.5q-19 0 -29 -9.5t-10 -23.5q0 -4 -4 -4h-90q-4 0 -4 4q0 26 15.5 53.5t44 46.5t68.5 19
q29 0 51 -9.5t39.5 -19.5t30.5 -10q14 0 24.5 9t10.5 28q0 4 4 4h90q4 0 4 -4q0 -41 -16.5 -69t-43 -42.5t-55.5 -14.5z" />
    <glyph glyph-name="ograve" unicode="&#xf2;" horiz-adv-x="457" 
d="M225 -10q-54 0 -98.5 27.5t-71.5 73t-27 100.5l1 317q0 55 26.5 100t71.5 72t98 27q54 0 98 -27t70.5 -72t26.5 -100l1 -317q0 -55 -26.5 -100.5t-71 -73t-98.5 -27.5zM225 111q30 0 52.5 24.5t22.5 55.5l-1 317q0 33 -21 56t-53 23q-31 0 -53 -22.5t-22 -56.5v-317
q0 -33 22 -56.5t53 -23.5zM178 747q-4 0 -6 4l-93 173q-2 4 4 4h114q4 0 5 -4l80 -173q1 -4 -4 -4h-100z" />
    <glyph glyph-name="oacute" unicode="&#xf3;" horiz-adv-x="457" 
d="M225 -10q-54 0 -98.5 27.5t-71.5 73t-27 100.5l1 317q0 55 26.5 100t71.5 72t98 27q54 0 98 -27t70.5 -72t26.5 -100l1 -317q0 -55 -26.5 -100.5t-71 -73t-98.5 -27.5zM225 111q30 0 52.5 24.5t22.5 55.5l-1 317q0 33 -21 56t-53 23q-31 0 -53 -22.5t-22 -56.5v-317
q0 -33 22 -56.5t53 -23.5zM164 747q-5 0 -4 4l80 173q1 4 5 4h114q6 0 4 -4l-93 -173q-2 -4 -6 -4h-100z" />
    <glyph glyph-name="ocircumflex" unicode="&#xf4;" horiz-adv-x="457" 
d="M225 -10q-54 0 -98.5 27.5t-71.5 73t-27 100.5l1 317q0 55 26.5 100t71.5 72t98 27q54 0 98 -27t70.5 -72t26.5 -100l1 -317q0 -55 -26.5 -100.5t-71 -73t-98.5 -27.5zM225 111q30 0 52.5 24.5t22.5 55.5l-1 317q0 33 -21 56t-53 23q-31 0 -53 -22.5t-22 -56.5v-317
q0 -33 22 -56.5t53 -23.5zM34 748q-6 0 -4 4l130 153q2 4 6 4h115q4 0 6 -4l130 -153q2 -4 -4 -4h-117q-4 0 -5 4l-70 87l-71 -87q-1 -4 -5 -4h-111z" />
    <glyph glyph-name="otilde" unicode="&#xf5;" horiz-adv-x="458" 
d="M303 753q-28 0 -51.5 10.5t-42.5 21t-36 10.5q-19 0 -29 -9.5t-10 -23.5q0 -4 -4 -4h-90q-4 0 -4 4q0 26 15.5 53.5t44 46.5t68.5 19q29 0 51 -9.5t39.5 -19.5t30.5 -10q14 0 24.5 9t10.5 28q0 4 4 4h90q4 0 4 -4q0 -41 -16.5 -69t-43 -42.5t-55.5 -14.5zM225 -10
q-54 0 -98.5 27.5t-71.5 73t-27 100.5l1 317q0 55 26.5 100t71.5 72t98 27q54 0 98 -27t70.5 -72t26.5 -100l1 -317q0 -55 -26.5 -100.5t-71 -73t-98.5 -27.5zM225 111q30 0 52.5 24.5t22.5 55.5l-1 317q0 33 -21 56t-53 23q-31 0 -53 -22.5t-22 -56.5v-317q0 -33 22 -56.5
t53 -23.5z" />
    <glyph glyph-name="odieresis" unicode="&#xf6;" horiz-adv-x="457" 
d="M225 -10q-54 0 -98.5 27.5t-71.5 73t-27 100.5l1 317q0 55 26.5 100t71.5 72t98 27q54 0 98 -27t70.5 -72t26.5 -100l1 -317q0 -55 -26.5 -100.5t-71 -73t-98.5 -27.5zM225 111q30 0 52.5 24.5t22.5 55.5l-1 317q0 33 -21 56t-53 23q-31 0 -53 -22.5t-22 -56.5v-317
q0 -33 22 -56.5t53 -23.5zM272 764q-4 0 -4 4v113q0 4 4 4h113q4 0 4 -4v-113q0 -4 -4 -4h-113zM64 764q-4 0 -4 4v113q0 4 4 4h113q4 0 4 -4v-113q0 -4 -4 -4h-113z" />
    <glyph glyph-name="divide" unicode="&#xf7;" horiz-adv-x="442" 
d="M176 481q-5 0 -5 4v97q0 4 4 4h85q4 0 4 -4v-97q0 -4 -5 -4h-83zM29 312q-6 0 -6 5v79q0 6 6 6h384q5 0 5 -6v-79q0 -5 -5 -5h-384zM176 128q-5 0 -5 5v96q0 4 4 4h85q4 0 4 -4v-96q0 -5 -5 -5h-83z" />
    <glyph glyph-name="oslash" unicode="&#xf8;" horiz-adv-x="458" 
d="M-21 -37q-2 0 -3.5 2t-0.5 4l73 134q-20 41 -20 88l1 317q0 55 26.5 100t71.5 72t98 27q37 0 69.5 -13t58.5 -36l39 71q2 3 6 3h76q8 0 4 -8l-74 -136q16 -38 16 -80l1 -317q0 -55 -26.5 -100.5t-71 -73t-98.5 -27.5q-35 0 -66.5 12t-57.5 33l-38 -70q-2 -2 -5 -2h-79z
M150 508v-220l141 257q-9 19 -26.5 30.5t-39.5 11.5q-31 0 -53 -22.5t-22 -56.5zM225 111q30 0 52.5 24.5t22.5 55.5l-1 206l-136 -250q10 -16 26.5 -26t35.5 -10z" />
    <glyph glyph-name="ugrave" unicode="&#xf9;" horiz-adv-x="460" 
d="M224 -10q-53 0 -98 27.5t-71.5 73.5t-26.5 101l2 500q0 4 4 4h112q4 0 4 -4v-500q0 -34 21.5 -57.5t52.5 -23.5q32 0 53.5 23.5t21.5 57.5v500q0 4 4 4h112q4 0 4 -4l2 -500q0 -56 -26.5 -102t-71 -73t-99.5 -27zM176 747q-4 0 -6 4l-93 173q-2 4 4 4h114q4 0 5 -4
l80 -173q1 -4 -4 -4h-100z" />
    <glyph glyph-name="uacute" unicode="&#xfa;" horiz-adv-x="460" 
d="M224 -10q-53 0 -98 27.5t-71.5 73.5t-26.5 101l2 500q0 4 4 4h112q4 0 4 -4v-500q0 -34 21.5 -57.5t52.5 -23.5q32 0 53.5 23.5t21.5 57.5v500q0 4 4 4h112q4 0 4 -4l2 -500q0 -56 -26.5 -102t-71 -73t-99.5 -27zM162 747q-5 0 -4 4l80 173q1 4 5 4h114q6 0 4 -4
l-93 -173q-2 -4 -6 -4h-100z" />
    <glyph glyph-name="ucircumflex" unicode="&#xfb;" horiz-adv-x="460" 
d="M224 -10q-53 0 -98 27.5t-71.5 73.5t-26.5 101l2 500q0 4 4 4h112q4 0 4 -4v-500q0 -34 21.5 -57.5t52.5 -23.5q32 0 53.5 23.5t21.5 57.5v500q0 4 4 4h112q4 0 4 -4l2 -500q0 -56 -26.5 -102t-71 -73t-99.5 -27zM32 748q-6 0 -4 4l130 153q2 4 6 4h115q4 0 6 -4
l130 -153q2 -4 -4 -4h-117q-4 0 -5 4l-70 87l-71 -87q-1 -4 -5 -4h-111z" />
    <glyph glyph-name="udieresis" unicode="&#xfc;" horiz-adv-x="460" 
d="M224 -10q-53 0 -98 27.5t-71.5 73.5t-26.5 101l2 500q0 4 4 4h112q4 0 4 -4v-500q0 -34 21.5 -57.5t52.5 -23.5q32 0 53.5 23.5t21.5 57.5v500q0 4 4 4h112q4 0 4 -4l2 -500q0 -56 -26.5 -102t-71 -73t-99.5 -27zM270 764q-4 0 -4 4v113q0 4 4 4h113q4 0 4 -4v-113
q0 -4 -4 -4h-113zM62 764q-4 0 -4 4v113q0 4 4 4h113q4 0 4 -4v-113q0 -4 -4 -4h-113z" />
    <glyph glyph-name="yacute" unicode="&#xfd;" horiz-adv-x="401" 
d="M133 0q-3 0 -3 4l1 284l-134 404q-1 4 3 4h111q5 0 6 -4l74 -269l75 269q1 4 5 4h112q4 0 3 -4l-135 -400l1 -288q0 -4 -4 -4h-115zM130 747q-5 0 -4 4l80 173q1 4 5 4h114q6 0 4 -4l-93 -173q-2 -4 -6 -4h-100z" />
    <glyph glyph-name="thorn" unicode="&#xfe;" horiz-adv-x="458" 
d="M45 0q-5 0 -5 5l2 687q0 4 4 4h110q6 0 6 -6v-110h77q92 0 145.5 -56t53.5 -152q0 -70 -28 -122t-73.5 -80.5t-97.5 -28.5h-77v-136q0 -5 -5 -5h-112zM162 262h77q32 0 55.5 30.5t23.5 79.5q0 39 -21 64.5t-58 24.5l-77 -1v-198z" />
    <glyph glyph-name="ydieresis" unicode="&#xff;" horiz-adv-x="401" 
d="M133 0q-3 0 -3 4l1 284l-134 404q-1 4 3 4h111q5 0 6 -4l74 -269l75 269q1 4 5 4h112q4 0 3 -4l-135 -400l1 -288q0 -4 -4 -4h-115zM238 764q-4 0 -4 4v113q0 4 4 4h113q4 0 4 -4v-113q0 -4 -4 -4h-113zM30 764q-4 0 -4 4v113q0 4 4 4h113q4 0 4 -4v-113q0 -4 -4 -4h-113
z" />
    <glyph glyph-name="Amacron" unicode="&#x100;" horiz-adv-x="427" 
d="M6 5l124 687q1 4 5 4h145q4 0 5 -4l119 -687q1 -5 -4 -5h-111q-4 0 -5 5l-11 73h-136l-11 -73q-1 -5 -5 -5h-111q-4 0 -4 5zM157 185h96l-41 281l-6 37l-4 -37zM53 772q-4 0 -4 4v81q0 4 4 4h299q4 0 4 -4v-81q0 -4 -4 -4h-299z" />
    <glyph glyph-name="amacron" unicode="&#x101;" horiz-adv-x="427" 
d="M6 5l124 687q1 4 5 4h145q4 0 5 -4l119 -687q1 -5 -4 -5h-111q-4 0 -5 5l-11 73h-136l-11 -73q-1 -5 -5 -5h-111q-4 0 -4 5zM157 185h96l-41 281l-6 37l-4 -37zM53 772q-4 0 -4 4v81q0 4 4 4h299q4 0 4 -4v-81q0 -4 -4 -4h-299z" />
    <glyph glyph-name="Abreve" unicode="&#x102;" horiz-adv-x="427" 
d="M6 5l124 687q1 4 5 4h145q4 0 5 -4l119 -687q1 -5 -4 -5h-111q-4 0 -5 5l-11 73h-136l-11 -73q-1 -5 -5 -5h-111q-4 0 -4 5zM157 185h96l-41 281l-6 37l-4 -37zM204 747q-48 0 -86.5 21t-61 55t-22.5 73q-2 4 4 4h90q0 -28 22.5 -50.5t56.5 -22.5q35 0 57.5 22.5
t22.5 50.5h90q4 0 4 -4q0 -40 -23.5 -74t-63.5 -54.5t-90 -20.5z" />
    <glyph glyph-name="abreve" unicode="&#x103;" horiz-adv-x="427" 
d="M6 5l124 687q1 4 5 4h145q4 0 5 -4l119 -687q1 -5 -4 -5h-111q-4 0 -5 5l-11 73h-136l-11 -73q-1 -5 -5 -5h-111q-4 0 -4 5zM157 185h96l-41 281l-6 37l-4 -37zM204 747q-48 0 -86.5 21t-61 55t-22.5 73q-2 4 4 4h90q0 -28 22.5 -50.5t56.5 -22.5q35 0 57.5 22.5
t22.5 50.5h90q4 0 4 -4q0 -40 -23.5 -74t-63.5 -54.5t-90 -20.5z" />
    <glyph glyph-name="Aogonek" unicode="&#x104;" horiz-adv-x="427" 
d="M6 5l124 687q1 4 5 4h145q4 0 5 -4l119 -687q1 -5 -4 -5h-111q-4 0 -5 5l-11 73h-136l-11 -73q-1 -5 -5 -5h-111q-4 0 -4 5zM157 185h96l-41 281l-6 37l-4 -37zM396 -295q-71 0 -115 22t-64.5 59t-20.5 80q0 62 46.5 105.5t120.5 72.5l37 -44q-61 -31 -80.5 -55
t-19.5 -53q0 -31 24 -49.5t71 -18.5q3 0 4 -2.5t1 -10.5l1 -98q0 -8 -5 -8z" />
    <glyph glyph-name="aogonek" unicode="&#x105;" horiz-adv-x="427" 
d="M6 5l124 687q1 4 5 4h145q4 0 5 -4l119 -687q1 -5 -4 -5h-111q-4 0 -5 5l-11 73h-136l-11 -73q-1 -5 -5 -5h-111q-4 0 -4 5zM157 185h96l-41 281l-6 37l-4 -37zM396 -295q-71 0 -115 22t-64.5 59t-20.5 80q0 62 46.5 105.5t120.5 72.5l37 -44q-61 -31 -80.5 -55
t-19.5 -53q0 -31 24 -49.5t71 -18.5q3 0 4 -2.5t1 -10.5l1 -98q0 -8 -5 -8z" />
    <glyph glyph-name="Cacute" unicode="&#x106;" horiz-adv-x="453" 
d="M224 -10q-55 0 -99.5 27.5t-70.5 73.5t-26 103l1 312q0 55 25.5 100.5t70 73t99.5 27.5t99 -27t70 -72.5t26 -101.5v-46q0 -4 -4 -4h-112q-4 0 -4 4v46q0 33 -21.5 57t-53.5 24q-36 0 -55 -24.5t-19 -56.5v-312q0 -37 21.5 -60t52.5 -23q32 0 53.5 25.5t21.5 57.5v46
q0 4 4 4h113q4 0 4 -4v-46q0 -57 -26.5 -103t-70.5 -73.5t-99 -27.5zM165 747q-5 0 -4 4l80 173q1 4 5 4h114q6 0 4 -4l-93 -173q-2 -4 -6 -4h-100z" />
    <glyph glyph-name="cacute" unicode="&#x107;" horiz-adv-x="453" 
d="M224 -10q-55 0 -99.5 27.5t-70.5 73.5t-26 103l1 312q0 55 25.5 100.5t70 73t99.5 27.5t99 -27t70 -72.5t26 -101.5v-46q0 -4 -4 -4h-112q-4 0 -4 4v46q0 33 -21.5 57t-53.5 24q-36 0 -55 -24.5t-19 -56.5v-312q0 -37 21.5 -60t52.5 -23q32 0 53.5 25.5t21.5 57.5v46
q0 4 4 4h113q4 0 4 -4v-46q0 -57 -26.5 -103t-70.5 -73.5t-99 -27.5zM165 747q-5 0 -4 4l80 173q1 4 5 4h114q6 0 4 -4l-93 -173q-2 -4 -6 -4h-100z" />
    <glyph glyph-name="Ccircumflex" unicode="&#x108;" horiz-adv-x="453" 
d="M224 -10q-55 0 -99.5 27.5t-70.5 73.5t-26 103l1 312q0 55 25.5 100.5t70 73t99.5 27.5t99 -27t70 -72.5t26 -101.5v-46q0 -4 -4 -4h-112q-4 0 -4 4v46q0 33 -21.5 57t-53.5 24q-36 0 -55 -24.5t-19 -56.5v-312q0 -37 21.5 -60t52.5 -23q32 0 53.5 25.5t21.5 57.5v46
q0 4 4 4h113q4 0 4 -4v-46q0 -57 -26.5 -103t-70.5 -73.5t-99 -27.5zM35 748q-6 0 -4 4l130 153q2 4 6 4h115q4 0 6 -4l130 -153q2 -4 -4 -4h-117q-4 0 -5 4l-70 87l-71 -87q-1 -4 -5 -4h-111z" />
    <glyph glyph-name="ccircumflex" unicode="&#x109;" horiz-adv-x="453" 
d="M224 -10q-55 0 -99.5 27.5t-70.5 73.5t-26 103l1 312q0 55 25.5 100.5t70 73t99.5 27.5t99 -27t70 -72.5t26 -101.5v-46q0 -4 -4 -4h-112q-4 0 -4 4v46q0 33 -21.5 57t-53.5 24q-36 0 -55 -24.5t-19 -56.5v-312q0 -37 21.5 -60t52.5 -23q32 0 53.5 25.5t21.5 57.5v46
q0 4 4 4h113q4 0 4 -4v-46q0 -57 -26.5 -103t-70.5 -73.5t-99 -27.5zM35 748q-6 0 -4 4l130 153q2 4 6 4h115q4 0 6 -4l130 -153q2 -4 -4 -4h-117q-4 0 -5 4l-70 87l-71 -87q-1 -4 -5 -4h-111z" />
    <glyph glyph-name="Cdotaccent" unicode="&#x10a;" horiz-adv-x="453" 
d="M224 -10q-55 0 -99.5 27.5t-70.5 73.5t-26 103l1 312q0 55 25.5 100.5t70 73t99.5 27.5t99 -27t70 -72.5t26 -101.5v-46q0 -4 -4 -4h-112q-4 0 -4 4v46q0 33 -21.5 57t-53.5 24q-36 0 -55 -24.5t-19 -56.5v-312q0 -37 21.5 -60t52.5 -23q32 0 53.5 25.5t21.5 57.5v46
q0 4 4 4h113q4 0 4 -4v-46q0 -57 -26.5 -103t-70.5 -73.5t-99 -27.5zM167 764q-4 0 -4 4v113q0 4 4 4h113q4 0 4 -4v-113q0 -4 -4 -4h-113z" />
    <glyph glyph-name="cdotaccent" unicode="&#x10b;" horiz-adv-x="453" 
d="M224 -10q-55 0 -99.5 27.5t-70.5 73.5t-26 103l1 312q0 55 25.5 100.5t70 73t99.5 27.5t99 -27t70 -72.5t26 -101.5v-46q0 -4 -4 -4h-112q-4 0 -4 4v46q0 33 -21.5 57t-53.5 24q-36 0 -55 -24.5t-19 -56.5v-312q0 -37 21.5 -60t52.5 -23q32 0 53.5 25.5t21.5 57.5v46
q0 4 4 4h113q4 0 4 -4v-46q0 -57 -26.5 -103t-70.5 -73.5t-99 -27.5zM167 764q-4 0 -4 4v113q0 4 4 4h113q4 0 4 -4v-113q0 -4 -4 -4h-113z" />
    <glyph glyph-name="Ccaron" unicode="&#x10c;" horiz-adv-x="453" 
d="M224 -10q-55 0 -99.5 27.5t-70.5 73.5t-26 103l1 312q0 55 25.5 100.5t70 73t99.5 27.5t99 -27t70 -72.5t26 -101.5v-46q0 -4 -4 -4h-112q-4 0 -4 4v46q0 33 -21.5 57t-53.5 24q-36 0 -55 -24.5t-19 -56.5v-312q0 -37 21.5 -60t52.5 -23q32 0 53.5 25.5t21.5 57.5v46
q0 4 4 4h113q4 0 4 -4v-46q0 -57 -26.5 -103t-70.5 -73.5t-99 -27.5zM167 750q-4 0 -6 4l-130 153q-2 4 4 4h114q4 0 5 -4l70 -87l71 87q1 4 5 4h114q6 0 4 -4l-130 -153q-2 -4 -6 -4h-115z" />
    <glyph glyph-name="ccaron" unicode="&#x10d;" horiz-adv-x="453" 
d="M224 -10q-55 0 -99.5 27.5t-70.5 73.5t-26 103l1 312q0 55 25.5 100.5t70 73t99.5 27.5t99 -27t70 -72.5t26 -101.5v-46q0 -4 -4 -4h-112q-4 0 -4 4v46q0 33 -21.5 57t-53.5 24q-36 0 -55 -24.5t-19 -56.5v-312q0 -37 21.5 -60t52.5 -23q32 0 53.5 25.5t21.5 57.5v46
q0 4 4 4h113q4 0 4 -4v-46q0 -57 -26.5 -103t-70.5 -73.5t-99 -27.5zM167 750q-4 0 -6 4l-130 153q-2 4 4 4h114q4 0 5 -4l70 -87l71 87q1 4 5 4h114q6 0 4 -4l-130 -153q-2 -4 -6 -4h-115z" />
    <glyph glyph-name="Dcaron" unicode="&#x10e;" horiz-adv-x="472" 
d="M45 0q-5 0 -5 5l2 687q0 4 4 4l187 1q55 1 100.5 -26t72.5 -72.5t27 -100.5v-287q0 -58 -28 -105.5t-75 -75.5t-106 -29zM162 123h62q37 0 62.5 26t25.5 62v288q0 32 -23.5 55.5t-55.5 22.5l-70 -1zM163 750q-4 0 -6 4l-130 153q-2 4 4 4h114q4 0 5 -4l70 -87l71 87
q1 4 5 4h114q6 0 4 -4l-130 -153q-2 -4 -6 -4h-115z" />
    <glyph glyph-name="dcaron" unicode="&#x10f;" horiz-adv-x="472" 
d="M45 0q-5 0 -5 5l2 687q0 4 4 4l187 1q55 1 100.5 -26t72.5 -72.5t27 -100.5v-287q0 -58 -28 -105.5t-75 -75.5t-106 -29zM162 123h62q37 0 62.5 26t25.5 62v288q0 32 -23.5 55.5t-55.5 22.5l-70 -1zM163 750q-4 0 -6 4l-130 153q-2 4 4 4h114q4 0 5 -4l70 -87l71 87
q1 4 5 4h114q6 0 4 -4l-130 -153q-2 -4 -6 -4h-115z" />
    <glyph glyph-name="Dcroat" unicode="&#x110;" horiz-adv-x="472" 
d="M45 0q-5 0 -5 5l1 305h-51q-4 0 -4 5v104q0 5 5 5h50l1 268q0 4 4 4l187 1q55 1 100.5 -26t72.5 -72.5t27 -100.5v-287q0 -58 -28 -105.5t-75 -75.5t-106 -29zM162 123h62q37 0 62.5 26t25.5 62v288q0 32 -23.5 55.5t-55.5 22.5l-70 -1v-152h78q4 0 4 -5v-104q0 -5 -4 -5
h-79v-187z" />
    <glyph glyph-name="dcroat" unicode="&#x111;" horiz-adv-x="472" 
d="M45 0q-5 0 -5 5l1 305h-51q-4 0 -4 5v104q0 5 5 5h50l1 268q0 4 4 4l187 1q55 1 100.5 -26t72.5 -72.5t27 -100.5v-287q0 -58 -28 -105.5t-75 -75.5t-106 -29zM162 123h62q37 0 62.5 26t25.5 62v288q0 32 -23.5 55.5t-55.5 22.5l-70 -1v-152h78q4 0 4 -5v-104q0 -5 -4 -5
h-79v-187z" />
    <glyph glyph-name="Emacron" unicode="&#x112;" horiz-adv-x="420" 
d="M44 0q-4 0 -4 5l1 687q0 4 4 4h321q4 0 4 -5v-112q0 -4 -4 -4h-205v-156h205q4 0 4 -4l1 -113q0 -4 -4 -4h-206v-175h206q4 0 4 -5v-114q0 -4 -4 -4h-323zM51 772q-4 0 -4 4v81q0 4 4 4h299q4 0 4 -4v-81q0 -4 -4 -4h-299z" />
    <glyph glyph-name="emacron" unicode="&#x113;" horiz-adv-x="420" 
d="M44 0q-4 0 -4 5l1 687q0 4 4 4h321q4 0 4 -5v-112q0 -4 -4 -4h-205v-156h205q4 0 4 -4l1 -113q0 -4 -4 -4h-206v-175h206q4 0 4 -5v-114q0 -4 -4 -4h-323zM51 772q-4 0 -4 4v81q0 4 4 4h299q4 0 4 -4v-81q0 -4 -4 -4h-299z" />
    <glyph glyph-name="Ebreve" unicode="&#x114;" horiz-adv-x="420" 
d="M44 0q-4 0 -4 5l1 687q0 4 4 4h321q4 0 4 -5v-112q0 -4 -4 -4h-205v-156h205q4 0 4 -4l1 -113q0 -4 -4 -4h-206v-175h206q4 0 4 -5v-114q0 -4 -4 -4h-323zM202 747q-48 0 -86.5 21t-61 55t-22.5 73q-2 4 4 4h90q0 -28 22.5 -50.5t56.5 -22.5q35 0 57.5 22.5t22.5 50.5h90
q4 0 4 -4q0 -40 -23.5 -74t-63.5 -54.5t-90 -20.5z" />
    <glyph glyph-name="ebreve" unicode="&#x115;" horiz-adv-x="420" 
d="M44 0q-4 0 -4 5l1 687q0 4 4 4h321q4 0 4 -5v-112q0 -4 -4 -4h-205v-156h205q4 0 4 -4l1 -113q0 -4 -4 -4h-206v-175h206q4 0 4 -5v-114q0 -4 -4 -4h-323zM202 747q-48 0 -86.5 21t-61 55t-22.5 73q-2 4 4 4h90q0 -28 22.5 -50.5t56.5 -22.5q35 0 57.5 22.5t22.5 50.5h90
q4 0 4 -4q0 -40 -23.5 -74t-63.5 -54.5t-90 -20.5z" />
    <glyph glyph-name="Edotaccent" unicode="&#x116;" horiz-adv-x="420" 
d="M44 0q-4 0 -4 5l1 687q0 4 4 4h321q4 0 4 -5v-112q0 -4 -4 -4h-205v-156h205q4 0 4 -4l1 -113q0 -4 -4 -4h-206v-175h206q4 0 4 -5v-114q0 -4 -4 -4h-323zM145 764q-4 0 -4 4v113q0 4 4 4h113q4 0 4 -4v-113q0 -4 -4 -4h-113z" />
    <glyph glyph-name="edotaccent" unicode="&#x117;" horiz-adv-x="420" 
d="M44 0q-4 0 -4 5l1 687q0 4 4 4h321q4 0 4 -5v-112q0 -4 -4 -4h-205v-156h205q4 0 4 -4l1 -113q0 -4 -4 -4h-206v-175h206q4 0 4 -5v-114q0 -4 -4 -4h-323zM145 764q-4 0 -4 4v113q0 4 4 4h113q4 0 4 -4v-113q0 -4 -4 -4h-113z" />
    <glyph glyph-name="Eogonek" unicode="&#x118;" horiz-adv-x="420" 
d="M44 0q-4 0 -4 5l1 687q0 4 4 4h321q4 0 4 -5v-112q0 -4 -4 -4h-205v-156h205q4 0 4 -4l1 -113q0 -4 -4 -4h-206v-175h206q4 0 4 -5v-114q0 -4 -4 -4h-323zM364 -295q-71 0 -115 22t-64.5 59t-20.5 80q0 62 46.5 105.5t120.5 72.5l37 -44q-61 -31 -80.5 -55t-19.5 -53
q0 -31 24 -49.5t71 -18.5q3 0 4 -2.5t1 -10.5l1 -98q0 -8 -5 -8z" />
    <glyph glyph-name="eogonek" unicode="&#x119;" horiz-adv-x="420" 
d="M44 0q-4 0 -4 5l1 687q0 4 4 4h321q4 0 4 -5v-112q0 -4 -4 -4h-205v-156h205q4 0 4 -4l1 -113q0 -4 -4 -4h-206v-175h206q4 0 4 -5v-114q0 -4 -4 -4h-323zM364 -295q-71 0 -115 22t-64.5 59t-20.5 80q0 62 46.5 105.5t120.5 72.5l37 -44q-61 -31 -80.5 -55t-19.5 -53
q0 -31 24 -49.5t71 -18.5q3 0 4 -2.5t1 -10.5l1 -98q0 -8 -5 -8z" />
    <glyph glyph-name="Ecaron" unicode="&#x11a;" horiz-adv-x="420" 
d="M44 0q-4 0 -4 5l1 687q0 4 4 4h321q4 0 4 -5v-112q0 -4 -4 -4h-205v-156h205q4 0 4 -4l1 -113q0 -4 -4 -4h-206v-175h206q4 0 4 -5v-114q0 -4 -4 -4h-323zM145 750q-4 0 -6 4l-130 153q-2 4 4 4h114q4 0 5 -4l70 -87l71 87q1 4 5 4h114q6 0 4 -4l-130 -153q-2 -4 -6 -4
h-115z" />
    <glyph glyph-name="ecaron" unicode="&#x11b;" horiz-adv-x="420" 
d="M44 0q-4 0 -4 5l1 687q0 4 4 4h321q4 0 4 -5v-112q0 -4 -4 -4h-205v-156h205q4 0 4 -4l1 -113q0 -4 -4 -4h-206v-175h206q4 0 4 -5v-114q0 -4 -4 -4h-323zM145 750q-4 0 -6 4l-130 153q-2 4 4 4h114q4 0 5 -4l70 -87l71 87q1 4 5 4h114q6 0 4 -4l-130 -153q-2 -4 -6 -4
h-115z" />
    <glyph glyph-name="Gcircumflex" unicode="&#x11c;" horiz-adv-x="450" 
d="M223 -10q-54 0 -98 27t-70.5 72.5t-26.5 101.5v317q0 54 26.5 99.5t71 72.5t97.5 27q55 0 99.5 -26.5t70.5 -71.5t26 -101v-46q0 -4 -5 -4h-112q-4 0 -4 4v38q0 38 -21.5 63t-53.5 25q-29 0 -51.5 -24t-22.5 -56v-317q0 -33 22 -56.5t52 -23.5q32 0 53.5 23t21.5 57v49
h-70q-5 0 -5 5v112q0 5 5 5h187q4 0 4 -5v-166q0 -56 -26.5 -101.5t-70.5 -72.5t-99 -27zM35 748q-6 0 -4 4l130 153q2 4 6 4h115q4 0 6 -4l130 -153q2 -4 -4 -4h-117q-4 0 -5 4l-70 87l-71 -87q-1 -4 -5 -4h-111z" />
    <glyph glyph-name="gcircumflex" unicode="&#x11d;" horiz-adv-x="450" 
d="M223 -10q-54 0 -98 27t-70.5 72.5t-26.5 101.5v317q0 54 26.5 99.5t71 72.5t97.5 27q55 0 99.5 -26.5t70.5 -71.5t26 -101v-46q0 -4 -5 -4h-112q-4 0 -4 4v38q0 38 -21.5 63t-53.5 25q-29 0 -51.5 -24t-22.5 -56v-317q0 -33 22 -56.5t52 -23.5q32 0 53.5 23t21.5 57v49
h-70q-5 0 -5 5v112q0 5 5 5h187q4 0 4 -5v-166q0 -56 -26.5 -101.5t-70.5 -72.5t-99 -27zM35 748q-6 0 -4 4l130 153q2 4 6 4h115q4 0 6 -4l130 -153q2 -4 -4 -4h-117q-4 0 -5 4l-70 87l-71 -87q-1 -4 -5 -4h-111z" />
    <glyph glyph-name="Gbreve" unicode="&#x11e;" horiz-adv-x="450" 
d="M223 -10q-54 0 -98 27t-70.5 72.5t-26.5 101.5v317q0 54 26.5 99.5t71 72.5t97.5 27q55 0 99.5 -26.5t70.5 -71.5t26 -101v-46q0 -4 -5 -4h-112q-4 0 -4 4v38q0 38 -21.5 63t-53.5 25q-29 0 -51.5 -24t-22.5 -56v-317q0 -33 22 -56.5t52 -23.5q32 0 53.5 23t21.5 57v49
h-70q-5 0 -5 5v112q0 5 5 5h187q4 0 4 -5v-166q0 -56 -26.5 -101.5t-70.5 -72.5t-99 -27zM224 747q-48 0 -86.5 21t-61 55t-22.5 73q-2 4 4 4h90q0 -28 22.5 -50.5t56.5 -22.5q35 0 57.5 22.5t22.5 50.5h90q4 0 4 -4q0 -40 -23.5 -74t-63.5 -54.5t-90 -20.5z" />
    <glyph glyph-name="gbreve" unicode="&#x11f;" horiz-adv-x="450" 
d="M223 -10q-54 0 -98 27t-70.5 72.5t-26.5 101.5v317q0 54 26.5 99.5t71 72.5t97.5 27q55 0 99.5 -26.5t70.5 -71.5t26 -101v-46q0 -4 -5 -4h-112q-4 0 -4 4v38q0 38 -21.5 63t-53.5 25q-29 0 -51.5 -24t-22.5 -56v-317q0 -33 22 -56.5t52 -23.5q32 0 53.5 23t21.5 57v49
h-70q-5 0 -5 5v112q0 5 5 5h187q4 0 4 -5v-166q0 -56 -26.5 -101.5t-70.5 -72.5t-99 -27zM224 747q-48 0 -86.5 21t-61 55t-22.5 73q-2 4 4 4h90q0 -28 22.5 -50.5t56.5 -22.5q35 0 57.5 22.5t22.5 50.5h90q4 0 4 -4q0 -40 -23.5 -74t-63.5 -54.5t-90 -20.5z" />
    <glyph glyph-name="Gdotaccent" unicode="&#x120;" horiz-adv-x="450" 
d="M223 -10q-54 0 -98 27t-70.5 72.5t-26.5 101.5v317q0 54 26.5 99.5t71 72.5t97.5 27q55 0 99.5 -26.5t70.5 -71.5t26 -101v-46q0 -4 -5 -4h-112q-4 0 -4 4v38q0 38 -21.5 63t-53.5 25q-29 0 -51.5 -24t-22.5 -56v-317q0 -33 22 -56.5t52 -23.5q32 0 53.5 23t21.5 57v49
h-70q-5 0 -5 5v112q0 5 5 5h187q4 0 4 -5v-166q0 -56 -26.5 -101.5t-70.5 -72.5t-99 -27zM167 764q-4 0 -4 4v113q0 4 4 4h113q4 0 4 -4v-113q0 -4 -4 -4h-113z" />
    <glyph glyph-name="gdotaccent" unicode="&#x121;" horiz-adv-x="450" 
d="M223 -10q-54 0 -98 27t-70.5 72.5t-26.5 101.5v317q0 54 26.5 99.5t71 72.5t97.5 27q55 0 99.5 -26.5t70.5 -71.5t26 -101v-46q0 -4 -5 -4h-112q-4 0 -4 4v38q0 38 -21.5 63t-53.5 25q-29 0 -51.5 -24t-22.5 -56v-317q0 -33 22 -56.5t52 -23.5q32 0 53.5 23t21.5 57v49
h-70q-5 0 -5 5v112q0 5 5 5h187q4 0 4 -5v-166q0 -56 -26.5 -101.5t-70.5 -72.5t-99 -27zM167 764q-4 0 -4 4v113q0 4 4 4h113q4 0 4 -4v-113q0 -4 -4 -4h-113z" />
    <glyph glyph-name="uni0122" unicode="&#x122;" horiz-adv-x="450" 
d="M223 -10q-54 0 -98 27t-70.5 72.5t-26.5 101.5v317q0 54 26.5 99.5t71 72.5t97.5 27q55 0 99.5 -26.5t70.5 -71.5t26 -101v-46q0 -4 -5 -4h-112q-4 0 -4 4v38q0 38 -21.5 63t-53.5 25q-29 0 -51.5 -24t-22.5 -56v-317q0 -33 22 -56.5t52 -23.5q32 0 53.5 23t21.5 57v49
h-70q-5 0 -5 5v112q0 5 5 5h187q4 0 4 -5v-166q0 -56 -26.5 -101.5t-70.5 -72.5t-99 -27zM166 -295v62q25 0 42.5 19t17.5 45h-56q-4 0 -4 4v112q0 4 4 4h113q4 0 4 -4v-116q0 -35 -17 -64t-44.5 -45.5t-59.5 -16.5z" />
    <glyph glyph-name="uni0123" unicode="&#x123;" horiz-adv-x="450" 
d="M223 -10q-54 0 -98 27t-70.5 72.5t-26.5 101.5v317q0 54 26.5 99.5t71 72.5t97.5 27q55 0 99.5 -26.5t70.5 -71.5t26 -101v-46q0 -4 -5 -4h-112q-4 0 -4 4v38q0 38 -21.5 63t-53.5 25q-29 0 -51.5 -24t-22.5 -56v-317q0 -33 22 -56.5t52 -23.5q32 0 53.5 23t21.5 57v49
h-70q-5 0 -5 5v112q0 5 5 5h187q4 0 4 -5v-166q0 -56 -26.5 -101.5t-70.5 -72.5t-99 -27zM166 -295v62q25 0 42.5 19t17.5 45h-56q-4 0 -4 4v112q0 4 4 4h113q4 0 4 -4v-116q0 -35 -17 -64t-44.5 -45.5t-59.5 -16.5z" />
    <glyph glyph-name="Hcircumflex" unicode="&#x124;" horiz-adv-x="475" 
d="M44 0q-4 0 -4 5l1 687q0 4 5 4h111q5 0 5 -4l-1 -272h150v272q0 4 4 4h111q5 0 5 -4l2 -687q0 -5 -5 -5h-112q-5 0 -5 5v294h-150v-294q0 -5 -4 -5h-113zM44 748q-6 0 -4 4l130 153q2 4 6 4h115q4 0 6 -4l130 -153q2 -4 -4 -4h-117q-4 0 -5 4l-70 87l-71 -87q-1 -4 -5 -4
h-111z" />
    <glyph glyph-name="hcircumflex" unicode="&#x125;" horiz-adv-x="475" 
d="M44 0q-4 0 -4 5l1 687q0 4 5 4h111q5 0 5 -4l-1 -272h150v272q0 4 4 4h111q5 0 5 -4l2 -687q0 -5 -5 -5h-112q-5 0 -5 5v294h-150v-294q0 -5 -4 -5h-113zM44 748q-6 0 -4 4l130 153q2 4 6 4h115q4 0 6 -4l130 -153q2 -4 -4 -4h-117q-4 0 -5 4l-70 87l-71 -87q-1 -4 -5 -4
h-111z" />
    <glyph glyph-name="Hbar" unicode="&#x126;" horiz-adv-x="475" 
d="M44 0q-4 0 -4 5l1 507h-50q-4 0 -4 5v95q0 5 5 5h49v75q0 4 5 4h111q5 0 5 -4v-75h149v75q0 4 4 4h111q5 0 5 -4v-75h49q4 0 4 -5v-95q0 -5 -4 -5h-48l1 -507q0 -5 -5 -5h-112q-5 0 -5 5v294h-150v-294q0 -5 -4 -5h-113zM161 420h150v92h-150v-92z" />
    <glyph glyph-name="hbar" unicode="&#x127;" horiz-adv-x="475" 
d="M44 0q-4 0 -4 5l1 507h-50q-4 0 -4 5v95q0 5 5 5h49v75q0 4 5 4h111q5 0 5 -4v-75h149v75q0 4 4 4h111q5 0 5 -4v-75h49q4 0 4 -5v-95q0 -5 -4 -5h-48l1 -507q0 -5 -5 -5h-112q-5 0 -5 5v294h-150v-294q0 -5 -4 -5h-113zM161 420h150v92h-150v-92z" />
    <glyph glyph-name="Itilde" unicode="&#x128;" horiz-adv-x="211" 
d="M180 753q-28 0 -51.5 10.5t-42.5 21t-36 10.5q-19 0 -29 -9.5t-10 -23.5q0 -4 -4 -4h-90q-4 0 -4 4q0 26 15.5 53.5t44 46.5t68.5 19q29 0 51 -9.5t39.5 -19.5t30.5 -10q14 0 24.5 9t10.5 28q0 4 4 4h90q4 0 4 -4q0 -41 -16.5 -69t-43 -42.5t-55.5 -14.5zM45 0q-5 0 -5 5
l1 687q0 4 4 4h112q4 0 4 -4l1 -687q0 -5 -4 -5h-113z" />
    <glyph glyph-name="itilde" unicode="&#x129;" horiz-adv-x="211" 
d="M180 753q-28 0 -51.5 10.5t-42.5 21t-36 10.5q-19 0 -29 -9.5t-10 -23.5q0 -4 -4 -4h-90q-4 0 -4 4q0 26 15.5 53.5t44 46.5t68.5 19q29 0 51 -9.5t39.5 -19.5t30.5 -10q14 0 24.5 9t10.5 28q0 4 4 4h90q4 0 4 -4q0 -41 -16.5 -69t-43 -42.5t-55.5 -14.5zM45 0q-5 0 -5 5
l1 687q0 4 4 4h112q4 0 4 -4l1 -687q0 -5 -4 -5h-113z" />
    <glyph glyph-name="Imacron" unicode="&#x12a;" horiz-adv-x="210" 
d="M45 0q-5 0 -5 5l1 687q0 4 4 4h112q4 0 4 -4l1 -687q0 -5 -4 -5h-113zM-48 772q-4 0 -4 4v81q0 4 4 4h299q4 0 4 -4v-81q0 -4 -4 -4h-299z" />
    <glyph glyph-name="imacron" unicode="&#x12b;" horiz-adv-x="210" 
d="M45 0q-5 0 -5 5l1 687q0 4 4 4h112q4 0 4 -4l1 -687q0 -5 -4 -5h-113zM-48 772q-4 0 -4 4v81q0 4 4 4h299q4 0 4 -4v-81q0 -4 -4 -4h-299z" />
    <glyph glyph-name="Ibreve" unicode="&#x12c;" horiz-adv-x="210" 
d="M45 0q-5 0 -5 5l1 687q0 4 4 4h112q4 0 4 -4l1 -687q0 -5 -4 -5h-113zM103 747q-48 0 -86.5 21t-61 55t-22.5 73q-2 4 4 4h90q0 -28 22.5 -50.5t56.5 -22.5q35 0 57.5 22.5t22.5 50.5h90q4 0 4 -4q0 -40 -23.5 -74t-63.5 -54.5t-90 -20.5z" />
    <glyph glyph-name="ibreve" unicode="&#x12d;" horiz-adv-x="210" 
d="M45 0q-5 0 -5 5l1 687q0 4 4 4h112q4 0 4 -4l1 -687q0 -5 -4 -5h-113zM103 747q-48 0 -86.5 21t-61 55t-22.5 73q-2 4 4 4h90q0 -28 22.5 -50.5t56.5 -22.5q35 0 57.5 22.5t22.5 50.5h90q4 0 4 -4q0 -40 -23.5 -74t-63.5 -54.5t-90 -20.5z" />
    <glyph glyph-name="Iogonek" unicode="&#x12e;" horiz-adv-x="210" 
d="M45 0q-5 0 -5 5l1 687q0 4 4 4h112q4 0 4 -4l1 -687q0 -5 -4 -5h-113zM155 -295q-71 0 -115 22t-64.5 59t-20.5 80q0 62 46.5 105.5t120.5 72.5l37 -44q-61 -31 -80.5 -55t-19.5 -53q0 -31 24 -49.5t71 -18.5q3 0 4 -2.5t1 -10.5l1 -98q0 -8 -5 -8z" />
    <glyph glyph-name="iogonek" unicode="&#x12f;" horiz-adv-x="210" 
d="M45 0q-5 0 -5 5l1 687q0 4 4 4h112q4 0 4 -4l1 -687q0 -5 -4 -5h-113zM155 -295q-71 0 -115 22t-64.5 59t-20.5 80q0 62 46.5 105.5t120.5 72.5l37 -44q-61 -31 -80.5 -55t-19.5 -53q0 -31 24 -49.5t71 -18.5q3 0 4 -2.5t1 -10.5l1 -98q0 -8 -5 -8z" />
    <glyph glyph-name="Idotaccent" unicode="&#x130;" horiz-adv-x="210" 
d="M45 0q-5 0 -5 5l1 687q0 4 4 4h112q4 0 4 -4l1 -687q0 -5 -4 -5h-113zM46 764q-4 0 -4 4v113q0 4 4 4h113q4 0 4 -4v-113q0 -4 -4 -4h-113z" />
    <glyph glyph-name="dotlessi" unicode="&#x131;" horiz-adv-x="210" 
d="M45 0q-5 0 -5 5l1 687q0 4 4 4h112q4 0 4 -4l1 -687q0 -5 -4 -5h-113z" />
    <glyph glyph-name="IJ" unicode="&#x132;" horiz-adv-x="596" 
d="M45 0q-5 0 -5 5l1 687q0 4 4 4h112q4 0 4 -4l1 -687q0 -5 -4 -5h-113zM388 -10q-56 0 -96.5 26.5t-61.5 73t-21 104.5v46q0 4 4 4h113q4 0 4 -5v-45q0 -37 12 -60t45 -23q30 0 41 25t11 58v497q0 4 4 4h112q4 0 4 -5l1 -496q0 -93 -47.5 -148.5t-124.5 -55.5z" />
    <glyph glyph-name="ij" unicode="&#x133;" horiz-adv-x="596" 
d="M45 0q-5 0 -5 5l1 687q0 4 4 4h112q4 0 4 -4l1 -687q0 -5 -4 -5h-113zM388 -10q-56 0 -96.5 26.5t-61.5 73t-21 104.5v46q0 4 4 4h113q4 0 4 -5v-45q0 -37 12 -60t45 -23q30 0 41 25t11 58v497q0 4 4 4h112q4 0 4 -5l1 -496q0 -93 -47.5 -148.5t-124.5 -55.5z" />
    <glyph glyph-name="Jcircumflex" unicode="&#x134;" horiz-adv-x="435" 
d="M204 -10q-56 0 -100.5 26.5t-70 73t-25.5 104.5v46q0 4 4 4h113q4 0 4 -5v-45q0 -37 21 -60t54 -23q30 0 52 25t22 58v497q0 4 4 4h112q4 0 4 -5l1 -496q0 -55 -26.5 -101.5t-70.5 -74.5t-98 -28zM152 748q-6 0 -4 4l130 153q2 4 6 4h115q4 0 6 -4l130 -153q2 -4 -4 -4
h-117q-4 0 -5 4l-70 87l-71 -87q-1 -4 -5 -4h-111z" />
    <glyph glyph-name="jcircumflex" unicode="&#x135;" horiz-adv-x="435" 
d="M204 -10q-56 0 -100.5 26.5t-70 73t-25.5 104.5v46q0 4 4 4h113q4 0 4 -5v-45q0 -37 21 -60t54 -23q30 0 52 25t22 58v497q0 4 4 4h112q4 0 4 -5l1 -496q0 -55 -26.5 -101.5t-70.5 -74.5t-98 -28zM152 748q-6 0 -4 4l130 153q2 4 6 4h115q4 0 6 -4l130 -153q2 -4 -4 -4
h-117q-4 0 -5 4l-70 87l-71 -87q-1 -4 -5 -4h-111z" />
    <glyph glyph-name="uni0136" unicode="&#x136;" horiz-adv-x="469" 
d="M44 0q-4 0 -4 5l2 686q0 5 4 5h112q4 0 4 -5v-237l157 238q3 4 7 4h115q4 0 2 -4l-173 -276l194 -412q2 -4 -5 -4h-122q-5 0 -6 4l-135 294l-35 -55v-238q0 -5 -4 -5h-113zM173 -295v62q25 0 42.5 19t17.5 45h-56q-4 0 -4 4v112q0 4 4 4h113q4 0 4 -4v-116q0 -35 -17 -64
t-44.5 -45.5t-59.5 -16.5z" />
    <glyph glyph-name="uni0137" unicode="&#x137;" horiz-adv-x="469" 
d="M44 0q-4 0 -4 5l2 686q0 5 4 5h112q4 0 4 -5v-237l157 238q3 4 7 4h115q4 0 2 -4l-173 -276l194 -412q2 -4 -5 -4h-122q-5 0 -6 4l-135 294l-35 -55v-238q0 -5 -4 -5h-113zM173 -295v62q25 0 42.5 19t17.5 45h-56q-4 0 -4 4v112q0 4 4 4h113q4 0 4 -4v-116q0 -35 -17 -64
t-44.5 -45.5t-59.5 -16.5z" />
    <glyph glyph-name="Lacute" unicode="&#x139;" horiz-adv-x="397" 
d="M44 0q-4 0 -4 5l1 686q0 5 5 5h111q5 0 5 -5l-1 -568h206q5 0 5 -5v-113q0 -5 -5 -5h-323zM45 747q-5 0 -4 4l80 173q1 4 5 4h114q6 0 4 -4l-93 -173q-2 -4 -6 -4h-100z" />
    <glyph glyph-name="lacute" unicode="&#x13a;" horiz-adv-x="397" 
d="M44 0q-4 0 -4 5l1 686q0 5 5 5h111q5 0 5 -5l-1 -568h206q5 0 5 -5v-113q0 -5 -5 -5h-323zM45 747q-5 0 -4 4l80 173q1 4 5 4h114q6 0 4 -4l-93 -173q-2 -4 -6 -4h-100z" />
    <glyph glyph-name="uni013B" unicode="&#x13b;" horiz-adv-x="397" 
d="M44 0q-4 0 -4 5l1 686q0 5 5 5h111q5 0 5 -5l-1 -568h206q5 0 5 -5v-113q0 -5 -5 -5h-323zM148 -295v62q25 0 42.5 19t17.5 45h-56q-4 0 -4 4v112q0 4 4 4h113q4 0 4 -4v-116q0 -35 -17 -64t-44.5 -45.5t-59.5 -16.5z" />
    <glyph glyph-name="uni013C" unicode="&#x13c;" horiz-adv-x="397" 
d="M44 0q-4 0 -4 5l1 686q0 5 5 5h111q5 0 5 -5l-1 -568h206q5 0 5 -5v-113q0 -5 -5 -5h-323zM148 -295v62q25 0 42.5 19t17.5 45h-56q-4 0 -4 4v112q0 4 4 4h113q4 0 4 -4v-116q0 -35 -17 -64t-44.5 -45.5t-59.5 -16.5z" />
    <glyph glyph-name="Lcaron" unicode="&#x13d;" horiz-adv-x="397" 
d="M217 485q-5 0 -4 4l31 204q1 4 5 4h114q6 0 4 -4l-44 -204q-2 -4 -6 -4h-100zM44 0q-4 0 -4 5l1 686q0 5 5 5h111q5 0 5 -5l-1 -568h206q5 0 5 -5v-113q0 -5 -5 -5h-323z" />
    <glyph glyph-name="lcaron" unicode="&#x13e;" horiz-adv-x="397" 
d="M44 0q-4 0 -4 5l1 686q0 5 5 5h111q5 0 5 -5l-1 -568h206q5 0 5 -5v-113q0 -5 -5 -5h-323zM47 750q-4 0 -6 4l-130 153q-2 4 4 4h114q4 0 5 -4l70 -87l71 87q1 4 5 4h114q6 0 4 -4l-130 -153q-2 -4 -6 -4h-115z" />
    <glyph glyph-name="Ldot" unicode="&#x13f;" horiz-adv-x="397" 
d="M44 0q-4 0 -4 5l1 686q0 5 5 5h111q5 0 5 -5l-1 -568h206q5 0 5 -5v-113q0 -5 -5 -5h-323zM244 327q-4 0 -4 4v113q0 4 4 4h113q4 0 4 -4v-113q0 -4 -4 -4h-113z" />
    <glyph glyph-name="ldot" unicode="&#x140;" horiz-adv-x="397" 
d="M44 0q-4 0 -4 5l1 686q0 5 5 5h111q5 0 5 -5l-1 -568h206q5 0 5 -5v-113q0 -5 -5 -5h-323zM244 327q-4 0 -4 4v113q0 4 4 4h113q4 0 4 -4v-113q0 -4 -4 -4h-113z" />
    <glyph glyph-name="Lslash" unicode="&#x141;" horiz-adv-x="397" 
d="M44 0q-4 0 -4 5v297l-42 -15q-4 -1 -6 3l-30 86q-2 5 3 7l76 26v282q0 5 5 5h111q5 0 5 -5v-241l101 35q4 2 6 -3l29 -87q2 -5 -2 -6l-135 -46v-220h206q5 0 5 -5v-113q0 -5 -5 -5h-323z" />
    <glyph glyph-name="lslash" unicode="&#x142;" horiz-adv-x="397" 
d="M44 0q-4 0 -4 5v297l-42 -15q-4 -1 -6 3l-30 86q-2 5 3 7l76 26v282q0 5 5 5h111q5 0 5 -5v-241l101 35q4 2 6 -3l29 -87q2 -5 -2 -6l-135 -46v-220h206q5 0 5 -5v-113q0 -5 -5 -5h-323z" />
    <glyph glyph-name="Nacute" unicode="&#x143;" horiz-adv-x="464" 
d="M49 0q-8 0 -8 7l-1 681q0 8 8 8h90l169 -394l-5 386q0 8 9 8h99q6 0 6 -8l1 -682q0 -6 -5 -6h-88l-173 368l7 -360q0 -8 -9 -8h-100zM155 747q-5 0 -4 4l80 173q1 4 5 4h114q6 0 4 -4l-93 -173q-2 -4 -6 -4h-100z" />
    <glyph glyph-name="nacute" unicode="&#x144;" horiz-adv-x="464" 
d="M49 0q-8 0 -8 7l-1 681q0 8 8 8h90l169 -394l-5 386q0 8 9 8h99q6 0 6 -8l1 -682q0 -6 -5 -6h-88l-173 368l7 -360q0 -8 -9 -8h-100zM155 747q-5 0 -4 4l80 173q1 4 5 4h114q6 0 4 -4l-93 -173q-2 -4 -6 -4h-100z" />
    <glyph glyph-name="uni0145" unicode="&#x145;" horiz-adv-x="464" 
d="M49 0q-8 0 -8 7l-1 681q0 8 8 8h90l169 -394l-5 386q0 8 9 8h99q6 0 6 -8l1 -682q0 -6 -5 -6h-88l-173 368l7 -360q0 -8 -9 -8h-100zM176 -295v62q25 0 42.5 19t17.5 45h-56q-4 0 -4 4v112q0 4 4 4h113q4 0 4 -4v-116q0 -35 -17 -64t-44.5 -45.5t-59.5 -16.5z" />
    <glyph glyph-name="uni0146" unicode="&#x146;" horiz-adv-x="464" 
d="M49 0q-8 0 -8 7l-1 681q0 8 8 8h90l169 -394l-5 386q0 8 9 8h99q6 0 6 -8l1 -682q0 -6 -5 -6h-88l-173 368l7 -360q0 -8 -9 -8h-100zM176 -295v62q25 0 42.5 19t17.5 45h-56q-4 0 -4 4v112q0 4 4 4h113q4 0 4 -4v-116q0 -35 -17 -64t-44.5 -45.5t-59.5 -16.5z" />
    <glyph glyph-name="Ncaron" unicode="&#x147;" horiz-adv-x="464" 
d="M49 0q-8 0 -8 7l-1 681q0 8 8 8h90l169 -394l-5 386q0 8 9 8h99q6 0 6 -8l1 -682q0 -6 -5 -6h-88l-173 368l7 -360q0 -8 -9 -8h-100zM157 750q-4 0 -6 4l-130 153q-2 4 4 4h114q4 0 5 -4l70 -87l71 87q1 4 5 4h114q6 0 4 -4l-130 -153q-2 -4 -6 -4h-115z" />
    <glyph glyph-name="ncaron" unicode="&#x148;" horiz-adv-x="464" 
d="M49 0q-8 0 -8 7l-1 681q0 8 8 8h90l169 -394l-5 386q0 8 9 8h99q6 0 6 -8l1 -682q0 -6 -5 -6h-88l-173 368l7 -360q0 -8 -9 -8h-100zM157 750q-4 0 -6 4l-130 153q-2 4 4 4h114q4 0 5 -4l70 -87l71 87q1 4 5 4h114q6 0 4 -4l-130 -153q-2 -4 -6 -4h-115z" />
    <glyph glyph-name="Eng" unicode="&#x14a;" horiz-adv-x="464" 
d="M49 0q-8 0 -8 7l-1 681q0 8 8 8h90l169 -394l-5 386q0 8 9 8h99q6 0 6 -8l1 -658v0v-111q0 -74 -19.5 -116.5t-55.5 -60t-88 -17.5h-29q-4 0 -4 4v109q0 4 4 4h26q37 0 49.5 15t12.5 59v107l-162 345l7 -360q0 -8 -9 -8h-100z" />
    <glyph glyph-name="eng" unicode="&#x14b;" horiz-adv-x="464" 
d="M49 0q-8 0 -8 7l-1 681q0 8 8 8h90l169 -394l-5 386q0 8 9 8h99q6 0 6 -8l1 -658v0v-111q0 -74 -19.5 -116.5t-55.5 -60t-88 -17.5h-29q-4 0 -4 4v109q0 4 4 4h26q37 0 49.5 15t12.5 59v107l-162 345l7 -360q0 -8 -9 -8h-100z" />
    <glyph glyph-name="Omacron" unicode="&#x14c;" horiz-adv-x="457" 
d="M225 -10q-54 0 -98.5 27.5t-71.5 73t-27 100.5l1 317q0 55 26.5 100t71.5 72t98 27q54 0 98 -27t70.5 -72t26.5 -100l1 -317q0 -55 -26.5 -100.5t-71 -73t-98.5 -27.5zM225 111q30 0 52.5 24.5t22.5 55.5l-1 317q0 33 -21 56t-53 23q-31 0 -53 -22.5t-22 -56.5v-317
q0 -33 22 -56.5t53 -23.5zM72 772q-4 0 -4 4v81q0 4 4 4h299q4 0 4 -4v-81q0 -4 -4 -4h-299z" />
    <glyph glyph-name="omacron" unicode="&#x14d;" horiz-adv-x="457" 
d="M225 -10q-54 0 -98.5 27.5t-71.5 73t-27 100.5l1 317q0 55 26.5 100t71.5 72t98 27q54 0 98 -27t70.5 -72t26.5 -100l1 -317q0 -55 -26.5 -100.5t-71 -73t-98.5 -27.5zM225 111q30 0 52.5 24.5t22.5 55.5l-1 317q0 33 -21 56t-53 23q-31 0 -53 -22.5t-22 -56.5v-317
q0 -33 22 -56.5t53 -23.5zM72 772q-4 0 -4 4v81q0 4 4 4h299q4 0 4 -4v-81q0 -4 -4 -4h-299z" />
    <glyph glyph-name="Obreve" unicode="&#x14e;" horiz-adv-x="457" 
d="M225 -10q-54 0 -98.5 27.5t-71.5 73t-27 100.5l1 317q0 55 26.5 100t71.5 72t98 27q54 0 98 -27t70.5 -72t26.5 -100l1 -317q0 -55 -26.5 -100.5t-71 -73t-98.5 -27.5zM225 111q30 0 52.5 24.5t22.5 55.5l-1 317q0 33 -21 56t-53 23q-31 0 -53 -22.5t-22 -56.5v-317
q0 -33 22 -56.5t53 -23.5zM223 747q-48 0 -86.5 21t-61 55t-22.5 73q-2 4 4 4h90q0 -28 22.5 -50.5t56.5 -22.5q35 0 57.5 22.5t22.5 50.5h90q4 0 4 -4q0 -40 -23.5 -74t-63.5 -54.5t-90 -20.5z" />
    <glyph glyph-name="obreve" unicode="&#x14f;" horiz-adv-x="457" 
d="M225 -10q-54 0 -98.5 27.5t-71.5 73t-27 100.5l1 317q0 55 26.5 100t71.5 72t98 27q54 0 98 -27t70.5 -72t26.5 -100l1 -317q0 -55 -26.5 -100.5t-71 -73t-98.5 -27.5zM225 111q30 0 52.5 24.5t22.5 55.5l-1 317q0 33 -21 56t-53 23q-31 0 -53 -22.5t-22 -56.5v-317
q0 -33 22 -56.5t53 -23.5zM223 747q-48 0 -86.5 21t-61 55t-22.5 73q-2 4 4 4h90q0 -28 22.5 -50.5t56.5 -22.5q35 0 57.5 22.5t22.5 50.5h90q4 0 4 -4q0 -40 -23.5 -74t-63.5 -54.5t-90 -20.5z" />
    <glyph glyph-name="Ohungarumlaut" unicode="&#x150;" horiz-adv-x="457" 
d="M225 -10q-54 0 -98.5 27.5t-71.5 73t-27 100.5l1 317q0 55 26.5 100t71.5 72t98 27q54 0 98 -27t70.5 -72t26.5 -100l1 -317q0 -55 -26.5 -100.5t-71 -73t-98.5 -27.5zM225 111q30 0 52.5 24.5t22.5 55.5l-1 317q0 33 -21 56t-53 23q-31 0 -53 -22.5t-22 -56.5v-317
q0 -33 22 -56.5t53 -23.5zM271 747q-5 0 -4 4l68 173q1 4 5 4h114q6 0 4 -4l-81 -173q-2 -4 -6 -4h-100zM55 747q-5 0 -4 4l65 173q1 4 5 4h114q6 0 4 -4l-78 -173q-2 -4 -6 -4h-100z" />
    <glyph glyph-name="ohungarumlaut" unicode="&#x151;" horiz-adv-x="457" 
d="M225 -10q-54 0 -98.5 27.5t-71.5 73t-27 100.5l1 317q0 55 26.5 100t71.5 72t98 27q54 0 98 -27t70.5 -72t26.5 -100l1 -317q0 -55 -26.5 -100.5t-71 -73t-98.5 -27.5zM225 111q30 0 52.5 24.5t22.5 55.5l-1 317q0 33 -21 56t-53 23q-31 0 -53 -22.5t-22 -56.5v-317
q0 -33 22 -56.5t53 -23.5zM271 747q-5 0 -4 4l68 173q1 4 5 4h114q6 0 4 -4l-81 -173q-2 -4 -6 -4h-100zM55 747q-5 0 -4 4l65 173q1 4 5 4h114q6 0 4 -4l-78 -173q-2 -4 -6 -4h-100z" />
    <glyph glyph-name="OE" unicode="&#x152;" horiz-adv-x="659" 
d="M225 0q-54 0 -98.5 27.5t-71.5 73t-27 100.5l1 297q0 55 26.5 99.5t71.5 71.5t98 27h380q4 0 4 -5v-112q0 -4 -4 -4h-205v-156h205q4 0 4 -4l1 -113q0 -4 -4 -4h-206v-175h206q4 0 4 -5v-114q0 -4 -4 -4h-381zM225 121h18.5h35.5l1 456h-55q-31 0 -53 -22.5t-22 -56.5
v-297q0 -33 22 -56.5t53 -23.5z" />
    <glyph glyph-name="oe" unicode="&#x153;" horiz-adv-x="659" 
d="M225 0q-54 0 -98.5 27.5t-71.5 73t-27 100.5l1 297q0 55 26.5 99.5t71.5 71.5t98 27h380q4 0 4 -5v-112q0 -4 -4 -4h-205v-156h205q4 0 4 -4l1 -113q0 -4 -4 -4h-206v-175h206q4 0 4 -5v-114q0 -4 -4 -4h-381zM225 121h18.5h35.5l1 456h-55q-31 0 -53 -22.5t-22 -56.5
v-297q0 -33 22 -56.5t53 -23.5z" />
    <glyph glyph-name="Racute" unicode="&#x154;" horiz-adv-x="482" 
d="M44 0q-4 0 -4 5l2 687q0 4 4 4h202q54 0 99.5 -26.5t72.5 -71t27 -100.5q0 -37 -11 -66.5t-26 -50t-27 -30.5q54 -60 54 -141l1 -205q0 -5 -5 -5h-113q-4 0 -4 3v207q0 36 -25.5 62.5t-62.5 26.5h-66l-1 -294q0 -5 -4 -5h-113zM162 419h86q31 0 55 23t24 56
q0 32 -23.5 55t-55.5 23h-86v-157zM172 747q-5 0 -4 4l80 173q1 4 5 4h114q6 0 4 -4l-93 -173q-2 -4 -6 -4h-100z" />
    <glyph glyph-name="racute" unicode="&#x155;" horiz-adv-x="482" 
d="M44 0q-4 0 -4 5l2 687q0 4 4 4h202q54 0 99.5 -26.5t72.5 -71t27 -100.5q0 -37 -11 -66.5t-26 -50t-27 -30.5q54 -60 54 -141l1 -205q0 -5 -5 -5h-113q-4 0 -4 3v207q0 36 -25.5 62.5t-62.5 26.5h-66l-1 -294q0 -5 -4 -5h-113zM162 419h86q31 0 55 23t24 56
q0 32 -23.5 55t-55.5 23h-86v-157zM172 747q-5 0 -4 4l80 173q1 4 5 4h114q6 0 4 -4l-93 -173q-2 -4 -6 -4h-100z" />
    <glyph glyph-name="uni0156" unicode="&#x156;" horiz-adv-x="482" 
d="M44 0q-4 0 -4 5l2 687q0 4 4 4h202q54 0 99.5 -26.5t72.5 -71t27 -100.5q0 -37 -11 -66.5t-26 -50t-27 -30.5q54 -60 54 -141l1 -205q0 -5 -5 -5h-113q-4 0 -4 3v207q0 36 -25.5 62.5t-62.5 26.5h-66l-1 -294q0 -5 -4 -5h-113zM162 419h86q31 0 55 23t24 56
q0 32 -23.5 55t-55.5 23h-86v-157zM177 -295v62q25 0 42.5 19t17.5 45h-56q-4 0 -4 4v112q0 4 4 4h113q4 0 4 -4v-116q0 -35 -17 -64t-44.5 -45.5t-59.5 -16.5z" />
    <glyph glyph-name="uni0157" unicode="&#x157;" horiz-adv-x="482" 
d="M44 0q-4 0 -4 5l2 687q0 4 4 4h202q54 0 99.5 -26.5t72.5 -71t27 -100.5q0 -37 -11 -66.5t-26 -50t-27 -30.5q54 -60 54 -141l1 -205q0 -5 -5 -5h-113q-4 0 -4 3v207q0 36 -25.5 62.5t-62.5 26.5h-66l-1 -294q0 -5 -4 -5h-113zM162 419h86q31 0 55 23t24 56
q0 32 -23.5 55t-55.5 23h-86v-157zM177 -295v62q25 0 42.5 19t17.5 45h-56q-4 0 -4 4v112q0 4 4 4h113q4 0 4 -4v-116q0 -35 -17 -64t-44.5 -45.5t-59.5 -16.5z" />
    <glyph glyph-name="Rcaron" unicode="&#x158;" horiz-adv-x="482" 
d="M44 0q-4 0 -4 5l2 687q0 4 4 4h202q54 0 99.5 -26.5t72.5 -71t27 -100.5q0 -37 -11 -66.5t-26 -50t-27 -30.5q54 -60 54 -141l1 -205q0 -5 -5 -5h-113q-4 0 -4 3v207q0 36 -25.5 62.5t-62.5 26.5h-66l-1 -294q0 -5 -4 -5h-113zM162 419h86q31 0 55 23t24 56
q0 32 -23.5 55t-55.5 23h-86v-157zM174 750q-4 0 -6 4l-130 153q-2 4 4 4h114q4 0 5 -4l70 -87l71 87q1 4 5 4h114q6 0 4 -4l-130 -153q-2 -4 -6 -4h-115z" />
    <glyph glyph-name="rcaron" unicode="&#x159;" horiz-adv-x="482" 
d="M44 0q-4 0 -4 5l2 687q0 4 4 4h202q54 0 99.5 -26.5t72.5 -71t27 -100.5q0 -37 -11 -66.5t-26 -50t-27 -30.5q54 -60 54 -141l1 -205q0 -5 -5 -5h-113q-4 0 -4 3v207q0 36 -25.5 62.5t-62.5 26.5h-66l-1 -294q0 -5 -4 -5h-113zM162 419h86q31 0 55 23t24 56
q0 32 -23.5 55t-55.5 23h-86v-157zM174 750q-4 0 -6 4l-130 153q-2 4 4 4h114q4 0 5 -4l70 -87l71 87q1 4 5 4h114q6 0 4 -4l-130 -153q-2 -4 -6 -4h-115z" />
    <glyph glyph-name="Sacute" unicode="&#x15a;" horiz-adv-x="436" 
d="M210 -10q-54 0 -98.5 27.5t-71 73t-26.5 100.5v46q0 5 5 5h112q4 0 4 -5v-46q0 -33 22 -56.5t53 -23.5t53 24t22 56q0 37 -48 64q-16 9 -50 28t-64 36q-55 32 -81.5 80.5t-26.5 109.5q0 56 27 100.5t71.5 70.5t96.5 26q53 0 97.5 -26.5t71 -71t26.5 -99.5v-82q0 -4 -4 -4
h-112q-4 0 -4 4l-1 82q0 35 -22 57t-52 22q-31 0 -53 -23.5t-22 -55.5q0 -33 14 -55t51 -42q5 -3 19.5 -10.5t31.5 -17t30.5 -16.5t16.5 -9q50 -28 79 -68.5t29 -99.5q0 -57 -26.5 -102.5t-71 -72t-98.5 -26.5zM149 747q-5 0 -4 4l80 173q1 4 5 4h114q6 0 4 -4l-93 -173
q-2 -4 -6 -4h-100z" />
    <glyph glyph-name="sacute" unicode="&#x15b;" horiz-adv-x="436" 
d="M210 -10q-54 0 -98.5 27.5t-71 73t-26.5 100.5v46q0 5 5 5h112q4 0 4 -5v-46q0 -33 22 -56.5t53 -23.5t53 24t22 56q0 37 -48 64q-16 9 -50 28t-64 36q-55 32 -81.5 80.5t-26.5 109.5q0 56 27 100.5t71.5 70.5t96.5 26q53 0 97.5 -26.5t71 -71t26.5 -99.5v-82q0 -4 -4 -4
h-112q-4 0 -4 4l-1 82q0 35 -22 57t-52 22q-31 0 -53 -23.5t-22 -55.5q0 -33 14 -55t51 -42q5 -3 19.5 -10.5t31.5 -17t30.5 -16.5t16.5 -9q50 -28 79 -68.5t29 -99.5q0 -57 -26.5 -102.5t-71 -72t-98.5 -26.5zM149 747q-5 0 -4 4l80 173q1 4 5 4h114q6 0 4 -4l-93 -173
q-2 -4 -6 -4h-100z" />
    <glyph glyph-name="Scircumflex" unicode="&#x15c;" horiz-adv-x="436" 
d="M210 -10q-54 0 -98.5 27.5t-71 73t-26.5 100.5v46q0 5 5 5h112q4 0 4 -5v-46q0 -33 22 -56.5t53 -23.5t53 24t22 56q0 37 -48 64q-16 9 -50 28t-64 36q-55 32 -81.5 80.5t-26.5 109.5q0 56 27 100.5t71.5 70.5t96.5 26q53 0 97.5 -26.5t71 -71t26.5 -99.5v-82q0 -4 -4 -4
h-112q-4 0 -4 4l-1 82q0 35 -22 57t-52 22q-31 0 -53 -23.5t-22 -55.5q0 -33 14 -55t51 -42q5 -3 19.5 -10.5t31.5 -17t30.5 -16.5t16.5 -9q50 -28 79 -68.5t29 -99.5q0 -57 -26.5 -102.5t-71 -72t-98.5 -26.5zM19 748q-6 0 -4 4l130 153q2 4 6 4h115q4 0 6 -4l130 -153
q2 -4 -4 -4h-117q-4 0 -5 4l-70 87l-71 -87q-1 -4 -5 -4h-111z" />
    <glyph glyph-name="scircumflex" unicode="&#x15d;" horiz-adv-x="436" 
d="M210 -10q-54 0 -98.5 27.5t-71 73t-26.5 100.5v46q0 5 5 5h112q4 0 4 -5v-46q0 -33 22 -56.5t53 -23.5t53 24t22 56q0 37 -48 64q-16 9 -50 28t-64 36q-55 32 -81.5 80.5t-26.5 109.5q0 56 27 100.5t71.5 70.5t96.5 26q53 0 97.5 -26.5t71 -71t26.5 -99.5v-82q0 -4 -4 -4
h-112q-4 0 -4 4l-1 82q0 35 -22 57t-52 22q-31 0 -53 -23.5t-22 -55.5q0 -33 14 -55t51 -42q5 -3 19.5 -10.5t31.5 -17t30.5 -16.5t16.5 -9q50 -28 79 -68.5t29 -99.5q0 -57 -26.5 -102.5t-71 -72t-98.5 -26.5zM19 748q-6 0 -4 4l130 153q2 4 6 4h115q4 0 6 -4l130 -153
q2 -4 -4 -4h-117q-4 0 -5 4l-70 87l-71 -87q-1 -4 -5 -4h-111z" />
    <glyph glyph-name="Scedilla" unicode="&#x15e;" horiz-adv-x="436" 
d="M210 -10q-54 0 -98.5 27.5t-71 73t-26.5 100.5v46q0 5 5 5h112q4 0 4 -5v-46q0 -33 22 -56.5t53 -23.5t53 24t22 56q0 37 -48 64q-16 9 -50 28t-64 36q-55 32 -81.5 80.5t-26.5 109.5q0 56 27 100.5t71.5 70.5t96.5 26q53 0 97.5 -26.5t71 -71t26.5 -99.5v-82q0 -4 -4 -4
h-112q-4 0 -4 4l-1 82q0 35 -22 57t-52 22q-31 0 -53 -23.5t-22 -55.5q0 -33 14 -55t51 -42q5 -3 19.5 -10.5t31.5 -17t30.5 -16.5t16.5 -9q50 -28 79 -68.5t29 -99.5q0 -57 -26.5 -102.5t-71 -72t-98.5 -26.5zM111 -98q-6 0 -4 4l67 110q2 4 6 4h83q5 0 4 -4l-32 -57
q52 -8 83 -38t31 -72q0 -40 -21.5 -73t-57.5 -52t-82 -19q-27 0 -54.5 4.5t-41.5 12.5q-2 2 -2 3l-3 88q0 6 6 4q30 -10 53.5 -13.5t39.5 -3.5q32 0 49 12t17 32q0 26 -31 42t-99 16h-11z" />
    <glyph glyph-name="scedilla" unicode="&#x15f;" horiz-adv-x="436" 
d="M210 -10q-54 0 -98.5 27.5t-71 73t-26.5 100.5v46q0 5 5 5h112q4 0 4 -5v-46q0 -33 22 -56.5t53 -23.5t53 24t22 56q0 37 -48 64q-16 9 -50 28t-64 36q-55 32 -81.5 80.5t-26.5 109.5q0 56 27 100.5t71.5 70.5t96.5 26q53 0 97.5 -26.5t71 -71t26.5 -99.5v-82q0 -4 -4 -4
h-112q-4 0 -4 4l-1 82q0 35 -22 57t-52 22q-31 0 -53 -23.5t-22 -55.5q0 -33 14 -55t51 -42q5 -3 19.5 -10.5t31.5 -17t30.5 -16.5t16.5 -9q50 -28 79 -68.5t29 -99.5q0 -57 -26.5 -102.5t-71 -72t-98.5 -26.5zM111 -98q-6 0 -4 4l67 110q2 4 6 4h83q5 0 4 -4l-32 -57
q52 -8 83 -38t31 -72q0 -40 -21.5 -73t-57.5 -52t-82 -19q-27 0 -54.5 4.5t-41.5 12.5q-2 2 -2 3l-3 88q0 6 6 4q30 -10 53.5 -13.5t39.5 -3.5q32 0 49 12t17 32q0 26 -31 42t-99 16h-11z" />
    <glyph glyph-name="Scaron" unicode="&#x160;" horiz-adv-x="436" 
d="M210 -10q-54 0 -98.5 27.5t-71 73t-26.5 100.5v46q0 5 5 5h112q4 0 4 -5v-46q0 -33 22 -56.5t53 -23.5t53 24t22 56q0 37 -48 64q-16 9 -50 28t-64 36q-55 32 -81.5 80.5t-26.5 109.5q0 56 27 100.5t71.5 70.5t96.5 26q53 0 97.5 -26.5t71 -71t26.5 -99.5v-82q0 -4 -4 -4
h-112q-4 0 -4 4l-1 82q0 35 -22 57t-52 22q-31 0 -53 -23.5t-22 -55.5q0 -33 14 -55t51 -42q5 -3 19.5 -10.5t31.5 -17t30.5 -16.5t16.5 -9q50 -28 79 -68.5t29 -99.5q0 -57 -26.5 -102.5t-71 -72t-98.5 -26.5zM151 750q-4 0 -6 4l-130 153q-2 4 4 4h114q4 0 5 -4l70 -87
l71 87q1 4 5 4h114q6 0 4 -4l-130 -153q-2 -4 -6 -4h-115z" />
    <glyph glyph-name="scaron" unicode="&#x161;" horiz-adv-x="436" 
d="M210 -10q-54 0 -98.5 27.5t-71 73t-26.5 100.5v46q0 5 5 5h112q4 0 4 -5v-46q0 -33 22 -56.5t53 -23.5t53 24t22 56q0 37 -48 64q-16 9 -50 28t-64 36q-55 32 -81.5 80.5t-26.5 109.5q0 56 27 100.5t71.5 70.5t96.5 26q53 0 97.5 -26.5t71 -71t26.5 -99.5v-82q0 -4 -4 -4
h-112q-4 0 -4 4l-1 82q0 35 -22 57t-52 22q-31 0 -53 -23.5t-22 -55.5q0 -33 14 -55t51 -42q5 -3 19.5 -10.5t31.5 -17t30.5 -16.5t16.5 -9q50 -28 79 -68.5t29 -99.5q0 -57 -26.5 -102.5t-71 -72t-98.5 -26.5zM151 750q-4 0 -6 4l-130 153q-2 4 4 4h114q4 0 5 -4l70 -87
l71 87q1 4 5 4h114q6 0 4 -4l-130 -153q-2 -4 -6 -4h-115z" />
    <glyph glyph-name="uni0162" unicode="&#x162;" horiz-adv-x="400" 
d="M140 0q-4 0 -4 5v570h-130q-5 0 -5 5l1 112q0 4 4 4h380q5 0 5 -4v-112q0 -5 -4 -5h-131l1 -570q0 -5 -4 -5h-113zM79 -98q-6 0 -4 4l67 110q2 4 6 4h83q5 0 4 -4l-32 -57q52 -8 83 -38t31 -72q0 -40 -21.5 -73t-57.5 -52t-82 -19q-27 0 -54.5 4.5t-41.5 12.5q-2 2 -2 3
l-3 88q0 6 6 4q30 -10 53.5 -13.5t39.5 -3.5q32 0 49 12t17 32q0 26 -31 42t-99 16h-11z" />
    <glyph glyph-name="uni0163" unicode="&#x163;" horiz-adv-x="400" 
d="M140 0q-4 0 -4 5v570h-130q-5 0 -5 5l1 112q0 4 4 4h380q5 0 5 -4v-112q0 -5 -4 -5h-131l1 -570q0 -5 -4 -5h-113zM79 -98q-6 0 -4 4l67 110q2 4 6 4h83q5 0 4 -4l-32 -57q52 -8 83 -38t31 -72q0 -40 -21.5 -73t-57.5 -52t-82 -19q-27 0 -54.5 4.5t-41.5 12.5q-2 2 -2 3
l-3 88q0 6 6 4q30 -10 53.5 -13.5t39.5 -3.5q32 0 49 12t17 32q0 26 -31 42t-99 16h-11z" />
    <glyph glyph-name="Tcaron" unicode="&#x164;" horiz-adv-x="400" 
d="M140 0q-4 0 -4 5v570h-130q-5 0 -5 5l1 112q0 4 4 4h380q5 0 5 -4v-112q0 -5 -4 -5h-131l1 -570q0 -5 -4 -5h-113zM137 750q-4 0 -6 4l-130 153q-2 4 4 4h114q4 0 5 -4l70 -87l71 87q1 4 5 4h114q6 0 4 -4l-130 -153q-2 -4 -6 -4h-115z" />
    <glyph glyph-name="tcaron" unicode="&#x165;" horiz-adv-x="400" 
d="M140 0q-4 0 -4 5v570h-130q-5 0 -5 5l1 112q0 4 4 4h380q5 0 5 -4v-112q0 -5 -4 -5h-131l1 -570q0 -5 -4 -5h-113zM137 750q-4 0 -6 4l-130 153q-2 4 4 4h114q4 0 5 -4l70 -87l71 87q1 4 5 4h114q6 0 4 -4l-130 -153q-2 -4 -6 -4h-115z" />
    <glyph glyph-name="Tbar" unicode="&#x166;" horiz-adv-x="400" 
d="M140 0q-4 0 -4 5v305h-84q-4 0 -4 5v104q0 5 5 5h83v151h-130q-5 0 -5 5l1 112q0 4 4 4h380q5 0 5 -4v-112q0 -5 -4 -5h-131v-151h87q4 0 4 -5v-104q0 -5 -4 -5h-87l1 -305q0 -5 -4 -5h-113z" />
    <glyph glyph-name="tbar" unicode="&#x167;" horiz-adv-x="400" 
d="M140 0q-4 0 -4 5v305h-84q-4 0 -4 5v104q0 5 5 5h83v151h-130q-5 0 -5 5l1 112q0 4 4 4h380q5 0 5 -4v-112q0 -5 -4 -5h-131v-151h87q4 0 4 -5v-104q0 -5 -4 -5h-87l1 -305q0 -5 -4 -5h-113z" />
    <glyph glyph-name="Utilde" unicode="&#x168;" horiz-adv-x="460" 
d="M224 -10q-53 0 -98 27.5t-71.5 73.5t-26.5 101l2 500q0 4 4 4h112q4 0 4 -4v-500q0 -34 21.5 -57.5t52.5 -23.5q32 0 53.5 23.5t21.5 57.5v500q0 4 4 4h112q4 0 4 -4l2 -500q0 -56 -26.5 -102t-71 -73t-99.5 -27zM312 753q-28 0 -51.5 10.5t-42.5 21t-36 10.5
q-19 0 -29 -9.5t-10 -23.5q0 -4 -4 -4h-90q-4 0 -4 4q0 26 15.5 53.5t44 46.5t68.5 19q29 0 51 -9.5t39.5 -19.5t30.5 -10q14 0 24.5 9t10.5 28q0 4 4 4h90q4 0 4 -4q0 -41 -16.5 -69t-43 -42.5t-55.5 -14.5z" />
    <glyph glyph-name="Umacron" unicode="&#x16a;" horiz-adv-x="460" 
d="M224 -10q-53 0 -98 27.5t-71.5 73.5t-26.5 101l2 500q0 4 4 4h112q4 0 4 -4v-500q0 -34 21.5 -57.5t52.5 -23.5q32 0 53.5 23.5t21.5 57.5v500q0 4 4 4h112q4 0 4 -4l2 -500q0 -56 -26.5 -102t-71 -73t-99.5 -27zM70 772q-4 0 -4 4v81q0 4 4 4h299q4 0 4 -4v-81
q0 -4 -4 -4h-299z" />
    <glyph glyph-name="umacron" unicode="&#x16b;" horiz-adv-x="460" 
d="M224 -10q-53 0 -98 27.5t-71.5 73.5t-26.5 101l2 500q0 4 4 4h112q4 0 4 -4v-500q0 -34 21.5 -57.5t52.5 -23.5q32 0 53.5 23.5t21.5 57.5v500q0 4 4 4h112q4 0 4 -4l2 -500q0 -56 -26.5 -102t-71 -73t-99.5 -27zM70 772q-4 0 -4 4v81q0 4 4 4h299q4 0 4 -4v-81
q0 -4 -4 -4h-299z" />
    <glyph glyph-name="Ubreve" unicode="&#x16c;" horiz-adv-x="460" 
d="M224 -10q-53 0 -98 27.5t-71.5 73.5t-26.5 101l2 500q0 4 4 4h112q4 0 4 -4v-500q0 -34 21.5 -57.5t52.5 -23.5q32 0 53.5 23.5t21.5 57.5v500q0 4 4 4h112q4 0 4 -4l2 -500q0 -56 -26.5 -102t-71 -73t-99.5 -27zM221 747q-48 0 -86.5 21t-61 55t-22.5 73q-2 4 4 4h90
q0 -28 22.5 -50.5t56.5 -22.5q35 0 57.5 22.5t22.5 50.5h90q4 0 4 -4q0 -40 -23.5 -74t-63.5 -54.5t-90 -20.5z" />
    <glyph glyph-name="ubreve" unicode="&#x16d;" horiz-adv-x="460" 
d="M224 -10q-53 0 -98 27.5t-71.5 73.5t-26.5 101l2 500q0 4 4 4h112q4 0 4 -4v-500q0 -34 21.5 -57.5t52.5 -23.5q32 0 53.5 23.5t21.5 57.5v500q0 4 4 4h112q4 0 4 -4l2 -500q0 -56 -26.5 -102t-71 -73t-99.5 -27zM221 747q-48 0 -86.5 21t-61 55t-22.5 73q-2 4 4 4h90
q0 -28 22.5 -50.5t56.5 -22.5q35 0 57.5 22.5t22.5 50.5h90q4 0 4 -4q0 -40 -23.5 -74t-63.5 -54.5t-90 -20.5z" />
    <glyph glyph-name="Uring" unicode="&#x16e;" horiz-adv-x="460" 
d="M224 -10q-53 0 -98 27.5t-71.5 73.5t-26.5 101l2 500q0 4 4 4h112q4 0 4 -4v-500q0 -34 21.5 -57.5t52.5 -23.5q32 0 53.5 23.5t21.5 57.5v500q0 4 4 4h112q4 0 4 -4l2 -500q0 -56 -26.5 -102t-71 -73t-99.5 -27zM223 741q-37 0 -65 28.5t-28 65.5q0 39 28 67t65 28
q36 0 64 -28t28 -67q0 -40 -28.5 -67t-63.5 -27zM222 788q18 0 31 14t13 33q0 20 -13 34t-31 14q-19 0 -32 -14t-13 -34q0 -19 13 -33t32 -14z" />
    <glyph glyph-name="uring" unicode="&#x16f;" horiz-adv-x="460" 
d="M224 -10q-53 0 -98 27.5t-71.5 73.5t-26.5 101l2 500q0 4 4 4h112q4 0 4 -4v-500q0 -34 21.5 -57.5t52.5 -23.5q32 0 53.5 23.5t21.5 57.5v500q0 4 4 4h112q4 0 4 -4l2 -500q0 -56 -26.5 -102t-71 -73t-99.5 -27zM223 741q-37 0 -65 28.5t-28 65.5q0 39 28 67t65 28
q36 0 64 -28t28 -67q0 -40 -28.5 -67t-63.5 -27zM222 788q18 0 31 14t13 33q0 20 -13 34t-31 14q-19 0 -32 -14t-13 -34q0 -19 13 -33t32 -14z" />
    <glyph glyph-name="Uhungarumlaut" unicode="&#x170;" horiz-adv-x="460" 
d="M224 -10q-53 0 -98 27.5t-71.5 73.5t-26.5 101l2 500q0 4 4 4h112q4 0 4 -4v-500q0 -34 21.5 -57.5t52.5 -23.5q32 0 53.5 23.5t21.5 57.5v500q0 4 4 4h112q4 0 4 -4l2 -500q0 -56 -26.5 -102t-71 -73t-99.5 -27zM269 747q-5 0 -4 4l68 173q1 4 5 4h114q6 0 4 -4
l-81 -173q-2 -4 -6 -4h-100zM53 747q-5 0 -4 4l65 173q1 4 5 4h114q6 0 4 -4l-78 -173q-2 -4 -6 -4h-100z" />
    <glyph glyph-name="uhungarumlaut" unicode="&#x171;" horiz-adv-x="460" 
d="M224 -10q-53 0 -98 27.5t-71.5 73.5t-26.5 101l2 500q0 4 4 4h112q4 0 4 -4v-500q0 -34 21.5 -57.5t52.5 -23.5q32 0 53.5 23.5t21.5 57.5v500q0 4 4 4h112q4 0 4 -4l2 -500q0 -56 -26.5 -102t-71 -73t-99.5 -27zM269 747q-5 0 -4 4l68 173q1 4 5 4h114q6 0 4 -4
l-81 -173q-2 -4 -6 -4h-100zM53 747q-5 0 -4 4l65 173q1 4 5 4h114q6 0 4 -4l-78 -173q-2 -4 -6 -4h-100z" />
    <glyph glyph-name="Uogonek" unicode="&#x172;" horiz-adv-x="460" 
d="M224 -10q-53 0 -98 27.5t-71.5 73.5t-26.5 101l2 500q0 4 4 4h112q4 0 4 -4v-500q0 -34 21.5 -57.5t52.5 -23.5q32 0 53.5 23.5t21.5 57.5v500q0 4 4 4h112q4 0 4 -4l2 -500q0 -56 -26.5 -102t-71 -73t-99.5 -27zM268 -296q-71 0 -115 22t-64.5 59t-20.5 80
q0 62 46.5 105.5t120.5 72.5l37 -44q-61 -31 -80.5 -55t-19.5 -53q0 -31 24 -49.5t71 -18.5q3 0 4 -2.5t1 -10.5l1 -98q0 -8 -5 -8z" />
    <glyph glyph-name="uogonek" unicode="&#x173;" horiz-adv-x="460" 
d="M224 -10q-53 0 -98 27.5t-71.5 73.5t-26.5 101l2 500q0 4 4 4h112q4 0 4 -4v-500q0 -34 21.5 -57.5t52.5 -23.5q32 0 53.5 23.5t21.5 57.5v500q0 4 4 4h112q4 0 4 -4l2 -500q0 -56 -26.5 -102t-71 -73t-99.5 -27zM268 -296q-71 0 -115 22t-64.5 59t-20.5 80
q0 62 46.5 105.5t120.5 72.5l37 -44q-61 -31 -80.5 -55t-19.5 -53q0 -31 24 -49.5t71 -18.5q3 0 4 -2.5t1 -10.5l1 -98q0 -8 -5 -8z" />
    <glyph glyph-name="Wcircumflex" unicode="&#x174;" horiz-adv-x="629" 
d="M132 0q-4 0 -5 5l-118 687q-1 4 3 4h112q4 0 5 -4l64 -452l66 452q1 4 6 4h90q4 0 5 -4l65 -452l65 452q1 4 5 4h111q5 0 4 -4l-119 -687q-1 -2 -3 -3.5l-2 -1.5h-121q-3 0 -5 5l-51 359l-51 -359q-1 -5 -5 -5h-121zM120 748q-6 0 -4 4l130 153q2 4 6 4h115q4 0 6 -4
l130 -153q2 -4 -4 -4h-117q-4 0 -5 4l-70 87l-71 -87q-1 -4 -5 -4h-111z" />
    <glyph glyph-name="wcircumflex" unicode="&#x175;" horiz-adv-x="629" 
d="M132 0q-4 0 -5 5l-118 687q-1 4 3 4h112q4 0 5 -4l64 -452l66 452q1 4 6 4h90q4 0 5 -4l65 -452l65 452q1 4 5 4h111q5 0 4 -4l-119 -687q-1 -2 -3 -3.5l-2 -1.5h-121q-3 0 -5 5l-51 359l-51 -359q-1 -5 -5 -5h-121zM120 748q-6 0 -4 4l130 153q2 4 6 4h115q4 0 6 -4
l130 -153q2 -4 -4 -4h-117q-4 0 -5 4l-70 87l-71 -87q-1 -4 -5 -4h-111z" />
    <glyph glyph-name="Ycircumflex" unicode="&#x176;" horiz-adv-x="401" 
d="M133 0q-3 0 -3 4l1 284l-134 404q-1 4 3 4h111q5 0 6 -4l74 -269l75 269q1 4 5 4h112q4 0 3 -4l-135 -400l1 -288q0 -4 -4 -4h-115zM0 748q-6 0 -4 4l130 153q2 4 6 4h115q4 0 6 -4l130 -153q2 -4 -4 -4h-117q-4 0 -5 4l-70 87l-71 -87q-1 -4 -5 -4h-111z" />
    <glyph glyph-name="ycircumflex" unicode="&#x177;" horiz-adv-x="401" 
d="M133 0q-3 0 -3 4l1 284l-134 404q-1 4 3 4h111q5 0 6 -4l74 -269l75 269q1 4 5 4h112q4 0 3 -4l-135 -400l1 -288q0 -4 -4 -4h-115zM0 748q-6 0 -4 4l130 153q2 4 6 4h115q4 0 6 -4l130 -153q2 -4 -4 -4h-117q-4 0 -5 4l-70 87l-71 -87q-1 -4 -5 -4h-111z" />
    <glyph glyph-name="Ydieresis" unicode="&#x178;" horiz-adv-x="401" 
d="M133 0q-3 0 -3 4l1 284l-134 404q-1 4 3 4h111q5 0 6 -4l74 -269l75 269q1 4 5 4h112q4 0 3 -4l-135 -400l1 -288q0 -4 -4 -4h-115zM238 764q-4 0 -4 4v113q0 4 4 4h113q4 0 4 -4v-113q0 -4 -4 -4h-113zM30 764q-4 0 -4 4v113q0 4 4 4h113q4 0 4 -4v-113q0 -4 -4 -4h-113
z" />
    <glyph glyph-name="Zacute" unicode="&#x179;" horiz-adv-x="414" 
d="M13 0q-5 0 -5 5l1 109l245 468h-232q-4 0 -4 4v105q0 5 4 5h362q5 0 5 -5v-108l-244 -466h241q4 0 4 -5l1 -107q0 -5 -5 -5h-373zM142 747q-5 0 -4 4l80 173q1 4 5 4h114q6 0 4 -4l-93 -173q-2 -4 -6 -4h-100z" />
    <glyph glyph-name="zacute" unicode="&#x17a;" horiz-adv-x="414" 
d="M13 0q-5 0 -5 5l1 109l245 468h-232q-4 0 -4 4v105q0 5 4 5h362q5 0 5 -5v-108l-244 -466h241q4 0 4 -5l1 -107q0 -5 -5 -5h-373zM142 747q-5 0 -4 4l80 173q1 4 5 4h114q6 0 4 -4l-93 -173q-2 -4 -6 -4h-100z" />
    <glyph glyph-name="Zdotaccent" unicode="&#x17b;" horiz-adv-x="414" 
d="M13 0q-5 0 -5 5l1 109l245 468h-232q-4 0 -4 4v105q0 5 4 5h362q5 0 5 -5v-108l-244 -466h241q4 0 4 -5l1 -107q0 -5 -5 -5h-373zM144 764q-4 0 -4 4v113q0 4 4 4h113q4 0 4 -4v-113q0 -4 -4 -4h-113z" />
    <glyph glyph-name="zdotaccent" unicode="&#x17c;" horiz-adv-x="414" 
d="M13 0q-5 0 -5 5l1 109l245 468h-232q-4 0 -4 4v105q0 5 4 5h362q5 0 5 -5v-108l-244 -466h241q4 0 4 -5l1 -107q0 -5 -5 -5h-373zM144 764q-4 0 -4 4v113q0 4 4 4h113q4 0 4 -4v-113q0 -4 -4 -4h-113z" />
    <glyph glyph-name="Zcaron" unicode="&#x17d;" horiz-adv-x="414" 
d="M13 0q-5 0 -5 5l1 109l245 468h-232q-4 0 -4 4v105q0 5 4 5h362q5 0 5 -5v-108l-244 -466h241q4 0 4 -5l1 -107q0 -5 -5 -5h-373zM144 750q-4 0 -6 4l-130 153q-2 4 4 4h114q4 0 5 -4l70 -87l71 87q1 4 5 4h114q6 0 4 -4l-130 -153q-2 -4 -6 -4h-115z" />
    <glyph glyph-name="zcaron" unicode="&#x17e;" horiz-adv-x="414" 
d="M13 0q-5 0 -5 5l1 109l245 468h-232q-4 0 -4 4v105q0 5 4 5h362q5 0 5 -5v-108l-244 -466h241q4 0 4 -5l1 -107q0 -5 -5 -5h-373zM144 750q-4 0 -6 4l-130 153q-2 4 4 4h114q4 0 5 -4l70 -87l71 87q1 4 5 4h114q6 0 4 -4l-130 -153q-2 -4 -6 -4h-115z" />
    <glyph glyph-name="florin" unicode="&#x192;" horiz-adv-x="425" 
d="M-64 -198q-6 0 -6 6v112q0 6 6 6q42 0 73.5 10.5t52.5 38t31.5 78t10.5 131.5v106h-78q-4 0 -4 5v92q0 4 5 4h77v110q0 58 25.5 101.5t68.5 68.5t94 25q74 0 130 -50q2 -3 0 -7l-46 -75q-2 -4 -7 -1q-19 13 -36.5 19.5t-41.5 6.5q-31 0 -54 -26.5t-23 -61.5v-110h140
q4 0 4 -4v-92q0 -5 -4 -5h-141v-104q0 -111 -20.5 -185t-58 -118t-88 -62.5t-110.5 -18.5z" />
    <glyph glyph-name="Aringacute" unicode="&#x1fa;" horiz-adv-x="427" 
d="M207 740q-37 0 -65 28.5t-28 65.5q0 28 15 51.5t39 34.5l38 82q1 4 4 4h94q5 0 3 -4l-49 -90q18 -13 29.5 -33.5t11.5 -44.5q0 -40 -28.5 -67t-63.5 -27zM206 787q18 0 31 14t13 33q0 20 -13 34t-31 14q-19 0 -32 -14t-13 -34q0 -19 13 -33t32 -14zM6 5l124 687q1 4 5 4
h145q4 0 5 -4l119 -687q1 -5 -4 -5h-111q-4 0 -5 5l-11 73h-136l-11 -73q-1 -5 -5 -5h-111q-4 0 -4 5zM157 185h96l-41 281l-6 37l-4 -37z" />
    <glyph glyph-name="aringacute" unicode="&#x1fb;" horiz-adv-x="427" 
d="M207 740q-37 0 -65 28.5t-28 65.5q0 28 15 51.5t39 34.5l38 82q1 4 4 4h94q5 0 3 -4l-49 -90q18 -13 29.5 -33.5t11.5 -44.5q0 -40 -28.5 -67t-63.5 -27zM206 787q18 0 31 14t13 33q0 20 -13 34t-31 14q-19 0 -32 -14t-13 -34q0 -19 13 -33t32 -14zM6 5l124 687q1 4 5 4
h145q4 0 5 -4l119 -687q1 -5 -4 -5h-111q-4 0 -5 5l-11 73h-136l-11 -73q-1 -5 -5 -5h-111q-4 0 -4 5zM157 185h96l-41 281l-6 37l-4 -37z" />
    <glyph glyph-name="AEacute" unicode="&#x1fc;" horiz-adv-x="696" 
d="M6 0q-6 0 -4 6l279 687q2 3 6 3h355q4 0 4 -5v-112q0 -4 -4 -4h-205v-156h205q4 0 4 -4l1 -113q0 -4 -4 -4h-206v-175h206q4 0 4 -5v-114q0 -4 -4 -4h-323q-4 0 -4 5v73h-158l-30 -76q0 -2 -3 -2h-119zM199 185h117l1 303l-14 -37zM307 747q-5 0 -4 4l80 173q1 4 5 4h114
q6 0 4 -4l-93 -173q-2 -4 -6 -4h-100z" />
    <glyph glyph-name="aeacute" unicode="&#x1fd;" horiz-adv-x="696" 
d="M6 0q-6 0 -4 6l279 687q2 3 6 3h355q4 0 4 -5v-112q0 -4 -4 -4h-205v-156h205q4 0 4 -4l1 -113q0 -4 -4 -4h-206v-175h206q4 0 4 -5v-114q0 -4 -4 -4h-323q-4 0 -4 5v73h-158l-30 -76q0 -2 -3 -2h-119zM199 185h117l1 303l-14 -37zM307 747q-5 0 -4 4l80 173q1 4 5 4h114
q6 0 4 -4l-93 -173q-2 -4 -6 -4h-100z" />
    <glyph glyph-name="Oslashacute" unicode="&#x1fe;" horiz-adv-x="458" 
d="M-21 -37q-2 0 -3.5 2t-0.5 4l73 134q-20 41 -20 88l1 317q0 55 26.5 100t71.5 72t98 27q37 0 69.5 -13t58.5 -36l39 71q2 3 6 3h76q8 0 4 -8l-74 -136q16 -38 16 -80l1 -317q0 -55 -26.5 -100.5t-71 -73t-98.5 -27.5q-35 0 -66.5 12t-57.5 33l-38 -70q-2 -2 -5 -2h-79z
M150 508v-220l141 257q-9 19 -26.5 30.5t-39.5 11.5q-31 0 -53 -22.5t-22 -56.5zM225 111q30 0 52.5 24.5t22.5 55.5l-1 206l-136 -250q10 -16 26.5 -26t35.5 -10zM164 747q-5 0 -4 4l80 173q1 4 5 4h114q6 0 4 -4l-93 -173q-2 -4 -6 -4h-100z" />
    <glyph glyph-name="oslashacute" unicode="&#x1ff;" horiz-adv-x="458" 
d="M-21 -37q-2 0 -3.5 2t-0.5 4l73 134q-20 41 -20 88l1 317q0 55 26.5 100t71.5 72t98 27q37 0 69.5 -13t58.5 -36l39 71q2 3 6 3h76q8 0 4 -8l-74 -136q16 -38 16 -80l1 -317q0 -55 -26.5 -100.5t-71 -73t-98.5 -27.5q-35 0 -66.5 12t-57.5 33l-38 -70q-2 -2 -5 -2h-79z
M150 508v-220l141 257q-9 19 -26.5 30.5t-39.5 11.5q-31 0 -53 -22.5t-22 -56.5zM225 111q30 0 52.5 24.5t22.5 55.5l-1 206l-136 -250q10 -16 26.5 -26t35.5 -10zM164 747q-5 0 -4 4l80 173q1 4 5 4h114q6 0 4 -4l-93 -173q-2 -4 -6 -4h-100z" />
    <glyph glyph-name="uni0218" unicode="&#x218;" horiz-adv-x="436" 
d="M210 -10q-54 0 -98.5 27.5t-71 73t-26.5 100.5v46q0 5 5 5h112q4 0 4 -5v-46q0 -33 22 -56.5t53 -23.5t53 24t22 56q0 37 -48 64q-16 9 -50 28t-64 36q-55 32 -81.5 80.5t-26.5 109.5q0 56 27 100.5t71.5 70.5t96.5 26q53 0 97.5 -26.5t71 -71t26.5 -99.5v-82q0 -4 -4 -4
h-112q-4 0 -4 4l-1 82q0 35 -22 57t-52 22q-31 0 -53 -23.5t-22 -55.5q0 -33 14 -55t51 -42q5 -3 19.5 -10.5t31.5 -17t30.5 -16.5t16.5 -9q50 -28 79 -68.5t29 -99.5q0 -57 -26.5 -102.5t-71 -72t-98.5 -26.5zM156 -295v62q25 0 42.5 19t17.5 45h-56q-4 0 -4 4v112q0 4 4 4
h113q4 0 4 -4v-116q0 -35 -17 -64t-44.5 -45.5t-59.5 -16.5z" />
    <glyph glyph-name="uni0219" unicode="&#x219;" horiz-adv-x="436" 
d="M210 -10q-54 0 -98.5 27.5t-71 73t-26.5 100.5v46q0 5 5 5h112q4 0 4 -5v-46q0 -33 22 -56.5t53 -23.5t53 24t22 56q0 37 -48 64q-16 9 -50 28t-64 36q-55 32 -81.5 80.5t-26.5 109.5q0 56 27 100.5t71.5 70.5t96.5 26q53 0 97.5 -26.5t71 -71t26.5 -99.5v-82q0 -4 -4 -4
h-112q-4 0 -4 4l-1 82q0 35 -22 57t-52 22q-31 0 -53 -23.5t-22 -55.5q0 -33 14 -55t51 -42q5 -3 19.5 -10.5t31.5 -17t30.5 -16.5t16.5 -9q50 -28 79 -68.5t29 -99.5q0 -57 -26.5 -102.5t-71 -72t-98.5 -26.5zM156 -295v62q25 0 42.5 19t17.5 45h-56q-4 0 -4 4v112q0 4 4 4
h113q4 0 4 -4v-116q0 -35 -17 -64t-44.5 -45.5t-59.5 -16.5z" />
    <glyph glyph-name="uni021A" unicode="&#x21a;" horiz-adv-x="400" 
d="M140 0q-4 0 -4 5v570h-130q-5 0 -5 5l1 112q0 4 4 4h380q5 0 5 -4v-112q0 -5 -4 -5h-131l1 -570q0 -5 -4 -5h-113zM137 -295v62q25 0 42.5 19t17.5 45h-56q-4 0 -4 4v112q0 4 4 4h113q4 0 4 -4v-116q0 -35 -17 -64t-44.5 -45.5t-59.5 -16.5z" />
    <glyph glyph-name="uni021B" unicode="&#x21b;" horiz-adv-x="400" 
d="M140 0q-4 0 -4 5v570h-130q-5 0 -5 5l1 112q0 4 4 4h380q5 0 5 -4v-112q0 -5 -4 -5h-131l1 -570q0 -5 -4 -5h-113zM137 -306v62q25 0 42.5 19t17.5 45h-56q-4 0 -4 4v112q0 4 4 4h113q4 0 4 -4v-116q0 -35 -17 -64t-44.5 -45.5t-59.5 -16.5z" />
    <glyph glyph-name="uni021E" unicode="&#x21e;" horiz-adv-x="475" 
d="M44 0q-4 0 -4 5l1 687q0 4 5 4h111q5 0 5 -4l-1 -272h150v272q0 4 4 4h111q5 0 5 -4l2 -687q0 -5 -5 -5h-112q-5 0 -5 5v294h-150v-294q0 -5 -4 -5h-113zM176 750q-4 0 -6 4l-130 153q-2 4 4 4h114q4 0 5 -4l70 -87l71 87q1 4 5 4h114q6 0 4 -4l-130 -153q-2 -4 -6 -4
h-115z" />
    <glyph glyph-name="uni021F" unicode="&#x21f;" horiz-adv-x="475" 
d="M44 0q-4 0 -4 5l1 687q0 4 5 4h111q5 0 5 -4l-1 -272h150v272q0 4 4 4h111q5 0 5 -4l2 -687q0 -5 -5 -5h-112q-5 0 -5 5v294h-150v-294q0 -5 -4 -5h-113zM176 750q-4 0 -6 4l-130 153q-2 4 4 4h114q4 0 5 -4l70 -87l71 87q1 4 5 4h114q6 0 4 -4l-130 -153q-2 -4 -6 -4
h-115z" />
    <glyph glyph-name="circumflex" unicode="&#x2c6;" horiz-adv-x="600" 
d="M-189 750q-6 0 -4 4l130 153q2 4 6 4h115q4 0 6 -4l130 -153q2 -4 -4 -4h-117q-4 0 -5 4l-70 87l-71 -87q-1 -4 -5 -4h-111z" />
    <glyph glyph-name="caron" unicode="&#x2c7;" horiz-adv-x="600" 
d="M-56 752q-4 0 -6 4l-130 153q-2 4 4 4h114q4 0 5 -4l70 -87l71 87q1 4 5 4h114q6 0 4 -4l-130 -153q-2 -4 -6 -4h-115z" />
    <glyph glyph-name="breve" unicode="&#x2d8;" horiz-adv-x="600" 
d="M1 749q-48 0 -86.5 21t-61 55t-22.5 73q-2 4 4 4h90q0 -28 22.5 -50.5t56.5 -22.5q35 0 57.5 22.5t22.5 50.5h90q4 0 4 -4q0 -40 -23.5 -74t-63.5 -54.5t-90 -20.5z" />
    <glyph glyph-name="dotaccent" unicode="&#x2d9;" horiz-adv-x="600" 
d="M-58 766q-4 0 -4 4v113q0 4 4 4h113q4 0 4 -4v-113q0 -4 -4 -4h-113z" />
    <glyph glyph-name="ring" unicode="&#x2da;" horiz-adv-x="600" 
d="M3 740q-37 0 -65 28.5t-28 65.5q0 39 28 67t65 28q36 0 64 -28t28 -67q0 -40 -28.5 -67t-63.5 -27zM2 787q18 0 31 14t13 33q0 20 -13 34t-31 14q-19 0 -32 -14t-13 -34q0 -19 13 -33t32 -14z" />
    <glyph glyph-name="ogonek" unicode="&#x2db;" horiz-adv-x="600" 
d="M47 -295q-71 0 -115 22t-64.5 59t-20.5 80q0 62 46.5 105.5t120.5 72.5l37 -44q-61 -31 -80.5 -55t-19.5 -53q0 -31 24 -49.5t71 -18.5q3 0 4 -2.5t1 -10.5l1 -98q0 -8 -5 -8z" />
    <glyph glyph-name="tilde" unicode="&#x2dc;" horiz-adv-x="600" 
d="M93 735q-28 0 -51.5 10.5t-42.5 21t-36 10.5q-19 0 -29 -9.5t-10 -23.5q0 -4 -4 -4h-90q-4 0 -4 4q0 26 15.5 53.5t44 46.5t68.5 19q29 0 51 -9.5t39.5 -19.5t30.5 -10q14 0 24.5 9t10.5 28q0 4 4 4h90q4 0 4 -4q0 -41 -16.5 -69t-43 -42.5t-55.5 -14.5z" />
    <glyph glyph-name="hungarumlaut" unicode="&#x2dd;" horiz-adv-x="600" 
d="M48 749q-5 0 -4 4l68 173q1 4 5 4h114q6 0 4 -4l-81 -173q-2 -4 -6 -4h-100zM-168 749q-5 0 -4 4l65 173q1 4 5 4h114q6 0 4 -4l-78 -173q-2 -4 -6 -4h-100z" />
    <glyph glyph-name="gravecomb" unicode="&#x300;" 
d="M-45 749q-4 0 -6 4l-93 173q-2 4 4 4h114q4 0 5 -4l80 -173q1 -4 -4 -4h-100z" />
    <glyph glyph-name="acutecomb" unicode="&#x301;" 
d="M-58 749q-5 0 -4 4l80 173q1 4 5 4h114q6 0 4 -4l-93 -173q-2 -4 -6 -4h-100z" />
    <glyph glyph-name="uni0302" unicode="&#x302;" 
d="M-189 750q-6 0 -4 4l130 153q2 4 6 4h115q4 0 6 -4l130 -153q2 -4 -4 -4h-117q-4 0 -5 4l-70 87l-71 -87q-1 -4 -5 -4h-111z" />
    <glyph glyph-name="tildecomb" unicode="&#x303;" 
d="M93 754q-28 0 -51.5 10.5t-42.5 21t-36 10.5q-19 0 -29 -9.5t-10 -23.5q0 -4 -4 -4h-90q-4 0 -4 4q0 26 15.5 53.5t44 46.5t68.5 19q29 0 51 -9.5t39.5 -19.5t30.5 -10q14 0 24.5 9t10.5 28q0 4 4 4h90q4 0 4 -4q0 -41 -16.5 -69t-43 -42.5t-55.5 -14.5z" />
    <glyph glyph-name="uni0304" unicode="&#x304;" 
d="M-150 771q-4 0 -4 4v81q0 4 4 4h299q4 0 4 -4v-81q0 -4 -4 -4h-299z" />
    <glyph glyph-name="uni0306" unicode="&#x306;" 
d="M1 749q-48 0 -86.5 21t-61 55t-22.5 73q-2 4 4 4h90q0 -28 22.5 -50.5t56.5 -22.5q35 0 57.5 22.5t22.5 50.5h90q4 0 4 -4q0 -40 -23.5 -74t-63.5 -54.5t-90 -20.5z" />
    <glyph glyph-name="uni0307" unicode="&#x307;" 
d="M-58 766q-4 0 -4 4v113q0 4 4 4h113q4 0 4 -4v-113q0 -4 -4 -4h-113z" />
    <glyph glyph-name="uni0308" unicode="&#x308;" 
d="M49 766q-4 0 -4 4v113q0 4 4 4h113q4 0 4 -4v-113q0 -4 -4 -4h-113zM-159 766q-4 0 -4 4v113q0 4 4 4h113q4 0 4 -4v-113q0 -4 -4 -4h-113z" />
    <glyph glyph-name="uni030A" unicode="&#x30a;" 
d="M3 740q-37 0 -65 28.5t-28 65.5q0 39 28 67t65 28q36 0 64 -28t28 -67q0 -40 -28.5 -67t-63.5 -27zM2 787q18 0 31 14t13 33q0 20 -13 34t-31 14q-19 0 -32 -14t-13 -34q0 -19 13 -33t32 -14z" />
    <glyph glyph-name="uni030B" unicode="&#x30b;" 
d="M48 749q-5 0 -4 4l68 173q1 4 5 4h114q6 0 4 -4l-81 -173q-2 -4 -6 -4h-100zM-168 749q-5 0 -4 4l65 173q1 4 5 4h114q6 0 4 -4l-78 -173q-2 -4 -6 -4h-100z" />
    <glyph glyph-name="uni030C" unicode="&#x30c;" 
d="M-56 752q-4 0 -6 4l-130 153q-2 4 4 4h114q4 0 5 -4l70 -87l71 87q1 4 5 4h114q6 0 4 -4l-130 -153q-2 -4 -6 -4h-115z" />
    <glyph glyph-name="uni0312" unicode="&#x312;" 
d="M-57 760q-4 0 -4 4v116q0 36 17 64.5t44.5 45t59.5 16.5v-62q-25 0 -42.5 -19t-17.5 -45h56q4 0 4 -4v-112q0 -4 -4 -4h-113z" />
    <glyph glyph-name="uni0326" unicode="&#x326;" 
d="M-59 -296v62q25 0 42.5 19t17.5 45h-56q-4 0 -4 4v112q0 4 4 4h113q4 0 4 -4v-116q0 -35 -17 -64t-44.5 -45.5t-59.5 -16.5z" />
    <glyph glyph-name="uni0327" unicode="&#x327;" 
d="M-106 -99q-6 0 -4 4l67 110q2 4 6 4h83q5 0 4 -4l-32 -57q52 -8 83 -38t31 -72q0 -40 -21.5 -73t-57.5 -52t-82 -19q-27 0 -54.5 4.5t-41.5 12.5q-2 2 -2 3l-3 88q0 6 6 4q30 -10 53.5 -13.5t39.5 -3.5q32 0 49 12t17 32q0 26 -31 42t-99 16h-11z" />
    <glyph glyph-name="uni0328" unicode="&#x328;" 
d="M47 -295q-71 0 -115 22t-64.5 59t-20.5 80q0 62 46.5 105.5t120.5 72.5l37 -44q-61 -31 -80.5 -55t-19.5 -53q0 -31 24 -49.5t71 -18.5q3 0 4 -2.5t1 -10.5l1 -98q0 -8 -5 -8z" />
    <glyph glyph-name="uni0394" unicode="&#x394;" horiz-adv-x="600" 
d="M56 0q-7 0 -7 4v86q0 9 3 15l186 379q3 6 7 6h92q8 0 9 -6l188 -379q3 -7 3 -16v-85q0 -1 -2 -2.5l-2 -1.5h-477zM152 95h278l-140 280z" />
    <glyph glyph-name="pi" unicode="&#x3c0;" horiz-adv-x="552" 
d="M120 0q-4 0 -4 4v343h-67q-6 0 -6 5v79q0 6 6 6h424q5 0 5 -6v-79q0 -5 -5 -5h-69v-191q0 -78 64 -81q6 0 6 -6v-65q0 -4 -4 -4q-78 0 -113.5 41.5t-35.5 114.5v191h-122v-343q0 -4 -4 -4h-75z" />
    <glyph glyph-name="Wgrave" unicode="&#x1e80;" horiz-adv-x="629" 
d="M132 0q-4 0 -5 5l-118 687q-1 4 3 4h112q4 0 5 -4l64 -452l66 452q1 4 6 4h90q4 0 5 -4l65 -452l65 452q1 4 5 4h111q5 0 4 -4l-119 -687q-1 -2 -3 -3.5l-2 -1.5h-121q-3 0 -5 5l-51 359l-51 -359q-1 -5 -5 -5h-121zM264 747q-4 0 -6 4l-93 173q-2 4 4 4h114q4 0 5 -4
l80 -173q1 -4 -4 -4h-100z" />
    <glyph glyph-name="wgrave" unicode="&#x1e81;" horiz-adv-x="629" 
d="M132 0q-4 0 -5 5l-118 687q-1 4 3 4h112q4 0 5 -4l64 -452l66 452q1 4 6 4h90q4 0 5 -4l65 -452l65 452q1 4 5 4h111q5 0 4 -4l-119 -687q-1 -2 -3 -3.5l-2 -1.5h-121q-3 0 -5 5l-51 359l-51 -359q-1 -5 -5 -5h-121zM264 747q-4 0 -6 4l-93 173q-2 4 4 4h114q4 0 5 -4
l80 -173q1 -4 -4 -4h-100z" />
    <glyph glyph-name="Wacute" unicode="&#x1e82;" horiz-adv-x="629" 
d="M132 0q-4 0 -5 5l-118 687q-1 4 3 4h112q4 0 5 -4l64 -452l66 452q1 4 6 4h90q4 0 5 -4l65 -452l65 452q1 4 5 4h111q5 0 4 -4l-119 -687q-1 -2 -3 -3.5l-2 -1.5h-121q-3 0 -5 5l-51 359l-51 -359q-1 -5 -5 -5h-121zM250 747q-5 0 -4 4l80 173q1 4 5 4h114q6 0 4 -4
l-93 -173q-2 -4 -6 -4h-100z" />
    <glyph glyph-name="wacute" unicode="&#x1e83;" horiz-adv-x="629" 
d="M132 0q-4 0 -5 5l-118 687q-1 4 3 4h112q4 0 5 -4l64 -452l66 452q1 4 6 4h90q4 0 5 -4l65 -452l65 452q1 4 5 4h111q5 0 4 -4l-119 -687q-1 -2 -3 -3.5l-2 -1.5h-121q-3 0 -5 5l-51 359l-51 -359q-1 -5 -5 -5h-121zM250 747q-5 0 -4 4l80 173q1 4 5 4h114q6 0 4 -4
l-93 -173q-2 -4 -6 -4h-100z" />
    <glyph glyph-name="Wdieresis" unicode="&#x1e84;" horiz-adv-x="629" 
d="M132 0q-4 0 -5 5l-118 687q-1 4 3 4h112q4 0 5 -4l64 -452l66 452q1 4 6 4h90q4 0 5 -4l65 -452l65 452q1 4 5 4h111q5 0 4 -4l-119 -687q-1 -2 -3 -3.5l-2 -1.5h-121q-3 0 -5 5l-51 359l-51 -359q-1 -5 -5 -5h-121zM358 764q-4 0 -4 4v113q0 4 4 4h113q4 0 4 -4v-113
q0 -4 -4 -4h-113zM150 764q-4 0 -4 4v113q0 4 4 4h113q4 0 4 -4v-113q0 -4 -4 -4h-113z" />
    <glyph glyph-name="wdieresis" unicode="&#x1e85;" horiz-adv-x="629" 
d="M132 0q-4 0 -5 5l-118 687q-1 4 3 4h112q4 0 5 -4l64 -452l66 452q1 4 6 4h90q4 0 5 -4l65 -452l65 452q1 4 5 4h111q5 0 4 -4l-119 -687q-1 -2 -3 -3.5l-2 -1.5h-121q-3 0 -5 5l-51 359l-51 -359q-1 -5 -5 -5h-121zM358 764q-4 0 -4 4v113q0 4 4 4h113q4 0 4 -4v-113
q0 -4 -4 -4h-113zM150 764q-4 0 -4 4v113q0 4 4 4h113q4 0 4 -4v-113q0 -4 -4 -4h-113z" />
    <glyph glyph-name="Ygrave" unicode="&#x1ef2;" horiz-adv-x="401" 
d="M133 0q-3 0 -3 4l1 284l-134 404q-1 4 3 4h111q5 0 6 -4l74 -269l75 269q1 4 5 4h112q4 0 3 -4l-135 -400l1 -288q0 -4 -4 -4h-115zM144 747q-4 0 -6 4l-93 173q-2 4 4 4h114q4 0 5 -4l80 -173q1 -4 -4 -4h-100z" />
    <glyph glyph-name="ygrave" unicode="&#x1ef3;" horiz-adv-x="401" 
d="M133 0q-3 0 -3 4l1 284l-134 404q-1 4 3 4h111q5 0 6 -4l74 -269l75 269q1 4 5 4h112q4 0 3 -4l-135 -400l1 -288q0 -4 -4 -4h-115zM144 747q-4 0 -6 4l-93 173q-2 4 4 4h114q4 0 5 -4l80 -173q1 -4 -4 -4h-100z" />
    <glyph glyph-name="endash" unicode="&#x2013;" horiz-adv-x="570" 
d="M55 289q-12 0 -12 4v109q0 4 12 4h446q12 0 12 -4v-109q0 -4 -12 -4h-446z" />
    <glyph glyph-name="emdash" unicode="&#x2014;" horiz-adv-x="900" 
d="M62 289q-19 0 -19 4v109q0 4 19 4h762q19 0 19 -4v-109q0 -4 -19 -4h-762z" />
    <glyph glyph-name="quoteleft" unicode="&#x2018;" horiz-adv-x="203" 
d="M44 461q-4 0 -4 4v116q0 36 17 64.5t44.5 45t59.5 16.5v-62q-25 0 -42.5 -19t-17.5 -45h56q4 0 4 -4v-112q0 -4 -4 -4h-113z" />
    <glyph glyph-name="quoteright" unicode="&#x2019;" horiz-adv-x="203" 
d="M40 461v62q25 0 42.5 19t17.5 45h-56q-4 0 -4 4v112q0 4 4 4h113q4 0 4 -4v-116q0 -35 -17 -64t-44.5 -45.5t-59.5 -16.5z" />
    <glyph glyph-name="quotesinglbase" unicode="&#x201a;" horiz-adv-x="203" 
d="M40 -126v62q25 0 42.5 19t17.5 45h-56q-4 0 -4 4v112q0 4 4 4h113q4 0 4 -4v-116q0 -35 -17 -64t-44.5 -45.5t-59.5 -16.5z" />
    <glyph glyph-name="quotedblleft" unicode="&#x201c;" horiz-adv-x="393" 
d="M230 461q-4 0 -4 4v116q0 36 17 64.5t44.5 45t59.5 16.5v-62q-25 0 -42.5 -19t-17.5 -45h56q4 0 4 -4v-112q0 -4 -4 -4h-113zM44 461q-4 0 -4 4v116q0 36 17 64.5t44.5 45t59.5 16.5v-62q-25 0 -42.5 -19t-17.5 -45h56q4 0 4 -4v-112q0 -4 -4 -4h-113z" />
    <glyph glyph-name="quotedblright" unicode="&#x201d;" horiz-adv-x="393" 
d="M230 461v62q25 0 42.5 19t17.5 45h-56q-4 0 -4 4v112q0 4 4 4h113q4 0 4 -4v-116q0 -35 -17 -64t-44.5 -45.5t-59.5 -16.5zM44 461v62q25 0 42.5 19t17.5 45h-56q-4 0 -4 4v112q0 4 4 4h113q4 0 4 -4v-116q0 -35 -17 -64t-44.5 -45.5t-59.5 -16.5z" />
    <glyph glyph-name="quotedblbase" unicode="&#x201e;" horiz-adv-x="393" 
d="M230 -125v62q25 0 42.5 19t17.5 45h-56q-4 0 -4 4v112q0 4 4 4h113q4 0 4 -4v-116q0 -35 -17 -64t-44.5 -45.5t-59.5 -16.5zM44 -125v62q25 0 42.5 19t17.5 45h-56q-4 0 -4 4v112q0 4 4 4h113q4 0 4 -4v-116q0 -35 -17 -64t-44.5 -45.5t-59.5 -16.5z" />
    <glyph glyph-name="dagger" unicode="&#x2020;" horiz-adv-x="423" 
d="M165 29q-5 0 -5 5v375h-122q-6 0 -6 5v79q0 1 1.5 3.5t4.5 2.5h122v146q0 2 5 2h84q4 0 4 -2v-146h129q5 0 5 -6v-79q0 -2 -2 -3.5t-3 -1.5h-129v-375q0 -5 -4 -5h-84z" />
    <glyph glyph-name="daggerdbl" unicode="&#x2021;" horiz-adv-x="484" 
d="M195 29q-5 0 -5 5v230h-122q-6 0 -6 5v79q0 1 1.5 3.5t4.5 2.5h122v89h-122q-6 0 -6 5v79q0 1 1.5 3.5t4.5 2.5h122v112q0 2 5 2h84q4 0 4 -2v-112h129q5 0 5 -6v-79q0 -2 -2 -3.5t-3 -1.5h-129v-89h129q5 0 5 -6v-79q0 -2 -2 -3.5t-3 -1.5h-129v-230q0 -5 -4 -5h-84z
" />
    <glyph glyph-name="bullet" unicode="&#x2022;" horiz-adv-x="213" 
d="M98 288q-31 0 -53.5 24t-22.5 55q0 33 22.5 57t53.5 24t53 -24t22 -57t-22.5 -56t-52.5 -23z" />
    <glyph glyph-name="ellipsis" unicode="&#x2026;" horiz-adv-x="603" 
d="M44 0q-4 0 -4 4v113q0 4 4 4h113q4 0 4 -4v-113q0 -4 -4 -4h-113zM242 0q-4 0 -4 4v113q0 4 4 4h113q4 0 4 -4v-113q0 -4 -4 -4h-113zM444 0q-4 0 -4 4v113q0 4 4 4h113q4 0 4 -4v-113q0 -4 -4 -4h-113z" />
    <glyph glyph-name="perthousand" unicode="&#x2030;" horiz-adv-x="1017" 
d="M117 -10q-3 0 -4 2.5t0 4.5l379 708q1 2 3 2h83q3 0 4.5 -2.5t-0.5 -4.5l-381 -708q-1 -2 -3 -2h-81zM148 290q-29 0 -57 15.5t-46.5 42t-18.5 59.5v184q0 31 17.5 57.5t45.5 42.5t59 16q34 0 61.5 -15.5t44 -41.5t16.5 -59v-184q0 -33 -16.5 -59.5t-44 -42t-61.5 -15.5z
M195 498v93q0 19 -12.5 32.5t-34.5 13.5q-24 0 -36 -14t-12 -32v-12zM148 360q23 0 35 15.5t12 31.5v8l-95 81v-89q0 -21 14.5 -34t33.5 -13zM562 0q-29 0 -57.5 15.5t-47 42t-18.5 59.5v184q0 31 18.5 57.5t46.5 42.5t58 16q34 0 61.5 -15.5t44 -41.5t16.5 -59v-184
q0 -33 -16.5 -59.5t-44 -42t-61.5 -15.5zM864 0q-29 0 -57.5 15.5t-47 42t-18.5 59.5v184q0 31 18.5 57.5t46.5 42.5t58 16q34 0 61.5 -15.5t44 -41.5t16.5 -59v-184q0 -33 -16.5 -59.5t-44 -42t-61.5 -15.5zM609 208v93q0 19 -12.5 32.5t-34.5 13.5q-24 0 -36 -14t-12 -32
v-12zM911 208v93q0 19 -12.5 32.5t-34.5 13.5q-24 0 -36 -14t-12 -32v-12zM562 70q23 0 35 15.5t12 31.5v8l-95 81v-89q0 -21 14.5 -34t33.5 -13zM864 70q23 0 35 15.5t12 31.5v8l-95 81v-89q0 -21 14.5 -34t33.5 -13z" />
    <glyph glyph-name="guilsinglleft" unicode="&#x2039;" horiz-adv-x="364" 
d="M228 104l-207 216q-6 5 -7 16t7 19l212 217q4 4 7 -1l66 -75q3 -5 0 -8l-161 -149l159 -155q4 -3 -1 -8l-68 -71q-4 -4 -7 -1z" />
    <glyph glyph-name="guilsinglright" unicode="&#x203a;" horiz-adv-x="357" 
d="M113 104q-4 -4 -7 1l-66 75q-3 5 0 8l161 149l-159 155q-4 3 1 8l68 71q4 4 7 1l207 -216q6 -5 7 -16t-7 -19z" />
    <glyph glyph-name="fraction" unicode="&#x2044;" horiz-adv-x="626" 
d="M69 -10q-3 0 -4 2.5t0 4.5l379 708q0 2 3 2h83q3 0 4.5 -2.5t-0.5 -4.5l-381 -708q0 -2 -3 -2h-81z" />
    <glyph glyph-name="uni2074" unicode="&#x2074;" horiz-adv-x="311" 
d="M159 446q-3 0 -3 3v63h-139q-2 0 -2 2v66l140 259q1 2 4 2h76q2 0 2 -2v-257h45q4 0 4 -2v-66q0 -2 -4 -2h-45v-63q0 -3 -2 -3h-76zM89 582h67v127z" />
    <glyph glyph-name="Euro" unicode="&#x20ac;" horiz-adv-x="468" 
d="M285 -7q-69 0 -119.5 26.5t-78 70.5t-27.5 98v18h-40q-4 0 -4 4v92q0 5 5 5h39l1 66h-42q-4 0 -4 5v92q0 4 5 4h41v26q0 47 27 92t77 74.5t118 29.5q45 0 80.5 -4.5t62.5 -11.5q3 -1 3 -7v-96q0 -5 -5 -3q-25 6 -61 11.5t-80 5.5q-53 0 -82 -28.5t-29 -62.5v-26h144
q4 0 4 -4v-92q0 -5 -4 -5h-144v-66h145q4 0 4 -5v-92q0 -4 -4 -4h-145v-18q0 -33 29.5 -61.5t84.5 -28.5q43 0 76 7.5t70 19.5q5 2 5 -3v-94q0 -2 -3 -4q-62 -31 -149 -31z" />
    <glyph glyph-name="trademark" unicode="&#x2122;" horiz-adv-x="677" 
d="M321 276q-2 0 -2 3l2 413q0 4 3 4h86q2 0 6 -4l63 -78l66 78q2 4 7 4h88q3 0 3 -4v-413q0 -3 -2 -3h-80q-5 0 -5 3v307l-77 -91l-72 91l-1 -307q0 -3 -2 -3h-83zM104 276q-2 0 -2 3v343h-92q-5 0 -5 3v67q0 4 5 4h270q5 0 5 -4v-67q0 -1 -2 -2l-2 -1h-92v-343q0 -3 -5 -3
h-80z" />
    <glyph glyph-name="product" unicode="&#x220f;" horiz-adv-x="544" 
d="M104 -51q-4 0 -4 4v654h-52q-6 0 -6 5v79q0 6 6 6h424q5 0 5 -6v-79q0 -5 -5 -5h-54v-654q0 -4 -4 -4h-80q-4 0 -4 4v654h-143v-654q0 -4 -4 -4h-79z" />
    <glyph glyph-name="minus" unicode="&#x2212;" horiz-adv-x="427" 
d="M29 312q-6 0 -6 5v79q0 6 6 6h369q5 0 5 -6v-79q0 -5 -5 -5h-369z" />
    <glyph glyph-name="uni2215" unicode="&#x2215;" horiz-adv-x="626" 
d="M69 -10q-3 0 -4 2.5t0 4.5l379 708q0 2 3 2h83q3 0 4.5 -2.5t-0.5 -4.5l-381 -708q0 -2 -3 -2h-81z" />
    <glyph glyph-name="radical" unicode="&#x221a;" horiz-adv-x="690" 
d="M210 -5l-209 233l67 63l117 -124l223 591l3 -1h251q5 0 5 -6v-89q0 -5 -5 -5h-197l-250 -660q-1 -4 -5 -2z" />
    <glyph glyph-name="infinity" unicode="&#x221e;" horiz-adv-x="687" 
d="M176 149q-148 0 -148 180q0 83 40.5 133.5t107.5 50.5q48 0 84.5 -25.5t80.5 -92.5q37 45 64.5 71t50.5 36.5t47 10.5q148 0 148 -180q0 -82 -40.5 -133t-107.5 -51q-48 0 -84.5 25.5t-80.5 91.5q-37 -45 -64 -70.5t-50.5 -36t-47.5 -10.5zM176 231q15 0 28 8t34 30.5
t58 66.5q-29 40 -48 60.5t-35 28t-36 7.5q-28 0 -46 -28.5t-18 -73.5q0 -46 16.5 -72.5t46.5 -26.5zM502 230q29 0 46.5 28.5t17.5 73.5q0 47 -16.5 73t-46.5 26q-15 0 -28 -8t-33.5 -30.5t-57.5 -67.5q28 -39 47 -59.5t35 -28t36 -7.5z" />
    <glyph glyph-name="approxequal" unicode="&#x2248;" horiz-adv-x="501" 
d="M343 368q-28 0 -59 12.5t-63 25t-64 12.5t-56 -8.5t-45 -22.5q-2 -1 -4 1t-1 4l21 78q1 3 5 6q47 31 94 31q32 0 63 -12t60 -24t54 -12q31 0 56 7t55 29q3 2 5 -0.5t1 -5.5l-28 -90q-1 -3 -6 -5q-19 -10 -37.5 -18t-50.5 -8zM323 207q-28 0 -59 12.5t-63 25t-64 12.5
t-56 -8.5t-45 -22.5q-2 -1 -4 1t-1 4l21 78q1 3 5 6q47 31 94 31q32 0 63 -12t60 -24t54 -12q31 0 56 7t55 29q3 2 5 -0.5t1 -5.5l-28 -90q-1 -3 -6 -5q-19 -10 -37.5 -18t-50.5 -8z" />
    <glyph glyph-name="notequal" unicode="&#x2260;" horiz-adv-x="443" 
d="M180 126l-73 27q-1 0 -2.5 1.5t-0.5 5.5l24 66h-98q-6 0 -6 5v79q0 6 6 6h130l28 80h-159q-6 0 -6 5v79q0 6 6 6h192l38 107q0 1 4 0l72 -27q4 -1 4 -3l-27 -77h101q5 0 5 -6v-79q0 -5 -5 -5h-133l-29 -80h163q5 0 5 -6v-79q0 -5 -5 -5h-195l-34 -96q-1 -4 -1.5 -4.5
t-3.5 0.5z" />
    <glyph glyph-name="lessequal" unicode="&#x2264;" horiz-adv-x="443" 
d="M327 150l-277 221q-8 8 -8 18t8 16l269 215q3 3 7 -1l50 -61q3 -6 1 -8l-200 -162l207 -168q3 -3 0 -8l-50 -61q-4 -4 -7 -1zM45 0q-6 0 -6 4v71q0 1 1.5 3t4.5 2h344q4 0 4 -5v-71q0 -1 -2 -2.5l-2 -1.5h-344z" />
    <glyph glyph-name="greaterequal" unicode="&#x2265;" horiz-adv-x="442" 
d="M113 150q-3 -3 -7 1l-50 61q-3 5 0 8l207 168l-200 162q-2 2 1 8l50 61q4 4 7 1l269 -215q8 -6 8 -16t-8 -18zM45 0q-6 0 -6 4v71q0 1 1.5 3t4.5 2h344q4 0 4 -5v-71q0 -1 -2 -2.5l-2 -1.5h-344z" />
    <glyph glyph-name="lozenge" unicode="&#x25ca;" horiz-adv-x="485" 
d="M224 49l-199 274q-4 6 0 11l199 274q5 7 13.5 7t12.5 -7l199 -274q4 -5 0 -11l-199 -274q-4 -7 -12.5 -7t-13.5 7zM237 169l114 160l-116 159l-112 -159z" />
    <glyph glyph-name="A.alt1" horiz-adv-x="530" 
d="M-18 0q-4 0 -3 4l210 688q1 4 5 4h141q4 0 5 -4l200 -688q1 -4 -4 -4h-114q-5 0 -6 4l-23 74h-267l-24 -74q-1 -4 -6 -4h-114zM156 185h207l-98 359l-3 7l-3 -7z" />
    <glyph glyph-name="A.alt2" horiz-adv-x="423" 
d="M-7 0q-3 0 -3 4l128 688q0 4 5 4h161q5 0 6 -4l133 -688q0 -4 -3 -4h-116q-5 0 -6 4l-13 71h-162l-12 -71q-1 -4 -5 -4h-113zM143 189h121l-62 343z" />
    <glyph glyph-name="uniA732.ss01" horiz-adv-x="706" 
d="M568 0q-4 0 -5 5l-11 73h-126l-57 352l41 262q1 4 5 4h145q4 0 5 -4l118 -687q1 -5 -4 -5h-111zM6 5l124 687q1 4 5 4h145q4 0 5 -4l119 -687q1 -5 -4 -5h-111q-4 0 -5 5l-11 73h-136l-11 -73q-1 -5 -5 -5h-111q-4 0 -4 5zM157 185h96l-41 281l-6 37l-4 -37zM442 185h90
l-40 281l-6 37l-4 -37z" />
    <glyph glyph-name="uniA74E.ss01" horiz-adv-x="728" 
d="M225 -10q-54 0 -98.5 27.5t-71.5 73t-27 100.5l1 317q0 55 26.5 100t71.5 72t98 27q54 0 98.5 -27t71 -72t26.5 -100v-317q0 -33 22 -56.5t53 -23.5q30 0 52.5 24.5t22.5 55.5l-1 317q0 33 -21 56t-53 23q-36 0 -56 -25q-9 38 -23.5 62.5t-34.5 44.5q51 38 114 38
q54 0 98 -27t70.5 -72t26.5 -100l1 -317q0 -55 -26.5 -100.5t-71 -73t-98.5 -27.5t-98.5 27.5t-71.5 73t-27 100.5l1 159l-1 158q0 33 -21 56t-53 23q-31 0 -53 -22.5t-22 -56.5v-317q0 -33 22 -56.5t53 -23.5t52 24q13 -37 25.5 -59t35.5 -49q-24 -17 -52.5 -27t-60.5 -10z
" />
    <glyph glyph-name="i.loclTRK" horiz-adv-x="210" 
d="M45 0q-5 0 -5 5l1 687q0 4 4 4h112q4 0 4 -4l1 -687q0 -5 -4 -5h-113zM46 764q-4 0 -4 4v113q0 4 4 4h113q4 0 4 -4v-113q0 -4 -4 -4h-113z" />
    <glyph glyph-name="zero.zero" horiz-adv-x="497" 
d="M245 -10q-64 0 -113 27.5t-76.5 73t-27.5 100.5l1 317q0 55 27.5 100t76.5 72t112 27q64 0 112 -27t75.5 -72t27.5 -100l1 -317q0 -55 -27.5 -100.5t-76 -73t-112.5 -27.5zM307 347l33 -34l-1 195q0 35 -26 57t-68 22q-43 0 -69 -21.5t-26 -56.5l8 -8zM245 111
q39 0 64 18t30 49l-3 -3l-29 29l-149 155l-8 8v-176q0 -36 26 -58t69 -22z" />
    <glyph glyph-name="uni0308.case" 
d="M49 766q-4 0 -4 4v113q0 4 4 4h113q4 0 4 -4v-113q0 -4 -4 -4h-113zM-159 766q-4 0 -4 4v113q0 4 4 4h113q4 0 4 -4v-113q0 -4 -4 -4h-113z" />
    <glyph glyph-name="uni0307.case" 
d="M-58 766q-4 0 -4 4v113q0 4 4 4h113q4 0 4 -4v-113q0 -4 -4 -4h-113z" />
    <glyph glyph-name="gravecomb.case" 
d="M-45 749q-4 0 -6 4l-93 173q-2 4 4 4h114q4 0 5 -4l80 -173q1 -4 -4 -4h-100z" />
    <glyph glyph-name="acutecomb.case" 
d="M-58 749q-5 0 -4 4l80 173q1 4 5 4h114q6 0 4 -4l-93 -173q-2 -4 -6 -4h-100z" />
    <glyph glyph-name="uni030B.case" 
d="M48 749q-5 0 -4 4l68 173q1 4 5 4h114q6 0 4 -4l-81 -173q-2 -4 -6 -4h-100zM-168 749q-5 0 -4 4l65 173q1 4 5 4h114q6 0 4 -4l-78 -173q-2 -4 -6 -4h-100z" />
    <glyph glyph-name="uni0302.case" 
d="M-189 750q-6 0 -4 4l130 153q2 4 6 4h115q4 0 6 -4l130 -153q2 -4 -4 -4h-117q-4 0 -5 4l-70 87l-71 -87q-1 -4 -5 -4h-111z" />
    <glyph glyph-name="uni030C.case" 
d="M-56 752q-4 0 -6 4l-130 153q-2 4 4 4h114q4 0 5 -4l70 -87l71 87q1 4 5 4h114q6 0 4 -4l-130 -153q-2 -4 -6 -4h-115z" />
    <glyph glyph-name="uni0306.case" 
d="M1 749q-48 0 -86.5 21t-61 55t-22.5 73q-2 4 4 4h90q0 -28 22.5 -50.5t56.5 -22.5q35 0 57.5 22.5t22.5 50.5h90q4 0 4 -4q0 -40 -23.5 -74t-63.5 -54.5t-90 -20.5z" />
    <glyph glyph-name="uni030A.case" 
d="M3 740q-37 0 -65 28.5t-28 65.5q0 39 28 67t65 28q36 0 64 -28t28 -67q0 -40 -28.5 -67t-63.5 -27zM2 787q18 0 31 14t13 33q0 20 -13 34t-31 14q-19 0 -32 -14t-13 -34q0 -19 13 -33t32 -14z" />
    <glyph glyph-name="tildecomb.case" 
d="M93 754q-28 0 -51.5 10.5t-42.5 21t-36 10.5q-19 0 -29 -9.5t-10 -23.5q0 -4 -4 -4h-90q-4 0 -4 4q0 26 15.5 53.5t44 46.5t68.5 19q29 0 51 -9.5t39.5 -19.5t30.5 -10q14 0 24.5 9t10.5 28q0 4 4 4h90q4 0 4 -4q0 -41 -16.5 -69t-43 -42.5t-55.5 -14.5z" />
    <glyph glyph-name="uni0304.case" 
d="M-150 771q-4 0 -4 4v81q0 4 4 4h299q4 0 4 -4v-81q0 -4 -4 -4h-299z" />
    <glyph glyph-name="uni0326.case" 
d="M-59 -296v62q25 0 42.5 19t17.5 45h-56q-4 0 -4 4v112q0 4 4 4h113q4 0 4 -4v-116q0 -35 -17 -64t-44.5 -45.5t-59.5 -16.5z" />
    <glyph glyph-name="uni0327.case" 
d="M-106 -99q-6 0 -4 4l67 110q2 4 6 4h83q5 0 4 -4l-32 -57q52 -8 83 -38t31 -72q0 -40 -21.5 -73t-57.5 -52t-82 -19q-27 0 -54.5 4.5t-41.5 12.5q-2 2 -2 3l-3 88q0 6 6 4q30 -10 53.5 -13.5t39.5 -3.5q32 0 49 12t17 32q0 26 -31 42t-99 16h-11z" />
    <glyph glyph-name="uni0328.case" 
d="M47 -295q-71 0 -115 22t-64.5 59t-20.5 80q0 62 46.5 105.5t120.5 72.5l37 -44q-61 -31 -80.5 -55t-19.5 -53q0 -31 24 -49.5t71 -18.5q3 0 4 -2.5t1 -10.5l1 -98q0 -8 -5 -8z" />
    <glyph glyph-name="LY.ss01" horiz-adv-x="639" 
d="M44 0q-4 0 -4 5l1 686q0 5 5 5h111q5 0 5 -5l-1 -568h324q5 0 5 -5v-113q0 -5 -5 -5h-441zM371 155q-3 0 -3 4l1 118l-134 415q-1 4 3 4h111q5 0 6 -4l74 -280l75 280q1 4 5 4h112q4 0 3 -4l-135 -411l1 -122q0 -4 -4 -4h-115z" />
    <glyph glyph-name="LA.ss01" horiz-adv-x="687" 
d="M549 0q-4 0 -5 5l-25 150h-221l93 537q1 4 5 4h145q4 0 5 -4l118 -687q1 -5 -4 -5h-111zM44 0q-4 0 -4 5l1 686q0 5 5 5h111q5 0 5 -5l-1 -568h225q5 0 5 -5v-113q0 -5 -5 -5h-342zM434 262h69l-30 204l-6 37l-4 -37z" />
    <glyph glyph-name="ST.ss01" horiz-adv-x="745" 
d="M210 -10q-54 0 -98.5 27.5t-71 73t-26.5 100.5v46q0 5 5 5h112q4 0 4 -5v-46q0 -33 22 -56.5t53 -23.5t53 24t22 56q0 37 -48 64q-16 9 -50 28t-64 36q-55 32 -81.5 80.5t-26.5 109.5q0 51 25 93.5t69.5 68t100.5 25.5h521q5 0 5 -4v-112q0 -5 -4 -5h-131l1 -570
q0 -5 -4 -5h-113q-4 0 -4 5v570h-271q-36 0 -55.5 -18.5t-19.5 -47.5q0 -33 14 -55t51 -42l98 -53q51 -28 79.5 -68.5t28.5 -99.5q0 -57 -26.5 -102.5t-71 -72t-98.5 -26.5z" />
    <glyph glyph-name="CA.ss01" horiz-adv-x="723" 
d="M224 0q-55 0 -99.5 25t-70.5 68.5t-26 100.5l1 301q0 55 25.5 100.5t70 73t99.5 27.5h63q4 0 4 -5v-112q0 -3 -4 -3h-63q-36 0 -55 -24.5t-19 -56.5v-301q0 -35 20 -52.5t56 -17.5l236 -1q6 0 6 -6l-1 -111q0 -6 -6 -6h-237zM334 155l93 537q1 4 5 4h145q4 0 5 -4
l118 -687q1 -5 -4 -5h-111q-4 0 -5 5l-25 150h-221zM470 262h69l-30 204l-5 37l-5 -37z" />
    <glyph glyph-name="CH.ss01" horiz-adv-x="794" 
d="M224 0q-55 0 -99.5 25t-70.5 68.5t-26 100.5l1 301q0 55 25.5 100.5t70 73t99.5 27.5h63q4 0 4 -5v-112q0 -3 -4 -3h-63q-36 0 -55 -24.5t-19 -56.5v-301q0 -35 20 -52.5t56 -17.5l249 -1q6 0 6 -6l-1 -111q0 -6 -6 -6h-250zM635 0q-5 0 -5 5v294h-150v-140q0 -5 -4 -5
h-113q-4 0 -4 5l1 533q0 4 5 4h111q5 0 5 -4l-1 -272h150v272q0 4 4 4h111q5 0 5 -4l2 -687q0 -5 -5 -5h-112z" />
    <glyph glyph-name="ER.ss01" horiz-adv-x="898" 
d="M44 0q-4 0 -4 5l1 687q0 4 4 4h321q4 0 4 -5v-112q0 -4 -4 -4h-205v-156h296l1 273q0 4 4 4h202q54 0 99.5 -26.5t72.5 -71t27 -100.5q0 -37 -11 -66.5t-26 -50t-27 -30.5q54 -60 54 -141l1 -205q0 -5 -5 -5h-113q-4 0 -4 3v207q0 36 -25.5 62.5t-62.5 26.5h-483v-176
h204q4 0 4 -5v-114q0 -4 -4 -4h-321zM578 419h86q31 0 55 23t24 56q0 32 -23.5 55t-55.5 23h-86v-157zM461 0q-4 0 -4 5l1 256q0 6 6 6h109q6 0 6 -6l-1 -256q0 -5 -4 -5h-113z" />
    </font>
</defs>
</svg>
