<?xml version="1.0" encoding="utf-8"?>
<!-- Generator: Adobe Illustrator 22.1.0, SVG Export Plug-In . SVG Version: 6.00 Build 0)  -->
<svg version="1.1" id="Layer_1" xmlns="http://www.w3.org/2000/svg" xmlns:xlink="http://www.w3.org/1999/xlink" x="0px" y="0px"
	 viewBox="0 0 275 252.9" style="enable-background:new 0 0 275 252.9;" xml:space="preserve">
<style type="text/css">
	.st0{fill:#F07E23;}
</style>
<g>
	<path class="st0" d="M270,159.7c0-30.8-22.4-56.3-51.8-61.3v-1.7c29.4-4.9,43.6-35.2,43.6-66H145.8v122.6v1.3
		c0,47.4,24.8,67.2,62.1,67.2C247.1,221.9,270,194,270,159.7z"/>
	<path class="st0" d="M67.3,165.2H69c4.9,29.4,30.5,51.9,61.3,51.9V30.7c-30.8,0-56.4,22.5-61.3,51.9h-1.7
		C62.4,53.2,36.8,30.7,6,30.7v186.4C36.8,217.1,62.4,194.6,67.3,165.2z"/>
</g>
</svg>
