<?xml version="1.0" encoding="utf-8"?>
<!-- Generator: Adobe Illustrator 22.1.0, SVG Export Plug-In . SVG Version: 6.00 Build 0)  -->
<svg id="logo-horizontal" version="1.0" xmlns="http://www.w3.org/2000/svg" width="801px" height="267px" viewBox="0 0 8010 2670"
  preserveAspectRatio="xMidYMid meet">
  <g id="layer101" fill="#bca052" stroke="none">
    <path
      d="M1050 2659 c-426 -42 -810 -377 -965 -842 -61 -183 -70 -248 -70 -487 0 -184 4 -229 22 -312 96 -425 353 -766 695 -922 100 -45 162 -64 278 -81 120 -19 180 -19 302 0 473 71 847 459 970 1006 20 90 23 131 23 309 0 224 -9 288 -67 470 -177 557 -666 911 -1188 859z m226 -80 c658 -91 1096 -841 920 -1574 -136 -566 -587 -948 -1086 -922 -135 8 -240 35 -365 96 -550 269 -808 1007 -574 1643 186 506 645 821 1105 757z" />
    <path
      d="M2744 1832 c-97 -46 -100 -207 -5 -257 33 -17 117 -20 141 -5 9 5 19 5 27 -2 10 -8 13 -1 13 35 l0 45 -39 -39 c-46 -47 -73 -49 -112 -10 -26 26 -29 36 -29 89 0 50 4 66 25 90 35 42 68 48 119 22 l41 -22 -30 31 c-40 40 -95 48 -151 23z" />
    <path
      d="M5553 1831 c-50 -23 -73 -62 -73 -126 0 -59 20 -97 65 -125 29 -18 45 -21 93 -16 31 3 65 6 75 6 13 1 17 10 17 36 l0 35 -29 -30 c-79 -80 -158 -26 -149 100 5 71 34 109 83 109 39 0 55 -16 55 -55 0 -17 -5 -36 -12 -43 -9 -9 -2 -12 33 -12 l44 0 -3 66 c-4 63 -4 65 -24 52 -18 -12 -26 -12 -57 4 -44 23 -65 22 -118 -1z" />
    <path
      d="M6535 1831 c-77 -34 -104 -115 -66 -194 57 -118 242 -98 271 28 17 75 -29 155 -99 175 -49 13 -60 12 -106 -9z m113 -26 c25 -31 36 -92 27 -145 -13 -79 -70 -110 -121 -67 -27 24 -29 29 -29 105 0 71 3 83 24 106 32 34 73 34 99 1z" />
    <path
      d="M6976 1840 c-59 -18 -96 -73 -96 -142 0 -83 58 -138 145 -138 86 0 145 55 145 135 0 102 -98 175 -194 145z m79 -16 c28 -11 45 -60 45 -129 0 -60 -3 -69 -29 -96 -65 -64 -121 -17 -121 101 0 102 40 149 105 124z" />
    <path
      d="M7790 1806 l0 -48 40 36 c23 20 50 36 64 36 45 0 74 -53 43 -78 -7 -6 -38 -20 -70 -32 -64 -24 -83 -51 -72 -102 10 -45 43 -60 124 -56 l71 3 0 37 0 36 -34 -34 c-40 -40 -78 -44 -100 -12 -22 31 -4 55 58 79 64 24 86 45 86 83 0 69 -71 109 -151 85 -34 -11 -42 -10 -50 2 -6 9 -9 -2 -9 -35z" />
    <path
      d="M3078 1715 c3 -88 0 -130 -8 -140 -11 -13 -5 -15 41 -15 41 0 50 3 41 12 -7 7 -12 36 -12 65 l0 53 70 0 70 0 0 -53 c0 -29 -5 -58 -12 -65 -9 -9 0 -12 42 -12 42 0 51 3 42 12 -15 15 -16 221 -2 249 10 17 7 19 -32 19 l-44 0 4 -70 4 -70 -72 0 -72 0 4 70 4 70 -36 0 -35 0 3 -125z" />
    <path
      d="M3518 1813 c10 -16 40 -75 66 -133 26 -58 51 -109 56 -113 6 -7 140 251 140 269 0 2 -17 4 -38 4 -36 0 -39 -2 -48 -37 l-9 -38 -61 -3 c-56 -3 -61 -1 -72 22 -6 14 -9 33 -6 41 5 11 -1 15 -21 15 l-26 0 19 -27z m145 -69 c6 -7 -33 -94 -43 -94 -9 0 -40 67 -40 85 0 11 11 15 38 15 21 0 41 -3 45 -6z" />
    <path
      d="M3940 1821 c5 -11 10 -65 10 -121 0 -56 -5 -110 -10 -121 -10 -18 -7 -19 80 -19 103 0 146 15 156 55 7 30 -19 75 -48 83 -20 5 -20 6 -3 18 10 8 30 38 45 69 l27 55 -38 0 c-36 0 -38 -2 -54 -50 -17 -51 -45 -80 -78 -80 -17 0 -18 7 -15 65 l3 65 -43 0 c-39 0 -42 -2 -32 -19z m152 -138 c22 -19 24 -76 4 -92 -8 -7 -30 -15 -50 -18 l-36 -6 0 67 0 66 32 0 c17 0 40 -7 50 -17z" />
    <path
      d="M4348 1828 c17 -17 17 -239 0 -257 -11 -10 -3 -12 40 -9 l53 3 36 80 c19 44 39 84 43 88 4 5 22 -33 41 -82 l34 -91 43 0 c39 0 42 2 32 19 -5 11 -10 65 -10 121 0 56 5 110 10 121 10 17 7 19 -34 19 -45 0 -45 0 -36 -26 12 -30 14 -201 3 -207 -5 -3 -30 49 -58 115 l-50 120 -25 -53 c-14 -30 -38 -83 -55 -119 l-30 -65 -3 97 c-1 57 2 106 8 118 10 18 8 20 -22 20 -25 0 -29 -3 -20 -12z" />
    <path
      d="M4840 1821 c5 -11 10 -65 10 -121 0 -56 -5 -110 -10 -121 -10 -18 -7 -19 42 -19 32 0 48 4 40 9 -10 6 -12 39 -10 139 l3 132 -43 0 c-39 0 -42 -2 -32 -19z" />
    <path
      d="M5078 1828 c17 -17 17 -239 0 -256 -9 -9 -2 -12 34 -12 46 0 47 1 113 80 37 44 71 80 76 80 16 0 10 -114 -7 -138 -15 -22 -14 -22 22 -22 30 0 35 3 26 12 -8 8 -12 54 -12 140 0 96 -3 128 -12 128 -7 0 -53 -50 -103 -110 -49 -60 -93 -110 -97 -110 -12 0 -9 179 2 201 10 17 7 19 -22 19 -25 0 -29 -3 -20 -12z" />
    <path
      d="M6078 1721 c2 -75 -1 -127 -8 -140 -10 -21 -9 -21 80 -21 119 0 160 20 160 79 0 21 -40 61 -61 61 -9 0 -7 6 7 18 12 9 33 41 46 70 l25 52 -37 0 c-36 0 -38 -1 -59 -59 -15 -42 -27 -60 -44 -65 -48 -13 -50 -10 -45 59 l4 65 -36 0 -35 0 3 -119z m147 -35 c22 -16 25 -71 3 -92 -8 -8 -31 -17 -51 -21 l-37 -6 0 67 0 66 33 0 c18 0 42 -6 52 -14z" />
    <path
      d="M7316 1823 c5 -10 9 -65 9 -123 0 -58 -4 -113 -9 -122 -7 -16 -3 -18 38 -18 l47 0 39 86 c22 47 44 83 49 80 5 -3 18 -32 31 -63 12 -32 26 -68 31 -80 7 -18 16 -23 46 -23 l38 0 0 140 0 140 -43 0 c-39 0 -42 -2 -32 -19 11 -22 14 -211 3 -211 -5 0 -28 49 -52 108 -25 59 -47 111 -51 115 -4 4 -29 -44 -55 -108 -27 -63 -53 -115 -58 -115 -10 0 -5 188 7 213 7 14 3 17 -19 17 -22 0 -26 -3 -19 -17z" />
  </g>
  <g id="layer102" fill="#ffffff" stroke="none">
    <path
      d="M1045 1518 c-60 -387 -112 -713 -117 -725 -7 -22 -12 -23 -128 -23 -72 0 -120 4 -120 10 0 5 14 32 31 60 45 73 95 205 115 300 32 158 2 344 -81 515 -24 50 -62 110 -84 135 l-40 45 -36 -36 -37 -37 40 -53 c84 -111 131 -246 139 -399 8 -149 -39 -308 -134 -448 -39 -59 -43 -70 -43 -128 l0 -64 218 0 c217 0 219 0 241 24 20 22 28 67 84 490 34 256 64 466 67 466 3 0 34 -210 68 -466 55 -421 63 -469 83 -490 22 -24 25 -24 241 -24 l218 0 0 60 c0 54 -4 66 -45 126 -96 144 -140 294 -132 454 8 153 56 292 140 401 l34 45 -32 37 c-18 20 -37 37 -42 37 -17 0 -94 -112 -129 -186 -56 -121 -78 -222 -78 -364 -1 -154 22 -244 101 -398 29 -58 53 -107 53 -109 0 -2 -56 -3 -124 -3 l-124 0 -10 58 c-5 31 -56 357 -113 725 -57 367 -106 667 -109 667 -3 0 -55 -316 -115 -702z" />
    <path
      d="M6354 1361 c-73 -18 -134 -78 -162 -160 -16 -45 -14 -177 2 -224 36 -100 133 -164 232 -154 71 7 128 41 165 96 40 60 52 112 47 196 -7 109 -56 188 -143 233 -29 15 -105 22 -141 13z m123 -50 c29 -43 43 -114 43 -224 0 -156 -35 -238 -105 -253 -45 -9 -81 24 -101 93 -21 73 -22 252 0 325 31 106 111 136 163 59z" />
    <path
      d="M2701 1326 c18 -32 20 -49 17 -247 -2 -118 -7 -222 -12 -231 -7 -16 -1 -18 62 -18 l71 0 19 53 c11 28 39 105 62 169 23 65 45 116 49 114 3 -3 31 -79 61 -170 l55 -166 70 0 c54 0 66 3 57 12 -9 9 -12 77 -12 243 0 192 3 234 16 253 l15 22 -85 0 c-47 0 -86 -3 -86 -7 0 -5 7 -17 15 -27 12 -16 15 -60 15 -225 0 -113 -4 -201 -8 -195 -5 5 -42 106 -82 224 -40 118 -75 217 -77 219 -7 9 -16 -12 -93 -224 -44 -120 -82 -221 -85 -224 -4 -3 -5 87 -3 201 3 179 5 208 21 225 26 29 22 33 -33 33 l-49 0 20 -34z" />
    <path
      d="M3294 1341 c18 -20 82 -167 168 -384 27 -71 54 -125 58 -120 5 4 52 113 105 242 53 129 104 245 112 258 l15 23 -86 0 c-85 0 -86 0 -76 -21 9 -16 7 -34 -11 -85 l-23 -64 -86 0 -87 0 -19 56 c-18 52 -18 57 -2 85 l17 29 -51 0 c-49 0 -51 -1 -34 -19z m246 -173 c0 -18 -64 -178 -71 -178 -7 0 -69 156 -69 176 0 11 16 14 70 14 48 0 70 -4 70 -12z" />
    <path
      d="M3810 1351 c0 -6 5 -13 10 -16 6 -4 10 -95 10 -240 0 -145 -4 -236 -10 -240 -5 -3 -10 -11 -10 -16 0 -7 54 -10 158 -7 177 3 208 13 238 76 35 74 -5 157 -88 181 l-41 13 41 18 c45 20 63 48 82 128 7 29 23 66 37 83 l25 29 -70 0 -70 0 -16 -42 c-8 -24 -20 -68 -27 -98 -16 -70 -53 -110 -103 -110 l-36 0 0 95 c0 67 5 105 15 125 l16 30 -81 0 c-44 0 -80 -4 -80 -9z m259 -289 c35 -34 46 -87 29 -137 -17 -49 -53 -76 -112 -82 l-46 -6 0 127 0 126 51 0 c42 0 55 -5 78 -28z" />
    <path
      d="M4320 1351 c0 -6 5 -13 10 -16 6 -4 10 -95 10 -240 0 -145 -4 -236 -10 -240 -27 -16 -3 -25 71 -25 l80 0 -15 22 c-22 32 -23 439 -2 481 l15 27 -80 0 c-43 0 -79 -4 -79 -9z" />
    <path
      d="M4540 1353 c0 -3 8 -15 18 -26 15 -17 17 -46 20 -228 3 -170 1 -215 -12 -239 l-14 -30 72 0 73 0 111 168 112 167 0 -141 c0 -128 -2 -144 -21 -168 l-20 -26 52 0 52 0 -19 21 c-17 19 -19 42 -22 265 -2 192 -6 244 -16 244 -7 0 -82 -104 -167 -232 l-154 -231 -3 59 c-2 32 -2 127 0 210 3 133 5 155 22 173 l19 21 -51 0 c-29 0 -52 -3 -52 -7z" />
    <path
      d="M5013 1342 c20 -22 83 -165 161 -365 32 -82 62 -145 67 -140 4 4 52 114 105 243 53 129 103 242 110 251 8 8 14 19 14 22 0 4 -38 7 -85 7 l-85 0 12 -25 c9 -19 7 -35 -12 -85 l-22 -60 -88 0 -87 0 -19 56 c-18 52 -18 57 -2 85 l17 29 -51 0 c-49 0 -50 -1 -35 -18z m247 -174 c0 -18 -64 -178 -71 -178 -6 0 -69 161 -69 179 0 7 24 11 70 11 48 0 70 -4 70 -12z" />
    <path
      d="M5665 1336 c13 -20 15 -58 13 -247 -2 -123 -7 -232 -12 -241 -7 -16 -1 -18 68 -18 73 0 76 1 66 19 -5 11 -10 67 -10 125 l0 106 101 0 100 0 -3 -107 c-2 -60 -7 -116 -12 -125 -7 -16 -1 -18 68 -18 73 0 76 1 66 19 -6 12 -10 108 -10 243 0 186 3 227 16 246 l15 22 -86 0 -86 0 15 -22 c12 -17 16 -49 16 -130 l0 -108 -100 0 -100 0 0 108 c0 81 4 113 16 130 l15 22 -86 0 -85 0 15 -24z" />
    <path
      d="M6844 1338 c13 -19 16 -61 16 -262 l0 -239 -41 6 c-47 6 -71 24 -112 87 l-29 45 6 -40 c3 -22 6 -55 6 -72 l0 -33 224 0 223 0 7 46 c3 26 6 58 6 72 0 23 -3 21 -28 -19 -40 -61 -64 -80 -111 -86 l-41 -6 0 235 c0 190 3 238 15 254 8 10 15 22 15 27 0 4 -39 7 -86 7 l-85 0 15 -22z" />
    <path
      d="M7200 1352 c0 -4 6 -14 13 -20 17 -18 17 -448 -1 -479 l-12 -22 171 -3 c94 -2 172 -1 174 2 1 3 6 29 10 57 l7 52 -39 -38 c-40 -41 -92 -61 -155 -61 l-38 0 0 120 0 120 43 0 c52 0 88 -17 104 -50 11 -22 13 -17 13 48 l0 73 -22 -26 c-18 -20 -35 -27 -80 -32 l-58 -6 0 127 0 126 61 0 c76 0 120 -20 160 -74 17 -23 29 -32 26 -21 -3 11 -8 41 -12 68 l-6 47 -180 0 c-98 0 -179 -4 -179 -8z" />
    <path
      d="M7630 1351 c0 -6 5 -13 10 -16 6 -4 10 -95 10 -240 0 -145 -4 -236 -10 -240 -27 -16 -3 -25 71 -25 l80 0 -15 22 c-13 19 -16 61 -16 256 l0 234 69 -4 c76 -4 92 -13 143 -83 25 -33 29 -36 24 -15 -3 14 -8 46 -11 73 l-6 47 -175 0 c-102 0 -174 -4 -174 -9z" />
  </g>


</svg>